<svg xmlns="http://www.w3.org/2000/svg" version="1.1" xmlns:xlink="http://www.w3.org/1999/xlink" xmlns:svgjs="http://svgjs.com/svgjs" width="757.5" height="761.4"><defs id="SvgjsDefs1950"></defs><svg id="SvgjsSvg1951" style="overflow: visible;"><svg xmlns="http://www.w3.org/2000/svg" version="1.1" xmlns:xlink="http://www.w3.org/1999/xlink" xmlns:svgjs="http://svgjs.com/svgjs" width="557.5" height="761.4"><defs id="SvgjsDefs1894"></defs><g id="SvgjsG1895" transform="matrix(1,0,0,1,0,0)"><g id="SvgjsG1896" transform="matrix(1,0,0,1,0,0)"><text id="SvgjsText1897" font-family="Arial, Helvetica, sans-serif" font-size="16" font-weight="400" text-anchor="middle" family="Arial, Helvetica, sans-serif" size="16" weight="400" anchor="middle" transform="matrix(0,-1,1,0,0,352.2)" svgjs:data="{&quot;leading&quot;:&quot;1.3&quot;}"><tspan id="SvgjsTspan1898" dy="20.8" x="0" svgjs:data="{&quot;newLined&quot;:true}">Individuals</tspan></text></g><g id="SvgjsG1899" transform="matrix(1,0,0,1,20,0)" width="32" height="704.4"><text id="SvgjsText1900" font-family="Arial, Helvetica, sans-serif" font-size="16px" family="Arial, Helvetica, sans-serif" size="16px" transform="matrix(1,0,0,1,0,694.4000244140625)" svgjs:data="{&quot;leading&quot;:&quot;1.3&quot;}"><tspan id="SvgjsTspan1901" dy="20.8" x="0" svgjs:data="{&quot;newLined&quot;:true}">0</tspan></text><text id="SvgjsText1902" font-family="Arial, Helvetica, sans-serif" font-size="16px" family="Arial, Helvetica, sans-serif" size="16px" transform="matrix(1,0,0,1,0,575.9829711914062)" svgjs:data="{&quot;leading&quot;:&quot;1.3&quot;}"><tspan id="SvgjsTspan1903" dy="20.8" x="0" svgjs:data="{&quot;newLined&quot;:true}">5</tspan></text><text id="SvgjsText1904" font-family="Arial, Helvetica, sans-serif" font-size="16px" family="Arial, Helvetica, sans-serif" size="16px" transform="matrix(1,0,0,1,0,457.5669860839844)" svgjs:data="{&quot;leading&quot;:&quot;1.3&quot;}"><tspan id="SvgjsTspan1905" dy="20.8" x="0" svgjs:data="{&quot;newLined&quot;:true}">10</tspan></text><text id="SvgjsText1906" font-family="Arial, Helvetica, sans-serif" font-size="16px" family="Arial, Helvetica, sans-serif" size="16px" transform="matrix(1,0,0,1,0,339.1499938964844)" svgjs:data="{&quot;leading&quot;:&quot;1.3&quot;}"><tspan id="SvgjsTspan1907" dy="20.8" x="0" svgjs:data="{&quot;newLined&quot;:true}">15</tspan></text><text id="SvgjsText1908" font-family="Arial, Helvetica, sans-serif" font-size="16px" family="Arial, Helvetica, sans-serif" size="16px" transform="matrix(1,0,0,1,0,220.73300170898438)" svgjs:data="{&quot;leading&quot;:&quot;1.3&quot;}"><tspan id="SvgjsTspan1909" dy="20.8" x="0" svgjs:data="{&quot;newLined&quot;:true}">20</tspan></text><text id="SvgjsText1910" font-family="Arial, Helvetica, sans-serif" font-size="16px" family="Arial, Helvetica, sans-serif" size="16px" transform="matrix(1,0,0,1,0,102.31700134277344)" svgjs:data="{&quot;leading&quot;:&quot;1.3&quot;}"><tspan id="SvgjsTspan1911" dy="20.8" x="0" svgjs:data="{&quot;newLined&quot;:true}">25</tspan></text><path id="SvgjsPath1912" d="M31 0v704.4M31 703.4h-10M31 584.9824915824915h-10M31 466.56498316498323h-10M31 348.1474747474748h-10M31 229.72996632996643h-10M31 111.31245791245806h-10M31 692.5582491582492h-3.3333333333333335M31 680.7164983164982h-3.3333333333333335M31 668.8747474747474h-3.3333333333333335M31 657.0329966329966h-3.3333333333333335M31 645.1912457912458h-3.3333333333333335M31 633.3494949494949h-3.3333333333333335M31 621.5077441077441h-3.3333333333333335M31 609.6659932659933h-3.3333333333333335M31 597.8242424242425h-3.3333333333333335M31 574.1407407407407h-3.3333333333333335M31 562.2989898989899h-3.3333333333333335M31 550.4572390572391h-3.3333333333333335M31 538.6154882154882h-3.3333333333333335M31 526.7737373737374h-3.3333333333333335M31 514.9319865319866h-3.3333333333333335M31 503.0902356902357h-3.3333333333333335M31 491.24848484848485h-3.3333333333333335M31 479.40673400673404h-3.3333333333333335M31 455.72323232323237h-3.3333333333333335M31 443.8814814814815h-3.3333333333333335M31 432.0397306397307h-3.3333333333333335M31 420.1979797979798h-3.3333333333333335M31 408.356228956229h-3.3333333333333335M31 396.51447811447815h-3.3333333333333335M31 384.67272727272734h-3.3333333333333335M31 372.8309764309765h-3.3333333333333335M31 360.98922558922567h-3.3333333333333335M31 337.305723905724h-3.3333333333333335M31 325.4639730639731h-3.3333333333333335M31 313.62222222222226h-3.3333333333333335M31 301.78047138047145h-3.3333333333333335M31 289.9387205387206h-3.3333333333333335M31 278.0969696969698h-3.3333333333333335M31 266.2552188552189h-3.3333333333333335M31 254.4134680134681h-3.3333333333333335M31 242.57171717171724h-3.3333333333333335M31 218.88821548821556h-3.3333333333333335M31 207.04646464646476h-3.3333333333333335M31 195.2047138047139h-3.3333333333333335M31 183.36296296296302h-3.3333333333333335M31 171.52121212121222h-3.3333333333333335M31 159.6794612794614h-3.3333333333333335M31 147.8377104377106h-3.3333333333333335M31 135.99595959595968h-3.3333333333333335M31 124.15420875420887h-3.3333333333333335M31 100.47070707070714h-3.3333333333333335M31 88.62895622895633h-3.3333333333333335M31 76.78720538720552h-3.3333333333333335M31 64.94545454545471h-3.3333333333333335M31 53.103703703703786h-3.3333333333333335M31 41.26195286195298h-3.3333333333333335M31 29.42020202020217h-3.3333333333333335M31 17.57845117845136h-3.3333333333333335M31 5.736700336700437h-3.3333333333333335" stroke="#000000" fill="none"></path></g></g><g id="SvgjsG1913"><g id="SvgjsG1914" transform="matrix(1,0,0,1,52,0)"><text id="SvgjsText1915" font-family="Arial, Helvetica, sans-serif" font-size="16" font-weight="400" text-anchor="middle" family="Arial, Helvetica, sans-serif" size="16" weight="400" anchor="middle" transform="matrix(1,0,0,1,0,0)" svgjs:data="{&quot;leading&quot;:&quot;1.3&quot;}"><tspan id="SvgjsTspan1916" dy="20.8" x="0" svgjs:data="{&quot;newLined&quot;:true}"></tspan></text></g></g><g id="SvgjsG1917"><g id="SvgjsG1918" transform="matrix(1,0,0,1,52,704.4)" width="505.5" height="29"><text id="SvgjsText1919" font-family="Arial, Helvetica, sans-serif" font-size="16px" family="Arial, Helvetica, sans-serif" size="16px" transform="matrix(1,0,0,1,-4.5,10)" svgjs:data="{&quot;leading&quot;:&quot;1.3&quot;}"><tspan id="SvgjsTspan1920" dy="20.8" x="0" svgjs:data="{&quot;newLined&quot;:true}">0</tspan></text><text id="SvgjsText1921" font-family="Arial, Helvetica, sans-serif" font-size="16px" family="Arial, Helvetica, sans-serif" size="16px" transform="matrix(1,0,0,1,230,10)" svgjs:data="{&quot;leading&quot;:&quot;1.3&quot;}"><tspan id="SvgjsTspan1922" dy="20.8" x="0" svgjs:data="{&quot;newLined&quot;:true}">50000</tspan></text><path id="SvgjsPath1923" d="M0 0h505.5M0 0v10M252.50250250250252 0v10M25.250250250250254 0v3.3333333333333335M50.50050050050051 0v3.3333333333333335M75.75075075075075 0v3.3333333333333335M101.00100100100101 0v3.3333333333333335M126.25125125125126 0v3.3333333333333335M151.5015015015015 0v3.3333333333333335M176.75175175175175 0v3.3333333333333335M202.00200200200203 0v3.3333333333333335M227.25225225225228 0v3.3333333333333335M277.75275275275277 0v3.3333333333333335M303.003003003003 0v3.3333333333333335M328.25325325325326 0v3.3333333333333335M353.5035035035035 0v3.3333333333333335M378.75375375375376 0v3.3333333333333335M404.00400400400406 0v3.3333333333333335M429.2542542542543 0v3.3333333333333335M454.50450450450455 0v3.3333333333333335M479.7547547547548 0v3.3333333333333335" stroke="#000000" fill="none"></path></g><g id="SvgjsG1924" transform="matrix(1,0,0,1,52,733.4)"><text id="SvgjsText1925" font-family="Arial, Helvetica, sans-serif" font-size="16" font-weight="400" text-anchor="middle" family="Arial, Helvetica, sans-serif" size="16" weight="400" anchor="middle" transform="matrix(1,0,0,1,252.75,-9)" svgjs:data="{&quot;leading&quot;:&quot;1.3&quot;}"><tspan id="SvgjsTspan1926" dy="20.8" x="0" svgjs:data="{&quot;newLined&quot;:true}">Time (s)</tspan></text></g></g><g id="SvgjsG1927"></g><g id="SvgjsG1928" viewBox="0 0 505.5 704.4" transform="matrix(1,0,0,1,52,0)"><polyline id="SvgjsPolyline1929" points="0,0 0,703.4" stroke="LightGray" stroke-width="1" fill="none"></polyline><polyline id="SvgjsPolyline1930" points="252.50250250250252,0 252.50250250250252,703.4" stroke="LightGray" stroke-width="1" fill="none"></polyline><polyline id="SvgjsPolyline1931" points="0,703.4 504.5,703.4" stroke="LightGray" stroke-width="1" fill="none"></polyline><polyline id="SvgjsPolyline1932" points="0,584.9824915824915 504.5,584.9824915824915" stroke="LightGray" stroke-width="1" fill="none"></polyline><polyline id="SvgjsPolyline1933" points="0,466.56498316498323 504.5,466.56498316498323" stroke="LightGray" stroke-width="1" fill="none"></polyline><polyline id="SvgjsPolyline1934" points="0,348.1474747474748 504.5,348.1474747474748" stroke="LightGray" stroke-width="1" fill="none"></polyline><polyline id="SvgjsPolyline1935" points="0,229.72996632996643 504.5,229.72996632996643" stroke="LightGray" stroke-width="1" fill="none"></polyline><polyline id="SvgjsPolyline1936" points="0,111.31245791245806 504.5,111.31245791245806" stroke="LightGray" stroke-width="1" fill="none"></polyline><polyline id="SvgjsPolyline1937" points="0,704.4 0.506006006006006,600.0444444444445 1.012012012012012,581.070707070707 1.518018018018018,562.0969696969697 2.024024024024024,524.149494949495 2.53003003003003,500.43232323232326 3.036036036036036,476.71515151515155 3.542042042042042,426.90909090909093 4.048048048048048,396.0767676767677 4.554054054054054,377.1030303030303 5.06006006006006,358.12929292929294 5.566066066066067,336.78383838383843 6.072072072072072,317.81010101010105 6.578078078078078,296.4646464646465 7.084084084084084,277.49090909090916 7.59009009009009,263.26060606060616 8.096096096096096,258.51717171717183 8.602102102102101,246.65858585858592 9.108108108108109,241.9151515151516 9.614114114114114,234.80000000000007 10.12012012012012,232.42828282828293 10.626126126126126,222.9414141414142 11.132132132132133,215.8262626262627 11.638138138138139,206.33939393939403 12.144144144144144,201.59595959595958 12.65015015015015,189.7373737373738 13.662162162162163,180.25050505050513 14.168168168168169,175.50707070707074 14.674174174174174,168.39191919191921 15.18018018018018,166.02020202020208 15.686186186186186,161.2767676767678 16.19219219219219,158.90505050505055 16.6981981981982,156.53333333333342 17.204204204204203,151.78989898989903 17.71021021021021,149.4181818181819 18.216216216216218,144.6747474747475 18.72222222222222,142.30303030303037 19.22822822822823,137.5595959595961 20.24024024024024,135.18787878787884 20.746246246246248,130.44444444444457 21.25225225225225,123.32929292929305 22.264264264264266,120.95757575757591 23.276276276276278,120.95757575757591 23.78228228228228,118.58585858585866 24.794294294294296,118.58585858585866 25.806306306306308,113.8424242424245 26.81831831831832,111.47070707070725 27.83033033033033,109.09898989899 28.336336336336338,106.72727272727275 28.84234234234234,104.35555555555572 29.34834834834835,101.98383838383847 29.854354354354356,99.61212121212134 30.866366366366368,99.61212121212134 31.87837837837838,97.24040404040409 32.38438438438438,92.49696969696981 33.3963963963964,92.49696969696981 33.9024024024024,87.75353535353554 34.914414414414416,87.75353535353554 35.926426426426424,87.75353535353554 36.93843843843844,83.01010101010115 37.44444444444444,80.63838383838402 38.45645645645646,80.63838383838402 39.468468468468465,80.63838383838402 40.48048048048048,80.63838383838402 40.986486486486484,78.26666666666677 41.9984984984985,75.89494949494963 43.010510510510514,71.15151515151513 44.02252252252252,71.15151515151513 45.03453453453454,71.15151515151513 46.046546546546544,71.15151515151513 46.552552552552555,68.7797979797981 47.56456456456456,68.7797979797981 48.57657657657658,64.03636363636372 49.58858858858859,64.03636363636372 50.6006006006006,64.03636363636372 51.612612612612615,64.03636363636372 52.62462462462462,64.03636363636372 53.63663663663664,64.03636363636372 54.14264264264264,61.66464646464658 55.15465465465466,61.66464646464658 56.166666666666664,61.66464646464658 57.17867867867868,61.66464646464658 58.190690690690694,59.29292929292944 59.2027027027027,59.29292929292944 60.21471471471472,59.29292929292944 61.226726726726724,59.29292929292944 61.732732732732735,56.92121212121219 62.74474474474474,56.92121212121219 63.75675675675676,56.92121212121219 64.76876876876877,56.92121212121219 65.78078078078079,56.92121212121219 66.7927927927928,56.92121212121219 67.8048048048048,56.92121212121219 68.81681681681681,56.92121212121219 69.82882882882883,56.92121212121219 70.84084084084084,56.92121212121219 71.85285285285285,56.92121212121219 72.86486486486487,56.92121212121219 73.87687687687688,56.92121212121219 74.38288288288288,54.549494949495056 75.39489489489489,54.549494949495056 76.40690690690691,54.549494949495056 77.41891891891892,52.17777777777792 77.92492492492492,49.80606060606067 78.93693693693693,49.80606060606067 79.94894894894895,49.80606060606067 80.96096096096096,49.80606060606067 81.97297297297297,49.80606060606067 82.98498498498499,47.43434343434353 83.996996996997,47.43434343434353 85.009009009009,47.43434343434353 86.02102102102103,47.43434343434353 87.03303303303304,47.43434343434353 88.04504504504504,47.43434343434353 89.05705705705707,45.062626262626395 90.06906906906907,42.69090909090926 91.08108108108108,42.69090909090926 92.09309309309309,42.69090909090926 93.10510510510511,42.69090909090926 94.11711711711712,42.69090909090926 95.12912912912913,42.69090909090926 96.14114114114115,42.69090909090926 97.15315315315316,42.69090909090926 98.16516516516516,42.69090909090926 99.17717717717719,42.69090909090926 99.68318318318319,40.31919191919212 100.6951951951952,40.31919191919212 101.7072072072072,40.31919191919212 102.71921921921923,40.31919191919212 103.73123123123123,40.31919191919212 104.23723723723724,37.94747474747487 105.24924924924925,35.575757575757734 106.26126126126127,35.575757575757734 107.27327327327328,35.575757575757734 108.28528528528528,35.575757575757734 109.2972972972973,35.575757575757734 110.30930930930931,35.575757575757734 111.32132132132132,35.575757575757734 112.33333333333333,35.575757575757734 113.34534534534535,35.575757575757734 114.35735735735736,35.575757575757734 115.36936936936937,35.575757575757734 116.38138138138139,35.575757575757734 117.3933933933934,35.575757575757734 118.4054054054054,35.575757575757734 119.41741741741743,35.575757575757734 119.92342342342343,33.2040404040406 120.93543543543544,33.2040404040406 121.94744744744744,33.2040404040406 122.95945945945947,33.2040404040406 123.97147147147147,33.2040404040406 124.98348348348348,33.2040404040406 125.9954954954955,33.2040404040406 127.00750750750751,33.2040404040406 128.01951951951952,33.2040404040406 129.03153153153153,33.2040404040406 130.04354354354354,33.2040404040406 131.05555555555557,33.2040404040406 132.06756756756758,33.2040404040406 132.57357357357358,30.832323232323347 133.5855855855856,30.832323232323347 134.5975975975976,30.832323232323347 135.6096096096096,30.832323232323347 136.6216216216216,30.832323232323347 137.63363363363362,30.832323232323347 138.64564564564566,30.832323232323347 139.65765765765767,30.832323232323347 140.66966966966967,30.832323232323347 141.68168168168168,30.832323232323347 142.6936936936937,30.832323232323347 143.7057057057057,30.832323232323347 144.71771771771773,30.832323232323347 145.72972972972974,30.832323232323347 146.74174174174175,30.832323232323347 147.75375375375376,30.832323232323347 148.76576576576576,30.832323232323347 149.77777777777777,30.832323232323347 150.78978978978978,28.46060606060621 151.80180180180182,28.46060606060621 152.81381381381382,28.46060606060621 153.82582582582583,28.46060606060621 154.83783783783784,28.46060606060621 155.34384384384384,26.08888888888896 156.35585585585585,26.08888888888896 157.36786786786786,26.08888888888896 158.3798798798799,26.08888888888896 159.3918918918919,26.08888888888896 160.4039039039039,26.08888888888896 161.41591591591592,26.08888888888896 162.42792792792793,26.08888888888896 163.43993993993993,26.08888888888896 164.45195195195194,26.08888888888896 165.46396396396398,26.08888888888896 166.47597597597598,26.08888888888896 167.487987987988,26.08888888888896 168.5,26.08888888888896 169.512012012012,26.08888888888896 170.52402402402402,26.08888888888896 171.53603603603605,26.08888888888896 172.54804804804806,26.08888888888896 173.56006006006007,26.08888888888896 174.57207207207207,26.08888888888896 175.58408408408408,26.08888888888896 176.5960960960961,26.08888888888896 177.6081081081081,26.08888888888896 178.62012012012013,26.08888888888896 179.63213213213214,26.08888888888896 180.64414414414415,26.08888888888896 181.65615615615616,26.08888888888896 182.66816816816817,23.71717171717171 183.68018018018017,23.71717171717171 184.69219219219218,21.345454545454686 185.70420420420422,21.345454545454686 186.71621621621622,21.345454545454686 187.72822822822823,21.345454545454686 188.74024024024024,21.345454545454686 189.75225225225225,21.345454545454686 190.76426426426426,21.345454545454686 191.7762762762763,21.345454545454686 192.7882882882883,21.345454545454686 193.8003003003003,21.345454545454686 194.81231231231232,21.345454545454686 195.82432432432432,21.345454545454686 196.83633633633633,21.345454545454686 197.84834834834834,21.345454545454686 198.86036036036037,21.345454545454686 199.87237237237238,21.345454545454686 200.8843843843844,21.345454545454686 201.8963963963964,21.345454545454686 202.9084084084084,21.345454545454686 203.9204204204204,21.345454545454686 204.93243243243245,21.345454545454686 205.94444444444446,21.345454545454686 206.95645645645646,21.345454545454686 207.96846846846847,21.345454545454686 208.98048048048048,21.345454545454686 209.9924924924925,21.345454545454686 211.0045045045045,21.345454545454686 212.01651651651653,21.345454545454686 213.02852852852854,21.345454545454686 214.04054054054055,21.345454545454686 215.05255255255256,21.345454545454686 216.06456456456456,21.345454545454686 217.07657657657657,21.345454545454686 218.08858858858858,21.345454545454686 219.10060060060061,21.345454545454686 220.11261261261262,21.345454545454686 221.12462462462463,21.345454545454686 222.13663663663664,21.345454545454686 223.14864864864865,21.345454545454686 224.16066066066065,21.345454545454686 225.1726726726727,21.345454545454686 226.1846846846847,21.345454545454686 227.1966966966967,21.345454545454686 228.2087087087087,21.345454545454686 229.22072072072072,21.345454545454686 230.23273273273273,21.345454545454686 231.24474474474474,21.345454545454686 232.25675675675677,21.345454545454686 233.26876876876878,21.345454545454686 234.2807807807808,21.345454545454686 235.2927927927928,21.345454545454686 236.3048048048048,21.345454545454686 237.3168168168168,21.345454545454686 238.32882882882882,21.345454545454686 239.34084084084085,21.345454545454686 240.35285285285286,21.345454545454686 241.36486486486487,21.345454545454686 242.37687687687688,21.345454545454686 243.38888888888889,21.345454545454686 244.4009009009009,21.345454545454686 245.41291291291293,21.345454545454686 246.42492492492494,21.345454545454686 247.43693693693695,21.345454545454686 248.44894894894895,21.345454545454686 249.46096096096096,21.345454545454686 250.47297297297297,21.345454545454686 251.48498498498498,21.345454545454686 252.496996996997,21.345454545454686 253.50900900900902,21.345454545454686 254.52102102102103,21.345454545454686 255.53303303303304,21.345454545454686 256.5450450450451,21.345454545454686 257.5570570570571,21.345454545454686 258.5690690690691,21.345454545454686 259.5810810810811,21.345454545454686 260.5930930930931,21.345454545454686 261.6051051051051,21.345454545454686 262.6171171171171,21.345454545454686 263.6291291291291,21.345454545454686 264.64114114114113,21.345454545454686 265.65315315315314,21.345454545454686 266.66516516516515,21.345454545454686 267.67717717717716,21.345454545454686 268.68918918918916,21.345454545454686 269.70120120120123,21.345454545454686 270.71321321321324,21.345454545454686 271.72522522522524,21.345454545454686 272.73723723723725,21.345454545454686 273.74924924924926,21.345454545454686 274.76126126126127,21.345454545454686 275.7732732732733,21.345454545454686 276.7852852852853,21.345454545454686 277.7972972972973,21.345454545454686 278.8093093093093,21.345454545454686 279.8213213213213,21.345454545454686 280.8333333333333,21.345454545454686 281.8453453453453,21.345454545454686 282.8573573573574,21.345454545454686 283.8693693693694,21.345454545454686 284.8813813813814,21.345454545454686 285.8933933933934,21.345454545454686 286.9054054054054,21.345454545454686 287.9174174174174,21.345454545454686 288.92942942942943,21.345454545454686 289.94144144144144,21.345454545454686 290.95345345345345,21.345454545454686 291.96546546546546,21.345454545454686 292.4714714714715,18.97373737373755 292.97747747747746,16.602020202020185 293.9894894894895,16.602020202020185 295.0015015015015,16.602020202020185 296.01351351351354,16.602020202020185 297.02552552552555,16.602020202020185 298.03753753753756,16.602020202020185 299.04954954954957,16.602020202020185 300.0615615615616,16.602020202020185 301.0735735735736,16.602020202020185 302.0855855855856,16.602020202020185 303.0975975975976,16.602020202020185 304.1096096096096,16.602020202020185 305.1216216216216,16.602020202020185 306.1336336336336,16.602020202020185 307.14564564564563,16.602020202020185 308.15765765765764,16.602020202020185 309.1696696696697,16.602020202020185 310.1816816816817,16.602020202020185 311.1936936936937,14.230303030303048 312.2057057057057,14.230303030303048 313.21771771771773,14.230303030303048 314.22972972972974,14.230303030303048 315.24174174174175,14.230303030303048 316.25375375375376,14.230303030303048 317.26576576576576,14.230303030303048 318.27777777777777,14.230303030303048 319.2897897897898,14.230303030303048 320.3018018018018,14.230303030303048 321.3138138138138,14.230303030303048 322.3258258258258,14.230303030303048 323.33783783783787,14.230303030303048 324.3498498498499,14.230303030303048 325.3618618618619,14.230303030303048 326.3738738738739,14.230303030303048 327.3858858858859,14.230303030303048 328.3978978978979,14.230303030303048 329.4099099099099,14.230303030303048 330.4219219219219,14.230303030303048 331.43393393393393,14.230303030303048 332.44594594594594,14.230303030303048 333.45795795795794,14.230303030303048 334.46996996996995,14.230303030303048 335.48198198198196,14.230303030303048 336.493993993994,14.230303030303048 337.50600600600603,14.230303030303048 338.51801801801804,14.230303030303048 339.53003003003005,14.230303030303048 340.54204204204206,14.230303030303048 341.55405405405406,14.230303030303048 342.56606606606607,14.230303030303048 343.5780780780781,14.230303030303048 344.5900900900901,14.230303030303048 345.6021021021021,14.230303030303048 346.6141141141141,14.230303030303048 347.6261261261261,14.230303030303048 348.6381381381381,14.230303030303048 349.6501501501502,14.230303030303048 350.6621621621622,14.230303030303048 351.6741741741742,14.230303030303048 352.6861861861862,14.230303030303048 353.6981981981982,14.230303030303048 354.7102102102102,14.230303030303048 355.72222222222223,14.230303030303048 356.73423423423424,14.230303030303048 357.74624624624624,14.230303030303048 358.75825825825825,14.230303030303048 359.77027027027026,14.230303030303048 360.78228228228227,14.230303030303048 361.7942942942943,14.230303030303048 362.80630630630634,14.230303030303048 363.81831831831835,14.230303030303048 364.83033033033036,14.230303030303048 365.84234234234236,14.230303030303048 366.85435435435437,14.230303030303048 367.8663663663664,14.230303030303048 368.8783783783784,14.230303030303048 369.8903903903904,14.230303030303048 370.9024024024024,14.230303030303048 371.9144144144144,14.230303030303048 372.9264264264264,14.230303030303048 373.9384384384384,14.230303030303048 374.95045045045043,14.230303030303048 375.96246246246244,14.230303030303048 376.9744744744745,14.230303030303048 377.9864864864865,14.230303030303048 378.9984984984985,14.230303030303048 380.0105105105105,14.230303030303048 381.02252252252254,14.230303030303048 382.03453453453454,14.230303030303048 383.04654654654655,14.230303030303048 384.05855855855856,14.230303030303048 385.07057057057057,14.230303030303048 386.0825825825826,14.230303030303048 387.0945945945946,14.230303030303048 388.1066066066066,14.230303030303048 389.1186186186186,11.858585858585911 389.62462462462463,9.486868686868888 390.63663663663664,9.486868686868888 391.64864864864865,9.486868686868888 392.66066066066065,9.486868686868888 393.67267267267266,9.486868686868888 394.68468468468467,9.486868686868888 395.6966966966967,9.486868686868888 396.70870870870874,9.486868686868888 397.72072072072075,9.486868686868888 398.73273273273276,9.486868686868888 399.74474474474476,9.486868686868888 400.7567567567568,9.486868686868888 401.7687687687688,9.486868686868888 402.7807807807808,7.115151515151638 403.7927927927928,7.115151515151638 404.8048048048048,7.115151515151638 405.8168168168168,7.115151515151638 406.8288288288288,7.115151515151638 407.8408408408408,7.115151515151638 408.85285285285283,7.115151515151638 409.8648648648649,7.115151515151638 410.8768768768769,7.115151515151638 411.8888888888889,7.115151515151638 412.9009009009009,7.115151515151638 413.91291291291293,7.115151515151638 414.92492492492494,7.115151515151638 415.4309309309309,4.743434343434501 416.4429429429429,4.743434343434501 417.454954954955,4.743434343434501 418.466966966967,4.743434343434501 419.478978978979,4.743434343434501 420.490990990991,4.743434343434501 421.503003003003,2.3717171717172505 422.515015015015,2.3717171717172505 423.52702702702703,2.3717171717172505 424.53903903903904,2.3717171717172505 425.55105105105105,2.3717171717172505 426.56306306306305,2.3717171717172505 427.57507507507506,2.3717171717172505 428.58708708708707,2.3717171717172505 429.5990990990991,2.3717171717172505 430.61111111111114,2.3717171717172505 431.62312312312315,2.3717171717172505 432.63513513513516,2.3717171717172505 433.64714714714717,2.3717171717172505 434.6591591591592,0 435.6711711711712,0 436.6831831831832,0 437.6951951951952,0 438.7072072072072,0 439.7192192192192,0 440.7312312312312,0 441.7432432432432,0 442.75525525525524,0 443.7672672672673,0 444.7792792792793,0 445.7912912912913,0 446.8033033033033,0 447.81531531531533,0 448.82732732732734,0 449.83933933933935,0 450.85135135135135,0 451.86336336336336,0 452.87537537537537,0 453.8873873873874,0 454.8993993993994,0 455.9114114114114,0 456.92342342342346,0 457.93543543543547,0 458.9474474474475,0 459.9594594594595,0 460.9714714714715,0 461.9834834834835,0 462.9954954954955,0 464.0075075075075,0 465.0195195195195,0 466.0315315315315,0 467.04354354354354,0 468.05555555555554,0 469.06756756756755,0 470.07957957957956,0 471.0915915915916,0 472.10360360360363,0 473.11561561561564,0 474.12762762762765,0 475.13963963963965,0 476.15165165165166,0 477.16366366366367,0 478.1756756756757,0 479.1876876876877,0 480.1996996996997,0 481.2117117117117,0 482.2237237237237,0 483.2357357357357,0 484.2477477477478,0 485.2597597597598,0 486.2717717717718,0 487.2837837837838,0 488.2957957957958,0 489.3078078078078,0 490.3198198198198,0 491.33183183183183,0 492.34384384384384,0 493.35585585585585,0 494.36786786786786,0 495.37987987987987,0 496.3918918918919,0 497.40390390390394,0 498.41591591591595,0 499.42792792792795,0 500.43993993993996,0 501.45195195195197,0 502.463963963964,0 503.475975975976,0 504.487987987988,0 505.5,0" style="fill: none; stroke: rgb(255, 0, 255); stroke-width: 3px; stroke-opacity: 1;"></polyline></g></svg></svg><svg id="SvgjsSvg1952" style="overflow: visible;" x="557.5"><svg xmlns="http://www.w3.org/2000/svg" version="1.1" xmlns:xlink="http://www.w3.org/1999/xlink" xmlns:svgjs="http://svgjs.com/svgjs" width="200" height="60"><defs id="SvgjsDefs1938"><clipPath id="SvgjsClipPath1946"><rect id="SvgjsRect1945" width="170" height="30"></rect></clipPath><clipPath id="SvgjsClipPath1949"><rect id="SvgjsRect1948" width="180" height="60"></rect></clipPath></defs><g id="SvgjsG1939" clip-path="url(&quot;#SvgjsClipPath1949&quot;)"><g id="SvgjsG1940" transform="matrix(1,0,0,1,5,0)"><rect id="SvgjsRect1941" width="170" height="30" fill="white" opacity="0.5"></rect><line id="SvgjsLine1942" x1="0" y1="0" x2="18" y2="18" stroke="#ff00ff" stroke-width="3" transform="matrix(1,0,0,1,5,5)"></line><text id="SvgjsText1943" font-family="Arial, Helvetica, sans-serif" font-size="14" font-weight="400" family="Arial, Helvetica, sans-serif" size="14" weight="400" transform="matrix(1,0,0,1,40,0)" svgjs:data="{&quot;leading&quot;:&quot;1.3&quot;}"><tspan id="SvgjsTspan1944" dy="18.2" x="0" svgjs:data="{&quot;newLined&quot;:true}">C</tspan></text></g></g></svg></svg></svg>