<svg xmlns="http://www.w3.org/2000/svg" version="1.1" xmlns:xlink="http://www.w3.org/1999/xlink" xmlns:svgjs="http://svgjs.com/svgjs" width="774.5" height="761.4"><defs id="SvgjsDefs2009"></defs><svg id="SvgjsSvg2010" style="overflow: visible;"><svg xmlns="http://www.w3.org/2000/svg" version="1.1" xmlns:xlink="http://www.w3.org/1999/xlink" xmlns:svgjs="http://svgjs.com/svgjs" width="574.5" height="761.4"><defs id="SvgjsDefs1953"></defs><g id="SvgjsG1954" transform="matrix(1,0,0,1,0,0)"><g id="SvgjsG1955" transform="matrix(1,0,0,1,0,0)"><text id="SvgjsText1956" font-family="Arial, Helvetica, sans-serif" font-size="16" font-weight="400" text-anchor="middle" family="Arial, Helvetica, sans-serif" size="16" weight="400" anchor="middle" transform="matrix(0,-1,1,0,0,352.2)" svgjs:data="{&quot;leading&quot;:&quot;1.3&quot;}"><tspan id="SvgjsTspan1957" dy="20.8" x="0" svgjs:data="{&quot;newLined&quot;:true}">Individuals</tspan></text></g><g id="SvgjsG1958" transform="matrix(1,0,0,1,20,0)" width="32" height="704.4"><text id="SvgjsText1959" font-family="Arial, Helvetica, sans-serif" font-size="16px" family="Arial, Helvetica, sans-serif" size="16px" transform="matrix(1,0,0,1,0,694.4000244140625)" svgjs:data="{&quot;leading&quot;:&quot;1.3&quot;}"><tspan id="SvgjsTspan1960" dy="20.8" x="0" svgjs:data="{&quot;newLined&quot;:true}">0</tspan></text><text id="SvgjsText1961" font-family="Arial, Helvetica, sans-serif" font-size="16px" family="Arial, Helvetica, sans-serif" size="16px" transform="matrix(1,0,0,1,0,575.5830078125)" svgjs:data="{&quot;leading&quot;:&quot;1.3&quot;}"><tspan id="SvgjsTspan1962" dy="20.8" x="0" svgjs:data="{&quot;newLined&quot;:true}">5</tspan></text><text id="SvgjsText1963" font-family="Arial, Helvetica, sans-serif" font-size="16px" family="Arial, Helvetica, sans-serif" size="16px" transform="matrix(1,0,0,1,0,456.7669982910156)" svgjs:data="{&quot;leading&quot;:&quot;1.3&quot;}"><tspan id="SvgjsTspan1964" dy="20.8" x="0" svgjs:data="{&quot;newLined&quot;:true}">10</tspan></text><text id="SvgjsText1965" font-family="Arial, Helvetica, sans-serif" font-size="16px" family="Arial, Helvetica, sans-serif" size="16px" transform="matrix(1,0,0,1,0,337.95001220703125)" svgjs:data="{&quot;leading&quot;:&quot;1.3&quot;}"><tspan id="SvgjsTspan1966" dy="20.8" x="0" svgjs:data="{&quot;newLined&quot;:true}">15</tspan></text><text id="SvgjsText1967" font-family="Arial, Helvetica, sans-serif" font-size="16px" family="Arial, Helvetica, sans-serif" size="16px" transform="matrix(1,0,0,1,0,219.13299560546875)" svgjs:data="{&quot;leading&quot;:&quot;1.3&quot;}"><tspan id="SvgjsTspan1968" dy="20.8" x="0" svgjs:data="{&quot;newLined&quot;:true}">20</tspan></text><text id="SvgjsText1969" font-family="Arial, Helvetica, sans-serif" font-size="16px" family="Arial, Helvetica, sans-serif" size="16px" transform="matrix(1,0,0,1,0,100.31700134277344)" svgjs:data="{&quot;leading&quot;:&quot;1.3&quot;}"><tspan id="SvgjsTspan1970" dy="20.8" x="0" svgjs:data="{&quot;newLined&quot;:true}">25</tspan></text><path id="SvgjsPath1971" d="M31 0v704.4M31 703.4h-10M31 584.5824324324324h-10M31 465.7648648648649h-10M31 346.94729729729727h-10M31 228.12972972972972h-10M31 109.31216216216217h-10M31 692.5182432432432h-3.3333333333333335M31 680.6364864864864h-3.3333333333333335M31 668.7547297297297h-3.3333333333333335M31 656.872972972973h-3.3333333333333335M31 644.9912162162162h-3.3333333333333335M31 633.1094594594595h-3.3333333333333335M31 621.2277027027027h-3.3333333333333335M31 609.3459459459459h-3.3333333333333335M31 597.4641891891891h-3.3333333333333335M31 573.7006756756757h-3.3333333333333335M31 561.8189189189189h-3.3333333333333335M31 549.9371621621622h-3.3333333333333335M31 538.0554054054054h-3.3333333333333335M31 526.1736486486486h-3.3333333333333335M31 514.2918918918919h-3.3333333333333335M31 502.41013513513514h-3.3333333333333335M31 490.52837837837836h-3.3333333333333335M31 478.64662162162165h-3.3333333333333335M31 454.8831081081081h-3.3333333333333335M31 443.00135135135133h-3.3333333333333335M31 431.11959459459456h-3.3333333333333335M31 419.23783783783784h-3.3333333333333335M31 407.3560810810811h-3.3333333333333335M31 395.4743243243243h-3.3333333333333335M31 383.5925675675676h-3.3333333333333335M31 371.7108108108108h-3.3333333333333335M31 359.82905405405404h-3.3333333333333335M31 336.06554054054055h-3.3333333333333335M31 324.1837837837838h-3.3333333333333335M31 312.302027027027h-3.3333333333333335M31 300.4202702702703h-3.3333333333333335M31 288.5385135135135h-3.3333333333333335M31 276.65675675675675h-3.3333333333333335M31 264.775h-3.3333333333333335M31 252.89324324324326h-3.3333333333333335M31 241.0114864864865h-3.3333333333333335M31 217.247972972973h-3.3333333333333335M31 205.36621621621623h-3.3333333333333335M31 193.48445945945946h-3.3333333333333335M31 181.6027027027027h-3.3333333333333335M31 169.7209459459459h-3.3333333333333335M31 157.83918918918914h-3.3333333333333335M31 145.95743243243248h-3.3333333333333335M31 134.0756756756757h-3.3333333333333335M31 122.19391891891894h-3.3333333333333335M31 98.4304054054054h-3.3333333333333335M31 86.54864864864862h-3.3333333333333335M31 74.66689189189185h-3.3333333333333335M31 62.78513513513519h-3.3333333333333335M31 50.90337837837842h-3.3333333333333335M31 39.02162162162165h-3.3333333333333335M31 27.139864864864876h-3.3333333333333335M31 15.258108108108104h-3.3333333333333335M31 3.3763513513513317h-3.3333333333333335" stroke="#000000" fill="none"></path></g></g><g id="SvgjsG1972"><g id="SvgjsG1973" transform="matrix(1,0,0,1,52,0)"><text id="SvgjsText1974" font-family="Arial, Helvetica, sans-serif" font-size="16" font-weight="400" text-anchor="middle" family="Arial, Helvetica, sans-serif" size="16" weight="400" anchor="middle" transform="matrix(1,0,0,1,0,0)" svgjs:data="{&quot;leading&quot;:&quot;1.3&quot;}"><tspan id="SvgjsTspan1975" dy="20.8" x="0" svgjs:data="{&quot;newLined&quot;:true}"></tspan></text></g></g><g id="SvgjsG1976"><g id="SvgjsG1977" transform="matrix(1,0,0,1,52,704.4)" width="505.5" height="29"><text id="SvgjsText1978" font-family="Arial, Helvetica, sans-serif" font-size="16px" family="Arial, Helvetica, sans-serif" size="16px" transform="matrix(1,0,0,1,-4.5,10)" svgjs:data="{&quot;leading&quot;:&quot;1.3&quot;}"><tspan id="SvgjsTspan1979" dy="20.8" x="0" svgjs:data="{&quot;newLined&quot;:true}">0</tspan></text><text id="SvgjsText1980" font-family="Arial, Helvetica, sans-serif" font-size="16px" family="Arial, Helvetica, sans-serif" size="16px" transform="matrix(1,0,0,1,230,10)" svgjs:data="{&quot;leading&quot;:&quot;1.3&quot;}"><tspan id="SvgjsTspan1981" dy="20.8" x="0" svgjs:data="{&quot;newLined&quot;:true}">50000</tspan></text><path id="SvgjsPath1982" d="M0 0h505.5M0 0v10M252.50250250250252 0v10M25.250250250250254 0v3.3333333333333335M50.50050050050051 0v3.3333333333333335M75.75075075075075 0v3.3333333333333335M101.00100100100101 0v3.3333333333333335M126.25125125125126 0v3.3333333333333335M151.5015015015015 0v3.3333333333333335M176.75175175175175 0v3.3333333333333335M202.00200200200203 0v3.3333333333333335M227.25225225225228 0v3.3333333333333335M277.75275275275277 0v3.3333333333333335M303.003003003003 0v3.3333333333333335M328.25325325325326 0v3.3333333333333335M353.5035035035035 0v3.3333333333333335M378.75375375375376 0v3.3333333333333335M404.00400400400406 0v3.3333333333333335M429.2542542542543 0v3.3333333333333335M454.50450450450455 0v3.3333333333333335M479.7547547547548 0v3.3333333333333335" stroke="#000000" fill="none"></path></g><g id="SvgjsG1983" transform="matrix(1,0,0,1,52,733.4)"><text id="SvgjsText1984" font-family="Arial, Helvetica, sans-serif" font-size="16" font-weight="400" text-anchor="middle" family="Arial, Helvetica, sans-serif" size="16" weight="400" anchor="middle" transform="matrix(1,0,0,1,252.75,-9)" svgjs:data="{&quot;leading&quot;:&quot;1.3&quot;}"><tspan id="SvgjsTspan1985" dy="20.8" x="0" svgjs:data="{&quot;newLined&quot;:true}">Time (s)</tspan></text></g></g><g id="SvgjsG1986"></g><g id="SvgjsG1987" viewBox="0 0 505.5 704.4" transform="matrix(1,0,0,1,52,0)"><polyline id="SvgjsPolyline1988" points="0,0 0,703.4" stroke="LightGray" stroke-width="1" fill="none"></polyline><polyline id="SvgjsPolyline1989" points="252.50250250250252,0 252.50250250250252,703.4" stroke="LightGray" stroke-width="1" fill="none"></polyline><polyline id="SvgjsPolyline1990" points="0,703.4 504.5,703.4" stroke="LightGray" stroke-width="1" fill="none"></polyline><polyline id="SvgjsPolyline1991" points="0,584.5824324324324 504.5,584.5824324324324" stroke="LightGray" stroke-width="1" fill="none"></polyline><polyline id="SvgjsPolyline1992" points="0,465.7648648648649 504.5,465.7648648648649" stroke="LightGray" stroke-width="1" fill="none"></polyline><polyline id="SvgjsPolyline1993" points="0,346.94729729729727 504.5,346.94729729729727" stroke="LightGray" stroke-width="1" fill="none"></polyline><polyline id="SvgjsPolyline1994" points="0,228.12972972972972 504.5,228.12972972972972" stroke="LightGray" stroke-width="1" fill="none"></polyline><polyline id="SvgjsPolyline1995" points="0,109.31216216216217 504.5,109.31216216216217" stroke="LightGray" stroke-width="1" fill="none"></polyline><polyline id="SvgjsPolyline1996" points="0,704.4 0.506006006006006,668.704054054054 1.012012012012012,637.7675675675675 1.518018018018018,611.5905405405406 2.024024024024024,571.1351351351351 2.53003003003003,504.5027027027028 3.036036036036036,461.66756756756763 3.542042042042042,425.97162162162164 4.048048048048048,385.5162162162162 4.554054054054054,364.09864864864863 5.06006006006006,335.5418918918919 5.566066066066067,309.36486486486496 6.072072072072072,292.70675675675676 6.578078078078078,278.42837837837845 7.084084084084084,264.15000000000003 7.59009009009009,257.0108108108107 8.096096096096096,233.21351351351353 8.602102102102101,221.31486486486494 9.108108108108109,209.41621621621624 9.614114114114114,202.27702702702703 10.12012012012012,190.37837837837833 10.626126126126126,180.85945945945946 11.132132132132133,171.3405405405406 11.638138138138139,161.8216216216216 12.144144144144144,159.44189189189194 12.65015015015015,157.06216216216217 13.156156156156156,152.30270270270273 13.662162162162163,147.5432432432433 14.674174174174174,147.5432432432433 15.18018018018018,145.16351351351352 16.19219219219219,142.78378378378375 16.6981981981982,135.64459459459454 17.71021021021021,128.50540540540544 18.72222222222222,126.12567567567567 19.734234234234233,126.12567567567567 20.746246246246248,126.12567567567567 21.25225225225225,123.745945945946 22.264264264264266,121.36621621621623 23.276276276276278,121.36621621621623 24.28828828828829,118.98648648648646 25.3003003003003,118.98648648648646 26.31231231231231,118.98648648648646 27.324324324324326,118.98648648648646 27.83033033033033,116.6067567567568 28.336336336336338,114.22702702702702 29.34834834834835,111.84729729729736 29.854354354354356,107.08783783783781 30.866366366366368,104.70810810810815 31.87837837837838,104.70810810810815 32.38438438438438,102.32837837837849 32.890390390390394,99.94864864864871 33.3963963963964,97.56891891891894 34.408408408408405,97.56891891891894 35.42042042042042,97.56891891891894 36.432432432432435,97.56891891891894 37.44444444444444,95.18918918918916 37.950450450450454,92.8094594594595 38.96246246246246,92.8094594594595 39.974474474474476,92.8094594594595 40.986486486486484,92.8094594594595 41.9984984984985,92.8094594594595 42.5045045045045,90.42972972972984 43.51651651651652,88.05000000000007 44.52852852852853,88.05000000000007 45.54054054054054,88.05000000000007 46.552552552552555,83.29054054054063 47.05855855855856,80.91081081081086 47.56456456456456,78.5310810810812 48.57657657657658,76.15135135135142 49.58858858858859,76.15135135135142 50.6006006006006,76.15135135135142 51.612612612612615,76.15135135135142 52.62462462462462,69.01216216216221 53.63663663663664,69.01216216216221 54.14264264264264,66.63243243243244 54.64864864864865,64.25270270270278 55.66066066066066,64.25270270270278 56.672672672672675,64.25270270270278 57.68468468468468,61.872972972973 58.6966966966967,61.872972972973 59.70870870870871,61.872972972973 60.72072072072072,61.872972972973 61.732732732732735,61.872972972973 62.74474474474474,61.872972972973 63.75675675675676,61.872972972973 64.76876876876877,61.872972972973 65.78078078078079,61.872972972973 66.7927927927928,61.872972972973 67.8048048048048,61.872972972973 68.81681681681681,61.872972972973 69.82882882882883,61.872972972973 70.84084084084084,61.872972972973 71.85285285285285,59.49324324324323 72.35885885885887,54.733783783783906 73.37087087087087,54.733783783783906 74.38288288288288,54.733783783783906 75.39489489489489,52.35405405405413 76.40690690690691,52.35405405405413 77.41891891891892,47.594594594594696 78.43093093093093,47.594594594594696 79.44294294294295,47.594594594594696 80.45495495495496,47.594594594594696 81.46696696696696,47.594594594594696 82.47897897897899,45.21486486486492 83.490990990991,42.83513513513515 84.503003003003,42.83513513513515 85.51501501501501,42.83513513513515 86.52702702702703,42.83513513513515 87.53903903903904,42.83513513513515 88.55105105105105,42.83513513513515 89.56306306306307,42.83513513513515 90.57507507507508,42.83513513513515 91.58708708708708,42.83513513513515 92.5990990990991,42.83513513513515 93.61111111111111,42.83513513513515 94.11711711711712,40.455405405405486 95.12912912912913,40.455405405405486 96.14114114114115,40.455405405405486 97.15315315315316,40.455405405405486 98.16516516516516,40.455405405405486 99.17717717717719,40.455405405405486 100.1891891891892,40.455405405405486 101.2012012012012,40.455405405405486 102.21321321321321,40.455405405405486 103.22522522522523,40.455405405405486 104.23723723723724,40.455405405405486 105.24924924924925,40.455405405405486 106.26126126126127,40.455405405405486 107.27327327327328,40.455405405405486 108.28528528528528,40.455405405405486 109.2972972972973,40.455405405405486 110.30930930930931,40.455405405405486 110.81531531531532,38.07567567567571 111.82732732732732,38.07567567567571 112.83933933933935,38.07567567567571 113.85135135135135,38.07567567567571 114.86336336336336,38.07567567567571 115.87537537537537,38.07567567567571 116.88738738738739,38.07567567567571 117.8993993993994,38.07567567567571 118.91141141141141,38.07567567567571 119.92342342342343,38.07567567567571 120.42942942942943,35.69594594594605 121.44144144144144,33.316216216216276 122.45345345345345,33.316216216216276 123.46546546546547,33.316216216216276 124.47747747747748,33.316216216216276 125.48948948948949,33.316216216216276 126.50150150150151,33.316216216216276 127.00750750750751,30.936486486486615 128.01951951951952,30.936486486486615 129.03153153153153,30.936486486486615 130.04354354354354,30.936486486486615 131.05555555555557,30.936486486486615 132.06756756756758,30.936486486486615 133.0795795795796,30.936486486486615 134.0915915915916,30.936486486486615 135.1036036036036,30.936486486486615 136.1156156156156,30.936486486486615 137.12762762762762,30.936486486486615 138.13963963963965,30.936486486486615 139.15165165165166,30.936486486486615 140.16366366366367,30.936486486486615 141.17567567567568,30.936486486486615 142.18768768768768,30.936486486486615 143.1996996996997,30.936486486486615 144.2117117117117,30.936486486486615 145.22372372372374,30.936486486486615 146.23573573573574,28.55675675675684 147.24774774774775,28.55675675675684 148.25975975975976,28.55675675675684 149.27177177177177,28.55675675675684 150.28378378378378,28.55675675675684 151.2957957957958,26.177027027027066 152.30780780780782,23.79729729729729 153.31981981981983,23.79729729729729 154.33183183183183,23.79729729729729 155.34384384384384,23.79729729729729 156.35585585585585,23.79729729729729 157.36786786786786,23.79729729729729 158.3798798798799,23.79729729729729 159.3918918918919,23.79729729729729 160.4039039039039,23.79729729729729 161.41591591591592,23.79729729729729 162.42792792792793,23.79729729729729 163.43993993993993,23.79729729729729 164.45195195195194,23.79729729729729 165.46396396396398,23.79729729729729 166.47597597597598,23.79729729729729 167.487987987988,23.79729729729729 168.5,23.79729729729729 169.512012012012,23.79729729729729 170.52402402402402,23.79729729729729 171.53603603603605,23.79729729729729 172.54804804804806,23.79729729729729 173.56006006006007,23.79729729729729 174.57207207207207,23.79729729729729 175.58408408408408,23.79729729729729 176.5960960960961,23.79729729729729 177.1021021021021,21.417567567567517 178.11411411411413,21.417567567567517 179.12612612612614,21.417567567567517 180.13813813813815,21.417567567567517 181.15015015015015,21.417567567567517 182.16216216216216,21.417567567567517 183.17417417417417,21.417567567567517 183.68018018018017,19.037837837837856 184.69219219219218,19.037837837837856 185.1981981981982,16.65810810810808 186.21021021021022,16.65810810810808 187.22222222222223,16.65810810810808 188.23423423423424,16.65810810810808 189.24624624624624,16.65810810810808 190.25825825825825,16.65810810810808 191.27027027027026,16.65810810810808 192.2822822822823,14.27837837837842 193.2942942942943,14.27837837837842 194.3063063063063,14.27837837837842 195.31831831831832,14.27837837837842 196.33033033033033,14.27837837837842 197.34234234234233,14.27837837837842 198.35435435435437,14.27837837837842 199.36636636636638,14.27837837837842 200.3783783783784,14.27837837837842 201.3903903903904,14.27837837837842 202.4024024024024,14.27837837837842 203.4144144144144,14.27837837837842 204.42642642642642,14.27837837837842 205.43843843843845,14.27837837837842 206.45045045045046,14.27837837837842 207.46246246246247,11.898648648648646 208.47447447447448,11.898648648648646 209.48648648648648,9.518918918918985 210.4984984984985,9.518918918918985 211.5105105105105,9.518918918918985 212.52252252252254,9.518918918918985 213.53453453453454,9.518918918918985 214.54654654654655,9.518918918918985 215.55855855855856,9.518918918918985 216.57057057057057,9.518918918918985 217.58258258258257,9.518918918918985 218.5945945945946,9.518918918918985 219.60660660660662,9.518918918918985 220.61861861861863,9.518918918918985 221.63063063063063,9.518918918918985 222.64264264264264,7.13918918918921 223.65465465465465,7.13918918918921 224.66666666666666,7.13918918918921 225.6786786786787,7.13918918918921 226.6906906906907,7.13918918918921 227.7027027027027,7.13918918918921 228.71471471471472,7.13918918918921 229.72672672672672,7.13918918918921 230.73873873873873,7.13918918918921 231.75075075075074,7.13918918918921 232.76276276276278,7.13918918918921 233.77477477477478,7.13918918918921 234.2807807807808,4.759459459459549 235.2927927927928,4.759459459459549 236.3048048048048,4.759459459459549 237.3168168168168,4.759459459459549 238.32882882882882,4.759459459459549 239.34084084084085,4.759459459459549 240.35285285285286,4.759459459459549 241.36486486486487,4.759459459459549 242.37687687687688,4.759459459459549 243.38888888888889,4.759459459459549 244.4009009009009,4.759459459459549 245.41291291291293,4.759459459459549 246.42492492492494,4.759459459459549 247.43693693693695,4.759459459459549 248.44894894894895,4.759459459459549 249.46096096096096,4.759459459459549 250.47297297297297,4.759459459459549 251.48498498498498,4.759459459459549 252.496996996997,4.759459459459549 253.50900900900902,4.759459459459549 254.52102102102103,4.759459459459549 255.53303303303304,4.759459459459549 256.5450450450451,4.759459459459549 257.5570570570571,4.759459459459549 258.5690690690691,4.759459459459549 259.5810810810811,4.759459459459549 260.5930930930931,4.759459459459549 261.6051051051051,4.759459459459549 262.6171171171171,4.759459459459549 263.6291291291291,4.759459459459549 264.64114114114113,4.759459459459549 265.65315315315314,4.759459459459549 266.66516516516515,4.759459459459549 267.67717717717716,4.759459459459549 268.68918918918916,4.759459459459549 269.70120120120123,4.759459459459549 270.71321321321324,4.759459459459549 271.72522522522524,4.759459459459549 272.73723723723725,4.759459459459549 273.74924924924926,4.759459459459549 274.76126126126127,4.759459459459549 275.7732732732733,4.759459459459549 276.7852852852853,4.759459459459549 277.7972972972973,4.759459459459549 278.8093093093093,4.759459459459549 279.8213213213213,4.759459459459549 280.8333333333333,4.759459459459549 281.8453453453453,4.759459459459549 282.8573573573574,4.759459459459549 283.8693693693694,4.759459459459549 284.8813813813814,4.759459459459549 285.8933933933934,4.759459459459549 286.9054054054054,4.759459459459549 287.9174174174174,4.759459459459549 288.92942942942943,4.759459459459549 289.94144144144144,4.759459459459549 290.95345345345345,4.759459459459549 291.96546546546546,4.759459459459549 292.97747747747746,4.759459459459549 293.9894894894895,4.759459459459549 295.0015015015015,4.759459459459549 296.01351351351354,4.759459459459549 297.02552552552555,4.759459459459549 298.03753753753756,4.759459459459549 299.04954954954957,4.759459459459549 300.0615615615616,4.759459459459549 301.0735735735736,4.759459459459549 302.0855855855856,4.759459459459549 303.0975975975976,4.759459459459549 304.1096096096096,4.759459459459549 305.1216216216216,4.759459459459549 306.1336336336336,4.759459459459549 307.14564564564563,4.759459459459549 308.15765765765764,4.759459459459549 309.1696696696697,4.759459459459549 310.1816816816817,4.759459459459549 311.1936936936937,4.759459459459549 312.2057057057057,4.759459459459549 313.21771771771773,4.759459459459549 314.22972972972974,4.759459459459549 315.24174174174175,4.759459459459549 316.25375375375376,4.759459459459549 317.26576576576576,4.759459459459549 318.27777777777777,4.759459459459549 319.2897897897898,4.759459459459549 320.3018018018018,4.759459459459549 321.3138138138138,4.759459459459549 322.3258258258258,4.759459459459549 323.33783783783787,4.759459459459549 324.3498498498499,4.759459459459549 325.3618618618619,4.759459459459549 326.3738738738739,4.759459459459549 327.3858858858859,4.759459459459549 328.3978978978979,4.759459459459549 329.4099099099099,4.759459459459549 330.4219219219219,4.759459459459549 331.43393393393393,4.759459459459549 332.44594594594594,4.759459459459549 333.45795795795794,4.759459459459549 334.46996996996995,4.759459459459549 335.48198198198196,4.759459459459549 336.493993993994,4.759459459459549 337.50600600600603,4.759459459459549 338.51801801801804,4.759459459459549 339.53003003003005,4.759459459459549 340.54204204204206,4.759459459459549 341.55405405405406,4.759459459459549 342.56606606606607,4.759459459459549 343.5780780780781,4.759459459459549 344.5900900900901,4.759459459459549 345.6021021021021,4.759459459459549 346.6141141141141,4.759459459459549 347.6261261261261,4.759459459459549 348.6381381381381,4.759459459459549 349.6501501501502,4.759459459459549 350.6621621621622,4.759459459459549 351.6741741741742,4.759459459459549 352.6861861861862,4.759459459459549 353.6981981981982,4.759459459459549 354.7102102102102,4.759459459459549 355.72222222222223,4.759459459459549 356.73423423423424,4.759459459459549 357.74624624624624,4.759459459459549 358.75825825825825,4.759459459459549 359.77027027027026,4.759459459459549 360.78228228228227,4.759459459459549 361.7942942942943,4.759459459459549 362.80630630630634,4.759459459459549 363.81831831831835,4.759459459459549 364.83033033033036,4.759459459459549 365.84234234234236,4.759459459459549 366.85435435435437,4.759459459459549 367.8663663663664,4.759459459459549 368.8783783783784,4.759459459459549 369.8903903903904,4.759459459459549 370.9024024024024,4.759459459459549 371.9144144144144,4.759459459459549 372.9264264264264,4.759459459459549 373.9384384384384,4.759459459459549 374.95045045045043,4.759459459459549 375.96246246246244,4.759459459459549 376.9744744744745,4.759459459459549 377.9864864864865,4.759459459459549 378.9984984984985,4.759459459459549 380.0105105105105,4.759459459459549 381.02252252252254,4.759459459459549 382.03453453453454,4.759459459459549 383.04654654654655,4.759459459459549 384.05855855855856,4.759459459459549 385.07057057057057,4.759459459459549 386.0825825825826,4.759459459459549 387.0945945945946,4.759459459459549 388.1066066066066,4.759459459459549 389.1186186186186,4.759459459459549 390.13063063063066,4.759459459459549 391.14264264264267,4.759459459459549 392.1546546546547,4.759459459459549 393.1666666666667,4.759459459459549 394.1786786786787,4.759459459459549 395.1906906906907,4.759459459459549 396.2027027027027,4.759459459459549 397.2147147147147,4.759459459459549 398.2267267267267,4.759459459459549 399.23873873873873,4.759459459459549 400.25075075075074,4.759459459459549 401.26276276276275,4.759459459459549 402.27477477477476,4.759459459459549 403.2867867867868,4.759459459459549 404.2987987987988,4.759459459459549 405.31081081081084,4.759459459459549 406.32282282282284,4.759459459459549 407.33483483483485,4.759459459459549 408.34684684684686,4.759459459459549 409.35885885885887,4.759459459459549 410.3708708708709,4.759459459459549 411.3828828828829,4.759459459459549 412.3948948948949,4.759459459459549 413.4069069069069,4.759459459459549 414.4189189189189,4.759459459459549 415.4309309309309,4.759459459459549 416.4429429429429,4.759459459459549 417.454954954955,4.759459459459549 418.466966966967,4.759459459459549 419.478978978979,4.759459459459549 420.490990990991,4.759459459459549 421.503003003003,4.759459459459549 422.515015015015,4.759459459459549 423.52702702702703,4.759459459459549 424.53903903903904,4.759459459459549 425.55105105105105,4.759459459459549 426.56306306306305,4.759459459459549 427.57507507507506,4.759459459459549 428.58708708708707,4.759459459459549 429.5990990990991,4.759459459459549 430.61111111111114,4.759459459459549 431.62312312312315,4.759459459459549 432.63513513513516,4.759459459459549 433.64714714714717,4.759459459459549 434.6591591591592,4.759459459459549 435.6711711711712,4.759459459459549 436.6831831831832,4.759459459459549 437.6951951951952,4.759459459459549 438.7072072072072,4.759459459459549 439.7192192192192,4.759459459459549 440.7312312312312,4.759459459459549 441.7432432432432,4.759459459459549 442.75525525525524,4.759459459459549 443.7672672672673,4.759459459459549 444.7792792792793,4.759459459459549 445.7912912912913,4.759459459459549 446.8033033033033,4.759459459459549 447.81531531531533,0 448.82732732732734,0 449.83933933933935,0 450.85135135135135,0 451.86336336336336,0 452.87537537537537,0 453.8873873873874,0 454.8993993993994,0 455.9114114114114,0 456.92342342342346,0 457.93543543543547,0 458.9474474474475,0 459.9594594594595,0 460.9714714714715,0 461.9834834834835,0 462.9954954954955,0 464.0075075075075,0 465.0195195195195,0 466.0315315315315,0 467.04354354354354,0 468.05555555555554,0 469.06756756756755,0 470.07957957957956,0 471.0915915915916,0 472.10360360360363,0 473.11561561561564,0 474.12762762762765,0 475.13963963963965,0 476.15165165165166,0 477.16366366366367,0 478.1756756756757,0 479.1876876876877,0 480.1996996996997,0 481.2117117117117,0 482.2237237237237,0 483.2357357357357,0 484.2477477477478,0 485.2597597597598,0 486.2717717717718,0 487.2837837837838,0 488.2957957957958,0 489.3078078078078,0 490.3198198198198,0 491.33183183183183,0 492.34384384384384,0 493.35585585585585,0 494.36786786786786,0 495.37987987987987,0 496.3918918918919,0 497.40390390390394,0 498.41591591591595,0 499.42792792792795,0 500.43993993993996,0 501.45195195195197,0 502.463963963964,0 503.475975975976,0 504.487987987988,0 505.5,0" style="fill: none; stroke: rgb(255, 0, 255); stroke-width: 3px; stroke-opacity: 1;"></polyline></g></svg></svg><svg id="SvgjsSvg2011" style="overflow: visible;" x="574.5"><svg xmlns="http://www.w3.org/2000/svg" version="1.1" xmlns:xlink="http://www.w3.org/1999/xlink" xmlns:svgjs="http://svgjs.com/svgjs" width="200" height="60"><defs id="SvgjsDefs1997"><clipPath id="SvgjsClipPath2005"><rect id="SvgjsRect2004" width="170" height="30"></rect></clipPath><clipPath id="SvgjsClipPath2008"><rect id="SvgjsRect2007" width="180" height="60"></rect></clipPath></defs><g id="SvgjsG1998" clip-path="url(&quot;#SvgjsClipPath2008&quot;)"><g id="SvgjsG1999" transform="matrix(1,0,0,1,5,0)"><rect id="SvgjsRect2000" width="170" height="30" fill="white" opacity="0.5"></rect><line id="SvgjsLine2001" x1="0" y1="0" x2="18" y2="18" stroke="#ff00ff" stroke-width="3" transform="matrix(1,0,0,1,5,5)"></line><text id="SvgjsText2002" font-family="Arial, Helvetica, sans-serif" font-size="14" font-weight="400" family="Arial, Helvetica, sans-serif" size="14" weight="400" transform="matrix(1,0,0,1,40,0)" svgjs:data="{&quot;leading&quot;:&quot;1.3&quot;}"><tspan id="SvgjsTspan2003" dy="18.2" x="0" svgjs:data="{&quot;newLined&quot;:true}">C</tspan></text></g></g></svg></svg></svg>