<svg xmlns="http://www.w3.org/2000/svg" version="1.1" xmlns:xlink="http://www.w3.org/1999/xlink" xmlns:svgjs="http://svgjs.com/svgjs" width="774.5" height="761.4"><defs id="SvgjsDefs1714"></defs><svg id="SvgjsSvg1715" style="overflow: visible;"><svg xmlns="http://www.w3.org/2000/svg" version="1.1" xmlns:xlink="http://www.w3.org/1999/xlink" xmlns:svgjs="http://svgjs.com/svgjs" width="574.5" height="761.4"><defs id="SvgjsDefs1664"></defs><g id="SvgjsG1665" transform="matrix(1,0,0,1,0,0)"><g id="SvgjsG1666" transform="matrix(1,0,0,1,0,0)"><text id="SvgjsText1667" font-family="Arial, Helvetica, sans-serif" font-size="16" font-weight="400" text-anchor="middle" family="Arial, Helvetica, sans-serif" size="16" weight="400" anchor="middle" transform="matrix(0,-1,1,0,0,352.2)" svgjs:data="{&quot;leading&quot;:&quot;1.3&quot;}"><tspan id="SvgjsTspan1668" dy="20.8" x="0" svgjs:data="{&quot;newLined&quot;:true}">Individuals</tspan></text></g><g id="SvgjsG1669" transform="matrix(1,0,0,1,20,0)" width="32" height="704.4"><text id="SvgjsText1670" font-family="Arial, Helvetica, sans-serif" font-size="16px" family="Arial, Helvetica, sans-serif" size="16px" transform="matrix(1,0,0,1,0,694.4000244140625)" svgjs:data="{&quot;leading&quot;:&quot;1.3&quot;}"><tspan id="SvgjsTspan1671" dy="20.8" x="0" svgjs:data="{&quot;newLined&quot;:true}">0</tspan></text><text id="SvgjsText1672" font-family="Arial, Helvetica, sans-serif" font-size="16px" family="Arial, Helvetica, sans-serif" size="16px" transform="matrix(1,0,0,1,0,516.7670288085938)" svgjs:data="{&quot;leading&quot;:&quot;1.3&quot;}"><tspan id="SvgjsTspan1673" dy="20.8" x="0" svgjs:data="{&quot;newLined&quot;:true}">5</tspan></text><text id="SvgjsText1674" font-family="Arial, Helvetica, sans-serif" font-size="16px" family="Arial, Helvetica, sans-serif" size="16px" transform="matrix(1,0,0,1,0,339.1499938964844)" svgjs:data="{&quot;leading&quot;:&quot;1.3&quot;}"><tspan id="SvgjsTspan1675" dy="20.8" x="0" svgjs:data="{&quot;newLined&quot;:true}">10</tspan></text><text id="SvgjsText1676" font-family="Arial, Helvetica, sans-serif" font-size="16px" family="Arial, Helvetica, sans-serif" size="16px" transform="matrix(1,0,0,1,0,161.51699829101562)" svgjs:data="{&quot;leading&quot;:&quot;1.3&quot;}"><tspan id="SvgjsTspan1677" dy="20.8" x="0" svgjs:data="{&quot;newLined&quot;:true}">15</tspan></text><path id="SvgjsPath1678" d="M31 0v704.4M31 703.4h-10M31 525.7737373737373h-10M31 348.1474747474747h-10M31 170.5212121212121h-10M31 686.6373737373738h-3.3333333333333335M31 668.8747474747474h-3.3333333333333335M31 651.1121212121212h-3.3333333333333335M31 633.3494949494949h-3.3333333333333335M31 615.5868686868687h-3.3333333333333335M31 597.8242424242424h-3.3333333333333335M31 580.0616161616161h-3.3333333333333335M31 562.2989898989899h-3.3333333333333335M31 544.5363636363636h-3.3333333333333335M31 509.01111111111106h-3.3333333333333335M31 491.24848484848485h-3.3333333333333335M31 473.4858585858585h-3.3333333333333335M31 455.7232323232323h-3.3333333333333335M31 437.96060606060604h-3.3333333333333335M31 420.19797979797977h-3.3333333333333335M31 402.4353535353535h-3.3333333333333335M31 384.67272727272723h-3.3333333333333335M31 366.91010101010096h-3.3333333333333335M31 331.3848484848485h-3.3333333333333335M31 313.6222222222222h-3.3333333333333335M31 295.85959595959594h-3.3333333333333335M31 278.09696969696967h-3.3333333333333335M31 260.3343434343434h-3.3333333333333335M31 242.57171717171713h-3.3333333333333335M31 224.80909090909086h-3.3333333333333335M31 207.04646464646464h-3.3333333333333335M31 189.28383838383832h-3.3333333333333335M31 153.75858585858577h-3.3333333333333335M31 135.99595959595956h-3.3333333333333335M31 118.23333333333335h-3.3333333333333335M31 100.47070707070702h-3.3333333333333335M31 82.70808080808081h-3.3333333333333335M31 64.94545454545448h-3.3333333333333335M31 47.18282828282827h-3.3333333333333335M31 29.42020202020194h-3.3333333333333335M31 11.657575757575728h-3.3333333333333335" stroke="#000000" fill="none"></path></g></g><g id="SvgjsG1679"><g id="SvgjsG1680" transform="matrix(1,0,0,1,52,0)"><text id="SvgjsText1681" font-family="Arial, Helvetica, sans-serif" font-size="16" font-weight="400" text-anchor="middle" family="Arial, Helvetica, sans-serif" size="16" weight="400" anchor="middle" transform="matrix(1,0,0,1,0,0)" svgjs:data="{&quot;leading&quot;:&quot;1.3&quot;}"><tspan id="SvgjsTspan1682" dy="20.8" x="0" svgjs:data="{&quot;newLined&quot;:true}"></tspan></text></g></g><g id="SvgjsG1683"><g id="SvgjsG1684" transform="matrix(1,0,0,1,52,704.4)" width="505.5" height="29"><text id="SvgjsText1685" font-family="Arial, Helvetica, sans-serif" font-size="16px" family="Arial, Helvetica, sans-serif" size="16px" transform="matrix(1,0,0,1,-4.5,10)" svgjs:data="{&quot;leading&quot;:&quot;1.3&quot;}"><tspan id="SvgjsTspan1686" dy="20.8" x="0" svgjs:data="{&quot;newLined&quot;:true}">0</tspan></text><text id="SvgjsText1687" font-family="Arial, Helvetica, sans-serif" font-size="16px" family="Arial, Helvetica, sans-serif" size="16px" transform="matrix(1,0,0,1,230,10)" svgjs:data="{&quot;leading&quot;:&quot;1.3&quot;}"><tspan id="SvgjsTspan1688" dy="20.8" x="0" svgjs:data="{&quot;newLined&quot;:true}">50000</tspan></text><path id="SvgjsPath1689" d="M0 0h505.5M0 0v10M252.50250250250252 0v10M25.250250250250254 0v3.3333333333333335M50.50050050050051 0v3.3333333333333335M75.75075075075075 0v3.3333333333333335M101.00100100100101 0v3.3333333333333335M126.25125125125126 0v3.3333333333333335M151.5015015015015 0v3.3333333333333335M176.75175175175175 0v3.3333333333333335M202.00200200200203 0v3.3333333333333335M227.25225225225228 0v3.3333333333333335M277.75275275275277 0v3.3333333333333335M303.003003003003 0v3.3333333333333335M328.25325325325326 0v3.3333333333333335M353.5035035035035 0v3.3333333333333335M378.75375375375376 0v3.3333333333333335M404.00400400400406 0v3.3333333333333335M429.2542542542543 0v3.3333333333333335M454.50450450450455 0v3.3333333333333335M479.7547547547548 0v3.3333333333333335" stroke="#000000" fill="none"></path></g><g id="SvgjsG1690" transform="matrix(1,0,0,1,52,733.4)"><text id="SvgjsText1691" font-family="Arial, Helvetica, sans-serif" font-size="16" font-weight="400" text-anchor="middle" family="Arial, Helvetica, sans-serif" size="16" weight="400" anchor="middle" transform="matrix(1,0,0,1,252.75,-9)" svgjs:data="{&quot;leading&quot;:&quot;1.3&quot;}"><tspan id="SvgjsTspan1692" dy="20.8" x="0" svgjs:data="{&quot;newLined&quot;:true}">Time (s)</tspan></text></g></g><g id="SvgjsG1693"></g><g id="SvgjsG1694" viewBox="0 0 505.5 704.4" transform="matrix(1,0,0,1,52,0)"><polyline id="SvgjsPolyline1695" points="0,0 0,703.4" stroke="LightGray" stroke-width="1" fill="none"></polyline><polyline id="SvgjsPolyline1696" points="252.50250250250252,0 252.50250250250252,703.4" stroke="LightGray" stroke-width="1" fill="none"></polyline><polyline id="SvgjsPolyline1697" points="0,703.4 504.5,703.4" stroke="LightGray" stroke-width="1" fill="none"></polyline><polyline id="SvgjsPolyline1698" points="0,525.7737373737373 504.5,525.7737373737373" stroke="LightGray" stroke-width="1" fill="none"></polyline><polyline id="SvgjsPolyline1699" points="0,348.1474747474747 504.5,348.1474747474747" stroke="LightGray" stroke-width="1" fill="none"></polyline><polyline id="SvgjsPolyline1700" points="0,170.5212121212121 504.5,170.5212121212121" stroke="LightGray" stroke-width="1" fill="none"></polyline><polyline id="SvgjsPolyline1701" points="0,704.4 0.506006006006006,686.6121212121212 1.012012012012012,683.0545454545454 1.518018018018018,679.4969696969697 2.53003003003003,679.4969696969697 3.036036036036036,675.9393939393939 4.048048048048048,675.9393939393939 5.06006006006006,675.9393939393939 6.072072072072072,675.9393939393939 7.084084084084084,668.8242424242424 8.096096096096096,665.2666666666667 9.108108108108109,658.1515151515151 10.12012012012012,654.5939393939394 11.132132132132133,654.5939393939394 12.144144144144144,640.3636363636364 12.65015015015015,636.8060606060606 13.156156156156156,633.2484848484848 14.168168168168169,633.2484848484848 15.18018018018018,633.2484848484848 15.686186186186186,629.690909090909 16.6981981981982,629.690909090909 17.71021021021021,629.690909090909 18.72222222222222,629.690909090909 19.734234234234233,626.1333333333333 20.24024024024024,622.5757575757575 20.746246246246248,619.0181818181818 21.75825825825826,619.0181818181818 22.77027027027027,619.0181818181818 23.78228228228228,615.4606060606061 24.794294294294296,611.9030303030303 25.3003003003003,608.3454545454546 26.31231231231231,604.7878787878788 27.324324324324326,604.7878787878788 27.83033033033033,597.6727272727272 28.336336336336338,590.5575757575757 28.84234234234234,587 29.854354354354356,587 30.866366366366368,587 31.87837837837838,587 32.890390390390394,587 33.9024024024024,587 34.408408408408405,583.4424242424243 35.42042042042042,583.4424242424243 36.432432432432435,583.4424242424243 37.44444444444444,583.4424242424243 38.45645645645646,579.8848484848485 38.96246246246246,576.3272727272727 39.468468468468465,572.769696969697 40.48048048048048,572.769696969697 41.492492492492495,569.2121212121212 42.5045045045045,569.2121212121212 43.51651651651652,565.6545454545454 44.52852852852853,565.6545454545454 45.03453453453454,554.9818181818182 45.54054054054054,551.4242424242424 46.552552552552555,547.8666666666667 47.05855855855856,537.1939393939394 47.56456456456456,533.6363636363636 48.57657657657658,533.6363636363636 49.08258258258258,530.0787878787879 49.58858858858859,526.5212121212121 50.6006006006006,522.9636363636364 51.612612612612615,522.9636363636364 52.62462462462462,522.9636363636364 53.130630630630634,519.4060606060606 53.63663663663664,508.73333333333335 54.64864864864865,508.73333333333335 55.66066066066066,508.73333333333335 56.166666666666664,505.1757575757576 56.672672672672675,494.5030303030303 57.17867867867868,490.94545454545454 58.190690690690694,490.94545454545454 59.2027027027027,487.3878787878788 59.70870870870871,480.2727272727273 60.72072072072072,480.2727272727273 61.732732732732735,480.2727272727273 62.74474474474474,476.71515151515155 63.250750750750754,473.1575757575757 64.26276276276276,473.1575757575757 65.27477477477477,469.6 66.28678678678679,466.04242424242426 67.2987987987988,466.04242424242426 68.3108108108108,466.04242424242426 69.32282282282283,462.4848484848485 70.33483483483484,458.92727272727274 71.34684684684684,458.92727272727274 72.35885885885887,458.92727272727274 73.37087087087087,458.92727272727274 74.38288288288288,458.92727272727274 74.88888888888889,455.369696969697 75.90090090090091,455.369696969697 76.40690690690691,451.81212121212127 77.41891891891892,451.81212121212127 78.43093093093093,451.81212121212127 79.44294294294295,448.25454545454545 80.45495495495496,444.6969696969697 81.46696696696696,441.1393939393939 82.47897897897899,441.1393939393939 83.490990990991,437.5818181818181 84.503003003003,423.35151515151523 85.51501501501501,423.35151515151523 86.52702702702703,423.35151515151523 87.53903903903904,423.35151515151523 88.55105105105105,423.35151515151523 89.05705705705707,412.67878787878794 90.06906906906907,409.1212121212121 91.08108108108108,409.1212121212121 92.09309309309309,409.1212121212121 93.10510510510511,409.1212121212121 94.11711711711712,409.1212121212121 95.12912912912913,409.1212121212121 96.14114114114115,409.1212121212121 97.15315315315316,409.1212121212121 98.16516516516516,409.1212121212121 99.17717717717719,409.1212121212121 100.1891891891892,409.1212121212121 100.6951951951952,405.5636363636364 101.7072072072072,405.5636363636364 102.71921921921923,405.5636363636364 103.73123123123123,405.5636363636364 104.74324324324324,402.0060606060606 105.75525525525525,402.0060606060606 106.76726726726727,402.0060606060606 107.77927927927928,402.0060606060606 108.79129129129129,402.0060606060606 109.80330330330331,402.0060606060606 110.30930930930931,398.4484848484849 110.81531531531532,391.3333333333333 111.82732732732732,391.3333333333333 112.83933933933935,380.6606060606061 113.34534534534535,373.54545454545456 114.35735735735736,373.54545454545456 115.36936936936937,369.9878787878788 116.38138138138139,369.9878787878788 116.88738738738739,366.4303030303031 117.8993993993994,362.87272727272733 118.91141141141141,362.87272727272733 119.92342342342343,362.87272727272733 120.42942942942943,359.3151515151515 121.44144144144144,359.3151515151515 122.45345345345345,348.6424242424243 122.95945945945947,341.5272727272727 123.46546546546547,337.969696969697 124.47747747747748,337.969696969697 125.48948948948949,337.969696969697 126.50150150150151,337.969696969697 127.51351351351352,337.969696969697 128.52552552552552,337.969696969697 129.53753753753753,337.969696969697 130.54954954954954,337.969696969697 131.56156156156158,334.41212121212124 132.06756756756758,330.8545454545455 133.0795795795796,330.8545454545455 134.0915915915916,327.29696969696965 135.1036036036036,327.29696969696965 136.1156156156156,327.29696969696965 136.6216216216216,323.73939393939395 137.12762762762762,320.18181818181824 138.13963963963965,320.18181818181824 139.15165165165166,320.18181818181824 140.16366366366367,320.18181818181824 141.17567567567568,320.18181818181824 142.18768768768768,320.18181818181824 142.6936936936937,316.6242424242424 143.7057057057057,316.6242424242424 144.71771771771773,316.6242424242424 145.72972972972974,313.0666666666667 146.74174174174175,313.0666666666667 147.24774774774775,305.9515151515152 148.25975975975976,295.2787878787879 149.27177177177177,295.2787878787879 150.28378378378378,295.2787878787879 151.2957957957958,295.2787878787879 152.30780780780782,295.2787878787879 153.31981981981983,295.2787878787879 154.33183183183183,288.1636363636364 155.34384384384384,288.1636363636364 156.35585585585585,288.1636363636364 157.36786786786786,288.1636363636364 158.3798798798799,288.1636363636364 159.3918918918919,284.6060606060606 159.8978978978979,281.04848484848486 160.9099099099099,281.04848484848486 161.41591591591592,273.9333333333334 162.42792792792793,273.9333333333334 163.43993993993993,273.9333333333334 164.45195195195194,273.9333333333334 165.46396396396398,273.9333333333334 166.47597597597598,273.9333333333334 167.487987987988,273.9333333333334 168.5,273.9333333333334 169.512012012012,273.9333333333334 170.52402402402402,273.9333333333334 171.03003003003002,270.3757575757576 172.04204204204206,270.3757575757576 173.05405405405406,270.3757575757576 174.06606606606607,270.3757575757576 175.07807807807808,270.3757575757576 176.0900900900901,259.7030303030304 177.1021021021021,259.7030303030304 178.11411411411413,259.7030303030304 179.12612612612614,259.7030303030304 180.13813813813815,259.7030303030304 180.64414414414415,249.03030303030306 181.15015015015015,245.4727272727273 182.16216216216216,245.4727272727273 183.17417417417417,245.4727272727273 184.18618618618618,245.4727272727273 184.69219219219218,241.91515151515154 185.70420420420422,241.91515151515154 186.71621621621622,241.91515151515154 187.72822822822823,241.91515151515154 188.74024024024024,238.35757575757577 189.75225225225225,238.35757575757577 190.76426426426426,238.35757575757577 191.7762762762763,238.35757575757577 192.7882882882883,238.35757575757577 193.8003003003003,238.35757575757577 194.81231231231232,238.35757575757577 195.82432432432432,238.35757575757577 196.83633633633633,238.35757575757577 197.84834834834834,238.35757575757577 198.86036036036037,238.35757575757577 199.87237237237238,238.35757575757577 200.8843843843844,238.35757575757577 201.8963963963964,238.35757575757577 202.9084084084084,238.35757575757577 203.4144144144144,234.80000000000007 204.42642642642642,234.80000000000007 205.43843843843845,234.80000000000007 206.45045045045046,234.80000000000007 207.46246246246247,234.80000000000007 208.47447447447448,234.80000000000007 209.48648648648648,234.80000000000007 210.4984984984985,234.80000000000007 211.5105105105105,234.80000000000007 212.52252252252254,234.80000000000007 213.53453453453454,234.80000000000007 214.54654654654655,234.80000000000007 215.55855855855856,234.80000000000007 216.06456456456456,224.12727272727278 217.07657657657657,224.12727272727278 218.08858858858858,224.12727272727278 219.10060060060061,224.12727272727278 220.11261261261262,224.12727272727278 221.12462462462463,224.12727272727278 222.13663663663664,224.12727272727278 223.14864864864865,224.12727272727278 224.16066066066065,224.12727272727278 225.1726726726727,224.12727272727278 226.1846846846847,224.12727272727278 226.6906906906907,220.56969696969702 227.7027027027027,220.56969696969702 228.71471471471472,220.56969696969702 229.72672672672672,220.56969696969702 230.23273273273273,217.01212121212126 231.24474474474474,217.01212121212126 232.25675675675677,217.01212121212126 233.26876876876878,217.01212121212126 234.2807807807808,217.01212121212126 234.7867867867868,209.89696969696973 235.2927927927928,206.33939393939397 236.3048048048048,206.33939393939397 237.3168168168168,206.33939393939397 238.32882882882882,206.33939393939397 239.34084084084085,206.33939393939397 240.35285285285286,206.33939393939397 240.85885885885887,202.78181818181827 241.87087087087087,202.78181818181827 242.88288288288288,192.10909090909092 243.8948948948949,192.10909090909092 244.9069069069069,192.10909090909092 245.91891891891893,192.10909090909092 246.93093093093094,192.10909090909092 247.94294294294295,192.10909090909092 248.95495495495496,192.10909090909092 249.96696696696696,192.10909090909092 250.97897897897897,192.10909090909092 251.990990990991,192.10909090909092 252.496996996997,184.9939393939394 253.00300300300302,177.878787878788 253.50900900900902,174.32121212121217 254.52102102102103,174.32121212121217 255.53303303303304,174.32121212121217 256.5450450450451,163.64848484848494 257.5570570570571,163.64848484848494 258.5690690690691,163.64848484848494 259.5810810810811,163.64848484848494 260.5930930930931,163.64848484848494 261.6051051051051,163.64848484848494 262.6171171171171,163.64848484848494 263.6291291291291,163.64848484848494 264.64114114114113,163.64848484848494 265.65315315315314,163.64848484848494 266.66516516516515,163.64848484848494 267.67717717717716,163.64848484848494 268.68918918918916,163.64848484848494 269.70120120120123,163.64848484848494 270.71321321321324,160.09090909090912 271.72522522522524,160.09090909090912 272.73723723723725,160.09090909090912 273.74924924924926,160.09090909090912 274.76126126126127,160.09090909090912 275.7732732732733,160.09090909090912 276.7852852852853,160.09090909090912 277.7972972972973,160.09090909090912 278.8093093093093,160.09090909090912 279.8213213213213,160.09090909090912 280.8333333333333,160.09090909090912 281.8453453453453,160.09090909090912 282.8573573573574,160.09090909090912 283.8693693693694,160.09090909090912 284.8813813813814,160.09090909090912 285.8933933933934,160.09090909090912 286.9054054054054,160.09090909090912 287.9174174174174,160.09090909090912 288.92942942942943,160.09090909090912 289.94144144144144,160.09090909090912 290.95345345345345,160.09090909090912 291.96546546546546,156.53333333333342 292.4714714714715,152.9757575757576 293.4834834834835,152.9757575757576 294.4954954954955,152.9757575757576 295.5075075075075,152.9757575757576 296.5195195195195,152.9757575757576 297.5315315315315,152.9757575757576 298.54354354354354,152.9757575757576 299.55555555555554,152.9757575757576 300.56756756756755,152.9757575757576 301.57957957957956,152.9757575757576 302.5915915915916,152.9757575757576 303.60360360360363,152.9757575757576 304.61561561561564,152.9757575757576 305.62762762762765,152.9757575757576 306.63963963963965,152.9757575757576 307.65165165165166,152.9757575757576 308.66366366366367,152.9757575757576 309.6756756756757,152.9757575757576 310.6876876876877,152.9757575757576 311.6996996996997,152.9757575757576 312.7117117117117,152.9757575757576 313.7237237237237,152.9757575757576 314.7357357357357,152.9757575757576 315.7477477477477,152.9757575757576 316.7597597597598,152.9757575757576 317.7717717717718,152.9757575757576 318.7837837837838,152.9757575757576 319.7957957957958,152.9757575757576 320.3018018018018,149.4181818181819 321.3138138138138,149.4181818181819 322.3258258258258,149.4181818181819 323.33783783783787,149.4181818181819 324.3498498498499,149.4181818181819 325.3618618618619,149.4181818181819 326.3738738738739,149.4181818181819 327.3858858858859,149.4181818181819 328.3978978978979,149.4181818181819 329.4099099099099,149.4181818181819 330.4219219219219,149.4181818181819 331.43393393393393,149.4181818181819 332.44594594594594,149.4181818181819 333.45795795795794,145.8606060606062 334.46996996996995,145.8606060606062 335.48198198198196,138.74545454545466 336.493993993994,138.74545454545466 337.50600600600603,138.74545454545466 338.51801801801804,138.74545454545466 339.53003003003005,138.74545454545466 340.54204204204206,138.74545454545466 341.04804804804803,135.18787878787896 341.55405405405406,131.63030303030303 342.56606606606607,124.51515151515173 343.5780780780781,124.51515151515173 344.5900900900901,124.51515151515173 345.6021021021021,124.51515151515173 346.6141141141141,124.51515151515173 347.6261261261261,120.9575757575758 348.6381381381381,120.9575757575758 349.6501501501502,120.9575757575758 350.15615615615616,117.4000000000002 351.16816816816817,117.4000000000002 352.1801801801802,117.4000000000002 353.1921921921922,117.4000000000002 354.2042042042042,117.4000000000002 355.2162162162162,117.4000000000002 356.22822822822826,117.4000000000002 357.24024024024027,117.4000000000002 357.74624624624624,113.84242424242427 358.75825825825825,113.84242424242427 359.2642642642643,110.28484848484857 360.2762762762763,110.28484848484857 361.2882882882883,110.28484848484857 361.7942942942943,106.72727272727275 362.80630630630634,99.61212121212122 363.81831831831835,99.61212121212122 364.83033033033036,99.61212121212122 365.84234234234236,99.61212121212122 366.85435435435437,99.61212121212122 367.8663663663664,99.61212121212122 368.8783783783784,99.61212121212122 369.8903903903904,99.61212121212122 370.9024024024024,99.61212121212122 371.9144144144144,99.61212121212122 372.9264264264264,99.61212121212122 373.9384384384384,99.61212121212122 374.95045045045043,99.61212121212122 375.96246246246244,99.61212121212122 376.4684684684685,96.05454545454563 377.4804804804805,96.05454545454563 378.4924924924925,96.05454545454563 378.9984984984985,85.38181818181818 380.0105105105105,85.38181818181818 381.02252252252254,78.26666666666677 382.03453453453454,78.26666666666677 383.04654654654655,78.26666666666677 384.05855855855856,74.70909090909095 385.07057057057057,74.70909090909095 386.0825825825826,74.70909090909095 387.0945945945946,74.70909090909095 388.1066066066066,74.70909090909095 389.1186186186186,74.70909090909095 389.62462462462463,67.59393939393954 390.63663663663664,64.03636363636372 391.64864864864865,64.03636363636372 392.66066066066065,64.03636363636372 393.67267267267266,60.4787878787879 394.68468468468467,60.4787878787879 395.6966966966967,60.4787878787879 396.70870870870874,60.4787878787879 397.72072072072075,60.4787878787879 398.73273273273276,60.4787878787879 399.74474474474476,60.4787878787879 400.7567567567568,60.4787878787879 401.7687687687688,60.4787878787879 402.7807807807808,60.4787878787879 403.7927927927928,53.363636363636374 404.8048048048048,53.363636363636374 405.8168168168168,49.806060606060555 406.8288288288288,49.806060606060555 407.8408408408408,49.806060606060555 408.34684684684686,46.24848484848508 409.35885885885887,46.24848484848508 410.3708708708709,46.24848484848508 411.3828828828829,46.24848484848508 411.8888888888889,39.133333333333326 412.9009009009009,39.133333333333326 413.91291291291293,39.133333333333326 414.92492492492494,39.133333333333326 415.93693693693695,39.133333333333326 416.94894894894895,39.133333333333326 417.96096096096096,39.133333333333326 418.97297297297297,39.133333333333326 419.478978978979,32.018181818181915 419.984984984985,28.460606060606096 420.996996996997,28.460606060606096 422.009009009009,28.460606060606096 422.515015015015,24.903030303030278 423.52702702702703,24.903030303030278 424.53903903903904,24.903030303030278 425.55105105105105,24.903030303030278 426.0570570570571,21.345454545454572 427.0690690690691,21.345454545454572 428.0810810810811,21.345454545454572 429.0930930930931,21.345454545454572 430.1051051051051,21.345454545454572 431.1171171171171,21.345454545454572 432.1291291291291,21.345454545454572 433.14114114114113,21.345454545454572 434.15315315315314,21.345454545454572 435.16516516516515,21.345454545454572 436.17717717717716,21.345454545454572 437.1891891891892,21.345454545454572 438.20120120120123,17.78787878787898 439.21321321321324,17.78787878787898 440.22522522522524,17.78787878787898 441.23723723723725,17.78787878787898 442.24924924924926,17.78787878787898 443.26126126126127,17.78787878787898 444.2732732732733,17.78787878787898 445.2852852852853,17.78787878787898 446.2972972972973,14.230303030303162 447.3093093093093,14.230303030303162 448.3213213213213,14.230303030303162 449.3333333333333,14.230303030303162 450.3453453453454,14.230303030303162 451.3573573573574,14.230303030303162 452.3693693693694,14.230303030303162 453.3813813813814,14.230303030303162 454.3933933933934,14.230303030303162 455.4054054054054,14.230303030303162 456.4174174174174,14.230303030303162 457.42942942942943,14.230303030303162 458.44144144144144,14.230303030303162 459.45345345345345,14.230303030303162 460.46546546546546,10.672727272727343 461.47747747747746,10.672727272727343 462.4894894894895,10.672727272727343 463.5015015015015,10.672727272727343 464.51351351351354,7.115151515151524 465.52552552552555,7.115151515151524 466.53753753753756,7.115151515151524 467.54954954954957,7.115151515151524 468.5615615615616,7.115151515151524 469.5735735735736,7.115151515151524 470.5855855855856,7.115151515151524 471.5975975975976,7.115151515151524 472.6096096096096,7.115151515151524 473.6216216216216,7.115151515151524 474.6336336336336,7.115151515151524 475.64564564564563,7.115151515151524 476.65765765765764,7.115151515151524 477.6696696696697,7.115151515151524 478.6816816816817,7.115151515151524 479.6936936936937,7.115151515151524 480.7057057057057,7.115151515151524 481.71771771771773,7.115151515151524 482.72972972972974,7.115151515151524 483.74174174174175,7.115151515151524 484.75375375375376,7.115151515151524 485.76576576576576,7.115151515151524 486.77777777777777,7.115151515151524 487.7897897897898,7.115151515151524 488.8018018018018,7.115151515151524 489.8138138138138,7.115151515151524 490.82582582582586,7.115151515151524 491.83783783783787,7.115151515151524 492.8498498498499,7.115151515151524 493.8618618618619,7.115151515151524 494.8738738738739,7.115151515151524 495.8858858858859,7.115151515151524 496.8978978978979,7.115151515151524 497.9099099099099,3.557575757575705 498.9219219219219,3.557575757575705 499.93393393393393,3.557575757575705 500.94594594594594,0 501.95795795795794,0 502.96996996996995,0 503.981981981982,0 504.993993993994,0" style="fill: none; stroke: rgb(255, 0, 255); stroke-width: 3px; stroke-opacity: 1;"></polyline></g></svg></svg><svg id="SvgjsSvg1716" style="overflow: visible;" x="574.5"><svg xmlns="http://www.w3.org/2000/svg" version="1.1" xmlns:xlink="http://www.w3.org/1999/xlink" xmlns:svgjs="http://svgjs.com/svgjs" width="200" height="60"><defs id="SvgjsDefs1702"><clipPath id="SvgjsClipPath1710"><rect id="SvgjsRect1709" width="170" height="30"></rect></clipPath><clipPath id="SvgjsClipPath1713"><rect id="SvgjsRect1712" width="180" height="60"></rect></clipPath></defs><g id="SvgjsG1703" clip-path="url(&quot;#SvgjsClipPath1713&quot;)"><g id="SvgjsG1704" transform="matrix(1,0,0,1,5,0)"><rect id="SvgjsRect1705" width="170" height="30" fill="white" opacity="0.5"></rect><line id="SvgjsLine1706" x1="0" y1="0" x2="18" y2="18" stroke="#ff00ff" stroke-width="3" transform="matrix(1,0,0,1,5,5)"></line><text id="SvgjsText1707" font-family="Arial, Helvetica, sans-serif" font-size="14" font-weight="400" family="Arial, Helvetica, sans-serif" size="14" weight="400" transform="matrix(1,0,0,1,40,0)" svgjs:data="{&quot;leading&quot;:&quot;1.3&quot;}"><tspan id="SvgjsTspan1708" dy="18.2" x="0" svgjs:data="{&quot;newLined&quot;:true}">C</tspan></text></g></g></svg></svg></svg>