<svg xmlns="http://www.w3.org/2000/svg" version="1.1" xmlns:xlink="http://www.w3.org/1999/xlink" xmlns:svgjs="http://svgjs.com/svgjs" width="774.5" height="761.4"><defs id="SvgjsDefs2068"></defs><svg id="SvgjsSvg2069" style="overflow: visible;"><svg xmlns="http://www.w3.org/2000/svg" version="1.1" xmlns:xlink="http://www.w3.org/1999/xlink" xmlns:svgjs="http://svgjs.com/svgjs" width="574.5" height="761.4"><defs id="SvgjsDefs2012"></defs><g id="SvgjsG2013" transform="matrix(1,0,0,1,0,0)"><g id="SvgjsG2014" transform="matrix(1,0,0,1,0,0)"><text id="SvgjsText2015" font-family="Arial, Helvetica, sans-serif" font-size="16" font-weight="400" text-anchor="middle" family="Arial, Helvetica, sans-serif" size="16" weight="400" anchor="middle" transform="matrix(0,-1,1,0,0,352.2)" svgjs:data="{&quot;leading&quot;:&quot;1.3&quot;}"><tspan id="SvgjsTspan2016" dy="20.8" x="0" svgjs:data="{&quot;newLined&quot;:true}">Individuals</tspan></text></g><g id="SvgjsG2017" transform="matrix(1,0,0,1,20,0)" width="32" height="704.4"><text id="SvgjsText2018" font-family="Arial, Helvetica, sans-serif" font-size="16px" family="Arial, Helvetica, sans-serif" size="16px" transform="matrix(1,0,0,1,0,694.4000244140625)" svgjs:data="{&quot;leading&quot;:&quot;1.3&quot;}"><tspan id="SvgjsTspan2019" dy="20.8" x="0" svgjs:data="{&quot;newLined&quot;:true}">0</tspan></text><text id="SvgjsText2020" font-family="Arial, Helvetica, sans-serif" font-size="16px" family="Arial, Helvetica, sans-serif" size="16px" transform="matrix(1,0,0,1,0,575.5830078125)" svgjs:data="{&quot;leading&quot;:&quot;1.3&quot;}"><tspan id="SvgjsTspan2021" dy="20.8" x="0" svgjs:data="{&quot;newLined&quot;:true}">5</tspan></text><text id="SvgjsText2022" font-family="Arial, Helvetica, sans-serif" font-size="16px" family="Arial, Helvetica, sans-serif" size="16px" transform="matrix(1,0,0,1,0,456.7669982910156)" svgjs:data="{&quot;leading&quot;:&quot;1.3&quot;}"><tspan id="SvgjsTspan2023" dy="20.8" x="0" svgjs:data="{&quot;newLined&quot;:true}">10</tspan></text><text id="SvgjsText2024" font-family="Arial, Helvetica, sans-serif" font-size="16px" family="Arial, Helvetica, sans-serif" size="16px" transform="matrix(1,0,0,1,0,337.95001220703125)" svgjs:data="{&quot;leading&quot;:&quot;1.3&quot;}"><tspan id="SvgjsTspan2025" dy="20.8" x="0" svgjs:data="{&quot;newLined&quot;:true}">15</tspan></text><text id="SvgjsText2026" font-family="Arial, Helvetica, sans-serif" font-size="16px" family="Arial, Helvetica, sans-serif" size="16px" transform="matrix(1,0,0,1,0,219.13299560546875)" svgjs:data="{&quot;leading&quot;:&quot;1.3&quot;}"><tspan id="SvgjsTspan2027" dy="20.8" x="0" svgjs:data="{&quot;newLined&quot;:true}">20</tspan></text><text id="SvgjsText2028" font-family="Arial, Helvetica, sans-serif" font-size="16px" family="Arial, Helvetica, sans-serif" size="16px" transform="matrix(1,0,0,1,0,100.31700134277344)" svgjs:data="{&quot;leading&quot;:&quot;1.3&quot;}"><tspan id="SvgjsTspan2029" dy="20.8" x="0" svgjs:data="{&quot;newLined&quot;:true}">25</tspan></text><path id="SvgjsPath2030" d="M31 0v704.4M31 703.4h-10M31 584.5824324324324h-10M31 465.7648648648648h-10M31 346.94729729729727h-10M31 228.12972972972966h-10M31 109.31216216216205h-10M31 692.5182432432432h-3.3333333333333335M31 680.6364864864864h-3.3333333333333335M31 668.7547297297297h-3.3333333333333335M31 656.872972972973h-3.3333333333333335M31 644.9912162162162h-3.3333333333333335M31 633.1094594594595h-3.3333333333333335M31 621.2277027027027h-3.3333333333333335M31 609.3459459459459h-3.3333333333333335M31 597.4641891891891h-3.3333333333333335M31 573.7006756756757h-3.3333333333333335M31 561.8189189189188h-3.3333333333333335M31 549.9371621621622h-3.3333333333333335M31 538.0554054054054h-3.3333333333333335M31 526.1736486486486h-3.3333333333333335M31 514.2918918918919h-3.3333333333333335M31 502.4101351351351h-3.3333333333333335M31 490.5283783783783h-3.3333333333333335M31 478.6466216216216h-3.3333333333333335M31 454.88310810810805h-3.3333333333333335M31 443.00135135135133h-3.3333333333333335M31 431.11959459459456h-3.3333333333333335M31 419.2378378378378h-3.3333333333333335M31 407.356081081081h-3.3333333333333335M31 395.47432432432424h-3.3333333333333335M31 383.5925675675675h-3.3333333333333335M31 371.71081081081076h-3.3333333333333335M31 359.829054054054h-3.3333333333333335M31 336.0655405405405h-3.3333333333333335M31 324.1837837837837h-3.3333333333333335M31 312.30202702702695h-3.3333333333333335M31 300.4202702702702h-3.3333333333333335M31 288.53851351351346h-3.3333333333333335M31 276.6567567567567h-3.3333333333333335M31 264.7749999999999h-3.3333333333333335M31 252.8932432432432h-3.3333333333333335M31 241.01148648648643h-3.3333333333333335M31 217.2479729729729h-3.3333333333333335M31 205.36621621621612h-3.3333333333333335M31 193.4844594594594h-3.3333333333333335M31 181.6027027027027h-3.3333333333333335M31 169.7209459459459h-3.3333333333333335M31 157.83918918918914h-3.3333333333333335M31 145.95743243243237h-3.3333333333333335M31 134.0756756756756h-3.3333333333333335M31 122.19391891891883h-3.3333333333333335M31 98.43040540540528h-3.3333333333333335M31 86.54864864864851h-3.3333333333333335M31 74.66689189189185h-3.3333333333333335M31 62.78513513513508h-3.3333333333333335M31 50.90337837837831h-3.3333333333333335M31 39.021621621621534h-3.3333333333333335M31 27.139864864864762h-3.3333333333333335M31 15.25810810810799h-3.3333333333333335M31 3.376351351351218h-3.3333333333333335" stroke="#000000" fill="none"></path></g></g><g id="SvgjsG2031"><g id="SvgjsG2032" transform="matrix(1,0,0,1,52,0)"><text id="SvgjsText2033" font-family="Arial, Helvetica, sans-serif" font-size="16" font-weight="400" text-anchor="middle" family="Arial, Helvetica, sans-serif" size="16" weight="400" anchor="middle" transform="matrix(1,0,0,1,0,0)" svgjs:data="{&quot;leading&quot;:&quot;1.3&quot;}"><tspan id="SvgjsTspan2034" dy="20.8" x="0" svgjs:data="{&quot;newLined&quot;:true}"></tspan></text></g></g><g id="SvgjsG2035"><g id="SvgjsG2036" transform="matrix(1,0,0,1,52,704.4)" width="505.5" height="29"><text id="SvgjsText2037" font-family="Arial, Helvetica, sans-serif" font-size="16px" family="Arial, Helvetica, sans-serif" size="16px" transform="matrix(1,0,0,1,-4.5,10)" svgjs:data="{&quot;leading&quot;:&quot;1.3&quot;}"><tspan id="SvgjsTspan2038" dy="20.8" x="0" svgjs:data="{&quot;newLined&quot;:true}">0</tspan></text><text id="SvgjsText2039" font-family="Arial, Helvetica, sans-serif" font-size="16px" family="Arial, Helvetica, sans-serif" size="16px" transform="matrix(1,0,0,1,230,10)" svgjs:data="{&quot;leading&quot;:&quot;1.3&quot;}"><tspan id="SvgjsTspan2040" dy="20.8" x="0" svgjs:data="{&quot;newLined&quot;:true}">50000</tspan></text><path id="SvgjsPath2041" d="M0 0h505.5M0 0v10M252.50250250250252 0v10M25.250250250250254 0v3.3333333333333335M50.50050050050051 0v3.3333333333333335M75.75075075075075 0v3.3333333333333335M101.00100100100101 0v3.3333333333333335M126.25125125125126 0v3.3333333333333335M151.5015015015015 0v3.3333333333333335M176.75175175175175 0v3.3333333333333335M202.00200200200203 0v3.3333333333333335M227.25225225225228 0v3.3333333333333335M277.75275275275277 0v3.3333333333333335M303.003003003003 0v3.3333333333333335M328.25325325325326 0v3.3333333333333335M353.5035035035035 0v3.3333333333333335M378.75375375375376 0v3.3333333333333335M404.00400400400406 0v3.3333333333333335M429.2542542542543 0v3.3333333333333335M454.50450450450455 0v3.3333333333333335M479.7547547547548 0v3.3333333333333335" stroke="#000000" fill="none"></path></g><g id="SvgjsG2042" transform="matrix(1,0,0,1,52,733.4)"><text id="SvgjsText2043" font-family="Arial, Helvetica, sans-serif" font-size="16" font-weight="400" text-anchor="middle" family="Arial, Helvetica, sans-serif" size="16" weight="400" anchor="middle" transform="matrix(1,0,0,1,252.75,-9)" svgjs:data="{&quot;leading&quot;:&quot;1.3&quot;}"><tspan id="SvgjsTspan2044" dy="20.8" x="0" svgjs:data="{&quot;newLined&quot;:true}">Time (s)</tspan></text></g></g><g id="SvgjsG2045"></g><g id="SvgjsG2046" viewBox="0 0 505.5 704.4" transform="matrix(1,0,0,1,52,0)"><polyline id="SvgjsPolyline2047" points="0,0 0,703.4" stroke="LightGray" stroke-width="1" fill="none"></polyline><polyline id="SvgjsPolyline2048" points="252.50250250250252,0 252.50250250250252,703.4" stroke="LightGray" stroke-width="1" fill="none"></polyline><polyline id="SvgjsPolyline2049" points="0,703.4 504.5,703.4" stroke="LightGray" stroke-width="1" fill="none"></polyline><polyline id="SvgjsPolyline2050" points="0,584.5824324324324 504.5,584.5824324324324" stroke="LightGray" stroke-width="1" fill="none"></polyline><polyline id="SvgjsPolyline2051" points="0,465.7648648648648 504.5,465.7648648648648" stroke="LightGray" stroke-width="1" fill="none"></polyline><polyline id="SvgjsPolyline2052" points="0,346.94729729729727 504.5,346.94729729729727" stroke="LightGray" stroke-width="1" fill="none"></polyline><polyline id="SvgjsPolyline2053" points="0,228.12972972972966 504.5,228.12972972972966" stroke="LightGray" stroke-width="1" fill="none"></polyline><polyline id="SvgjsPolyline2054" points="0,109.31216216216205 504.5,109.31216216216205" stroke="LightGray" stroke-width="1" fill="none"></polyline><polyline id="SvgjsPolyline2055" points="0,704.4 0.506006006006006,687.7418918918919 1.012012012012012,661.5648648648648 1.518018018018018,616.3499999999999 2.024024024024024,537.8189189189188 2.53003003003003,494.98378378378374 3.036036036036036,445.00945945945944 3.542042042042042,421.21216216216214 4.048048048048048,395.0351351351351 4.554054054054054,383.13648648648643 5.06006006006006,356.9594594594594 5.566066066066067,323.6432432432432 6.072072072072072,299.8459459459459 6.578078078078078,285.5675675675675 7.084084084084084,276.0486486486485 7.59009009009009,261.77027027027026 8.096096096096096,235.59324324324314 8.602102102102101,218.9351351351351 9.108108108108109,211.7959459459459 9.614114114114114,195.13783783783776 10.626126126126126,192.75810810810805 11.132132132132133,187.99864864864867 11.638138138138139,178.47972972972968 12.65015015015015,176.10000000000002 13.662162162162163,176.10000000000002 14.168168168168169,173.72027027027025 14.674174174174174,168.9608108108108 15.18018018018018,166.58108108108104 16.19219219219219,164.20135135135138 16.6981981981982,154.6824324324324 17.204204204204203,152.30270270270262 17.71021021021021,140.40405405405397 18.216216216216218,133.26486486486476 18.72222222222222,128.50540540540533 19.22822822822823,121.36621621621612 20.24024024024024,118.98648648648646 20.746246246246248,116.60675675675668 21.25225225225225,114.22702702702702 21.75825825825826,111.84729729729725 22.264264264264266,109.46756756756747 23.276276276276278,109.46756756756747 24.28828828828829,109.46756756756747 25.3003003003003,109.46756756756747 26.31231231231231,107.08783783783781 27.324324324324326,107.08783783783781 28.336336336336338,95.18918918918916 29.34834834834835,95.18918918918916 30.36036036036036,92.80945945945939 30.866366366366368,83.29054054054052 31.87837837837838,83.29054054054052 32.890390390390394,83.29054054054052 33.9024024024024,80.91081081081074 34.914414414414416,80.91081081081074 35.926426426426424,80.91081081081074 36.93843843843844,80.91081081081074 37.44444444444444,71.39189189189176 38.45645645645646,71.39189189189176 39.468468468468465,69.0121621621621 40.48048048048048,69.0121621621621 41.492492492492495,66.63243243243232 42.5045045045045,66.63243243243232 43.51651651651652,66.63243243243232 44.02252252252252,61.87297297297289 44.52852852852853,59.49324324324323 45.54054054054054,59.49324324324323 46.046546546546544,54.73378378378379 47.05855855855856,54.73378378378379 48.070570570570574,52.354054054053904 49.08258258258258,49.97432432432424 50.0945945945946,49.97432432432424 51.106606606606604,49.97432432432424 52.11861861861862,49.97432432432424 53.130630630630634,49.97432432432424 54.14264264264264,49.97432432432424 55.15465465465466,49.97432432432424 56.166666666666664,49.97432432432424 57.17867867867868,49.97432432432424 58.190690690690694,49.97432432432424 59.2027027027027,49.97432432432424 60.21471471471472,49.97432432432424 61.226726726726724,49.97432432432424 62.23873873873874,49.97432432432424 63.250750750750754,49.97432432432424 64.26276276276276,49.97432432432424 65.27477477477477,49.97432432432424 66.28678678678679,49.97432432432424 67.2987987987988,49.97432432432424 68.3108108108108,49.97432432432424 69.32282282282283,49.97432432432424 70.33483483483484,49.97432432432424 71.34684684684684,49.97432432432424 72.35885885885887,49.97432432432424 73.37087087087087,49.97432432432424 74.38288288288288,49.97432432432424 75.39489489489489,49.97432432432424 76.40690690690691,49.97432432432424 77.41891891891892,49.97432432432424 78.43093093093093,49.97432432432424 79.44294294294295,49.97432432432424 79.94894894894895,45.21486486486481 80.96096096096096,45.21486486486481 81.97297297297297,45.21486486486481 82.98498498498499,45.21486486486481 83.996996996997,45.21486486486481 85.009009009009,45.21486486486481 85.51501501501501,42.83513513513503 86.02102102102103,40.45540540540537 87.03303303303304,40.45540540540537 88.04504504504504,40.45540540540537 89.05705705705707,40.45540540540537 90.06906906906907,40.45540540540537 91.08108108108108,40.45540540540537 92.09309309309309,40.45540540540537 93.10510510510511,40.45540540540537 94.11711711711712,40.45540540540537 95.12912912912913,40.45540540540537 96.14114114114115,40.45540540540537 97.15315315315316,40.45540540540537 98.16516516516516,40.45540540540537 99.17717717717719,40.45540540540537 100.1891891891892,40.45540540540537 101.2012012012012,40.45540540540537 102.21321321321321,40.45540540540537 103.22522522522523,40.45540540540537 104.23723723723724,40.45540540540537 105.24924924924925,40.45540540540537 106.26126126126127,40.45540540540537 107.27327327327328,40.45540540540537 108.28528528528528,40.45540540540537 109.2972972972973,40.45540540540537 110.30930930930931,40.45540540540537 111.32132132132132,40.45540540540537 112.33333333333333,40.45540540540537 113.34534534534535,40.45540540540537 114.35735735735736,40.45540540540537 115.36936936936937,40.45540540540537 116.38138138138139,40.45540540540537 117.3933933933934,40.45540540540537 118.4054054054054,40.45540540540537 119.41741741741743,40.45540540540537 120.42942942942943,40.45540540540537 121.44144144144144,40.45540540540537 122.45345345345345,40.45540540540537 123.46546546546547,40.45540540540537 124.47747747747748,40.45540540540537 125.48948948948949,40.45540540540537 126.50150150150151,40.45540540540537 127.51351351351352,40.45540540540537 128.01951951951952,38.0756756756756 129.03153153153153,38.0756756756756 129.53753753753753,35.69594594594582 130.54954954954954,35.69594594594582 131.56156156156158,35.69594594594582 132.57357357357358,35.69594594594582 133.5855855855856,35.69594594594582 134.5975975975976,35.69594594594582 135.6096096096096,35.69594594594582 136.6216216216216,35.69594594594582 137.63363363363362,35.69594594594582 138.64564564564566,35.69594594594582 139.65765765765767,35.69594594594582 140.66966966966967,35.69594594594582 141.68168168168168,35.69594594594582 142.6936936936937,35.69594594594582 143.7057057057057,35.69594594594582 144.71771771771773,35.69594594594582 145.72972972972974,35.69594594594582 146.74174174174175,35.69594594594582 147.75375375375376,35.69594594594582 148.76576576576576,35.69594594594582 149.77777777777777,35.69594594594582 150.78978978978978,35.69594594594582 151.80180180180182,35.69594594594582 152.81381381381382,35.69594594594582 153.82582582582583,35.69594594594582 154.83783783783784,35.69594594594582 155.84984984984985,35.69594594594582 156.86186186186185,35.69594594594582 157.87387387387386,35.69594594594582 158.8858858858859,35.69594594594582 159.8978978978979,35.69594594594582 160.9099099099099,35.69594594594582 161.92192192192192,35.69594594594582 162.93393393393393,35.69594594594582 163.43993993993993,30.936486486486388 164.45195195195194,30.936486486486388 165.46396396396398,30.936486486486388 166.47597597597598,30.936486486486388 167.487987987988,30.936486486486388 168.5,30.936486486486388 169.512012012012,30.936486486486388 170.52402402402402,30.936486486486388 171.53603603603605,30.936486486486388 172.54804804804806,30.936486486486388 173.56006006006007,30.936486486486388 174.57207207207207,30.936486486486388 175.58408408408408,30.936486486486388 176.5960960960961,30.936486486486388 177.6081081081081,30.936486486486388 178.62012012012013,30.936486486486388 179.63213213213214,30.936486486486388 180.64414414414415,28.556756756756727 181.65615615615616,28.556756756756727 182.66816816816817,28.556756756756727 183.68018018018017,28.556756756756727 184.69219219219218,26.177027027026952 185.1981981981982,23.79729729729729 186.21021021021022,23.79729729729729 187.22222222222223,23.79729729729729 188.23423423423424,23.79729729729729 189.24624624624624,23.79729729729729 190.25825825825825,23.79729729729729 191.27027027027026,23.79729729729729 192.2822822822823,23.79729729729729 193.2942942942943,23.79729729729729 194.3063063063063,23.79729729729729 195.31831831831832,23.79729729729729 196.33033033033033,23.79729729729729 197.34234234234233,23.79729729729729 198.35435435435437,23.79729729729729 199.36636636636638,23.79729729729729 200.3783783783784,23.79729729729729 201.3903903903904,23.79729729729729 202.4024024024024,23.79729729729729 203.4144144144144,23.79729729729729 204.42642642642642,23.79729729729729 205.43843843843845,23.79729729729729 206.45045045045046,23.79729729729729 207.46246246246247,23.79729729729729 208.47447447447448,23.79729729729729 209.48648648648648,23.79729729729729 210.4984984984985,23.79729729729729 211.5105105105105,23.79729729729729 212.52252252252254,23.79729729729729 213.53453453453454,23.79729729729729 214.54654654654655,23.79729729729729 215.55855855855856,23.79729729729729 216.57057057057057,23.79729729729729 217.58258258258257,23.79729729729729 218.5945945945946,23.79729729729729 219.60660660660662,23.79729729729729 220.61861861861863,23.79729729729729 221.63063063063063,23.79729729729729 222.64264264264264,23.79729729729729 223.65465465465465,23.79729729729729 224.66666666666666,23.79729729729729 225.6786786786787,23.79729729729729 226.6906906906907,23.79729729729729 227.7027027027027,23.79729729729729 228.71471471471472,23.79729729729729 229.72672672672672,23.79729729729729 230.73873873873873,23.79729729729729 231.75075075075074,23.79729729729729 232.76276276276278,23.79729729729729 233.77477477477478,23.79729729729729 234.7867867867868,23.79729729729729 235.7987987987988,23.79729729729729 236.8108108108108,23.79729729729729 237.82282282282281,23.79729729729729 238.83483483483485,23.79729729729729 239.84684684684686,23.79729729729729 240.85885885885887,23.79729729729729 241.87087087087087,21.417567567567403 242.88288288288288,21.417567567567403 243.8948948948949,19.037837837837742 244.9069069069069,19.037837837837742 245.91891891891893,19.037837837837742 246.93093093093094,19.037837837837742 247.94294294294295,19.037837837837742 248.95495495495496,19.037837837837742 249.96696696696696,19.037837837837742 250.97897897897897,19.037837837837742 251.990990990991,19.037837837837742 253.00300300300302,19.037837837837742 254.01501501501502,19.037837837837742 255.02702702702703,19.037837837837742 256.03903903903904,19.037837837837742 257.05105105105105,19.037837837837742 258.06306306306305,19.037837837837742 259.07507507507506,19.037837837837742 260.08708708708707,19.037837837837742 261.0990990990991,19.037837837837742 262.11111111111114,19.037837837837742 263.12312312312315,19.037837837837742 264.13513513513516,19.037837837837742 265.14714714714717,19.037837837837742 266.1591591591592,19.037837837837742 267.1711711711712,19.037837837837742 268.1831831831832,19.037837837837742 269.1951951951952,19.037837837837742 270.2072072072072,19.037837837837742 271.2192192192192,19.037837837837742 272.2312312312312,19.037837837837742 273.2432432432432,19.037837837837742 274.25525525525524,19.037837837837742 275.26726726726724,19.037837837837742 276.2792792792793,19.037837837837742 277.2912912912913,19.037837837837742 278.3033033033033,19.037837837837742 279.31531531531533,19.037837837837742 280.32732732732734,19.037837837837742 281.33933933933935,19.037837837837742 282.35135135135135,19.037837837837742 283.36336336336336,19.037837837837742 284.37537537537537,19.037837837837742 285.3873873873874,19.037837837837742 286.3993993993994,19.037837837837742 287.4114114114114,19.037837837837742 288.4234234234234,19.037837837837742 289.43543543543547,19.037837837837742 290.4474474474475,19.037837837837742 291.4594594594595,19.037837837837742 292.4714714714715,19.037837837837742 293.4834834834835,19.037837837837742 294.4954954954955,19.037837837837742 295.5075075075075,19.037837837837742 296.5195195195195,19.037837837837742 297.5315315315315,19.037837837837742 298.54354354354354,19.037837837837742 299.55555555555554,19.037837837837742 300.56756756756755,19.037837837837742 301.57957957957956,19.037837837837742 302.5915915915916,19.037837837837742 303.60360360360363,19.037837837837742 304.61561561561564,19.037837837837742 305.62762762762765,19.037837837837742 306.63963963963965,19.037837837837742 307.65165165165166,19.037837837837742 308.66366366366367,19.037837837837742 309.6756756756757,19.037837837837742 310.6876876876877,19.037837837837742 311.6996996996997,19.037837837837742 312.7117117117117,19.037837837837742 313.7237237237237,19.037837837837742 314.7357357357357,19.037837837837742 315.7477477477477,19.037837837837742 316.7597597597598,19.037837837837742 317.7717717717718,19.037837837837742 318.7837837837838,19.037837837837742 319.7957957957958,19.037837837837742 320.8078078078078,19.037837837837742 321.8198198198198,16.658108108107967 322.83183183183183,16.658108108107967 323.84384384384384,16.658108108107967 324.85585585585585,16.658108108107967 325.86786786786786,16.658108108107967 326.87987987987987,16.658108108107967 327.8918918918919,16.658108108107967 328.9039039039039,16.658108108107967 329.91591591591595,16.658108108107967 330.92792792792795,16.658108108107967 331.93993993993996,16.658108108107967 332.95195195195197,16.658108108107967 333.963963963964,16.658108108107967 334.975975975976,7.139189189189096 335.987987987988,7.139189189189096 337,7.139189189189096 338.012012012012,7.139189189189096 339.024024024024,7.139189189189096 340.036036036036,2.379729729729661 341.04804804804803,2.379729729729661 342.06006006006004,2.379729729729661 343.0720720720721,2.379729729729661 344.0840840840841,2.379729729729661 345.0960960960961,2.379729729729661 346.1081081081081,2.379729729729661 347.12012012012013,2.379729729729661 348.13213213213214,2.379729729729661 349.14414414414415,2.379729729729661 350.15615615615616,2.379729729729661 351.16816816816817,2.379729729729661 352.1801801801802,2.379729729729661 353.1921921921922,2.379729729729661 354.2042042042042,2.379729729729661 355.2162162162162,2.379729729729661 356.22822822822826,2.379729729729661 357.24024024024027,2.379729729729661 358.2522522522523,2.379729729729661 359.2642642642643,2.379729729729661 360.2762762762763,2.379729729729661 361.2882882882883,2.379729729729661 362.3003003003003,2.379729729729661 363.3123123123123,2.379729729729661 364.3243243243243,2.379729729729661 365.33633633633633,2.379729729729661 366.34834834834834,2.379729729729661 367.36036036036035,2.379729729729661 368.37237237237235,2.379729729729661 369.38438438438436,2.379729729729661 370.3963963963964,2.379729729729661 371.40840840840843,2.379729729729661 372.42042042042044,2.379729729729661 373.43243243243245,2.379729729729661 374.44444444444446,2.379729729729661 375.45645645645646,2.379729729729661 376.4684684684685,2.379729729729661 377.4804804804805,2.379729729729661 378.4924924924925,2.379729729729661 379.5045045045045,2.379729729729661 380.5165165165165,2.379729729729661 381.5285285285285,2.379729729729661 382.5405405405405,2.379729729729661 383.5525525525526,2.379729729729661 384.5645645645646,2.379729729729661 385.5765765765766,2.379729729729661 386.5885885885886,2.379729729729661 387.6006006006006,2.379729729729661 388.6126126126126,2.379729729729661 389.62462462462463,2.379729729729661 390.63663663663664,2.379729729729661 391.64864864864865,2.379729729729661 392.66066066066065,2.379729729729661 393.67267267267266,2.379729729729661 394.68468468468467,2.379729729729661 395.6966966966967,2.379729729729661 396.2027027027027,4.7594594594594355 397.2147147147147,4.7594594594594355 398.2267267267267,4.7594594594594355 399.23873873873873,4.7594594594594355 400.25075075075074,4.7594594594594355 401.26276276276275,4.7594594594594355 402.27477477477476,4.7594594594594355 403.2867867867868,4.7594594594594355 404.2987987987988,4.7594594594594355 405.31081081081084,4.7594594594594355 406.32282282282284,4.7594594594594355 407.33483483483485,4.7594594594594355 408.34684684684686,4.7594594594594355 409.35885885885887,4.7594594594594355 410.3708708708709,4.7594594594594355 411.3828828828829,4.7594594594594355 412.3948948948949,4.7594594594594355 413.4069069069069,4.7594594594594355 414.4189189189189,4.7594594594594355 415.4309309309309,4.7594594594594355 416.4429429429429,4.7594594594594355 417.454954954955,4.7594594594594355 418.466966966967,4.7594594594594355 419.478978978979,4.7594594594594355 420.490990990991,4.7594594594594355 421.503003003003,4.7594594594594355 422.515015015015,4.7594594594594355 423.52702702702703,4.7594594594594355 424.53903903903904,4.7594594594594355 425.55105105105105,4.7594594594594355 426.56306306306305,4.7594594594594355 427.57507507507506,4.7594594594594355 428.58708708708707,4.7594594594594355 429.5990990990991,4.7594594594594355 430.61111111111114,4.7594594594594355 431.62312312312315,4.7594594594594355 432.63513513513516,2.379729729729661 433.64714714714717,2.379729729729661 434.6591591591592,2.379729729729661 435.6711711711712,2.379729729729661 436.6831831831832,2.379729729729661 437.6951951951952,2.379729729729661 438.7072072072072,2.379729729729661 439.7192192192192,2.379729729729661 440.7312312312312,2.379729729729661 441.7432432432432,2.379729729729661 442.75525525525524,2.379729729729661 443.7672672672673,2.379729729729661 444.7792792792793,2.379729729729661 445.7912912912913,2.379729729729661 446.8033033033033,2.379729729729661 447.81531531531533,2.379729729729661 448.82732732732734,2.379729729729661 449.83933933933935,2.379729729729661 450.85135135135135,2.379729729729661 451.86336336336336,2.379729729729661 452.87537537537537,2.379729729729661 453.8873873873874,2.379729729729661 454.8993993993994,2.379729729729661 455.9114114114114,2.379729729729661 456.92342342342346,2.379729729729661 457.93543543543547,2.379729729729661 458.9474474474475,2.379729729729661 459.9594594594595,2.379729729729661 460.9714714714715,2.379729729729661 461.9834834834835,2.379729729729661 462.9954954954955,2.379729729729661 464.0075075075075,2.379729729729661 465.0195195195195,2.379729729729661 466.0315315315315,2.379729729729661 467.04354354354354,2.379729729729661 468.05555555555554,2.379729729729661 469.06756756756755,2.379729729729661 470.07957957957956,2.379729729729661 471.0915915915916,2.379729729729661 472.10360360360363,2.379729729729661 473.11561561561564,2.379729729729661 474.12762762762765,2.379729729729661 475.13963963963965,2.379729729729661 476.15165165165166,2.379729729729661 477.16366366366367,0 478.1756756756757,0 479.1876876876877,0 480.1996996996997,0 481.2117117117117,0 482.2237237237237,0 483.2357357357357,0 484.2477477477478,0 485.2597597597598,0 486.2717717717718,0 487.2837837837838,0 488.2957957957958,0 489.3078078078078,0 490.3198198198198,0 491.33183183183183,0 492.34384384384384,0 493.35585585585585,0 494.36786786786786,0 495.37987987987987,0 496.3918918918919,0 497.40390390390394,0 498.41591591591595,0 499.42792792792795,0 500.43993993993996,0 501.45195195195197,0 502.463963963964,0 503.475975975976,0 504.487987987988,0 505.5,0" style="fill: none; stroke: rgb(255, 0, 255); stroke-width: 3px; stroke-opacity: 1;"></polyline></g></svg></svg><svg id="SvgjsSvg2070" style="overflow: visible;" x="574.5"><svg xmlns="http://www.w3.org/2000/svg" version="1.1" xmlns:xlink="http://www.w3.org/1999/xlink" xmlns:svgjs="http://svgjs.com/svgjs" width="200" height="60"><defs id="SvgjsDefs2056"><clipPath id="SvgjsClipPath2064"><rect id="SvgjsRect2063" width="170" height="30"></rect></clipPath><clipPath id="SvgjsClipPath2067"><rect id="SvgjsRect2066" width="180" height="60"></rect></clipPath></defs><g id="SvgjsG2057" clip-path="url(&quot;#SvgjsClipPath2067&quot;)"><g id="SvgjsG2058" transform="matrix(1,0,0,1,5,0)"><rect id="SvgjsRect2059" width="170" height="30" fill="white" opacity="0.5"></rect><line id="SvgjsLine2060" x1="0" y1="0" x2="18" y2="18" stroke="#ff00ff" stroke-width="3" transform="matrix(1,0,0,1,5,5)"></line><text id="SvgjsText2061" font-family="Arial, Helvetica, sans-serif" font-size="14" font-weight="400" family="Arial, Helvetica, sans-serif" size="14" weight="400" transform="matrix(1,0,0,1,40,0)" svgjs:data="{&quot;leading&quot;:&quot;1.3&quot;}"><tspan id="SvgjsTspan2062" dy="18.2" x="0" svgjs:data="{&quot;newLined&quot;:true}">C</tspan></text></g></g></svg></svg></svg>