<svg xmlns="http://www.w3.org/2000/svg" version="1.1" xmlns:xlink="http://www.w3.org/1999/xlink" xmlns:svgjs="http://svgjs.com/svgjs" width="757.5" height="761.4"><defs id="SvgjsDefs2130"></defs><svg id="SvgjsSvg2131" style="overflow: visible;"><svg xmlns="http://www.w3.org/2000/svg" version="1.1" xmlns:xlink="http://www.w3.org/1999/xlink" xmlns:svgjs="http://svgjs.com/svgjs" width="557.5" height="761.4"><defs id="SvgjsDefs2071"></defs><g id="SvgjsG2072" transform="matrix(1,0,0,1,0,0)"><g id="SvgjsG2073" transform="matrix(1,0,0,1,0,0)"><text id="SvgjsText2074" font-family="Arial, Helvetica, sans-serif" font-size="16" font-weight="400" text-anchor="middle" family="Arial, Helvetica, sans-serif" size="16" weight="400" anchor="middle" transform="matrix(0,-1,1,0,0,352.2)" svgjs:data="{&quot;leading&quot;:&quot;1.3&quot;}"><tspan id="SvgjsTspan2075" dy="20.8" x="0" svgjs:data="{&quot;newLined&quot;:true}">Individuals</tspan></text></g><g id="SvgjsG2076" transform="matrix(1,0,0,1,20,0)" width="32" height="704.4"><text id="SvgjsText2077" font-family="Arial, Helvetica, sans-serif" font-size="16px" family="Arial, Helvetica, sans-serif" size="16px" transform="matrix(1,0,0,1,0,694.4000244140625)" svgjs:data="{&quot;leading&quot;:&quot;1.3&quot;}"><tspan id="SvgjsTspan2078" dy="20.8" x="0" svgjs:data="{&quot;newLined&quot;:true}">0</tspan></text><text id="SvgjsText2079" font-family="Arial, Helvetica, sans-serif" font-size="16px" family="Arial, Helvetica, sans-serif" size="16px" transform="matrix(1,0,0,1,0,577.5499877929688)" svgjs:data="{&quot;leading&quot;:&quot;1.3&quot;}"><tspan id="SvgjsTspan2080" dy="20.8" x="0" svgjs:data="{&quot;newLined&quot;:true}">5</tspan></text><text id="SvgjsText2081" font-family="Arial, Helvetica, sans-serif" font-size="16px" family="Arial, Helvetica, sans-serif" size="16px" transform="matrix(1,0,0,1,0,460.7170104980469)" svgjs:data="{&quot;leading&quot;:&quot;1.3&quot;}"><tspan id="SvgjsTspan2082" dy="20.8" x="0" svgjs:data="{&quot;newLined&quot;:true}">10</tspan></text><text id="SvgjsText2083" font-family="Arial, Helvetica, sans-serif" font-size="16px" family="Arial, Helvetica, sans-serif" size="16px" transform="matrix(1,0,0,1,0,343.86700439453125)" svgjs:data="{&quot;leading&quot;:&quot;1.3&quot;}"><tspan id="SvgjsTspan2084" dy="20.8" x="0" svgjs:data="{&quot;newLined&quot;:true}">15</tspan></text><text id="SvgjsText2085" font-family="Arial, Helvetica, sans-serif" font-size="16px" family="Arial, Helvetica, sans-serif" size="16px" transform="matrix(1,0,0,1,0,227.01699829101562)" svgjs:data="{&quot;leading&quot;:&quot;1.3&quot;}"><tspan id="SvgjsTspan2086" dy="20.8" x="0" svgjs:data="{&quot;newLined&quot;:true}">20</tspan></text><text id="SvgjsText2087" font-family="Arial, Helvetica, sans-serif" font-size="16px" family="Arial, Helvetica, sans-serif" size="16px" transform="matrix(1,0,0,1,0,110.18299865722656)" svgjs:data="{&quot;leading&quot;:&quot;1.3&quot;}"><tspan id="SvgjsTspan2088" dy="20.8" x="0" svgjs:data="{&quot;newLined&quot;:true}">25</tspan></text><text id="SvgjsText2089" font-family="Arial, Helvetica, sans-serif" font-size="16px" family="Arial, Helvetica, sans-serif" size="16px" transform="matrix(1,0,0,1,0,-6.666669845581055)" svgjs:data="{&quot;leading&quot;:&quot;1.3&quot;}"><tspan id="SvgjsTspan2090" dy="20.8" x="0" svgjs:data="{&quot;newLined&quot;:true}">30</tspan></text><path id="SvgjsPath2091" d="M31 0v704.4M31 703.4h-10M31 586.5561461794019h-10M31 469.712292358804h-10M31 352.86843853820596h-10M31 236.02458471760798h-10M31 119.18073089701h-10M31 2.3368770764119517h-10M31 692.7156146179402h-3.3333333333333335M31 681.0312292358803h-3.3333333333333335M31 669.3468438538206h-3.3333333333333335M31 657.6624584717608h-3.3333333333333335M31 645.978073089701h-3.3333333333333335M31 634.2936877076412h-3.3333333333333335M31 622.6093023255814h-3.3333333333333335M31 610.9249169435216h-3.3333333333333335M31 599.2405315614618h-3.3333333333333335M31 575.8717607973422h-3.3333333333333335M31 564.1873754152824h-3.3333333333333335M31 552.5029900332225h-3.3333333333333335M31 540.8186046511628h-3.3333333333333335M31 529.1342192691029h-3.3333333333333335M31 517.4498338870432h-3.3333333333333335M31 505.7654485049834h-3.3333333333333335M31 494.0810631229236h-3.3333333333333335M31 482.39667774086377h-3.3333333333333335M31 459.0279069767442h-3.3333333333333335M31 447.3435215946844h-3.3333333333333335M31 435.65913621262456h-3.3333333333333335M31 423.9747508305648h-3.3333333333333335M31 412.290365448505h-3.3333333333333335M31 400.60598006644517h-3.3333333333333335M31 388.9215946843854h-3.3333333333333335M31 377.2372093023256h-3.3333333333333335M31 365.5528239202658h-3.3333333333333335M31 342.1840531561462h-3.3333333333333335M31 330.4996677740864h-3.3333333333333335M31 318.8152823920266h-3.3333333333333335M31 307.1308970099668h-3.3333333333333335M31 295.446511627907h-3.3333333333333335M31 283.7621262458472h-3.3333333333333335M31 272.07774086378737h-3.3333333333333335M31 260.3933554817276h-3.3333333333333335M31 248.7089700996678h-3.3333333333333335M31 225.34019933554822h-3.3333333333333335M31 213.6558139534884h-3.3333333333333335M31 201.9714285714286h-3.3333333333333335M31 190.28704318936877h-3.3333333333333335M31 178.60265780730901h-3.3333333333333335M31 166.91827242524914h-3.3333333333333335M31 155.23388704318938h-3.3333333333333335M31 143.54950166112963h-3.3333333333333335M31 131.86511627906975h-3.3333333333333335M31 108.49634551495024h-3.3333333333333335M31 96.81196013289036h-3.3333333333333335M31 85.1275747508306h-3.3333333333333335M31 73.44318936877085h-3.3333333333333335M31 61.75880398671097h-3.3333333333333335M31 50.074418604651214h-3.3333333333333335M31 38.390033222591455h-3.3333333333333335M31 26.705647840531583h-3.3333333333333335M31 15.021262458471824h-3.3333333333333335" stroke="#000000" fill="none"></path></g></g><g id="SvgjsG2092"><g id="SvgjsG2093" transform="matrix(1,0,0,1,52,0)"><text id="SvgjsText2094" font-family="Arial, Helvetica, sans-serif" font-size="16" font-weight="400" text-anchor="middle" family="Arial, Helvetica, sans-serif" size="16" weight="400" anchor="middle" transform="matrix(1,0,0,1,0,0)" svgjs:data="{&quot;leading&quot;:&quot;1.3&quot;}"><tspan id="SvgjsTspan2095" dy="20.8" x="0" svgjs:data="{&quot;newLined&quot;:true}"></tspan></text></g></g><g id="SvgjsG2096"><g id="SvgjsG2097" transform="matrix(1,0,0,1,52,704.4)" width="505.5" height="29"><text id="SvgjsText2098" font-family="Arial, Helvetica, sans-serif" font-size="16px" family="Arial, Helvetica, sans-serif" size="16px" transform="matrix(1,0,0,1,-4.5,10)" svgjs:data="{&quot;leading&quot;:&quot;1.3&quot;}"><tspan id="SvgjsTspan2099" dy="20.8" x="0" svgjs:data="{&quot;newLined&quot;:true}">0</tspan></text><text id="SvgjsText2100" font-family="Arial, Helvetica, sans-serif" font-size="16px" family="Arial, Helvetica, sans-serif" size="16px" transform="matrix(1,0,0,1,230,10)" svgjs:data="{&quot;leading&quot;:&quot;1.3&quot;}"><tspan id="SvgjsTspan2101" dy="20.8" x="0" svgjs:data="{&quot;newLined&quot;:true}">50000</tspan></text><path id="SvgjsPath2102" d="M0 0h505.5M0 0v10M252.50250250250252 0v10M25.250250250250254 0v3.3333333333333335M50.50050050050051 0v3.3333333333333335M75.75075075075075 0v3.3333333333333335M101.00100100100101 0v3.3333333333333335M126.25125125125126 0v3.3333333333333335M151.5015015015015 0v3.3333333333333335M176.75175175175175 0v3.3333333333333335M202.00200200200203 0v3.3333333333333335M227.25225225225228 0v3.3333333333333335M277.75275275275277 0v3.3333333333333335M303.003003003003 0v3.3333333333333335M328.25325325325326 0v3.3333333333333335M353.5035035035035 0v3.3333333333333335M378.75375375375376 0v3.3333333333333335M404.00400400400406 0v3.3333333333333335M429.2542542542543 0v3.3333333333333335M454.50450450450455 0v3.3333333333333335M479.7547547547548 0v3.3333333333333335" stroke="#000000" fill="none"></path></g><g id="SvgjsG2103" transform="matrix(1,0,0,1,52,733.4)"><text id="SvgjsText2104" font-family="Arial, Helvetica, sans-serif" font-size="16" font-weight="400" text-anchor="middle" family="Arial, Helvetica, sans-serif" size="16" weight="400" anchor="middle" transform="matrix(1,0,0,1,252.75,-9)" svgjs:data="{&quot;leading&quot;:&quot;1.3&quot;}"><tspan id="SvgjsTspan2105" dy="20.8" x="0" svgjs:data="{&quot;newLined&quot;:true}">Time (s)</tspan></text></g></g><g id="SvgjsG2106"></g><g id="SvgjsG2107" viewBox="0 0 505.5 704.4" transform="matrix(1,0,0,1,52,0)"><polyline id="SvgjsPolyline2108" points="0,0 0,703.4" stroke="LightGray" stroke-width="1" fill="none"></polyline><polyline id="SvgjsPolyline2109" points="252.50250250250252,0 252.50250250250252,703.4" stroke="LightGray" stroke-width="1" fill="none"></polyline><polyline id="SvgjsPolyline2110" points="0,703.4 504.5,703.4" stroke="LightGray" stroke-width="1" fill="none"></polyline><polyline id="SvgjsPolyline2111" points="0,586.5561461794019 504.5,586.5561461794019" stroke="LightGray" stroke-width="1" fill="none"></polyline><polyline id="SvgjsPolyline2112" points="0,469.712292358804 504.5,469.712292358804" stroke="LightGray" stroke-width="1" fill="none"></polyline><polyline id="SvgjsPolyline2113" points="0,352.86843853820596 504.5,352.86843853820596" stroke="LightGray" stroke-width="1" fill="none"></polyline><polyline id="SvgjsPolyline2114" points="0,236.02458471760798 504.5,236.02458471760798" stroke="LightGray" stroke-width="1" fill="none"></polyline><polyline id="SvgjsPolyline2115" points="0,119.18073089701 504.5,119.18073089701" stroke="LightGray" stroke-width="1" fill="none"></polyline><polyline id="SvgjsPolyline2116" points="0,2.3368770764119517 504.5,2.3368770764119517" stroke="LightGray" stroke-width="1" fill="none"></polyline><polyline id="SvgjsPolyline2117" points="0,704.4 0.506006006006006,692.6990033222592 1.012012012012012,638.8744186046512 1.518018018018018,594.4106312292358 2.024024024024024,528.885049833887 2.53003003003003,465.6996677740864 3.036036036036036,437.6172757475083 3.542042042042042,423.57607973421926 4.048048048048048,393.153488372093 4.554054054054054,355.7102990033223 5.06006006006006,341.66910299003325 5.566066066066067,329.9681063122924 6.072072072072072,299.5455149501662 6.578078078078078,290.1847176079735 7.084084084084084,280.8239202657808 7.59009009009009,278.4837209302326 8.096096096096096,271.46312292358806 8.602102102102101,259.7621262458471 9.614114114114114,257.4219269102989 10.12012012012012,250.40132890365453 10.626126126126126,241.04053156146188 11.132132132132133,229.3395348837209 11.638138138138139,222.3189368770765 12.144144144144144,208.27774086378741 12.65015015015015,198.91694352159476 13.156156156156156,191.8963455149501 13.662162162162163,182.53554817275744 14.674174174174174,180.1953488372094 15.686186186186186,180.1953488372094 16.6981981981982,177.85514950166112 17.204204204204203,168.49435215946846 18.216216216216218,163.81395348837214 18.72222222222222,161.47375415282386 19.734234234234233,161.47375415282386 20.746246246246248,154.45315614617948 21.25225225225225,149.77275747508315 22.264264264264266,149.77275747508315 22.77027027027027,147.43255813953488 23.78228228228228,147.43255813953488 24.794294294294296,145.0923588039867 25.3003003003003,142.75215946843855 25.806306306306308,140.41196013289039 26.81831831831832,133.3913621262459 27.83033033033033,133.3913621262459 28.84234234234234,131.05116279069773 29.854354354354356,126.37076411960129 30.866366366366368,126.37076411960129 31.37237237237237,121.69036544850508 32.38438438438438,119.3501661129568 32.890390390390394,117.00996677740864 33.9024024024024,117.00996677740864 34.914414414414416,107.64916943521598 35.926426426426424,107.64916943521598 36.93843843843844,107.64916943521598 37.44444444444444,105.30897009966782 38.45645645645646,105.30897009966782 38.96246246246246,98.28837209302333 39.974474474474476,98.28837209302333 40.48048048048048,95.94817275747505 41.492492492492495,95.94817275747505 42.5045045045045,95.94817275747505 43.51651651651652,95.94817275747505 44.02252252252252,93.60797342192689 44.52852852852853,84.24717607973423 45.03453453453454,77.22657807308974 46.046546546546544,77.22657807308974 47.05855855855856,77.22657807308974 48.070570570570574,77.22657807308974 49.08258258258258,77.22657807308974 50.0945945945946,77.22657807308974 51.106606606606604,77.22657807308974 52.11861861861862,74.88637873754158 53.130630630630634,74.88637873754158 54.14264264264264,74.88637873754158 55.15465465465466,72.54617940199341 56.166666666666664,72.54617940199341 56.672672672672675,67.86578073089709 57.17867867867868,65.52558139534892 58.190690690690694,65.52558139534892 58.6966966966967,63.185382059800645 59.70870870870871,63.185382059800645 60.72072072072072,63.185382059800645 61.732732732732735,63.185382059800645 62.74474474474474,63.185382059800645 63.75675675675676,63.185382059800645 64.76876876876877,63.185382059800645 65.78078078078079,60.845182724252595 66.7927927927928,60.845182724252595 67.8048048048048,60.845182724252595 68.81681681681681,60.845182724252595 69.82882882882883,60.845182724252595 70.84084084084084,60.845182724252595 71.85285285285285,60.845182724252595 72.86486486486487,60.845182724252595 73.87687687687688,60.845182724252595 74.88888888888889,60.845182724252595 75.90090090090091,60.845182724252595 76.91291291291292,60.845182724252595 77.92492492492492,60.845182724252595 78.93693693693693,60.845182724252595 79.94894894894895,60.845182724252595 80.96096096096096,60.845182724252595 81.97297297297297,60.845182724252595 82.47897897897899,58.50498338870432 83.490990990991,56.16478405315627 84.503003003003,56.16478405315627 85.51501501501501,56.16478405315627 86.52702702702703,56.16478405315627 87.53903903903904,56.16478405315627 88.55105105105105,56.16478405315627 89.56306306306307,56.16478405315627 90.57507507507508,56.16478405315627 91.58708708708708,51.48438538205983 92.09309309309309,49.14418604651166 93.10510510510511,49.14418604651166 94.11711711711712,49.14418604651166 95.12912912912913,49.14418604651166 96.14114114114115,46.8039867109635 97.15315315315316,46.8039867109635 98.16516516516516,46.8039867109635 99.17717717717719,46.8039867109635 100.1891891891892,46.8039867109635 101.2012012012012,46.8039867109635 102.21321321321321,46.8039867109635 103.22522522522523,46.8039867109635 104.23723723723724,46.8039867109635 105.24924924924925,46.8039867109635 106.26126126126127,46.8039867109635 107.27327327327328,46.8039867109635 108.28528528528528,46.8039867109635 109.2972972972973,46.8039867109635 110.30930930930931,46.8039867109635 111.32132132132132,44.463787375415336 112.33333333333333,44.463787375415336 113.34534534534535,44.463787375415336 114.35735735735736,44.463787375415336 115.36936936936937,44.463787375415336 116.38138138138139,44.463787375415336 117.3933933933934,44.463787375415336 118.4054054054054,44.463787375415336 119.41741741741743,44.463787375415336 120.42942942942943,44.463787375415336 121.44144144144144,44.463787375415336 122.45345345345345,44.463787375415336 123.46546546546547,44.463787375415336 124.47747747747748,44.463787375415336 125.48948948948949,44.463787375415336 126.50150150150151,44.463787375415336 127.51351351351352,44.463787375415336 128.52552552552552,44.463787375415336 129.53753753753753,44.463787375415336 130.54954954954954,44.463787375415336 131.56156156156158,44.463787375415336 132.57357357357358,44.463787375415336 133.5855855855856,44.463787375415336 134.5975975975976,44.463787375415336 135.6096096096096,44.463787375415336 136.6216216216216,44.463787375415336 137.63363363363362,44.463787375415336 138.64564564564566,44.463787375415336 139.65765765765767,44.463787375415336 140.66966966966967,42.12358803986717 141.68168168168168,39.78338870431901 142.6936936936937,39.78338870431901 143.7057057057057,39.78338870431901 144.71771771771773,39.78338870431901 145.72972972972974,39.78338870431901 146.74174174174175,39.78338870431901 147.75375375375376,37.443189368770845 148.25975975975976,35.10299003322257 149.27177177177177,32.76279069767452 150.28378378378378,32.76279069767452 151.2957957957958,32.76279069767452 152.30780780780782,32.76279069767452 153.31981981981983,32.76279069767452 154.33183183183183,32.76279069767452 155.34384384384384,32.76279069767452 156.35585585585585,32.76279069767452 157.36786786786786,32.76279069767452 158.3798798798799,32.76279069767452 159.3918918918919,32.76279069767452 160.4039039039039,32.76279069767452 161.41591591591592,32.76279069767452 162.42792792792793,32.76279069767452 163.43993993993993,32.76279069767452 164.45195195195194,32.76279069767452 165.46396396396398,32.76279069767452 166.47597597597598,32.76279069767452 167.487987987988,32.76279069767452 168.5,32.76279069767452 169.512012012012,32.76279069767452 170.52402402402402,32.76279069767452 171.53603603603605,32.76279069767452 172.54804804804806,32.76279069767452 173.56006006006007,32.76279069767452 174.57207207207207,32.76279069767452 175.58408408408408,32.76279069767452 176.5960960960961,32.76279069767452 177.6081081081081,32.76279069767452 178.62012012012013,32.76279069767452 179.63213213213214,32.76279069767452 180.64414414414415,32.76279069767452 181.65615615615616,32.76279069767452 182.66816816816817,32.76279069767452 183.68018018018017,32.76279069767452 184.69219219219218,32.76279069767452 185.70420420420422,32.76279069767452 186.71621621621622,32.76279069767452 187.72822822822823,32.76279069767452 188.74024024024024,32.76279069767452 189.75225225225225,32.76279069767452 190.76426426426426,32.76279069767452 191.7762762762763,32.76279069767452 192.7882882882883,32.76279069767452 193.8003003003003,32.76279069767452 194.81231231231232,32.76279069767452 195.82432432432432,32.76279069767452 196.83633633633633,32.76279069767452 197.84834834834834,32.76279069767452 198.86036036036037,32.76279069767452 199.87237237237238,32.76279069767452 200.8843843843844,32.76279069767452 201.8963963963964,32.76279069767452 202.9084084084084,32.76279069767452 203.9204204204204,32.76279069767452 204.93243243243245,32.76279069767452 205.94444444444446,32.76279069767452 206.45045045045046,30.42259136212624 207.46246246246247,30.42259136212624 208.47447447447448,30.42259136212624 209.48648648648648,30.42259136212624 210.4984984984985,30.42259136212624 211.5105105105105,30.42259136212624 212.52252252252254,30.42259136212624 213.53453453453454,30.42259136212624 214.54654654654655,30.42259136212624 215.55855855855856,30.42259136212624 216.57057057057057,30.42259136212624 217.58258258258257,30.42259136212624 218.5945945945946,30.42259136212624 219.10060060060061,28.08239202657819 220.11261261261262,25.742192691029913 221.12462462462463,25.742192691029913 222.13663663663664,25.742192691029913 223.14864864864865,25.742192691029913 224.16066066066065,25.742192691029913 225.1726726726727,25.742192691029913 226.1846846846847,25.742192691029913 227.1966966966967,25.742192691029913 228.2087087087087,25.742192691029913 229.22072072072072,25.742192691029913 230.23273273273273,25.742192691029913 231.24474474474474,25.742192691029913 232.25675675675677,25.742192691029913 233.26876876876878,25.742192691029913 234.2807807807808,25.742192691029913 235.2927927927928,25.742192691029913 236.3048048048048,25.742192691029913 237.3168168168168,25.742192691029913 238.32882882882882,25.742192691029913 239.34084084084085,25.742192691029913 240.35285285285286,25.742192691029913 241.36486486486487,25.742192691029913 242.37687687687688,25.742192691029913 243.38888888888889,25.742192691029913 244.4009009009009,25.742192691029913 245.41291291291293,25.742192691029913 246.42492492492494,25.742192691029913 247.43693693693695,25.742192691029913 248.44894894894895,25.742192691029913 249.46096096096096,25.742192691029913 250.47297297297297,25.742192691029913 251.48498498498498,25.742192691029913 252.496996996997,25.742192691029913 253.50900900900902,25.742192691029913 254.52102102102103,25.742192691029913 255.53303303303304,25.742192691029913 256.5450450450451,25.742192691029913 257.5570570570571,25.742192691029913 258.5690690690691,25.742192691029913 259.07507507507506,23.40199335548175 260.08708708708707,21.061794019933586 261.0990990990991,21.061794019933586 262.11111111111114,21.061794019933586 263.12312312312315,21.061794019933586 264.13513513513516,21.061794019933586 265.14714714714717,21.061794019933586 266.1591591591592,21.061794019933586 267.1711711711712,21.061794019933586 268.1831831831832,21.061794019933586 269.1951951951952,21.061794019933586 270.2072072072072,21.061794019933586 271.2192192192192,21.061794019933586 272.2312312312312,21.061794019933586 273.2432432432432,21.061794019933586 274.25525525525524,21.061794019933586 275.26726726726724,21.061794019933586 276.2792792792793,21.061794019933586 277.2912912912913,21.061794019933586 278.3033033033033,21.061794019933586 279.31531531531533,21.061794019933586 280.32732732732734,21.061794019933586 281.33933933933935,21.061794019933586 282.35135135135135,21.061794019933586 283.36336336336336,21.061794019933586 284.37537537537537,21.061794019933586 285.3873873873874,21.061794019933586 286.3993993993994,21.061794019933586 287.4114114114114,21.061794019933586 288.4234234234234,21.061794019933586 289.43543543543547,18.721594684385423 290.4474474474475,18.721594684385423 291.4594594594595,18.721594684385423 292.4714714714715,18.721594684385423 293.4834834834835,18.721594684385423 294.4954954954955,18.721594684385423 295.5075075075075,18.721594684385423 296.5195195195195,18.721594684385423 297.5315315315315,18.721594684385423 298.54354354354354,18.721594684385423 299.55555555555554,18.721594684385423 300.56756756756755,18.721594684385423 301.57957957957956,18.721594684385423 302.5915915915916,18.721594684385423 303.60360360360363,18.721594684385423 304.61561561561564,18.721594684385423 305.62762762762765,18.721594684385423 306.63963963963965,18.721594684385423 307.65165165165166,18.721594684385423 308.66366366366367,18.721594684385423 309.6756756756757,18.721594684385423 310.6876876876877,18.721594684385423 311.6996996996997,18.721594684385423 312.7117117117117,18.721594684385423 313.7237237237237,18.721594684385423 314.7357357357357,18.721594684385423 315.7477477477477,18.721594684385423 316.7597597597598,18.721594684385423 317.7717717717718,18.721594684385423 318.7837837837838,18.721594684385423 319.7957957957958,18.721594684385423 320.8078078078078,18.721594684385423 321.8198198198198,18.721594684385423 322.83183183183183,18.721594684385423 323.84384384384384,18.721594684385423 324.85585585585585,18.721594684385423 325.86786786786786,18.721594684385423 326.87987987987987,18.721594684385423 327.8918918918919,18.721594684385423 328.9039039039039,18.721594684385423 329.91591591591595,18.721594684385423 330.92792792792795,18.721594684385423 331.93993993993996,18.721594684385423 332.95195195195197,18.721594684385423 333.963963963964,18.721594684385423 334.975975975976,18.721594684385423 335.987987987988,18.721594684385423 337,18.721594684385423 338.012012012012,18.721594684385423 339.024024024024,18.721594684385423 340.036036036036,18.721594684385423 341.04804804804803,18.721594684385423 342.06006006006004,18.721594684385423 343.0720720720721,18.721594684385423 344.0840840840841,18.721594684385423 345.0960960960961,18.721594684385423 346.1081081081081,18.721594684385423 347.12012012012013,18.721594684385423 348.13213213213214,11.700996677740932 349.14414414414415,9.360797342192654 350.15615615615616,9.360797342192654 351.16816816816817,9.360797342192654 352.1801801801802,9.360797342192654 353.1921921921922,9.360797342192654 354.2042042042042,9.360797342192654 355.2162162162162,9.360797342192654 356.22822822822826,9.360797342192654 357.24024024024027,9.360797342192654 358.2522522522523,9.360797342192654 359.2642642642643,9.360797342192654 360.2762762762763,9.360797342192654 361.2882882882883,9.360797342192654 362.3003003003003,9.360797342192654 363.3123123123123,9.360797342192654 364.3243243243243,9.360797342192654 365.33633633633633,9.360797342192654 366.34834834834834,9.360797342192654 367.36036036036035,9.360797342192654 368.37237237237235,9.360797342192654 369.38438438438436,9.360797342192654 370.3963963963964,9.360797342192654 371.40840840840843,9.360797342192654 372.42042042042044,9.360797342192654 373.43243243243245,9.360797342192654 374.44444444444446,9.360797342192654 375.45645645645646,9.360797342192654 376.4684684684685,9.360797342192654 377.4804804804805,9.360797342192654 378.4924924924925,9.360797342192654 379.5045045045045,9.360797342192654 380.5165165165165,9.360797342192654 381.5285285285285,9.360797342192654 382.5405405405405,9.360797342192654 383.5525525525526,9.360797342192654 384.5645645645646,9.360797342192654 385.5765765765766,9.360797342192654 386.5885885885886,9.360797342192654 387.6006006006006,9.360797342192654 388.6126126126126,9.360797342192654 389.62462462462463,9.360797342192654 390.63663663663664,9.360797342192654 391.64864864864865,9.360797342192654 392.66066066066065,9.360797342192654 393.67267267267266,9.360797342192654 394.68468468468467,9.360797342192654 395.6966966966967,9.360797342192654 396.70870870870874,9.360797342192654 397.72072072072075,9.360797342192654 398.73273273273276,9.360797342192654 399.74474474474476,9.360797342192654 400.7567567567568,9.360797342192654 401.7687687687688,9.360797342192654 402.7807807807808,9.360797342192654 403.7927927927928,9.360797342192654 404.8048048048048,9.360797342192654 405.8168168168168,9.360797342192654 406.8288288288288,9.360797342192654 407.8408408408408,9.360797342192654 408.85285285285283,9.360797342192654 409.8648648648649,9.360797342192654 410.8768768768769,9.360797342192654 411.8888888888889,9.360797342192654 412.9009009009009,9.360797342192654 413.91291291291293,9.360797342192654 414.92492492492494,9.360797342192654 415.93693693693695,9.360797342192654 416.94894894894895,9.360797342192654 417.96096096096096,9.360797342192654 418.97297297297297,9.360797342192654 419.984984984985,9.360797342192654 420.996996996997,9.360797342192654 422.009009009009,9.360797342192654 423.021021021021,9.360797342192654 424.03303303303306,9.360797342192654 425.0450450450451,9.360797342192654 426.0570570570571,9.360797342192654 427.0690690690691,9.360797342192654 428.0810810810811,9.360797342192654 429.0930930930931,9.360797342192654 430.1051051051051,9.360797342192654 431.1171171171171,9.360797342192654 432.1291291291291,7.0205980066446045 433.14114114114113,7.0205980066446045 434.15315315315314,7.0205980066446045 435.16516516516515,7.0205980066446045 436.17717717717716,7.0205980066446045 437.1891891891892,7.0205980066446045 438.20120120120123,7.0205980066446045 439.21321321321324,7.0205980066446045 440.22522522522524,7.0205980066446045 441.23723723723725,7.0205980066446045 442.24924924924926,7.0205980066446045 443.26126126126127,7.0205980066446045 444.2732732732733,7.0205980066446045 445.2852852852853,7.0205980066446045 446.2972972972973,7.0205980066446045 447.3093093093093,7.0205980066446045 448.3213213213213,7.0205980066446045 449.3333333333333,7.0205980066446045 450.3453453453454,7.0205980066446045 451.3573573573574,7.0205980066446045 452.3693693693694,7.0205980066446045 453.3813813813814,7.0205980066446045 454.3933933933934,7.0205980066446045 455.4054054054054,7.0205980066446045 456.4174174174174,7.0205980066446045 457.42942942942943,7.0205980066446045 458.44144144144144,7.0205980066446045 459.45345345345345,7.0205980066446045 460.46546546546546,7.0205980066446045 461.47747747747746,7.0205980066446045 462.4894894894895,7.0205980066446045 463.5015015015015,7.0205980066446045 464.51351351351354,7.0205980066446045 465.52552552552555,7.0205980066446045 466.53753753753756,7.0205980066446045 467.54954954954957,7.0205980066446045 468.5615615615616,7.0205980066446045 469.5735735735736,7.0205980066446045 470.5855855855856,7.0205980066446045 471.5975975975976,7.0205980066446045 472.6096096096096,7.0205980066446045 473.6216216216216,7.0205980066446045 474.6336336336336,7.0205980066446045 475.64564564564563,7.0205980066446045 476.65765765765764,7.0205980066446045 477.6696696696697,7.0205980066446045 478.6816816816817,7.0205980066446045 479.6936936936937,7.0205980066446045 480.7057057057057,7.0205980066446045 481.71771771771773,7.0205980066446045 482.72972972972974,7.0205980066446045 483.74174174174175,7.0205980066446045 484.75375375375376,7.0205980066446045 485.76576576576576,7.0205980066446045 486.77777777777777,7.0205980066446045 487.7897897897898,7.0205980066446045 488.8018018018018,7.0205980066446045 489.8138138138138,7.0205980066446045 490.82582582582586,7.0205980066446045 491.83783783783787,7.0205980066446045 492.8498498498499,7.0205980066446045 493.8618618618619,7.0205980066446045 494.8738738738739,7.0205980066446045 495.8858858858859,0 496.8978978978979,0 497.9099099099099,0 498.9219219219219,0 499.93393393393393,0 500.94594594594594,0 501.95795795795794,0 502.96996996996995,0 503.981981981982,0 504.993993993994,0" style="fill: none; stroke: rgb(255, 0, 255); stroke-width: 3px; stroke-opacity: 1;"></polyline></g></svg></svg><svg id="SvgjsSvg2132" style="overflow: visible;" x="557.5"><svg xmlns="http://www.w3.org/2000/svg" version="1.1" xmlns:xlink="http://www.w3.org/1999/xlink" xmlns:svgjs="http://svgjs.com/svgjs" width="200" height="60"><defs id="SvgjsDefs2118"><clipPath id="SvgjsClipPath2126"><rect id="SvgjsRect2125" width="170" height="30"></rect></clipPath><clipPath id="SvgjsClipPath2129"><rect id="SvgjsRect2128" width="180" height="60"></rect></clipPath></defs><g id="SvgjsG2119" clip-path="url(&quot;#SvgjsClipPath2129&quot;)"><g id="SvgjsG2120" transform="matrix(1,0,0,1,5,0)"><rect id="SvgjsRect2121" width="170" height="30" fill="white" opacity="0.5"></rect><line id="SvgjsLine2122" x1="0" y1="0" x2="18" y2="18" stroke="#ff00ff" stroke-width="3" transform="matrix(1,0,0,1,5,5)"></line><text id="SvgjsText2123" font-family="Arial, Helvetica, sans-serif" font-size="14" font-weight="400" family="Arial, Helvetica, sans-serif" size="14" weight="400" transform="matrix(1,0,0,1,40,0)" svgjs:data="{&quot;leading&quot;:&quot;1.3&quot;}"><tspan id="SvgjsTspan2124" dy="18.2" x="0" svgjs:data="{&quot;newLined&quot;:true}">C</tspan></text></g></g></svg></svg></svg>