<svg xmlns="http://www.w3.org/2000/svg" version="1.1" xmlns:xlink="http://www.w3.org/1999/xlink" xmlns:svgjs="http://svgjs.com/svgjs" width="774.5" height="761.4"><defs id="SvgjsDefs1608"></defs><svg id="SvgjsSvg1609" style="overflow: visible;"><svg xmlns="http://www.w3.org/2000/svg" version="1.1" xmlns:xlink="http://www.w3.org/1999/xlink" xmlns:svgjs="http://svgjs.com/svgjs" width="574.5" height="761.4"><defs id="SvgjsDefs1552"></defs><g id="SvgjsG1553" transform="matrix(1,0,0,1,0,0)"><g id="SvgjsG1554" transform="matrix(1,0,0,1,0,0)"><text id="SvgjsText1555" font-family="Arial, Helvetica, sans-serif" font-size="16" font-weight="400" text-anchor="middle" family="Arial, Helvetica, sans-serif" size="16" weight="400" anchor="middle" transform="matrix(0,-1,1,0,0,352.2)" svgjs:data="{&quot;leading&quot;:&quot;1.3&quot;}"><tspan id="SvgjsTspan1556" dy="20.8" x="0" svgjs:data="{&quot;newLined&quot;:true}">Individuals</tspan></text></g><g id="SvgjsG1557" transform="matrix(1,0,0,1,20,0)" width="32" height="704.4"><text id="SvgjsText1558" font-family="Arial, Helvetica, sans-serif" font-size="16px" family="Arial, Helvetica, sans-serif" size="16px" transform="matrix(1,0,0,1,0,694.4000244140625)" svgjs:data="{&quot;leading&quot;:&quot;1.3&quot;}"><tspan id="SvgjsTspan1559" dy="20.8" x="0" svgjs:data="{&quot;newLined&quot;:true}">0</tspan></text><text id="SvgjsText1560" font-family="Arial, Helvetica, sans-serif" font-size="16px" family="Arial, Helvetica, sans-serif" size="16px" transform="matrix(1,0,0,1,0,570.5670166015625)" svgjs:data="{&quot;leading&quot;:&quot;1.3&quot;}"><tspan id="SvgjsTspan1561" dy="20.8" x="0" svgjs:data="{&quot;newLined&quot;:true}">5</tspan></text><text id="SvgjsText1562" font-family="Arial, Helvetica, sans-serif" font-size="16px" family="Arial, Helvetica, sans-serif" size="16px" transform="matrix(1,0,0,1,0,446.7170104980469)" svgjs:data="{&quot;leading&quot;:&quot;1.3&quot;}"><tspan id="SvgjsTspan1563" dy="20.8" x="0" svgjs:data="{&quot;newLined&quot;:true}">10</tspan></text><text id="SvgjsText1564" font-family="Arial, Helvetica, sans-serif" font-size="16px" family="Arial, Helvetica, sans-serif" size="16px" transform="matrix(1,0,0,1,0,322.88299560546875)" svgjs:data="{&quot;leading&quot;:&quot;1.3&quot;}"><tspan id="SvgjsTspan1565" dy="20.8" x="0" svgjs:data="{&quot;newLined&quot;:true}">15</tspan></text><text id="SvgjsText1566" font-family="Arial, Helvetica, sans-serif" font-size="16px" family="Arial, Helvetica, sans-serif" size="16px" transform="matrix(1,0,0,1,0,199.0500030517578)" svgjs:data="{&quot;leading&quot;:&quot;1.3&quot;}"><tspan id="SvgjsTspan1567" dy="20.8" x="0" svgjs:data="{&quot;newLined&quot;:true}">20</tspan></text><text id="SvgjsText1568" font-family="Arial, Helvetica, sans-serif" font-size="16px" family="Arial, Helvetica, sans-serif" size="16px" transform="matrix(1,0,0,1,0,75.2166976928711)" svgjs:data="{&quot;leading&quot;:&quot;1.3&quot;}"><tspan id="SvgjsTspan1569" dy="20.8" x="0" svgjs:data="{&quot;newLined&quot;:true}">25</tspan></text><path id="SvgjsPath1570" d="M31 0v704.4M31 703.4h-10M31 579.561971830986h-10M31 455.7239436619718h-10M31 331.8859154929578h-10M31 208.0478873239437h-10M31 84.20985915492963h-10M31 692.0161971830986h-3.3333333333333335M31 679.6323943661972h-3.3333333333333335M31 667.2485915492957h-3.3333333333333335M31 654.8647887323943h-3.3333333333333335M31 642.480985915493h-3.3333333333333335M31 630.0971830985916h-3.3333333333333335M31 617.7133802816901h-3.3333333333333335M31 605.3295774647887h-3.3333333333333335M31 592.9457746478873h-3.3333333333333335M31 568.1781690140845h-3.3333333333333335M31 555.7943661971831h-3.3333333333333335M31 543.4105633802817h-3.3333333333333335M31 531.0267605633803h-3.3333333333333335M31 518.6429577464789h-3.3333333333333335M31 506.25915492957745h-3.3333333333333335M31 493.87535211267607h-3.3333333333333335M31 481.4915492957747h-3.3333333333333335M31 469.10774647887325h-3.3333333333333335M31 444.34014084507044h-3.3333333333333335M31 431.95633802816906h-3.3333333333333335M31 419.5725352112676h-3.3333333333333335M31 407.18873239436624h-3.3333333333333335M31 394.8049295774648h-3.3333333333333335M31 382.4211267605634h-3.3333333333333335M31 370.037323943662h-3.3333333333333335M31 357.6535211267606h-3.3333333333333335M31 345.2697183098592h-3.3333333333333335M31 320.50211267605636h-3.3333333333333335M31 308.118309859155h-3.3333333333333335M31 295.7345070422536h-3.3333333333333335M31 283.35070422535216h-3.3333333333333335M31 270.9669014084508h-3.3333333333333335M31 258.58309859154934h-3.3333333333333335M31 246.19929577464796h-3.3333333333333335M31 233.81549295774653h-3.3333333333333335M31 221.43169014084515h-3.3333333333333335M31 196.66408450704233h-3.3333333333333335M31 184.2802816901409h-3.3333333333333335M31 171.89647887323952h-3.3333333333333335M31 159.51267605633814h-3.3333333333333335M31 147.12887323943664h-3.3333333333333335M31 134.74507042253526h-3.3333333333333335M31 122.36126760563388h-3.3333333333333335M31 109.9774647887325h-3.3333333333333335M31 97.59366197183112h-3.3333333333333335M31 72.82605633802825h-3.3333333333333335M31 60.44225352112687h-3.3333333333333335M31 48.05845070422549h-3.3333333333333335M31 35.674647887324h-3.3333333333333335M31 23.29084507042262h-3.3333333333333335M31 10.90704225352124h-3.3333333333333335" stroke="#000000" fill="none"></path></g></g><g id="SvgjsG1571"><g id="SvgjsG1572" transform="matrix(1,0,0,1,52,0)"><text id="SvgjsText1573" font-family="Arial, Helvetica, sans-serif" font-size="16" font-weight="400" text-anchor="middle" family="Arial, Helvetica, sans-serif" size="16" weight="400" anchor="middle" transform="matrix(1,0,0,1,0,0)" svgjs:data="{&quot;leading&quot;:&quot;1.3&quot;}"><tspan id="SvgjsTspan1574" dy="20.8" x="0" svgjs:data="{&quot;newLined&quot;:true}"></tspan></text></g></g><g id="SvgjsG1575"><g id="SvgjsG1576" transform="matrix(1,0,0,1,52,704.4)" width="505.5" height="29"><text id="SvgjsText1577" font-family="Arial, Helvetica, sans-serif" font-size="16px" family="Arial, Helvetica, sans-serif" size="16px" transform="matrix(1,0,0,1,-4.5,10)" svgjs:data="{&quot;leading&quot;:&quot;1.3&quot;}"><tspan id="SvgjsTspan1578" dy="20.8" x="0" svgjs:data="{&quot;newLined&quot;:true}">0</tspan></text><text id="SvgjsText1579" font-family="Arial, Helvetica, sans-serif" font-size="16px" family="Arial, Helvetica, sans-serif" size="16px" transform="matrix(1,0,0,1,230,10)" svgjs:data="{&quot;leading&quot;:&quot;1.3&quot;}"><tspan id="SvgjsTspan1580" dy="20.8" x="0" svgjs:data="{&quot;newLined&quot;:true}">50000</tspan></text><path id="SvgjsPath1581" d="M0 0h505.5M0 0v10M252.50250250250252 0v10M25.250250250250254 0v3.3333333333333335M50.50050050050051 0v3.3333333333333335M75.75075075075075 0v3.3333333333333335M101.00100100100101 0v3.3333333333333335M126.25125125125126 0v3.3333333333333335M151.5015015015015 0v3.3333333333333335M176.75175175175175 0v3.3333333333333335M202.00200200200203 0v3.3333333333333335M227.25225225225228 0v3.3333333333333335M277.75275275275277 0v3.3333333333333335M303.003003003003 0v3.3333333333333335M328.25325325325326 0v3.3333333333333335M353.5035035035035 0v3.3333333333333335M378.75375375375376 0v3.3333333333333335M404.00400400400406 0v3.3333333333333335M429.2542542542543 0v3.3333333333333335M454.50450450450455 0v3.3333333333333335M479.7547547547548 0v3.3333333333333335" stroke="#000000" fill="none"></path></g><g id="SvgjsG1582" transform="matrix(1,0,0,1,52,733.4)"><text id="SvgjsText1583" font-family="Arial, Helvetica, sans-serif" font-size="16" font-weight="400" text-anchor="middle" family="Arial, Helvetica, sans-serif" size="16" weight="400" anchor="middle" transform="matrix(1,0,0,1,252.75,-9)" svgjs:data="{&quot;leading&quot;:&quot;1.3&quot;}"><tspan id="SvgjsTspan1584" dy="20.8" x="0" svgjs:data="{&quot;newLined&quot;:true}">Time (s)</tspan></text></g></g><g id="SvgjsG1585"></g><g id="SvgjsG1586" viewBox="0 0 505.5 704.4" transform="matrix(1,0,0,1,52,0)"><polyline id="SvgjsPolyline1587" points="0,0 0,703.4" stroke="LightGray" stroke-width="1" fill="none"></polyline><polyline id="SvgjsPolyline1588" points="252.50250250250252,0 252.50250250250252,703.4" stroke="LightGray" stroke-width="1" fill="none"></polyline><polyline id="SvgjsPolyline1589" points="0,703.4 504.5,703.4" stroke="LightGray" stroke-width="1" fill="none"></polyline><polyline id="SvgjsPolyline1590" points="0,579.561971830986 504.5,579.561971830986" stroke="LightGray" stroke-width="1" fill="none"></polyline><polyline id="SvgjsPolyline1591" points="0,455.7239436619718 504.5,455.7239436619718" stroke="LightGray" stroke-width="1" fill="none"></polyline><polyline id="SvgjsPolyline1592" points="0,331.8859154929578 504.5,331.8859154929578" stroke="LightGray" stroke-width="1" fill="none"></polyline><polyline id="SvgjsPolyline1593" points="0,208.0478873239437 504.5,208.0478873239437" stroke="LightGray" stroke-width="1" fill="none"></polyline><polyline id="SvgjsPolyline1594" points="0,84.20985915492963 504.5,84.20985915492963" stroke="LightGray" stroke-width="1" fill="none"></polyline><polyline id="SvgjsPolyline1595" points="0,704.4 0.506006006006006,701.9197183098591 1.518018018018018,701.9197183098591 2.53003003003003,701.9197183098591 3.542042042042042,701.9197183098591 4.554054054054054,696.9591549295775 5.06006006006006,684.5577464788732 6.072072072072072,677.1169014084506 7.084084084084084,677.1169014084506 8.096096096096096,677.1169014084506 9.108108108108109,672.156338028169 10.12012012012012,672.156338028169 11.132132132132133,659.7549295774647 11.638138138138139,637.4323943661972 12.144144144144144,634.9521126760563 13.156156156156156,634.9521126760563 14.168168168168169,625.0309859154929 14.674174174174174,622.5507042253521 15.18018018018018,617.5901408450704 16.19219219219219,617.5901408450704 17.204204204204203,617.5901408450704 17.71021021021021,610.1492957746478 18.72222222222222,605.1887323943662 19.734234234234233,605.1887323943662 20.24024024024024,600.2281690140845 21.25225225225225,600.2281690140845 22.264264264264266,600.2281690140845 23.276276276276278,600.2281690140845 24.28828828828829,600.2281690140845 24.794294294294296,592.7873239436619 25.806306306306308,577.9056338028169 26.81831831831832,572.9450704225352 27.83033033033033,572.9450704225352 28.84234234234234,572.9450704225352 29.854354354354356,572.9450704225352 30.866366366366368,572.9450704225352 31.87837837837838,572.9450704225352 32.38438438438438,567.9845070422535 32.890390390390394,560.5436619718309 33.9024024024024,560.5436619718309 34.914414414414416,560.5436619718309 35.926426426426424,560.5436619718309 36.432432432432435,550.6225352112676 37.44444444444444,550.6225352112676 38.45645645645646,550.6225352112676 39.468468468468465,550.6225352112676 40.48048048048048,550.6225352112676 41.492492492492495,540.7014084507042 41.9984984984985,533.2605633802816 43.010510510510514,533.2605633802816 44.02252252252252,533.2605633802816 45.03453453453454,533.2605633802816 46.046546546546544,533.2605633802816 47.05855855855856,528.3 47.56456456456456,523.3394366197183 48.070570570570574,520.8591549295775 48.57657657657658,515.8985915492958 49.58858858858859,515.8985915492958 50.0945945945946,508.4577464788732 51.106606606606604,508.4577464788732 52.11861861861862,508.4577464788732 53.130630630630634,508.4577464788732 54.14264264264264,508.4577464788732 54.64864864864865,501.0169014084507 55.66066066066066,496.05633802816897 56.672672672672675,496.05633802816897 57.68468468468468,496.05633802816897 58.6966966966967,496.05633802816897 59.2027027027027,488.6154929577465 60.21471471471472,488.6154929577465 61.226726726726724,488.6154929577465 62.23873873873874,488.6154929577465 63.250750750750754,488.6154929577465 63.75675675675676,481.17464788732394 64.26276276276276,476.21408450704223 64.76876876876877,463.81267605633803 65.78078078078079,456.3718309859155 66.7927927927928,456.3718309859155 67.2987987987988,451.4112676056338 68.3108108108108,451.4112676056338 69.32282282282283,451.4112676056338 70.33483483483484,443.97042253521124 70.84084084084084,439.0098591549296 71.85285285285285,431.56901408450705 72.86486486486487,431.56901408450705 73.87687687687688,431.56901408450705 74.88888888888889,431.56901408450705 75.90090090090091,431.56901408450705 76.91291291291292,431.56901408450705 77.92492492492492,426.6084507042254 78.93693693693693,426.6084507042254 79.94894894894895,426.6084507042254 80.96096096096096,426.6084507042254 81.97297297297297,426.6084507042254 82.98498498498499,421.6478873239437 83.490990990991,416.68732394366197 84.503003003003,414.20704225352114 85.009009009009,409.2464788732395 86.02102102102103,409.2464788732395 86.52702702702703,404.28591549295777 87.03303303303304,396.84507042253523 88.04504504504504,391.8845070422535 88.55105105105105,384.44366197183103 89.56306306306307,384.44366197183103 90.57507507507508,384.44366197183103 91.58708708708708,384.44366197183103 92.5990990990991,384.44366197183103 93.61111111111111,384.44366197183103 94.62312312312312,384.44366197183103 95.63513513513513,384.44366197183103 96.64714714714715,384.44366197183103 97.65915915915916,384.44366197183103 98.16516516516516,379.48309859154926 99.17717717717719,379.48309859154926 100.1891891891892,379.48309859154926 101.2012012012012,374.5225352112676 102.21321321321321,374.5225352112676 103.22522522522523,362.12112676056336 104.23723723723724,362.12112676056336 104.74324324324324,354.6802816901409 105.75525525525525,354.6802816901409 106.76726726726727,342.2788732394366 107.77927927927928,342.2788732394366 108.28528528528528,334.8380281690141 109.2972972972973,334.8380281690141 110.30930930930931,327.39718309859154 111.32132132132132,322.4366197183099 112.33333333333333,322.4366197183099 113.34534534534535,322.4366197183099 114.35735735735736,322.4366197183099 115.36936936936937,317.4760563380282 116.38138138138139,310.0352112676057 116.88738738738739,302.59436619718315 117.8993993993994,302.59436619718315 118.91141141141141,297.63380281690144 119.92342342342343,295.15352112676055 120.42942942942943,290.1929577464789 121.44144144144144,285.23239436619724 121.94744744744744,280.27183098591547 122.45345345345345,277.7915492957746 122.95945945945947,272.830985915493 123.97147147147147,272.830985915493 124.98348348348348,272.830985915493 125.9954954954955,272.830985915493 126.50150150150151,265.39014084507056 127.51351351351352,265.39014084507056 128.52552552552552,252.98873239436614 129.03153153153153,245.54788732394366 130.04354354354354,245.54788732394366 131.05555555555557,245.54788732394366 132.06756756756758,245.54788732394366 133.0795795795796,245.54788732394366 134.0915915915916,245.54788732394366 135.1036036036036,245.54788732394366 136.1156156156156,245.54788732394366 137.12762762762762,245.54788732394366 138.13963963963965,245.54788732394366 139.15165165165166,245.54788732394366 140.16366366366367,240.5873239436621 141.17567567567568,233.14647887323946 142.18768768768768,233.14647887323946 143.1996996996997,233.14647887323946 143.7057057057057,228.1859154929578 144.71771771771773,228.1859154929578 145.72972972972974,228.1859154929578 146.74174174174175,228.1859154929578 147.75375375375376,228.1859154929578 148.76576576576576,228.1859154929578 149.77777777777777,228.1859154929578 150.78978978978978,228.1859154929578 151.80180180180182,223.2253521126761 152.81381381381382,223.2253521126761 153.82582582582583,223.2253521126761 154.83783783783784,223.2253521126761 155.84984984984985,223.2253521126761 156.86186186186185,223.2253521126761 157.87387387387386,223.2253521126761 158.8858858858859,223.2253521126761 159.3918918918919,218.26478873239438 160.4039039039039,218.26478873239438 161.41591591591592,213.30422535211278 162.42792792792793,213.30422535211278 163.43993993993993,213.30422535211278 164.45195195195194,205.86338028169013 165.46396396396398,205.86338028169013 166.47597597597598,200.90281690140847 167.487987987988,200.90281690140847 168.5,200.90281690140847 169.512012012012,200.90281690140847 170.52402402402402,200.90281690140847 171.53603603603605,200.90281690140847 172.54804804804806,200.90281690140847 173.56006006006007,200.90281690140847 174.57207207207207,200.90281690140847 175.58408408408408,200.90281690140847 176.5960960960961,200.90281690140847 177.6081081081081,195.94225352112676 178.62012012012013,195.94225352112676 179.63213213213214,195.94225352112676 180.64414414414415,195.94225352112676 181.65615615615616,190.9816901408451 182.66816816816817,190.9816901408451 183.68018018018017,190.9816901408451 184.18618618618618,186.02112676056345 185.1981981981982,186.02112676056345 186.21021021021022,186.02112676056345 187.22222222222223,186.02112676056345 188.23423423423424,186.02112676056345 189.24624624624624,186.02112676056345 190.25825825825825,186.02112676056345 191.27027027027026,186.02112676056345 192.2822822822823,186.02112676056345 193.2942942942943,186.02112676056345 194.3063063063063,186.02112676056345 195.31831831831832,186.02112676056345 196.33033033033033,186.02112676056345 197.34234234234233,186.02112676056345 198.35435435435437,186.02112676056345 199.36636636636638,186.02112676056345 200.3783783783784,186.02112676056345 201.3903903903904,186.02112676056345 202.4024024024024,186.02112676056345 203.4144144144144,186.02112676056345 204.42642642642642,186.02112676056345 204.93243243243245,181.06056338028168 205.94444444444446,181.06056338028168 206.95645645645646,173.6197183098592 207.96846846846847,173.6197183098592 208.47447447447448,166.1788732394367 208.98048048048048,161.21830985915494 209.9924924924925,161.21830985915494 211.0045045045045,161.21830985915494 212.01651651651653,161.21830985915494 213.02852852852854,161.21830985915494 214.04054054054055,161.21830985915494 215.05255255255256,161.21830985915494 216.06456456456456,161.21830985915494 217.07657657657657,161.21830985915494 218.08858858858858,156.25774647887317 218.5945945945946,153.77746478873246 219.60660660660662,153.77746478873246 220.61861861861863,153.77746478873246 221.63063063063063,153.77746478873246 222.64264264264264,153.77746478873246 223.65465465465465,153.77746478873246 224.16066066066065,146.33661971830986 225.1726726726727,146.33661971830986 226.1846846846847,146.33661971830986 227.1966966966967,146.33661971830986 228.2087087087087,146.33661971830986 229.22072072072072,146.33661971830986 230.23273273273273,146.33661971830986 231.24474474474474,146.33661971830986 232.25675675675677,146.33661971830986 233.26876876876878,146.33661971830986 234.2807807807808,138.89577464788738 235.2927927927928,138.89577464788738 236.3048048048048,138.89577464788738 237.3168168168168,133.9352112676056 237.82282282282281,131.45492957746478 238.32882882882882,126.49436619718301 239.34084084084085,126.49436619718301 240.35285285285286,126.49436619718301 241.36486486486487,126.49436619718301 242.37687687687688,126.49436619718301 243.38888888888889,126.49436619718301 244.4009009009009,126.49436619718301 245.41291291291293,126.49436619718301 246.42492492492494,126.49436619718301 247.43693693693695,126.49436619718301 248.44894894894895,126.49436619718301 249.46096096096096,126.49436619718301 250.47297297297297,126.49436619718301 251.48498498498498,126.49436619718301 252.496996996997,126.49436619718301 253.50900900900902,126.49436619718301 254.52102102102103,126.49436619718301 255.53303303303304,126.49436619718301 256.5450450450451,126.49436619718301 257.5570570570571,126.49436619718301 258.5690690690691,121.53380281690147 259.07507507507506,119.05352112676064 260.08708708708707,119.05352112676064 261.0990990990991,119.05352112676064 261.6051051051051,114.09295774647899 262.11111111111114,109.13239436619722 262.6171171171171,101.69154929577462 263.6291291291291,101.69154929577462 264.13513513513516,96.73098591549297 265.14714714714717,96.73098591549297 266.1591591591592,96.73098591549297 267.1711711711712,96.73098591549297 267.67717717717716,89.29014084507048 268.68918918918916,89.29014084507048 269.70120120120123,89.29014084507048 270.71321321321324,89.29014084507048 271.72522522522524,89.29014084507048 272.73723723723725,89.29014084507048 273.74924924924926,89.29014084507048 274.76126126126127,89.29014084507048 275.7732732732733,89.29014084507048 276.7852852852853,89.29014084507048 277.2912912912913,81.84929577464789 278.3033033033033,81.84929577464789 279.31531531531533,81.84929577464789 280.32732732732734,81.84929577464789 281.33933933933935,81.84929577464789 282.35135135135135,81.84929577464789 283.36336336336336,81.84929577464789 284.37537537537537,81.84929577464789 285.3873873873874,81.84929577464789 286.3993993993994,81.84929577464789 287.4114114114114,81.84929577464789 288.4234234234234,74.40845070422529 289.43543543543547,74.40845070422529 290.4474474474475,74.40845070422529 291.4594594594595,74.40845070422529 292.4714714714715,74.40845070422529 293.4834834834835,74.40845070422529 294.4954954954955,74.40845070422529 295.5075075075075,74.40845070422529 296.5195195195195,69.44788732394375 297.5315315315315,69.44788732394375 298.54354354354354,69.44788732394375 299.55555555555554,69.44788732394375 300.56756756756755,69.44788732394375 301.57957957957956,69.44788732394375 302.5915915915916,69.44788732394375 303.60360360360363,64.48732394366209 304.61561561561564,64.48732394366209 305.62762762762765,64.48732394366209 306.63963963963965,64.48732394366209 307.14564564564563,57.046478873239494 308.15765765765764,57.046478873239494 309.1696696696697,57.046478873239494 310.1816816816817,57.046478873239494 310.6876876876877,52.085915492957724 311.1936936936937,49.60563380281701 312.2057057057057,49.60563380281701 313.21771771771773,49.60563380281701 314.22972972972974,49.60563380281701 315.24174174174175,49.60563380281701 316.25375375375376,49.60563380281701 317.26576576576576,49.60563380281701 318.27777777777777,49.60563380281701 319.2897897897898,49.60563380281701 320.3018018018018,49.60563380281701 321.3138138138138,49.60563380281701 322.3258258258258,49.60563380281701 323.33783783783787,49.60563380281701 324.3498498498499,49.60563380281701 325.3618618618619,49.60563380281701 326.3738738738739,49.60563380281701 327.3858858858859,49.60563380281701 327.8918918918919,42.1647887323943 328.9039039039039,42.1647887323943 329.91591591591595,42.1647887323943 330.92792792792795,42.1647887323943 331.93993993993996,42.1647887323943 332.95195195195197,42.1647887323943 333.963963963964,42.1647887323943 334.975975975976,42.1647887323943 335.987987987988,42.1647887323943 337,42.1647887323943 338.012012012012,42.1647887323943 339.024024024024,42.1647887323943 340.036036036036,42.1647887323943 341.04804804804803,42.1647887323943 342.06006006006004,42.1647887323943 343.0720720720721,42.1647887323943 344.0840840840841,42.1647887323943 345.0960960960961,42.1647887323943 346.1081081081081,42.1647887323943 346.6141141141141,34.72394366197193 347.6261261261261,34.72394366197193 348.6381381381381,34.72394366197193 349.6501501501502,34.72394366197193 350.6621621621622,34.72394366197193 351.6741741741742,34.72394366197193 352.6861861861862,34.72394366197193 353.6981981981982,34.72394366197193 354.7102102102102,34.72394366197193 355.2162162162162,27.283098591549333 356.22822822822826,27.283098591549333 357.24024024024027,27.283098591549333 358.2522522522523,27.283098591549333 359.2642642642643,27.283098591549333 360.2762762762763,27.283098591549333 361.2882882882883,27.283098591549333 362.3003003003003,27.283098591549333 363.3123123123123,27.283098591549333 364.3243243243243,27.283098591549333 365.33633633633633,27.283098591549333 366.34834834834834,27.283098591549333 367.36036036036035,27.283098591549333 368.37237237237235,27.283098591549333 369.38438438438436,27.283098591549333 370.3963963963964,27.283098591549333 371.40840840840843,27.283098591549333 372.42042042042044,27.283098591549333 373.43243243243245,27.283098591549333 374.44444444444446,27.283098591549333 375.45645645645646,27.283098591549333 376.4684684684685,27.283098591549333 376.9744744744745,19.842253521126736 377.9864864864865,19.842253521126736 378.9984984984985,19.842253521126736 380.0105105105105,19.842253521126736 381.02252252252254,19.842253521126736 382.03453453453454,19.842253521126736 383.04654654654655,19.842253521126736 384.05855855855856,19.842253521126736 385.07057057057057,19.842253521126736 386.0825825825826,19.842253521126736 387.0945945945946,19.842253521126736 388.1066066066066,19.842253521126736 389.1186186186186,19.842253521126736 390.13063063063066,19.842253521126736 391.14264264264267,19.842253521126736 392.1546546546547,19.842253521126736 393.1666666666667,19.842253521126736 394.1786786786787,19.842253521126736 395.1906906906907,19.842253521126736 396.2027027027027,19.842253521126736 397.2147147147147,19.842253521126736 398.2267267267267,19.842253521126736 399.23873873873873,14.88169014084508 400.25075075075074,14.88169014084508 401.26276276276275,14.88169014084508 402.27477477477476,14.88169014084508 403.2867867867868,14.88169014084508 404.2987987987988,14.88169014084508 405.31081081081084,14.88169014084508 406.32282282282284,14.88169014084508 407.33483483483485,14.88169014084508 408.34684684684686,14.88169014084508 409.35885885885887,14.88169014084508 410.3708708708709,14.88169014084508 411.3828828828829,14.88169014084508 412.3948948948949,14.88169014084508 413.4069069069069,14.88169014084508 414.4189189189189,14.88169014084508 415.4309309309309,14.88169014084508 416.4429429429429,14.88169014084508 417.454954954955,14.88169014084508 418.466966966967,14.88169014084508 419.478978978979,14.88169014084508 420.490990990991,14.88169014084508 421.503003003003,14.88169014084508 422.515015015015,14.88169014084508 423.52702702702703,14.88169014084508 424.53903903903904,14.88169014084508 425.55105105105105,14.88169014084508 426.56306306306305,14.88169014084508 427.57507507507506,14.88169014084508 428.58708708708707,14.88169014084508 429.5990990990991,14.88169014084508 430.61111111111114,14.88169014084508 431.62312312312315,14.88169014084508 432.63513513513516,14.88169014084508 433.64714714714717,14.88169014084508 434.6591591591592,14.88169014084508 435.6711711711712,14.88169014084508 436.6831831831832,14.88169014084508 437.6951951951952,14.88169014084508 438.7072072072072,14.88169014084508 439.7192192192192,14.88169014084508 440.7312312312312,14.88169014084508 441.7432432432432,14.88169014084508 442.75525525525524,14.88169014084508 443.7672672672673,14.88169014084508 444.7792792792793,14.88169014084508 445.7912912912913,14.88169014084508 446.8033033033033,14.88169014084508 447.81531531531533,14.88169014084508 448.82732732732734,14.88169014084508 449.83933933933935,14.88169014084508 450.85135135135135,14.88169014084508 451.86336336336336,14.88169014084508 452.87537537537537,14.88169014084508 453.8873873873874,14.88169014084508 454.8993993993994,14.88169014084508 455.9114114114114,14.88169014084508 456.92342342342346,14.88169014084508 457.93543543543547,14.88169014084508 458.9474474474475,14.88169014084508 459.9594594594595,14.88169014084508 460.9714714714715,14.88169014084508 461.9834834834835,14.88169014084508 462.9954954954955,14.88169014084508 464.0075075075075,14.88169014084508 465.0195195195195,14.88169014084508 466.0315315315315,14.88169014084508 467.04354354354354,14.88169014084508 468.05555555555554,14.88169014084508 468.5615615615616,7.440845070422597 469.5735735735736,7.440845070422597 470.5855855855856,7.440845070422597 471.5975975975976,7.440845070422597 472.6096096096096,7.440845070422597 473.6216216216216,7.440845070422597 474.6336336336336,7.440845070422597 475.64564564564563,7.440845070422597 476.65765765765764,7.440845070422597 477.6696696696697,7.440845070422597 478.6816816816817,7.440845070422597 479.6936936936937,7.440845070422597 480.1996996996997,2.4802816901409415 480.7057057057057,0 481.71771771771773,0 482.72972972972974,0 483.74174174174175,0 484.75375375375376,0 485.76576576576576,0 486.77777777777777,0 487.7897897897898,0 488.8018018018018,0 489.8138138138138,0 490.82582582582586,0 491.83783783783787,0 492.8498498498499,0 493.8618618618619,0 494.8738738738739,0 495.8858858858859,0 496.8978978978979,0 497.9099099099099,0 498.9219219219219,0 499.93393393393393,0 500.94594594594594,0 501.95795795795794,0 502.96996996996995,0 503.981981981982,0 504.993993993994,0" style="fill: none; stroke: rgb(255, 0, 255); stroke-width: 3px; stroke-opacity: 1;"></polyline></g></svg></svg><svg id="SvgjsSvg1610" style="overflow: visible;" x="574.5"><svg xmlns="http://www.w3.org/2000/svg" version="1.1" xmlns:xlink="http://www.w3.org/1999/xlink" xmlns:svgjs="http://svgjs.com/svgjs" width="200" height="60"><defs id="SvgjsDefs1596"><clipPath id="SvgjsClipPath1604"><rect id="SvgjsRect1603" width="170" height="30"></rect></clipPath><clipPath id="SvgjsClipPath1607"><rect id="SvgjsRect1606" width="180" height="60"></rect></clipPath></defs><g id="SvgjsG1597" clip-path="url(&quot;#SvgjsClipPath1607&quot;)"><g id="SvgjsG1598" transform="matrix(1,0,0,1,5,0)"><rect id="SvgjsRect1599" width="170" height="30" fill="white" opacity="0.5"></rect><line id="SvgjsLine1600" x1="0" y1="0" x2="18" y2="18" stroke="#ff00ff" stroke-width="3" transform="matrix(1,0,0,1,5,5)"></line><text id="SvgjsText1601" font-family="Arial, Helvetica, sans-serif" font-size="14" font-weight="400" family="Arial, Helvetica, sans-serif" size="14" weight="400" transform="matrix(1,0,0,1,40,0)" svgjs:data="{&quot;leading&quot;:&quot;1.3&quot;}"><tspan id="SvgjsTspan1602" dy="18.2" x="0" svgjs:data="{&quot;newLined&quot;:true}">C</tspan></text></g></g></svg></svg></svg>