<svg xmlns="http://www.w3.org/2000/svg" version="1.1" xmlns:xlink="http://www.w3.org/1999/xlink" xmlns:svgjs="http://svgjs.com/svgjs" width="757.5" height="761.4"><defs id="SvgjsDefs1773"></defs><svg id="SvgjsSvg1774" style="overflow: visible;"><svg xmlns="http://www.w3.org/2000/svg" version="1.1" xmlns:xlink="http://www.w3.org/1999/xlink" xmlns:svgjs="http://svgjs.com/svgjs" width="557.5" height="761.4"><defs id="SvgjsDefs1717"></defs><g id="SvgjsG1718" transform="matrix(1,0,0,1,0,0)"><g id="SvgjsG1719" transform="matrix(1,0,0,1,0,0)"><text id="SvgjsText1720" font-family="Arial, Helvetica, sans-serif" font-size="16" font-weight="400" text-anchor="middle" family="Arial, Helvetica, sans-serif" size="16" weight="400" anchor="middle" transform="matrix(0,-1,1,0,0,352.2)" svgjs:data="{&quot;leading&quot;:&quot;1.3&quot;}"><tspan id="SvgjsTspan1721" dy="20.8" x="0" svgjs:data="{&quot;newLined&quot;:true}">Individuals</tspan></text></g><g id="SvgjsG1722" transform="matrix(1,0,0,1,20,0)" width="32" height="704.4"><text id="SvgjsText1723" font-family="Arial, Helvetica, sans-serif" font-size="16px" family="Arial, Helvetica, sans-serif" size="16px" transform="matrix(1,0,0,1,0,694.4000244140625)" svgjs:data="{&quot;leading&quot;:&quot;1.3&quot;}"><tspan id="SvgjsTspan1724" dy="20.8" x="0" svgjs:data="{&quot;newLined&quot;:true}">0</tspan></text><text id="SvgjsText1725" font-family="Arial, Helvetica, sans-serif" font-size="16px" family="Arial, Helvetica, sans-serif" size="16px" transform="matrix(1,0,0,1,0,575.5830078125)" svgjs:data="{&quot;leading&quot;:&quot;1.3&quot;}"><tspan id="SvgjsTspan1726" dy="20.8" x="0" svgjs:data="{&quot;newLined&quot;:true}">5</tspan></text><text id="SvgjsText1727" font-family="Arial, Helvetica, sans-serif" font-size="16px" family="Arial, Helvetica, sans-serif" size="16px" transform="matrix(1,0,0,1,0,456.7669982910156)" svgjs:data="{&quot;leading&quot;:&quot;1.3&quot;}"><tspan id="SvgjsTspan1728" dy="20.8" x="0" svgjs:data="{&quot;newLined&quot;:true}">10</tspan></text><text id="SvgjsText1729" font-family="Arial, Helvetica, sans-serif" font-size="16px" family="Arial, Helvetica, sans-serif" size="16px" transform="matrix(1,0,0,1,0,337.95001220703125)" svgjs:data="{&quot;leading&quot;:&quot;1.3&quot;}"><tspan id="SvgjsTspan1730" dy="20.8" x="0" svgjs:data="{&quot;newLined&quot;:true}">15</tspan></text><text id="SvgjsText1731" font-family="Arial, Helvetica, sans-serif" font-size="16px" family="Arial, Helvetica, sans-serif" size="16px" transform="matrix(1,0,0,1,0,219.13299560546875)" svgjs:data="{&quot;leading&quot;:&quot;1.3&quot;}"><tspan id="SvgjsTspan1732" dy="20.8" x="0" svgjs:data="{&quot;newLined&quot;:true}">20</tspan></text><text id="SvgjsText1733" font-family="Arial, Helvetica, sans-serif" font-size="16px" family="Arial, Helvetica, sans-serif" size="16px" transform="matrix(1,0,0,1,0,100.31700134277344)" svgjs:data="{&quot;leading&quot;:&quot;1.3&quot;}"><tspan id="SvgjsTspan1734" dy="20.8" x="0" svgjs:data="{&quot;newLined&quot;:true}">25</tspan></text><path id="SvgjsPath1735" d="M31 0v704.4M31 703.4h-10M31 584.5824324324324h-10M31 465.7648648648649h-10M31 346.94729729729727h-10M31 228.12972972972972h-10M31 109.31216216216217h-10M31 692.5182432432432h-3.3333333333333335M31 680.6364864864864h-3.3333333333333335M31 668.7547297297297h-3.3333333333333335M31 656.872972972973h-3.3333333333333335M31 644.9912162162162h-3.3333333333333335M31 633.1094594594595h-3.3333333333333335M31 621.2277027027027h-3.3333333333333335M31 609.3459459459459h-3.3333333333333335M31 597.4641891891891h-3.3333333333333335M31 573.7006756756757h-3.3333333333333335M31 561.8189189189189h-3.3333333333333335M31 549.9371621621622h-3.3333333333333335M31 538.0554054054054h-3.3333333333333335M31 526.1736486486486h-3.3333333333333335M31 514.2918918918919h-3.3333333333333335M31 502.41013513513514h-3.3333333333333335M31 490.52837837837836h-3.3333333333333335M31 478.64662162162165h-3.3333333333333335M31 454.8831081081081h-3.3333333333333335M31 443.00135135135133h-3.3333333333333335M31 431.11959459459456h-3.3333333333333335M31 419.23783783783784h-3.3333333333333335M31 407.3560810810811h-3.3333333333333335M31 395.4743243243243h-3.3333333333333335M31 383.5925675675676h-3.3333333333333335M31 371.7108108108108h-3.3333333333333335M31 359.82905405405404h-3.3333333333333335M31 336.06554054054055h-3.3333333333333335M31 324.1837837837838h-3.3333333333333335M31 312.302027027027h-3.3333333333333335M31 300.4202702702703h-3.3333333333333335M31 288.5385135135135h-3.3333333333333335M31 276.65675675675675h-3.3333333333333335M31 264.775h-3.3333333333333335M31 252.89324324324326h-3.3333333333333335M31 241.0114864864865h-3.3333333333333335M31 217.247972972973h-3.3333333333333335M31 205.36621621621623h-3.3333333333333335M31 193.48445945945946h-3.3333333333333335M31 181.6027027027027h-3.3333333333333335M31 169.7209459459459h-3.3333333333333335M31 157.83918918918914h-3.3333333333333335M31 145.95743243243248h-3.3333333333333335M31 134.0756756756757h-3.3333333333333335M31 122.19391891891894h-3.3333333333333335M31 98.4304054054054h-3.3333333333333335M31 86.54864864864862h-3.3333333333333335M31 74.66689189189185h-3.3333333333333335M31 62.78513513513519h-3.3333333333333335M31 50.90337837837842h-3.3333333333333335M31 39.02162162162165h-3.3333333333333335M31 27.139864864864876h-3.3333333333333335M31 15.258108108108104h-3.3333333333333335M31 3.3763513513513317h-3.3333333333333335" stroke="#000000" fill="none"></path></g></g><g id="SvgjsG1736"><g id="SvgjsG1737" transform="matrix(1,0,0,1,52,0)"><text id="SvgjsText1738" font-family="Arial, Helvetica, sans-serif" font-size="16" font-weight="400" text-anchor="middle" family="Arial, Helvetica, sans-serif" size="16" weight="400" anchor="middle" transform="matrix(1,0,0,1,0,0)" svgjs:data="{&quot;leading&quot;:&quot;1.3&quot;}"><tspan id="SvgjsTspan1739" dy="20.8" x="0" svgjs:data="{&quot;newLined&quot;:true}"></tspan></text></g></g><g id="SvgjsG1740"><g id="SvgjsG1741" transform="matrix(1,0,0,1,52,704.4)" width="505.5" height="29"><text id="SvgjsText1742" font-family="Arial, Helvetica, sans-serif" font-size="16px" family="Arial, Helvetica, sans-serif" size="16px" transform="matrix(1,0,0,1,-4.5,10)" svgjs:data="{&quot;leading&quot;:&quot;1.3&quot;}"><tspan id="SvgjsTspan1743" dy="20.8" x="0" svgjs:data="{&quot;newLined&quot;:true}">0</tspan></text><text id="SvgjsText1744" font-family="Arial, Helvetica, sans-serif" font-size="16px" family="Arial, Helvetica, sans-serif" size="16px" transform="matrix(1,0,0,1,230,10)" svgjs:data="{&quot;leading&quot;:&quot;1.3&quot;}"><tspan id="SvgjsTspan1745" dy="20.8" x="0" svgjs:data="{&quot;newLined&quot;:true}">50000</tspan></text><path id="SvgjsPath1746" d="M0 0h505.5M0 0v10M252.50250250250252 0v10M25.250250250250254 0v3.3333333333333335M50.50050050050051 0v3.3333333333333335M75.75075075075075 0v3.3333333333333335M101.00100100100101 0v3.3333333333333335M126.25125125125126 0v3.3333333333333335M151.5015015015015 0v3.3333333333333335M176.75175175175175 0v3.3333333333333335M202.00200200200203 0v3.3333333333333335M227.25225225225228 0v3.3333333333333335M277.75275275275277 0v3.3333333333333335M303.003003003003 0v3.3333333333333335M328.25325325325326 0v3.3333333333333335M353.5035035035035 0v3.3333333333333335M378.75375375375376 0v3.3333333333333335M404.00400400400406 0v3.3333333333333335M429.2542542542543 0v3.3333333333333335M454.50450450450455 0v3.3333333333333335M479.7547547547548 0v3.3333333333333335" stroke="#000000" fill="none"></path></g><g id="SvgjsG1747" transform="matrix(1,0,0,1,52,733.4)"><text id="SvgjsText1748" font-family="Arial, Helvetica, sans-serif" font-size="16" font-weight="400" text-anchor="middle" family="Arial, Helvetica, sans-serif" size="16" weight="400" anchor="middle" transform="matrix(1,0,0,1,252.75,-9)" svgjs:data="{&quot;leading&quot;:&quot;1.3&quot;}"><tspan id="SvgjsTspan1749" dy="20.8" x="0" svgjs:data="{&quot;newLined&quot;:true}">Time (s)</tspan></text></g></g><g id="SvgjsG1750"></g><g id="SvgjsG1751" viewBox="0 0 505.5 704.4" transform="matrix(1,0,0,1,52,0)"><polyline id="SvgjsPolyline1752" points="0,0 0,703.4" stroke="LightGray" stroke-width="1" fill="none"></polyline><polyline id="SvgjsPolyline1753" points="252.50250250250252,0 252.50250250250252,703.4" stroke="LightGray" stroke-width="1" fill="none"></polyline><polyline id="SvgjsPolyline1754" points="0,703.4 504.5,703.4" stroke="LightGray" stroke-width="1" fill="none"></polyline><polyline id="SvgjsPolyline1755" points="0,584.5824324324324 504.5,584.5824324324324" stroke="LightGray" stroke-width="1" fill="none"></polyline><polyline id="SvgjsPolyline1756" points="0,465.7648648648649 504.5,465.7648648648649" stroke="LightGray" stroke-width="1" fill="none"></polyline><polyline id="SvgjsPolyline1757" points="0,346.94729729729727 504.5,346.94729729729727" stroke="LightGray" stroke-width="1" fill="none"></polyline><polyline id="SvgjsPolyline1758" points="0,228.12972972972972 504.5,228.12972972972972" stroke="LightGray" stroke-width="1" fill="none"></polyline><polyline id="SvgjsPolyline1759" points="0,109.31216216216217 504.5,109.31216216216217" stroke="LightGray" stroke-width="1" fill="none"></polyline><polyline id="SvgjsPolyline1760" points="0,704.4 0.506006006006006,690.1216216216216 1.518018018018018,685.3621621621621 2.53003003003003,680.6027027027027 3.036036036036036,678.2229729729729 3.542042042042042,673.4635135135135 4.554054054054054,668.704054054054 5.06006006006006,663.9445945945946 5.566066066066067,661.5648648648648 6.072072072072072,649.6662162162162 7.084084084084084,647.2864864864865 8.096096096096096,630.6283783783783 8.602102102102101,623.4891891891891 9.614114114114114,618.7297297297297 10.12012012012012,611.5905405405406 10.626126126126126,609.2108108108108 11.132132132132133,599.6918918918918 11.638138138138139,590.172972972973 12.144144144144144,587.7932432432432 12.65015015015015,578.2743243243243 13.156156156156156,571.1351351351351 14.168168168168169,566.3756756756757 14.674174174174174,563.9959459459459 15.18018018018018,552.0972972972972 15.686186186186186,549.7175675675676 16.19219219219219,547.3378378378378 16.6981981981982,544.958108108108 17.204204204204203,540.1986486486486 17.71021021021021,537.8189189189189 18.216216216216218,535.4391891891892 18.72222222222222,533.0594594594595 19.22822822822823,530.6797297297297 19.734234234234233,523.5405405405405 20.24024024024024,509.2621621621621 20.746246246246248,504.50270270270266 21.75825825825826,497.36351351351345 22.77027027027027,490.22432432432436 23.276276276276278,487.8445945945946 23.78228228228228,475.94594594594594 24.794294294294296,475.94594594594594 25.3003003003003,466.42702702702707 26.31231231231231,459.28783783783786 26.81831831831832,456.90810810810814 27.324324324324326,454.5283783783784 27.83033033033033,452.14864864864865 28.336336336336338,445.00945945945944 28.84234234234234,433.1108108108108 29.854354354354356,433.1108108108108 30.36036036036036,425.9716216216216 31.37237237237237,425.9716216216216 31.87837837837838,421.21216216216214 32.38438438438438,418.8324324324324 32.890390390390394,411.6932432432432 33.3963963963964,409.31351351351356 33.9024024024024,406.9337837837838 34.408408408408405,404.55405405405406 34.914414414414416,399.7945945945947 35.42042042042042,395.03513513513514 36.432432432432435,383.1364864864865 36.93843843843844,375.9972972972973 37.950450450450454,368.85810810810807 38.96246246246246,366.4783783783784 39.468468468468465,359.3391891891892 39.974474474474476,352.20000000000005 40.48048048048048,345.0608108108108 41.492492492492495,342.6810810810811 41.9984984984985,340.30135135135134 43.010510510510514,337.9216216216217 44.02252252252252,333.1621621621622 44.52852852852853,330.7824324324325 45.03453453453454,321.2635135135136 46.046546546546544,321.2635135135136 47.05855855855856,316.50405405405405 47.56456456456456,314.1243243243243 48.070570570570574,311.7445945945946 49.08258258258258,311.7445945945946 49.58858858858859,309.36486486486484 50.0945945945946,304.6054054054054 50.6006006006006,302.22567567567575 51.106606606606604,299.84594594594597 52.11861861861862,290.327027027027 53.130630630630634,290.327027027027 54.14264264264264,290.327027027027 54.64864864864865,287.9472972972973 55.15465465465466,283.1878378378379 56.166666666666664,283.1878378378379 56.672672672672675,278.42837837837845 57.17867867867868,276.0486486486487 58.190690690690694,276.0486486486487 59.2027027027027,268.90945945945947 59.70870870870871,266.5297297297297 60.72072072072072,266.5297297297297 61.732732732732735,266.5297297297297 62.23873873873874,264.15000000000003 62.74474474474474,259.3905405405406 63.75675675675676,259.3905405405406 64.76876876876877,254.63108108108122 65.27477477477477,252.2513513513514 66.28678678678679,242.7324324324324 67.2987987987988,242.7324324324324 67.8048048048048,237.97297297297297 68.3108108108108,235.59324324324336 69.32282282282283,230.83378378378376 70.33483483483484,230.83378378378376 71.34684684684684,230.83378378378376 72.35885885885887,230.83378378378376 73.37087087087087,230.83378378378376 73.87687687687688,228.4540540540541 74.38288288288288,226.07432432432438 75.39489489489489,223.69459459459466 75.90090090090091,221.31486486486494 76.40690690690691,218.93513513513523 77.41891891891892,218.93513513513523 77.92492492492492,214.17567567567568 78.93693693693693,207.03648648648652 79.44294294294295,202.2770270270271 79.94894894894895,199.89729729729737 80.96096096096096,195.13783783783782 81.97297297297297,195.13783783783782 82.98498498498499,192.75810810810816 83.996996996997,192.75810810810816 85.009009009009,192.75810810810816 86.02102102102103,192.75810810810816 86.52702702702703,190.37837837837833 87.53903903903904,190.37837837837833 88.55105105105105,190.37837837837833 89.56306306306307,190.37837837837833 90.06906906906907,185.6189189189189 91.08108108108108,185.6189189189189 92.09309309309309,185.6189189189189 93.10510510510511,185.6189189189189 94.11711711711712,185.6189189189189 95.12912912912913,185.6189189189189 96.14114114114115,185.6189189189189 96.64714714714715,180.85945945945946 97.65915915915916,180.85945945945946 98.16516516516516,171.34054054054047 99.17717717717719,171.34054054054047 100.1891891891892,171.34054054054047 100.6951951951952,166.58108108108104 101.2012012012012,164.20135135135138 102.21321321321321,164.20135135135138 102.71921921921923,157.06216216216217 103.73123123123123,152.30270270270273 104.74324324324324,152.30270270270273 105.24924924924925,147.54324324324318 106.26126126126127,147.54324324324318 107.27327327327328,147.54324324324318 108.28528528528528,147.54324324324318 109.2972972972973,147.54324324324318 110.30930930930931,147.54324324324318 111.32132132132132,147.54324324324318 111.82732732732732,142.78378378378375 112.83933933933935,142.78378378378375 113.85135135135135,142.78378378378375 114.86336336336336,142.78378378378375 115.87537537537537,142.78378378378375 116.38138138138139,138.0243243243243 116.88738738738739,133.264864864865 117.8993993993994,130.88513513513533 118.91141141141141,126.12567567567567 119.92342342342343,126.12567567567567 120.42942942942943,123.74594594594589 121.44144144144144,123.74594594594589 122.45345345345345,123.74594594594589 123.46546546546547,123.74594594594589 124.47747747747748,123.74594594594589 125.48948948948949,123.74594594594589 126.50150150150151,118.98648648648646 127.51351351351352,118.98648648648646 128.52552552552552,114.22702702702702 129.03153153153153,109.4675675675677 130.04354354354354,109.4675675675677 131.05555555555557,109.4675675675677 131.56156156156158,104.70810810810815 132.57357357357358,104.70810810810815 133.5855855855856,104.70810810810815 134.5975975975976,104.70810810810815 135.6096096096096,104.70810810810815 136.6216216216216,99.94864864864871 137.63363363363362,99.94864864864871 138.64564564564566,99.94864864864871 139.65765765765767,99.94864864864871 140.66966966966967,99.94864864864871 141.68168168168168,99.94864864864871 142.6936936936937,97.56891891891894 143.7057057057057,97.56891891891894 144.71771771771773,97.56891891891894 145.72972972972974,97.56891891891894 146.74174174174175,92.80945945945939 147.75375375375376,92.80945945945939 148.25975975975976,88.05000000000007 149.27177177177177,88.05000000000007 150.28378378378378,88.05000000000007 151.2957957957958,88.05000000000007 152.30780780780782,83.29054054054052 153.31981981981983,83.29054054054052 153.82582582582583,80.91081081081086 154.33183183183183,76.15135135135142 155.34384384384384,76.15135135135142 156.35585585585585,76.15135135135142 157.36786786786786,76.15135135135142 158.3798798798799,76.15135135135142 159.3918918918919,76.15135135135142 160.4039039039039,76.15135135135142 161.41591591591592,76.15135135135142 162.42792792792793,76.15135135135142 163.43993993993993,76.15135135135142 164.45195195195194,76.15135135135142 165.46396396396398,76.15135135135142 166.47597597597598,76.15135135135142 167.487987987988,76.15135135135142 168.5,71.39189189189187 169.512012012012,71.39189189189187 170.52402402402402,71.39189189189187 171.53603603603605,71.39189189189187 172.54804804804806,71.39189189189187 173.56006006006007,66.63243243243244 174.57207207207207,66.63243243243244 175.07807807807808,61.872972972973116 176.0900900900901,61.872972972973116 177.1021021021021,61.872972972973116 178.11411411411413,61.872972972973116 179.12612612612614,61.872972972973116 180.13813813813815,57.11351351351357 181.15015015015015,57.11351351351357 181.65615615615616,52.35405405405402 182.66816816816817,52.35405405405402 183.68018018018017,52.35405405405402 184.69219219219218,52.35405405405402 185.70420420420422,52.35405405405402 186.71621621621622,52.35405405405402 187.72822822822823,52.35405405405402 188.74024024024024,52.35405405405402 189.75225225225225,52.35405405405402 190.76426426426426,52.35405405405402 191.7762762762763,52.35405405405402 192.7882882882883,52.35405405405402 193.8003003003003,52.35405405405402 194.81231231231232,52.35405405405402 195.82432432432432,52.35405405405402 196.83633633633633,52.35405405405402 197.84834834834834,52.35405405405402 198.86036036036037,52.35405405405402 199.87237237237238,52.35405405405402 200.8843843843844,52.35405405405402 201.8963963963964,52.35405405405402 202.9084084084084,52.35405405405402 203.9204204204204,52.35405405405402 204.93243243243245,52.35405405405402 205.94444444444446,52.35405405405402 206.95645645645646,47.59459459459458 207.96846846846847,47.59459459459458 208.98048048048048,47.59459459459458 209.9924924924925,47.59459459459458 211.0045045045045,47.59459459459458 212.01651651651653,47.59459459459458 213.02852852852854,47.59459459459458 214.04054054054055,47.59459459459458 215.05255255255256,47.59459459459458 216.06456456456456,47.59459459459458 217.07657657657657,47.59459459459458 218.08858858858858,47.59459459459458 219.10060060060061,42.83513513513515 220.11261261261262,42.83513513513515 221.12462462462463,42.83513513513515 222.13663663663664,42.83513513513515 223.14864864864865,42.83513513513515 224.16066066066065,42.83513513513515 225.1726726726727,42.83513513513515 226.1846846846847,42.83513513513515 227.1966966966967,42.83513513513515 228.2087087087087,42.83513513513515 229.22072072072072,42.83513513513515 230.23273273273273,42.83513513513515 231.24474474474474,42.83513513513515 232.25675675675677,42.83513513513515 233.26876876876878,42.83513513513515 233.77477477477478,40.455405405405486 234.7867867867868,40.455405405405486 235.7987987987988,40.455405405405486 236.8108108108108,40.455405405405486 237.82282282282281,40.455405405405486 238.83483483483485,40.455405405405486 239.84684684684686,40.455405405405486 240.85885885885887,40.455405405405486 241.87087087087087,40.455405405405486 242.88288288288288,40.455405405405486 243.8948948948949,40.455405405405486 244.9069069069069,40.455405405405486 245.91891891891893,40.455405405405486 246.93093093093094,40.455405405405486 247.94294294294295,40.455405405405486 248.95495495495496,40.455405405405486 249.96696696696696,40.455405405405486 250.97897897897897,40.455405405405486 251.990990990991,40.455405405405486 252.496996996997,38.07567567567571 253.50900900900902,38.07567567567571 254.52102102102103,38.07567567567571 255.53303303303304,38.07567567567571 256.5450450450451,38.07567567567571 257.5570570570571,38.07567567567571 258.5690690690691,38.07567567567571 259.5810810810811,38.07567567567571 260.5930930930931,38.07567567567571 261.6051051051051,38.07567567567571 262.6171171171171,38.07567567567571 263.6291291291291,38.07567567567571 264.64114114114113,38.07567567567571 265.65315315315314,38.07567567567571 266.66516516516515,38.07567567567571 267.67717717717716,38.07567567567571 268.68918918918916,38.07567567567571 269.70120120120123,38.07567567567571 270.71321321321324,38.07567567567571 271.72522522522524,38.07567567567571 272.73723723723725,38.07567567567571 273.74924924924926,33.316216216216276 274.76126126126127,33.316216216216276 275.7732732732733,33.316216216216276 276.7852852852853,33.316216216216276 277.7972972972973,33.316216216216276 278.8093093093093,33.316216216216276 279.8213213213213,28.55675675675684 280.8333333333333,28.55675675675684 281.8453453453453,28.55675675675684 282.8573573573574,28.55675675675684 283.8693693693694,28.55675675675684 284.8813813813814,28.55675675675684 285.3873873873874,26.177027027027066 286.3993993993994,26.177027027027066 287.4114114114114,26.177027027027066 288.4234234234234,26.177027027027066 289.43543543543547,26.177027027027066 290.4474474474475,26.177027027027066 291.4594594594595,26.177027027027066 292.4714714714715,26.177027027027066 293.4834834834835,26.177027027027066 294.4954954954955,26.177027027027066 295.5075075075075,26.177027027027066 296.5195195195195,26.177027027027066 297.5315315315315,26.177027027027066 298.54354354354354,26.177027027027066 299.55555555555554,26.177027027027066 300.56756756756755,26.177027027027066 301.57957957957956,26.177027027027066 302.5915915915916,26.177027027027066 303.60360360360363,26.177027027027066 304.61561561561564,26.177027027027066 305.62762762762765,26.177027027027066 306.63963963963965,21.41756756756763 307.65165165165166,21.41756756756763 308.66366366366367,21.41756756756763 309.6756756756757,21.41756756756763 310.6876876876877,21.41756756756763 311.6996996996997,21.41756756756763 312.7117117117117,21.41756756756763 313.7237237237237,21.41756756756763 314.7357357357357,21.41756756756763 315.7477477477477,21.41756756756763 316.7597597597598,21.41756756756763 317.7717717717718,21.41756756756763 318.7837837837838,21.41756756756763 319.7957957957958,21.41756756756763 320.8078078078078,21.41756756756763 321.8198198198198,21.41756756756763 322.83183183183183,21.41756756756763 323.84384384384384,21.41756756756763 324.85585585585585,21.41756756756763 325.86786786786786,21.41756756756763 326.87987987987987,21.41756756756763 327.8918918918919,21.41756756756763 328.9039039039039,21.41756756756763 329.91591591591595,21.41756756756763 330.92792792792795,21.41756756756763 331.93993993993996,21.41756756756763 332.95195195195197,21.41756756756763 333.963963963964,21.41756756756763 334.975975975976,21.41756756756763 335.987987987988,21.41756756756763 337,21.41756756756763 338.012012012012,21.41756756756763 339.024024024024,21.41756756756763 340.036036036036,21.41756756756763 341.04804804804803,21.41756756756763 342.06006006006004,21.41756756756763 343.0720720720721,21.41756756756763 344.0840840840841,21.41756756756763 345.0960960960961,21.41756756756763 346.1081081081081,21.41756756756763 347.12012012012013,21.41756756756763 348.13213213213214,21.41756756756763 349.14414414414415,21.41756756756763 350.15615615615616,21.41756756756763 351.16816816816817,21.41756756756763 352.1801801801802,21.41756756756763 353.1921921921922,21.41756756756763 354.2042042042042,21.41756756756763 355.2162162162162,21.41756756756763 356.22822822822826,21.41756756756763 357.24024024024027,21.41756756756763 358.2522522522523,21.41756756756763 358.75825825825825,16.658108108108195 359.77027027027026,16.658108108108195 360.78228228228227,16.658108108108195 361.7942942942943,16.658108108108195 362.80630630630634,16.658108108108195 363.81831831831835,11.898648648648646 364.83033033033036,11.898648648648646 365.84234234234236,11.898648648648646 366.85435435435437,11.898648648648646 367.8663663663664,11.898648648648646 368.8783783783784,11.898648648648646 369.8903903903904,11.898648648648646 370.9024024024024,11.898648648648646 371.9144144144144,11.898648648648646 372.9264264264264,11.898648648648646 373.43243243243245,9.518918918918985 374.44444444444446,9.518918918918985 375.45645645645646,9.518918918918985 376.4684684684685,9.518918918918985 377.4804804804805,9.518918918918985 378.4924924924925,9.518918918918985 379.5045045045045,9.518918918918985 380.5165165165165,9.518918918918985 381.5285285285285,9.518918918918985 382.5405405405405,9.518918918918985 383.5525525525526,9.518918918918985 384.5645645645646,9.518918918918985 385.5765765765766,9.518918918918985 386.5885885885886,9.518918918918985 387.6006006006006,9.518918918918985 388.6126126126126,9.518918918918985 389.62462462462463,9.518918918918985 390.13063063063066,4.759459459459549 391.14264264264267,4.759459459459549 392.1546546546547,4.759459459459549 393.1666666666667,4.759459459459549 394.1786786786787,4.759459459459549 395.1906906906907,2.3797297297297746 396.2027027027027,2.3797297297297746 397.2147147147147,2.3797297297297746 398.2267267267267,2.3797297297297746 399.23873873873873,2.3797297297297746 400.25075075075074,2.3797297297297746 401.26276276276275,2.3797297297297746 402.27477477477476,2.3797297297297746 403.2867867867868,2.3797297297297746 404.2987987987988,2.3797297297297746 405.31081081081084,2.3797297297297746 406.32282282282284,2.3797297297297746 407.33483483483485,2.3797297297297746 408.34684684684686,2.3797297297297746 409.35885885885887,2.3797297297297746 410.3708708708709,2.3797297297297746 411.3828828828829,2.3797297297297746 412.3948948948949,2.3797297297297746 413.4069069069069,2.3797297297297746 414.4189189189189,2.3797297297297746 415.4309309309309,2.3797297297297746 416.4429429429429,2.3797297297297746 417.454954954955,2.3797297297297746 418.466966966967,2.3797297297297746 419.478978978979,2.3797297297297746 420.490990990991,2.3797297297297746 421.503003003003,2.3797297297297746 422.515015015015,2.3797297297297746 423.52702702702703,2.3797297297297746 424.53903903903904,2.3797297297297746 425.55105105105105,2.3797297297297746 426.56306306306305,2.3797297297297746 427.57507507507506,2.3797297297297746 428.58708708708707,2.3797297297297746 429.5990990990991,2.3797297297297746 430.61111111111114,2.3797297297297746 431.62312312312315,2.3797297297297746 432.63513513513516,2.3797297297297746 433.64714714714717,2.3797297297297746 434.6591591591592,2.3797297297297746 435.6711711711712,2.3797297297297746 436.6831831831832,2.3797297297297746 437.6951951951952,2.3797297297297746 438.7072072072072,2.3797297297297746 439.7192192192192,2.3797297297297746 440.7312312312312,2.3797297297297746 441.7432432432432,2.3797297297297746 442.75525525525524,2.3797297297297746 443.7672672672673,2.3797297297297746 444.7792792792793,2.3797297297297746 445.7912912912913,2.3797297297297746 446.8033033033033,2.3797297297297746 447.81531531531533,2.3797297297297746 448.82732732732734,2.3797297297297746 449.83933933933935,2.3797297297297746 450.85135135135135,2.3797297297297746 451.86336336336336,2.3797297297297746 452.87537537537537,2.3797297297297746 453.8873873873874,2.3797297297297746 454.8993993993994,2.3797297297297746 455.9114114114114,2.3797297297297746 456.92342342342346,2.3797297297297746 457.93543543543547,2.3797297297297746 458.9474474474475,2.3797297297297746 459.9594594594595,2.3797297297297746 460.9714714714715,2.3797297297297746 461.9834834834835,2.3797297297297746 462.9954954954955,2.3797297297297746 464.0075075075075,2.3797297297297746 465.0195195195195,2.3797297297297746 466.0315315315315,2.3797297297297746 467.04354354354354,2.3797297297297746 468.05555555555554,2.3797297297297746 469.06756756756755,2.3797297297297746 470.07957957957956,2.3797297297297746 471.0915915915916,2.3797297297297746 472.10360360360363,2.3797297297297746 473.11561561561564,2.3797297297297746 474.12762762762765,2.3797297297297746 475.13963963963965,2.3797297297297746 476.15165165165166,0 477.16366366366367,0 478.1756756756757,0 479.1876876876877,0 480.1996996996997,0 481.2117117117117,0 482.2237237237237,0 483.2357357357357,0 484.2477477477478,0 485.2597597597598,0 486.2717717717718,0 487.2837837837838,0 488.2957957957958,0 489.3078078078078,0 490.3198198198198,0 491.33183183183183,0 492.34384384384384,0 493.35585585585585,0 494.36786786786786,0 495.37987987987987,0 496.3918918918919,0 497.40390390390394,0 498.41591591591595,0 499.42792792792795,0 500.43993993993996,0 501.45195195195197,0 502.463963963964,0 503.475975975976,0 504.487987987988,0 505.5,0" style="fill: none; stroke: rgb(255, 0, 255); stroke-width: 3px; stroke-opacity: 1;"></polyline></g></svg></svg><svg id="SvgjsSvg1775" style="overflow: visible;" x="557.5"><svg xmlns="http://www.w3.org/2000/svg" version="1.1" xmlns:xlink="http://www.w3.org/1999/xlink" xmlns:svgjs="http://svgjs.com/svgjs" width="200" height="60"><defs id="SvgjsDefs1761"><clipPath id="SvgjsClipPath1769"><rect id="SvgjsRect1768" width="170" height="30"></rect></clipPath><clipPath id="SvgjsClipPath1772"><rect id="SvgjsRect1771" width="180" height="60"></rect></clipPath></defs><g id="SvgjsG1762" clip-path="url(&quot;#SvgjsClipPath1772&quot;)"><g id="SvgjsG1763" transform="matrix(1,0,0,1,5,0)"><rect id="SvgjsRect1764" width="170" height="30" fill="white" opacity="0.5"></rect><line id="SvgjsLine1765" x1="0" y1="0" x2="18" y2="18" stroke="#ff00ff" stroke-width="3" transform="matrix(1,0,0,1,5,5)"></line><text id="SvgjsText1766" font-family="Arial, Helvetica, sans-serif" font-size="14" font-weight="400" family="Arial, Helvetica, sans-serif" size="14" weight="400" transform="matrix(1,0,0,1,40,0)" svgjs:data="{&quot;leading&quot;:&quot;1.3&quot;}"><tspan id="SvgjsTspan1767" dy="18.2" x="0" svgjs:data="{&quot;newLined&quot;:true}">C</tspan></text></g></g></svg></svg></svg>