<svg xmlns="http://www.w3.org/2000/svg" version="1.1" xmlns:xlink="http://www.w3.org/1999/xlink" xmlns:svgjs="http://svgjs.com/svgjs" width="757.5" height="761.4"><defs id="SvgjsDefs1832"></defs><svg id="SvgjsSvg1833" style="overflow: visible;"><svg xmlns="http://www.w3.org/2000/svg" version="1.1" xmlns:xlink="http://www.w3.org/1999/xlink" xmlns:svgjs="http://svgjs.com/svgjs" width="557.5" height="761.4"><defs id="SvgjsDefs1776"></defs><g id="SvgjsG1777" transform="matrix(1,0,0,1,0,0)"><g id="SvgjsG1778" transform="matrix(1,0,0,1,0,0)"><text id="SvgjsText1779" font-family="Arial, Helvetica, sans-serif" font-size="16" font-weight="400" text-anchor="middle" family="Arial, Helvetica, sans-serif" size="16" weight="400" anchor="middle" transform="matrix(0,-1,1,0,0,352.2)" svgjs:data="{&quot;leading&quot;:&quot;1.3&quot;}"><tspan id="SvgjsTspan1780" dy="20.8" x="0" svgjs:data="{&quot;newLined&quot;:true}">Individuals</tspan></text></g><g id="SvgjsG1781" transform="matrix(1,0,0,1,20,0)" width="32" height="704.4"><text id="SvgjsText1782" font-family="Arial, Helvetica, sans-serif" font-size="16px" family="Arial, Helvetica, sans-serif" size="16px" transform="matrix(1,0,0,1,0,694.4000244140625)" svgjs:data="{&quot;leading&quot;:&quot;1.3&quot;}"><tspan id="SvgjsTspan1783" dy="20.8" x="0" svgjs:data="{&quot;newLined&quot;:true}">0</tspan></text><text id="SvgjsText1784" font-family="Arial, Helvetica, sans-serif" font-size="16px" family="Arial, Helvetica, sans-serif" size="16px" transform="matrix(1,0,0,1,0,574.3670043945312)" svgjs:data="{&quot;leading&quot;:&quot;1.3&quot;}"><tspan id="SvgjsTspan1785" dy="20.8" x="0" svgjs:data="{&quot;newLined&quot;:true}">5</tspan></text><text id="SvgjsText1786" font-family="Arial, Helvetica, sans-serif" font-size="16px" family="Arial, Helvetica, sans-serif" size="16px" transform="matrix(1,0,0,1,0,454.3330078125)" svgjs:data="{&quot;leading&quot;:&quot;1.3&quot;}"><tspan id="SvgjsTspan1787" dy="20.8" x="0" svgjs:data="{&quot;newLined&quot;:true}">10</tspan></text><text id="SvgjsText1788" font-family="Arial, Helvetica, sans-serif" font-size="16px" family="Arial, Helvetica, sans-serif" size="16px" transform="matrix(1,0,0,1,0,334.29998779296875)" svgjs:data="{&quot;leading&quot;:&quot;1.3&quot;}"><tspan id="SvgjsTspan1789" dy="20.8" x="0" svgjs:data="{&quot;newLined&quot;:true}">15</tspan></text><text id="SvgjsText1790" font-family="Arial, Helvetica, sans-serif" font-size="16px" family="Arial, Helvetica, sans-serif" size="16px" transform="matrix(1,0,0,1,0,214.26699829101562)" svgjs:data="{&quot;leading&quot;:&quot;1.3&quot;}"><tspan id="SvgjsTspan1791" dy="20.8" x="0" svgjs:data="{&quot;newLined&quot;:true}">20</tspan></text><text id="SvgjsText1792" font-family="Arial, Helvetica, sans-serif" font-size="16px" family="Arial, Helvetica, sans-serif" size="16px" transform="matrix(1,0,0,1,0,94.2332992553711)" svgjs:data="{&quot;leading&quot;:&quot;1.3&quot;}"><tspan id="SvgjsTspan1793" dy="20.8" x="0" svgjs:data="{&quot;newLined&quot;:true}">25</tspan></text><path id="SvgjsPath1794" d="M31 0v704.4M31 703.4h-10M31 583.3658703071671h-10M31 463.3317406143344h-10M31 343.29761092150164h-10M31 223.26348122866887h-10M31 103.22935153583603h-10M31 692.3965870307167h-3.3333333333333335M31 680.3931740614335h-3.3333333333333335M31 668.3897610921501h-3.3333333333333335M31 656.3863481228668h-3.3333333333333335M31 644.3829351535836h-3.3333333333333335M31 632.3795221843003h-3.3333333333333335M31 620.376109215017h-3.3333333333333335M31 608.3726962457338h-3.3333333333333335M31 596.3692832764505h-3.3333333333333335M31 572.3624573378839h-3.3333333333333335M31 560.3590443686006h-3.3333333333333335M31 548.3556313993174h-3.3333333333333335M31 536.3522184300341h-3.3333333333333335M31 524.3488054607508h-3.3333333333333335M31 512.3453924914675h-3.3333333333333335M31 500.34197952218426h-3.3333333333333335M31 488.33856655290094h-3.3333333333333335M31 476.3351535836177h-3.3333333333333335M31 452.3283276450511h-3.3333333333333335M31 440.32491467576784h-3.3333333333333335M31 428.3215017064846h-3.3333333333333335M31 416.31808873720126h-3.3333333333333335M31 404.314675767918h-3.3333333333333335M31 392.31126279863474h-3.3333333333333335M31 380.3078498293515h-3.3333333333333335M31 368.30443686006817h-3.3333333333333335M31 356.3010238907849h-3.3333333333333335M31 332.2941979522183h-3.3333333333333335M31 320.29078498293507h-3.3333333333333335M31 308.2873720136518h-3.3333333333333335M31 296.2839590443685h-3.3333333333333335M31 284.2805460750852h-3.3333333333333335M31 272.27713310580197h-3.3333333333333335M31 260.27372013651865h-3.3333333333333335M31 248.2703071672354h-3.3333333333333335M31 236.26689419795213h-3.3333333333333335M31 212.26006825938555h-3.3333333333333335M31 200.2566552901023h-3.3333333333333335M31 188.25324232081903h-3.3333333333333335M31 176.2498293515357h-3.3333333333333335M31 164.2464163822524h-3.3333333333333335M31 152.2430034129692h-3.3333333333333335M31 140.23959044368587h-3.3333333333333335M31 128.23617747440255h-3.3333333333333335M31 116.23276450511935h-3.3333333333333335M31 92.22593856655283h-3.3333333333333335M31 80.22252559726951h-3.3333333333333335M31 68.21911262798619h-3.3333333333333335M31 56.21569965870299h-3.3333333333333335M31 44.21228668941967h-3.3333333333333335M31 32.20887372013635h-3.3333333333333335M31 20.20546075085315h-3.3333333333333335M31 8.202047781569831h-3.3333333333333335" stroke="#000000" fill="none"></path></g></g><g id="SvgjsG1795"><g id="SvgjsG1796" transform="matrix(1,0,0,1,52,0)"><text id="SvgjsText1797" font-family="Arial, Helvetica, sans-serif" font-size="16" font-weight="400" text-anchor="middle" family="Arial, Helvetica, sans-serif" size="16" weight="400" anchor="middle" transform="matrix(1,0,0,1,0,0)" svgjs:data="{&quot;leading&quot;:&quot;1.3&quot;}"><tspan id="SvgjsTspan1798" dy="20.8" x="0" svgjs:data="{&quot;newLined&quot;:true}"></tspan></text></g></g><g id="SvgjsG1799"><g id="SvgjsG1800" transform="matrix(1,0,0,1,52,704.4)" width="505.5" height="29"><text id="SvgjsText1801" font-family="Arial, Helvetica, sans-serif" font-size="16px" family="Arial, Helvetica, sans-serif" size="16px" transform="matrix(1,0,0,1,-4.5,10)" svgjs:data="{&quot;leading&quot;:&quot;1.3&quot;}"><tspan id="SvgjsTspan1802" dy="20.8" x="0" svgjs:data="{&quot;newLined&quot;:true}">0</tspan></text><text id="SvgjsText1803" font-family="Arial, Helvetica, sans-serif" font-size="16px" family="Arial, Helvetica, sans-serif" size="16px" transform="matrix(1,0,0,1,230,10)" svgjs:data="{&quot;leading&quot;:&quot;1.3&quot;}"><tspan id="SvgjsTspan1804" dy="20.8" x="0" svgjs:data="{&quot;newLined&quot;:true}">50000</tspan></text><path id="SvgjsPath1805" d="M0 0h505.5M0 0v10M252.50250250250252 0v10M25.250250250250254 0v3.3333333333333335M50.50050050050051 0v3.3333333333333335M75.75075075075075 0v3.3333333333333335M101.00100100100101 0v3.3333333333333335M126.25125125125126 0v3.3333333333333335M151.5015015015015 0v3.3333333333333335M176.75175175175175 0v3.3333333333333335M202.00200200200203 0v3.3333333333333335M227.25225225225228 0v3.3333333333333335M277.75275275275277 0v3.3333333333333335M303.003003003003 0v3.3333333333333335M328.25325325325326 0v3.3333333333333335M353.5035035035035 0v3.3333333333333335M378.75375375375376 0v3.3333333333333335M404.00400400400406 0v3.3333333333333335M429.2542542542543 0v3.3333333333333335M454.50450450450455 0v3.3333333333333335M479.7547547547548 0v3.3333333333333335" stroke="#000000" fill="none"></path></g><g id="SvgjsG1806" transform="matrix(1,0,0,1,52,733.4)"><text id="SvgjsText1807" font-family="Arial, Helvetica, sans-serif" font-size="16" font-weight="400" text-anchor="middle" family="Arial, Helvetica, sans-serif" size="16" weight="400" anchor="middle" transform="matrix(1,0,0,1,252.75,-9)" svgjs:data="{&quot;leading&quot;:&quot;1.3&quot;}"><tspan id="SvgjsTspan1808" dy="20.8" x="0" svgjs:data="{&quot;newLined&quot;:true}">Time (s)</tspan></text></g></g><g id="SvgjsG1809"></g><g id="SvgjsG1810" viewBox="0 0 505.5 704.4" transform="matrix(1,0,0,1,52,0)"><polyline id="SvgjsPolyline1811" points="0,0 0,703.4" stroke="LightGray" stroke-width="1" fill="none"></polyline><polyline id="SvgjsPolyline1812" points="252.50250250250252,0 252.50250250250252,703.4" stroke="LightGray" stroke-width="1" fill="none"></polyline><polyline id="SvgjsPolyline1813" points="0,703.4 504.5,703.4" stroke="LightGray" stroke-width="1" fill="none"></polyline><polyline id="SvgjsPolyline1814" points="0,583.3658703071671 504.5,583.3658703071671" stroke="LightGray" stroke-width="1" fill="none"></polyline><polyline id="SvgjsPolyline1815" points="0,463.3317406143344 504.5,463.3317406143344" stroke="LightGray" stroke-width="1" fill="none"></polyline><polyline id="SvgjsPolyline1816" points="0,343.29761092150164 504.5,343.29761092150164" stroke="LightGray" stroke-width="1" fill="none"></polyline><polyline id="SvgjsPolyline1817" points="0,223.26348122866887 504.5,223.26348122866887" stroke="LightGray" stroke-width="1" fill="none"></polyline><polyline id="SvgjsPolyline1818" points="0,103.22935153583603 504.5,103.22935153583603" stroke="LightGray" stroke-width="1" fill="none"></polyline><polyline id="SvgjsPolyline1819" points="0,704.4 0.506006006006006,663.5303754266212 1.518018018018018,661.1262798634812 2.024024024024024,653.9139931740614 2.53003003003003,641.8935153583617 3.036036036036036,632.277133105802 3.542042042042042,627.4689419795221 4.048048048048048,610.6402730375427 4.554054054054054,598.619795221843 5.06006006006006,586.5993174061433 5.566066066066067,572.1747440273037 6.072072072072072,560.1542662116041 6.578078078078078,545.7296928327645 7.084084084084084,536.1133105802048 7.59009009009009,521.6887372013651 8.096096096096096,504.86006825938557 9.108108108108109,488.0313993174061 9.614114114114114,480.8191126279863 10.12012012012012,471.20273037542654 10.626126126126126,466.3945392491467 11.132132132132133,463.99044368600676 11.638138138138139,456.778156996587 12.144144144144144,451.9699658703071 12.65015015015015,449.5658703071672 13.156156156156156,437.5453924914675 13.662162162162163,427.9290102389078 14.168168168168169,425.52491467576783 14.674174174174174,415.90853242320816 15.18018018018018,411.10034129692826 15.686186186186186,401.4839590443685 16.6981981981982,391.8675767918088 17.204204204204203,387.05938566552896 17.71021021021021,382.2511945392491 18.72222222222222,370.2307167235494 19.22822822822823,365.42252559726955 19.734234234234233,358.21023890784977 20.24024024024024,353.4020477815699 21.25225225225225,350.99795221843 21.75825825825826,341.3815699658702 22.264264264264266,336.5733788395904 23.276276276276278,331.7651877133105 23.78228228228228,329.3610921501706 24.794294294294296,319.7447098976109 25.3003003003003,314.936518771331 25.806306306306308,312.532423208191 26.31231231231231,310.1283276450512 26.81831831831832,302.9160409556313 27.324324324324326,298.1078498293515 27.83033033033033,295.70375426621155 28.336336336336338,290.89556313993177 29.34834834834835,281.2791808873719 29.854354354354356,276.470989761092 30.36036036036036,269.2587030716723 30.866366366366368,264.45051194539246 31.37237237237237,259.64232081911257 31.87837837837838,250.02593856655284 32.890390390390394,245.21774744027294 33.3963963963964,242.81365187713305 34.408408408408405,242.81365187713305 34.914414414414416,238.00546075085322 35.926426426426424,235.6013651877132 36.432432432432435,233.19726962457327 37.44444444444444,233.19726962457327 37.950450450450454,230.79317406143332 38.96246246246246,225.98498293515354 39.468468468468465,221.1767918088736 39.974474474474476,213.96450511945386 40.48048048048048,211.5604095563139 40.986486486486484,209.1563139931739 41.9984984984985,206.75221843003396 43.010510510510514,199.53993174061424 43.51651651651652,194.7317406143344 44.02252252252252,192.3276450511944 44.52852852852853,187.51945392491461 45.03453453453454,182.7112627986346 46.046546546546544,180.30716723549483 47.05855855855856,177.90307167235483 48.070570570570574,175.49897610921505 48.57657657657658,173.09488054607493 49.08258258258258,165.88259385665526 49.58858858858859,163.47849829351526 50.6006006006006,161.07440273037537 51.106606606606604,158.67030716723536 51.612612612612615,153.86211604095547 52.11861861861862,151.45802047781558 53.130630630630634,151.45802047781558 53.63663663663664,149.0539249146757 54.14264264264264,146.6498293515358 54.64864864864865,144.24573378839568 55.66066066066066,144.24573378839568 56.672672672672675,144.24573378839568 57.68468468468468,139.4375426621159 58.6966966966967,137.033447098976 59.70870870870871,137.033447098976 60.72072072072072,137.033447098976 61.732732732732735,137.033447098976 62.23873873873874,134.629351535836 63.250750750750754,134.629351535836 64.26276276276276,134.629351535836 65.27477477477477,134.629351535836 66.28678678678679,134.629351535836 67.2987987987988,132.22525597269612 68.3108108108108,132.22525597269612 69.32282282282283,127.41706484641634 70.33483483483484,127.41706484641634 71.34684684684684,125.01296928327633 72.35885885885887,120.20477815699644 73.37087087087087,117.80068259385655 73.87687687687688,110.58839590443665 74.88888888888889,110.58839590443665 75.39489489489489,105.78020477815687 76.40690690690691,105.78020477815687 77.41891891891892,105.78020477815687 78.43093093093093,100.97201365187698 79.44294294294295,100.97201365187698 80.45495495495496,100.97201365187698 81.46696696696696,100.97201365187698 81.97297297297297,98.56791808873709 82.98498498498499,98.56791808873709 83.490990990991,91.3556313993173 84.503003003003,91.3556313993173 85.51501501501501,91.3556313993173 86.02102102102103,88.95153583617741 86.52702702702703,86.54744027303741 87.53903903903904,81.73924914675752 88.55105105105105,81.73924914675752 89.56306306306307,81.73924914675752 90.57507507507508,81.73924914675752 91.58708708708708,81.73924914675752 92.5990990990991,81.73924914675752 93.61111111111111,81.73924914675752 94.62312312312312,81.73924914675752 95.63513513513513,81.73924914675752 96.64714714714715,81.73924914675752 97.65915915915916,81.73924914675752 98.67117117117117,81.73924914675752 99.68318318318319,81.73924914675752 100.6951951951952,81.73924914675752 101.7072072072072,81.73924914675752 102.21321321321321,79.33515358361763 103.22522522522523,74.52696245733785 104.23723723723724,74.52696245733785 105.24924924924925,72.12286689419784 106.26126126126127,72.12286689419784 107.27327327327328,72.12286689419784 108.28528528528528,69.71877133105795 109.2972972972973,69.71877133105795 110.30930930930931,69.71877133105795 110.81531531531532,64.91058020477806 111.82732732732732,64.91058020477806 112.83933933933935,64.91058020477806 113.85135135135135,64.91058020477806 114.86336336336336,62.50648464163805 115.87537537537537,62.50648464163805 116.88738738738739,60.10238907849816 117.8993993993994,60.10238907849816 118.91141141141141,60.10238907849816 119.92342342342343,60.10238907849816 120.93543543543544,60.10238907849816 121.94744744744744,57.69829351535827 122.95945945945947,57.69829351535827 123.97147147147147,57.69829351535827 124.98348348348348,57.69829351535827 125.9954954954955,57.69829351535827 127.00750750750751,57.69829351535827 128.01951951951952,57.69829351535827 129.03153153153153,57.69829351535827 130.04354354354354,57.69829351535827 131.05555555555557,57.69829351535827 132.06756756756758,57.69829351535827 133.0795795795796,57.69829351535827 134.0915915915916,57.69829351535827 135.1036036036036,57.69829351535827 136.1156156156156,57.69829351535827 137.12762762762762,57.69829351535827 137.63363363363362,55.29419795221827 138.64564564564566,55.29419795221827 139.65765765765767,52.89010238907849 140.66966966966967,52.89010238907849 141.68168168168168,52.89010238907849 142.6936936936937,52.89010238907849 143.7057057057057,52.89010238907849 144.71771771771773,52.89010238907849 145.72972972972974,52.89010238907849 146.74174174174175,52.89010238907849 147.75375375375376,52.89010238907849 148.76576576576576,52.89010238907849 149.77777777777777,52.89010238907849 150.78978978978978,52.89010238907849 151.2957957957958,50.48600682593849 152.30780780780782,50.48600682593849 153.31981981981983,50.48600682593849 154.33183183183183,50.48600682593849 155.34384384384384,50.48600682593849 156.35585585585585,50.48600682593849 157.36786786786786,50.48600682593849 157.87387387387386,45.677815699658595 158.8858858858859,45.677815699658595 159.8978978978979,45.677815699658595 160.9099099099099,45.677815699658595 161.92192192192192,43.273720136518705 162.42792792792793,38.46552901023881 163.43993993993993,38.46552901023881 163.94594594594594,36.06143344709881 164.45195195195194,33.65733788395892 165.46396396396398,33.65733788395892 166.47597597597598,33.65733788395892 167.487987987988,33.65733788395892 168.5,33.65733788395892 169.512012012012,33.65733788395892 170.52402402402402,33.65733788395892 171.53603603603605,33.65733788395892 172.54804804804806,33.65733788395892 173.56006006006007,33.65733788395892 174.57207207207207,33.65733788395892 175.58408408408408,33.65733788395892 176.5960960960961,33.65733788395892 177.6081081081081,33.65733788395892 178.62012012012013,33.65733788395892 179.63213213213214,33.65733788395892 180.64414414414415,33.65733788395892 181.65615615615616,33.65733788395892 182.66816816816817,33.65733788395892 183.17417417417417,31.253242320819027 184.18618618618618,31.253242320819027 185.1981981981982,31.253242320819027 186.21021021021022,31.253242320819027 187.22222222222223,31.253242320819027 188.23423423423424,31.253242320819027 189.24624624624624,31.253242320819027 190.25825825825825,31.253242320819027 191.27027027027026,31.253242320819027 192.2822822822823,31.253242320819027 193.2942942942943,31.253242320819027 194.3063063063063,28.849146757679136 195.31831831831832,28.849146757679136 196.33033033033033,28.849146757679136 197.34234234234233,28.849146757679136 198.35435435435437,28.849146757679136 199.36636636636638,28.849146757679136 200.3783783783784,28.849146757679136 201.3903903903904,28.849146757679136 202.4024024024024,28.849146757679136 203.4144144144144,28.849146757679136 204.42642642642642,28.849146757679136 205.43843843843845,28.849146757679136 206.45045045045046,28.849146757679136 207.46246246246247,28.849146757679136 208.47447447447448,28.849146757679136 209.48648648648648,28.849146757679136 210.4984984984985,28.849146757679136 211.0045045045045,26.445051194539133 212.01651651651653,26.445051194539133 213.02852852852854,26.445051194539133 214.04054054054055,26.445051194539133 215.05255255255256,26.445051194539133 216.06456456456456,26.445051194539133 217.07657657657657,26.445051194539133 218.08858858858858,26.445051194539133 219.10060060060061,26.445051194539133 220.11261261261262,26.445051194539133 221.12462462462463,26.445051194539133 222.13663663663664,26.445051194539133 222.64264264264264,24.040955631399243 223.65465465465465,24.040955631399243 224.66666666666666,24.040955631399243 225.6786786786787,24.040955631399243 226.6906906906907,24.040955631399243 227.7027027027027,24.040955631399243 228.71471471471472,24.040955631399243 229.72672672672672,24.040955631399243 230.73873873873873,24.040955631399243 231.75075075075074,24.040955631399243 232.76276276276278,24.040955631399243 233.77477477477478,24.040955631399243 234.7867867867868,24.040955631399243 235.7987987987988,24.040955631399243 236.8108108108108,24.040955631399243 237.82282282282281,24.040955631399243 238.32882882882882,21.63686006825924 239.34084084084085,21.63686006825924 239.84684684684686,19.23276450511935 240.85885885885887,19.23276450511935 241.87087087087087,19.23276450511935 242.88288288288288,19.23276450511935 243.8948948948949,19.23276450511935 244.9069069069069,19.23276450511935 245.91891891891893,19.23276450511935 246.93093093093094,19.23276450511935 247.94294294294295,19.23276450511935 248.95495495495496,19.23276450511935 249.96696696696696,19.23276450511935 250.97897897897897,19.23276450511935 251.990990990991,19.23276450511935 253.00300300300302,19.23276450511935 254.01501501501502,19.23276450511935 255.02702702702703,19.23276450511935 256.03903903903904,19.23276450511935 257.05105105105105,19.23276450511935 258.06306306306305,19.23276450511935 259.07507507507506,19.23276450511935 260.08708708708707,19.23276450511935 261.0990990990991,19.23276450511935 261.6051051051051,16.828668941979345 262.6171171171171,16.828668941979345 263.6291291291291,16.828668941979345 264.64114114114113,16.828668941979345 265.65315315315314,16.828668941979345 266.66516516516515,16.828668941979345 267.67717717717716,16.828668941979345 268.68918918918916,16.828668941979345 269.70120120120123,16.828668941979345 270.71321321321324,16.828668941979345 271.72522522522524,16.828668941979345 272.73723723723725,14.424573378839455 273.74924924924926,14.424573378839455 274.76126126126127,14.424573378839455 275.7732732732733,14.424573378839455 276.7852852852853,14.424573378839455 277.7972972972973,14.424573378839455 278.8093093093093,14.424573378839455 279.8213213213213,14.424573378839455 280.8333333333333,14.424573378839455 281.8453453453453,14.424573378839455 282.8573573573574,14.424573378839455 283.8693693693694,14.424573378839455 284.8813813813814,14.424573378839455 285.8933933933934,14.424573378839455 286.9054054054054,14.424573378839455 287.9174174174174,14.424573378839455 288.92942942942943,14.424573378839455 289.94144144144144,14.424573378839455 290.95345345345345,14.424573378839455 291.96546546546546,14.424573378839455 292.4714714714715,12.020477815699564 293.4834834834835,12.020477815699564 294.4954954954955,12.020477815699564 295.5075075075075,12.020477815699564 296.5195195195195,12.020477815699564 297.5315315315315,12.020477815699564 298.54354354354354,12.020477815699564 299.55555555555554,12.020477815699564 300.56756756756755,12.020477815699564 301.57957957957956,12.020477815699564 302.5915915915916,12.020477815699564 303.60360360360363,12.020477815699564 304.61561561561564,12.020477815699564 305.62762762762765,12.020477815699564 306.63963963963965,12.020477815699564 307.65165165165166,12.020477815699564 308.66366366366367,12.020477815699564 309.6756756756757,12.020477815699564 310.6876876876877,12.020477815699564 311.6996996996997,12.020477815699564 312.7117117117117,12.020477815699564 313.7237237237237,12.020477815699564 314.7357357357357,12.020477815699564 315.7477477477477,12.020477815699564 316.7597597597598,12.020477815699564 317.7717717717718,12.020477815699564 318.7837837837838,12.020477815699564 319.7957957957958,12.020477815699564 320.8078078078078,12.020477815699564 321.8198198198198,12.020477815699564 322.83183183183183,12.020477815699564 323.84384384384384,12.020477815699564 324.85585585585585,12.020477815699564 325.86786786786786,12.020477815699564 326.87987987987987,12.020477815699564 327.8918918918919,12.020477815699564 328.9039039039039,12.020477815699564 329.91591591591595,12.020477815699564 330.92792792792795,12.020477815699564 331.93993993993996,12.020477815699564 332.95195195195197,12.020477815699564 333.963963963964,12.020477815699564 334.975975975976,12.020477815699564 335.987987987988,12.020477815699564 337,12.020477815699564 338.012012012012,12.020477815699564 339.024024024024,7.21228668941967 340.036036036036,7.21228668941967 341.04804804804803,7.21228668941967 342.06006006006004,7.21228668941967 343.0720720720721,7.21228668941967 344.0840840840841,7.21228668941967 345.0960960960961,7.21228668941967 346.1081081081081,7.21228668941967 347.12012012012013,7.21228668941967 348.13213213213214,7.21228668941967 349.14414414414415,7.21228668941967 350.15615615615616,7.21228668941967 351.16816816816817,7.21228668941967 352.1801801801802,7.21228668941967 353.1921921921922,7.21228668941967 354.2042042042042,7.21228668941967 355.2162162162162,7.21228668941967 356.22822822822826,7.21228668941967 357.24024024024027,7.21228668941967 358.2522522522523,7.21228668941967 359.2642642642643,7.21228668941967 360.2762762762763,7.21228668941967 361.2882882882883,7.21228668941967 362.3003003003003,7.21228668941967 363.3123123123123,7.21228668941967 364.3243243243243,7.21228668941967 365.33633633633633,7.21228668941967 366.34834834834834,7.21228668941967 367.36036036036035,7.21228668941967 368.37237237237235,7.21228668941967 369.38438438438436,7.21228668941967 370.3963963963964,7.21228668941967 371.40840840840843,7.21228668941967 372.42042042042044,4.80819112627978 373.43243243243245,4.80819112627978 374.44444444444446,4.80819112627978 375.45645645645646,4.80819112627978 376.4684684684685,4.80819112627978 377.4804804804805,4.80819112627978 378.4924924924925,4.80819112627978 379.5045045045045,4.80819112627978 380.5165165165165,4.80819112627978 381.5285285285285,2.4040955631397765 382.5405405405405,2.4040955631397765 383.5525525525526,2.4040955631397765 384.5645645645646,2.4040955631397765 385.5765765765766,2.4040955631397765 386.5885885885886,2.4040955631397765 387.6006006006006,2.4040955631397765 388.6126126126126,2.4040955631397765 389.62462462462463,2.4040955631397765 390.63663663663664,2.4040955631397765 391.64864864864865,2.4040955631397765 392.66066066066065,2.4040955631397765 393.67267267267266,2.4040955631397765 394.68468468468467,2.4040955631397765 395.6966966966967,2.4040955631397765 396.70870870870874,2.4040955631397765 397.72072072072075,2.4040955631397765 398.73273273273276,2.4040955631397765 399.74474474474476,2.4040955631397765 400.7567567567568,2.4040955631397765 401.7687687687688,2.4040955631397765 402.7807807807808,2.4040955631397765 403.7927927927928,2.4040955631397765 404.8048048048048,2.4040955631397765 405.8168168168168,2.4040955631397765 406.8288288288288,2.4040955631397765 407.8408408408408,2.4040955631397765 408.85285285285283,2.4040955631397765 409.8648648648649,2.4040955631397765 410.8768768768769,2.4040955631397765 411.8888888888889,2.4040955631397765 412.9009009009009,2.4040955631397765 413.91291291291293,2.4040955631397765 414.92492492492494,2.4040955631397765 415.93693693693695,2.4040955631397765 416.94894894894895,2.4040955631397765 417.96096096096096,2.4040955631397765 418.97297297297297,2.4040955631397765 419.984984984985,2.4040955631397765 420.996996996997,2.4040955631397765 422.009009009009,2.4040955631397765 423.021021021021,2.4040955631397765 424.03303303303306,2.4040955631397765 425.0450450450451,2.4040955631397765 426.0570570570571,2.4040955631397765 427.0690690690691,2.4040955631397765 428.0810810810811,2.4040955631397765 429.0930930930931,2.4040955631397765 430.1051051051051,2.4040955631397765 431.1171171171171,2.4040955631397765 432.1291291291291,2.4040955631397765 433.14114114114113,2.4040955631397765 434.15315315315314,2.4040955631397765 435.16516516516515,2.4040955631397765 436.17717717717716,2.4040955631397765 437.1891891891892,2.4040955631397765 438.20120120120123,2.4040955631397765 439.21321321321324,2.4040955631397765 440.22522522522524,2.4040955631397765 441.23723723723725,2.4040955631397765 442.24924924924926,2.4040955631397765 443.26126126126127,2.4040955631397765 444.2732732732733,2.4040955631397765 445.2852852852853,2.4040955631397765 446.2972972972973,2.4040955631397765 447.3093093093093,2.4040955631397765 448.3213213213213,2.4040955631397765 449.3333333333333,2.4040955631397765 450.3453453453454,2.4040955631397765 451.3573573573574,2.4040955631397765 452.3693693693694,2.4040955631397765 452.87537537537537,0 453.8873873873874,0 454.8993993993994,0 455.9114114114114,0 456.92342342342346,0 457.93543543543547,0 458.9474474474475,0 459.9594594594595,0 460.9714714714715,0 461.9834834834835,0 462.9954954954955,0 464.0075075075075,0 465.0195195195195,0 466.0315315315315,0 467.04354354354354,0 468.05555555555554,0 469.06756756756755,0 470.07957957957956,0 471.0915915915916,0 472.10360360360363,0 473.11561561561564,0 474.12762762762765,0 475.13963963963965,0 476.15165165165166,0 477.16366366366367,0 478.1756756756757,0 479.1876876876877,0 480.1996996996997,0 481.2117117117117,0 482.2237237237237,0 483.2357357357357,0 484.2477477477478,0 485.2597597597598,0 486.2717717717718,0 487.2837837837838,0 488.2957957957958,0 489.3078078078078,0 490.3198198198198,0 491.33183183183183,0 492.34384384384384,0 493.35585585585585,0 494.36786786786786,0 495.37987987987987,0 496.3918918918919,0 497.40390390390394,0 498.41591591591595,0 499.42792792792795,0 500.43993993993996,0 501.45195195195197,0 502.463963963964,0 503.475975975976,0 504.487987987988,0 505.5,0" style="fill: none; stroke: rgb(255, 0, 255); stroke-width: 3px; stroke-opacity: 1;"></polyline></g></svg></svg><svg id="SvgjsSvg1834" style="overflow: visible;" x="557.5"><svg xmlns="http://www.w3.org/2000/svg" version="1.1" xmlns:xlink="http://www.w3.org/1999/xlink" xmlns:svgjs="http://svgjs.com/svgjs" width="200" height="60"><defs id="SvgjsDefs1820"><clipPath id="SvgjsClipPath1828"><rect id="SvgjsRect1827" width="170" height="30"></rect></clipPath><clipPath id="SvgjsClipPath1831"><rect id="SvgjsRect1830" width="180" height="60"></rect></clipPath></defs><g id="SvgjsG1821" clip-path="url(&quot;#SvgjsClipPath1831&quot;)"><g id="SvgjsG1822" transform="matrix(1,0,0,1,5,0)"><rect id="SvgjsRect1823" width="170" height="30" fill="white" opacity="0.5"></rect><line id="SvgjsLine1824" x1="0" y1="0" x2="18" y2="18" stroke="#ff00ff" stroke-width="3" transform="matrix(1,0,0,1,5,5)"></line><text id="SvgjsText1825" font-family="Arial, Helvetica, sans-serif" font-size="14" font-weight="400" family="Arial, Helvetica, sans-serif" size="14" weight="400" transform="matrix(1,0,0,1,40,0)" svgjs:data="{&quot;leading&quot;:&quot;1.3&quot;}"><tspan id="SvgjsTspan1826" dy="18.2" x="0" svgjs:data="{&quot;newLined&quot;:true}">C</tspan></text></g></g></svg></svg></svg>