<svg xmlns="http://www.w3.org/2000/svg" version="1.1" xmlns:xlink="http://www.w3.org/1999/xlink" xmlns:svgjs="http://svgjs.com/svgjs" width="774.5" height="761.4"><defs id="SvgjsDefs1891"></defs><svg id="SvgjsSvg1892" style="overflow: visible;"><svg xmlns="http://www.w3.org/2000/svg" version="1.1" xmlns:xlink="http://www.w3.org/1999/xlink" xmlns:svgjs="http://svgjs.com/svgjs" width="574.5" height="761.4"><defs id="SvgjsDefs1835"></defs><g id="SvgjsG1836" transform="matrix(1,0,0,1,0,0)"><g id="SvgjsG1837" transform="matrix(1,0,0,1,0,0)"><text id="SvgjsText1838" font-family="Arial, Helvetica, sans-serif" font-size="16" font-weight="400" text-anchor="middle" family="Arial, Helvetica, sans-serif" size="16" weight="400" anchor="middle" transform="matrix(0,-1,1,0,0,352.2)" svgjs:data="{&quot;leading&quot;:&quot;1.3&quot;}"><tspan id="SvgjsTspan1839" dy="20.8" x="0" svgjs:data="{&quot;newLined&quot;:true}">Individuals</tspan></text></g><g id="SvgjsG1840" transform="matrix(1,0,0,1,20,0)" width="32" height="704.4"><text id="SvgjsText1841" font-family="Arial, Helvetica, sans-serif" font-size="16px" family="Arial, Helvetica, sans-serif" size="16px" transform="matrix(1,0,0,1,0,694.4000244140625)" svgjs:data="{&quot;leading&quot;:&quot;1.3&quot;}"><tspan id="SvgjsTspan1842" dy="20.8" x="0" svgjs:data="{&quot;newLined&quot;:true}">0</tspan></text><text id="SvgjsText1843" font-family="Arial, Helvetica, sans-serif" font-size="16px" family="Arial, Helvetica, sans-serif" size="16px" transform="matrix(1,0,0,1,0,573.9500122070312)" svgjs:data="{&quot;leading&quot;:&quot;1.3&quot;}"><tspan id="SvgjsTspan1844" dy="20.8" x="0" svgjs:data="{&quot;newLined&quot;:true}">5</tspan></text><text id="SvgjsText1845" font-family="Arial, Helvetica, sans-serif" font-size="16px" family="Arial, Helvetica, sans-serif" size="16px" transform="matrix(1,0,0,1,0,453.5169982910156)" svgjs:data="{&quot;leading&quot;:&quot;1.3&quot;}"><tspan id="SvgjsTspan1846" dy="20.8" x="0" svgjs:data="{&quot;newLined&quot;:true}">10</tspan></text><text id="SvgjsText1847" font-family="Arial, Helvetica, sans-serif" font-size="16px" family="Arial, Helvetica, sans-serif" size="16px" transform="matrix(1,0,0,1,0,333.0669860839844)" svgjs:data="{&quot;leading&quot;:&quot;1.3&quot;}"><tspan id="SvgjsTspan1848" dy="20.8" x="0" svgjs:data="{&quot;newLined&quot;:true}">15</tspan></text><text id="SvgjsText1849" font-family="Arial, Helvetica, sans-serif" font-size="16px" family="Arial, Helvetica, sans-serif" size="16px" transform="matrix(1,0,0,1,0,212.61700439453125)" svgjs:data="{&quot;leading&quot;:&quot;1.3&quot;}"><tspan id="SvgjsTspan1850" dy="20.8" x="0" svgjs:data="{&quot;newLined&quot;:true}">20</tspan></text><text id="SvgjsText1851" font-family="Arial, Helvetica, sans-serif" font-size="16px" family="Arial, Helvetica, sans-serif" size="16px" transform="matrix(1,0,0,1,0,92.16670227050781)" svgjs:data="{&quot;leading&quot;:&quot;1.3&quot;}"><tspan id="SvgjsTspan1852" dy="20.8" x="0" svgjs:data="{&quot;newLined&quot;:true}">25</tspan></text><path id="SvgjsPath1853" d="M31 0v704.4M31 703.4h-10M31 582.9547945205479h-10M31 462.50958904109586h-10M31 342.0643835616438h-10M31 221.61917808219175h-10M31 101.1739726027397h-10M31 692.3554794520547h-3.3333333333333335M31 680.3109589041096h-3.3333333333333335M31 668.2664383561644h-3.3333333333333335M31 656.2219178082191h-3.3333333333333335M31 644.1773972602739h-3.3333333333333335M31 632.1328767123288h-3.3333333333333335M31 620.0883561643835h-3.3333333333333335M31 608.0438356164383h-3.3333333333333335M31 595.9993150684932h-3.3333333333333335M31 571.9102739726027h-3.3333333333333335M31 559.8657534246574h-3.3333333333333335M31 547.8212328767123h-3.3333333333333335M31 535.7767123287671h-3.3333333333333335M31 523.732191780822h-3.3333333333333335M31 511.6876712328767h-3.3333333333333335M31 499.64315068493147h-3.3333333333333335M31 487.59863013698623h-3.3333333333333335M31 475.5541095890411h-3.3333333333333335M31 451.4650684931506h-3.3333333333333335M31 439.42054794520544h-3.3333333333333335M31 427.37602739726026h-3.3333333333333335M31 415.331506849315h-3.3333333333333335M31 403.28698630136984h-3.3333333333333335M31 391.2424657534246h-3.3333333333333335M31 379.1979452054794h-3.3333333333333335M31 367.15342465753423h-3.3333333333333335M31 355.108904109589h-3.3333333333333335M31 331.01986301369857h-3.3333333333333335M31 318.9753424657534h-3.3333333333333335M31 306.9308219178082h-3.3333333333333335M31 294.88630136986296h-3.3333333333333335M31 282.8417808219178h-3.3333333333333335M31 270.79726027397254h-3.3333333333333335M31 258.75273972602736h-3.3333333333333335M31 246.70821917808217h-3.3333333333333335M31 234.66369863013693h-3.3333333333333335M31 210.5746575342465h-3.3333333333333335M31 198.53013698630133h-3.3333333333333335M31 186.48561643835615h-3.3333333333333335M31 174.4410958904109h-3.3333333333333335M31 162.39657534246567h-3.3333333333333335M31 150.35205479452054h-3.3333333333333335M31 138.3075342465753h-3.3333333333333335M31 126.26301369863006h-3.3333333333333335M31 114.21849315068494h-3.3333333333333335M31 90.12945205479446h-3.3333333333333335M31 78.08493150684922h-3.3333333333333335M31 66.04041095890409h-3.3333333333333335M31 53.99589041095885h-3.3333333333333335M31 41.95136986301361h-3.3333333333333335M31 29.906849315068484h-3.3333333333333335M31 17.862328767123245h-3.3333333333333335M31 5.817808219178005h-3.3333333333333335" stroke="#000000" fill="none"></path></g></g><g id="SvgjsG1854"><g id="SvgjsG1855" transform="matrix(1,0,0,1,52,0)"><text id="SvgjsText1856" font-family="Arial, Helvetica, sans-serif" font-size="16" font-weight="400" text-anchor="middle" family="Arial, Helvetica, sans-serif" size="16" weight="400" anchor="middle" transform="matrix(1,0,0,1,0,0)" svgjs:data="{&quot;leading&quot;:&quot;1.3&quot;}"><tspan id="SvgjsTspan1857" dy="20.8" x="0" svgjs:data="{&quot;newLined&quot;:true}"></tspan></text></g></g><g id="SvgjsG1858"><g id="SvgjsG1859" transform="matrix(1,0,0,1,52,704.4)" width="505.5" height="29"><text id="SvgjsText1860" font-family="Arial, Helvetica, sans-serif" font-size="16px" family="Arial, Helvetica, sans-serif" size="16px" transform="matrix(1,0,0,1,-4.5,10)" svgjs:data="{&quot;leading&quot;:&quot;1.3&quot;}"><tspan id="SvgjsTspan1861" dy="20.8" x="0" svgjs:data="{&quot;newLined&quot;:true}">0</tspan></text><text id="SvgjsText1862" font-family="Arial, Helvetica, sans-serif" font-size="16px" family="Arial, Helvetica, sans-serif" size="16px" transform="matrix(1,0,0,1,230,10)" svgjs:data="{&quot;leading&quot;:&quot;1.3&quot;}"><tspan id="SvgjsTspan1863" dy="20.8" x="0" svgjs:data="{&quot;newLined&quot;:true}">50000</tspan></text><path id="SvgjsPath1864" d="M0 0h505.5M0 0v10M252.50250250250252 0v10M25.250250250250254 0v3.3333333333333335M50.50050050050051 0v3.3333333333333335M75.75075075075075 0v3.3333333333333335M101.00100100100101 0v3.3333333333333335M126.25125125125126 0v3.3333333333333335M151.5015015015015 0v3.3333333333333335M176.75175175175175 0v3.3333333333333335M202.00200200200203 0v3.3333333333333335M227.25225225225228 0v3.3333333333333335M277.75275275275277 0v3.3333333333333335M303.003003003003 0v3.3333333333333335M328.25325325325326 0v3.3333333333333335M353.5035035035035 0v3.3333333333333335M378.75375375375376 0v3.3333333333333335M404.00400400400406 0v3.3333333333333335M429.2542542542543 0v3.3333333333333335M454.50450450450455 0v3.3333333333333335M479.7547547547548 0v3.3333333333333335" stroke="#000000" fill="none"></path></g><g id="SvgjsG1865" transform="matrix(1,0,0,1,52,733.4)"><text id="SvgjsText1866" font-family="Arial, Helvetica, sans-serif" font-size="16" font-weight="400" text-anchor="middle" family="Arial, Helvetica, sans-serif" size="16" weight="400" anchor="middle" transform="matrix(1,0,0,1,252.75,-9)" svgjs:data="{&quot;leading&quot;:&quot;1.3&quot;}"><tspan id="SvgjsTspan1867" dy="20.8" x="0" svgjs:data="{&quot;newLined&quot;:true}">Time (s)</tspan></text></g></g><g id="SvgjsG1868"></g><g id="SvgjsG1869" viewBox="0 0 505.5 704.4" transform="matrix(1,0,0,1,52,0)"><polyline id="SvgjsPolyline1870" points="0,0 0,703.4" stroke="LightGray" stroke-width="1" fill="none"></polyline><polyline id="SvgjsPolyline1871" points="252.50250250250252,0 252.50250250250252,703.4" stroke="LightGray" stroke-width="1" fill="none"></polyline><polyline id="SvgjsPolyline1872" points="0,703.4 504.5,703.4" stroke="LightGray" stroke-width="1" fill="none"></polyline><polyline id="SvgjsPolyline1873" points="0,582.9547945205479 504.5,582.9547945205479" stroke="LightGray" stroke-width="1" fill="none"></polyline><polyline id="SvgjsPolyline1874" points="0,462.50958904109586 504.5,462.50958904109586" stroke="LightGray" stroke-width="1" fill="none"></polyline><polyline id="SvgjsPolyline1875" points="0,342.0643835616438 504.5,342.0643835616438" stroke="LightGray" stroke-width="1" fill="none"></polyline><polyline id="SvgjsPolyline1876" points="0,221.61917808219175 504.5,221.61917808219175" stroke="LightGray" stroke-width="1" fill="none"></polyline><polyline id="SvgjsPolyline1877" points="0,101.1739726027397 504.5,101.1739726027397" stroke="LightGray" stroke-width="1" fill="none"></polyline><polyline id="SvgjsPolyline1878" points="0,704.4 0.506006006006006,701.9876712328767 1.518018018018018,692.3383561643835 2.024024024024024,677.8643835616438 2.53003003003003,665.8027397260273 3.036036036036036,663.3904109589041 3.542042042042042,646.504109589041 4.048048048048048,636.8547945205479 5.06006006006006,619.9684931506849 5.566066066066067,617.5561643835616 6.072072072072072,615.1438356164383 6.578078078078078,593.4328767123287 7.084084084084084,583.7835616438356 7.59009009009009,557.2479452054795 8.096096096096096,540.3616438356164 8.602102102102101,533.1246575342466 9.108108108108109,521.0630136986301 9.614114114114114,513.8260273972603 10.12012012012012,504.17671232876705 10.626126126126126,489.7027397260274 11.132132132132133,482.46575342465746 11.638138138138139,475.22876712328764 12.144144144144144,463.1671232876712 12.65015015015015,448.6931506849315 13.156156156156156,441.4561643835616 13.662162162162163,439.04383561643834 14.168168168168169,434.2191780821918 14.674174174174174,426.9821917808219 15.18018018018018,419.745205479452 15.686186186186186,414.92054794520544 16.6981981981982,414.92054794520544 17.204204204204203,388.3849315068493 17.71021021021021,376.3232876712329 18.72222222222222,349.7876712328767 19.734234234234233,349.7876712328767 20.24024024024024,332.90136986301366 20.746246246246248,325.6643835616439 21.25225225225225,318.42739726027384 21.75825825825826,316.01506849315064 22.264264264264266,299.1287671232876 23.276276276276278,296.7164383561644 24.28828828828829,287.06712328767117 24.794294294294296,275.0054794520548 25.806306306306308,272.5931506849315 26.81831831831832,272.5931506849315 27.324324324324326,260.53150684931506 27.83033033033033,253.29452054794518 28.336336336336338,246.0575342465753 29.34834834834835,231.58356164383554 30.36036036036036,231.58356164383554 31.37237237237237,224.34657534246577 31.87837837837838,219.5219178082192 32.890390390390394,212.28493150684926 33.9024024024024,205.04794520547944 34.914414414414416,205.04794520547944 35.926426426426424,205.04794520547944 36.93843843843844,190.5739726027398 37.44444444444444,188.16164383561647 37.950450450450454,178.51232876712322 38.96246246246246,171.2753424657535 39.974474474474476,164.03835616438357 40.986486486486484,164.03835616438357 41.492492492492495,161.62602739726026 42.5045045045045,161.62602739726026 43.010510510510514,154.38904109589032 44.02252252252252,149.5643835616438 45.03453453453454,149.5643835616438 46.046546546546544,147.1520547945205 47.05855855855856,144.7397260273973 48.070570570570574,137.50273972602736 49.08258258258258,132.67808219178073 50.0945945945946,132.67808219178073 51.106606606606604,132.67808219178073 51.612612612612615,125.4410958904109 52.11861861861862,118.20410958904108 53.130630630630634,118.20410958904108 54.14264264264264,118.20410958904108 55.15465465465466,118.20410958904108 56.166666666666664,118.20410958904108 57.17867867867868,118.20410958904108 58.190690690690694,118.20410958904108 59.2027027027027,118.20410958904108 60.21471471471472,118.20410958904108 60.72072072072072,110.96712328767114 61.732732732732735,110.96712328767114 62.74474474474474,110.96712328767114 63.250750750750754,108.55479452054783 63.75675675675676,101.317808219178 64.76876876876877,101.317808219178 65.78078078078079,98.90547945205469 66.28678678678679,96.4931506849316 67.2987987987988,96.4931506849316 68.3108108108108,96.4931506849316 69.32282282282283,96.4931506849316 70.33483483483484,96.4931506849316 71.34684684684684,96.4931506849316 72.35885885885887,96.4931506849316 73.37087087087087,96.4931506849316 73.87687687687688,89.25616438356167 74.88888888888889,89.25616438356167 75.90090090090091,89.25616438356167 76.91291291291292,89.25616438356167 77.92492492492492,89.25616438356167 78.93693693693693,82.01917808219173 79.94894894894895,82.01917808219173 80.96096096096096,82.01917808219173 81.97297297297297,82.01917808219173 82.98498498498499,82.01917808219173 83.996996996997,82.01917808219173 85.009009009009,82.01917808219173 86.02102102102103,82.01917808219173 87.03303303303304,82.01917808219173 88.04504504504504,74.7821917808219 89.05705705705707,74.7821917808219 89.56306306306307,69.95753424657539 90.57507507507508,69.95753424657539 91.58708708708708,65.13287671232877 92.5990990990991,65.13287671232877 93.61111111111111,65.13287671232877 94.62312312312312,65.13287671232877 95.63513513513513,65.13287671232877 96.14114114114115,60.30821917808214 97.15315315315316,55.48356164383563 98.16516516516516,55.48356164383563 98.67117117117117,53.071232876712315 99.68318318318319,53.071232876712315 100.6951951951952,53.071232876712315 101.7072072072072,53.071232876712315 102.71921921921923,53.071232876712315 103.73123123123123,53.071232876712315 104.74324324324324,53.071232876712315 105.75525525525525,53.071232876712315 106.76726726726727,53.071232876712315 107.77927927927928,53.071232876712315 108.79129129129129,53.071232876712315 109.80330330330331,53.071232876712315 110.81531531531532,53.071232876712315 111.82732732732732,53.071232876712315 112.83933933933935,53.071232876712315 113.85135135135135,53.071232876712315 114.86336336336336,53.071232876712315 115.87537537537537,48.2465753424658 116.88738738738739,48.2465753424658 117.8993993993994,48.2465753424658 118.91141141141141,48.2465753424658 119.92342342342343,48.2465753424658 120.93543543543544,48.2465753424658 121.94744744744744,48.2465753424658 122.95945945945947,48.2465753424658 123.97147147147147,48.2465753424658 124.98348348348348,48.2465753424658 125.9954954954955,48.2465753424658 127.00750750750751,48.2465753424658 128.01951951951952,48.2465753424658 129.03153153153153,48.2465753424658 130.04354354354354,48.2465753424658 131.05555555555557,48.2465753424658 132.06756756756758,48.2465753424658 133.0795795795796,48.2465753424658 134.0915915915916,48.2465753424658 135.1036036036036,48.2465753424658 136.1156156156156,48.2465753424658 137.12762762762762,48.2465753424658 138.13963963963965,48.2465753424658 139.15165165165166,48.2465753424658 140.16366366366367,48.2465753424658 141.17567567567568,48.2465753424658 142.18768768768768,48.2465753424658 143.1996996996997,48.2465753424658 143.7057057057057,41.009589041095865 144.2117117117117,33.77260273972604 145.22372372372374,33.77260273972604 146.23573573573574,33.77260273972604 147.24774774774775,33.77260273972604 148.25975975975976,33.77260273972604 149.27177177177177,33.77260273972604 150.28378378378378,33.77260273972604 151.2957957957958,33.77260273972604 152.30780780780782,33.77260273972604 153.31981981981983,33.77260273972604 154.33183183183183,33.77260273972604 155.34384384384384,33.77260273972604 156.35585585585585,33.77260273972604 157.36786786786786,33.77260273972604 158.3798798798799,33.77260273972604 159.3918918918919,33.77260273972604 160.4039039039039,33.77260273972604 161.41591591591592,33.77260273972604 162.42792792792793,33.77260273972604 163.43993993993993,28.947945205479414 163.94594594594594,26.5356164383561 164.95795795795797,26.5356164383561 165.96996996996998,26.5356164383561 166.981981981982,26.5356164383561 167.993993993994,26.5356164383561 169.006006006006,26.5356164383561 170.018018018018,26.5356164383561 171.03003003003002,26.5356164383561 172.04204204204206,26.5356164383561 173.05405405405406,26.5356164383561 174.06606606606607,26.5356164383561 175.07807807807808,26.5356164383561 176.0900900900901,26.5356164383561 177.1021021021021,26.5356164383561 177.6081081081081,24.1232876712329 178.62012012012013,24.1232876712329 179.63213213213214,24.1232876712329 180.64414414414415,24.1232876712329 181.65615615615616,24.1232876712329 182.66816816816817,24.1232876712329 183.68018018018017,24.1232876712329 184.69219219219218,24.1232876712329 185.70420420420422,24.1232876712329 186.71621621621622,24.1232876712329 187.72822822822823,24.1232876712329 188.74024024024024,24.1232876712329 189.75225225225225,24.1232876712329 190.76426426426426,24.1232876712329 191.7762762762763,24.1232876712329 192.7882882882883,24.1232876712329 193.8003003003003,24.1232876712329 194.81231231231232,24.1232876712329 195.82432432432432,24.1232876712329 196.83633633633633,24.1232876712329 197.84834834834834,24.1232876712329 198.86036036036037,24.1232876712329 199.87237237237238,24.1232876712329 200.8843843843844,24.1232876712329 201.8963963963964,24.1232876712329 202.9084084084084,24.1232876712329 203.9204204204204,24.1232876712329 204.93243243243245,24.1232876712329 205.94444444444446,24.1232876712329 206.95645645645646,24.1232876712329 207.96846846846847,24.1232876712329 208.98048048048048,24.1232876712329 209.9924924924925,24.1232876712329 211.0045045045045,24.1232876712329 212.01651651651653,24.1232876712329 213.02852852852854,24.1232876712329 214.04054054054055,24.1232876712329 215.05255255255256,24.1232876712329 216.06456456456456,24.1232876712329 217.07657657657657,24.1232876712329 218.08858858858858,24.1232876712329 219.10060060060061,24.1232876712329 220.11261261261262,24.1232876712329 221.12462462462463,24.1232876712329 222.13663663663664,24.1232876712329 223.14864864864865,24.1232876712329 224.16066066066065,24.1232876712329 225.1726726726727,24.1232876712329 226.1846846846847,24.1232876712329 227.1966966966967,24.1232876712329 228.2087087087087,24.1232876712329 229.22072072072072,24.1232876712329 230.23273273273273,24.1232876712329 231.24474474474474,24.1232876712329 232.25675675675677,24.1232876712329 233.26876876876878,24.1232876712329 234.2807807807808,24.1232876712329 235.2927927927928,24.1232876712329 236.3048048048048,24.1232876712329 237.3168168168168,24.1232876712329 238.32882882882882,24.1232876712329 239.34084084084085,24.1232876712329 240.35285285285286,24.1232876712329 241.36486486486487,24.1232876712329 242.37687687687688,24.1232876712329 243.38888888888889,24.1232876712329 244.4009009009009,24.1232876712329 245.41291291291293,24.1232876712329 246.42492492492494,24.1232876712329 247.43693693693695,24.1232876712329 248.44894894894895,24.1232876712329 249.46096096096096,24.1232876712329 249.96696696696696,19.298630136986276 250.97897897897897,19.298630136986276 251.990990990991,19.298630136986276 253.00300300300302,19.298630136986276 254.01501501501502,19.298630136986276 255.02702702702703,19.298630136986276 256.03903903903904,19.298630136986276 257.05105105105105,19.298630136986276 258.06306306306305,19.298630136986276 259.07507507507506,19.298630136986276 260.08708708708707,19.298630136986276 261.0990990990991,19.298630136986276 262.11111111111114,19.298630136986276 263.12312312312315,19.298630136986276 264.13513513513516,19.298630136986276 265.14714714714717,19.298630136986276 265.65315315315314,16.886301369862963 266.66516516516515,16.886301369862963 267.67717717717716,16.886301369862963 268.68918918918916,16.886301369862963 269.70120120120123,16.886301369862963 270.71321321321324,16.886301369862963 271.72522522522524,16.886301369862963 272.73723723723725,16.886301369862963 273.74924924924926,9.649315068493138 274.76126126126127,9.649315068493138 275.7732732732733,9.649315068493138 276.7852852852853,9.649315068493138 277.7972972972973,9.649315068493138 278.8093093093093,9.649315068493138 279.8213213213213,9.649315068493138 280.8333333333333,9.649315068493138 281.8453453453453,9.649315068493138 282.8573573573574,9.649315068493138 283.8693693693694,9.649315068493138 284.8813813813814,9.649315068493138 285.8933933933934,9.649315068493138 286.9054054054054,9.649315068493138 287.9174174174174,9.649315068493138 288.92942942942943,9.649315068493138 289.94144144144144,9.649315068493138 290.95345345345345,9.649315068493138 291.96546546546546,9.649315068493138 292.97747747747746,9.649315068493138 293.9894894894895,9.649315068493138 295.0015015015015,9.649315068493138 296.01351351351354,9.649315068493138 297.02552552552555,9.649315068493138 298.03753753753756,9.649315068493138 299.04954954954957,9.649315068493138 300.0615615615616,9.649315068493138 301.0735735735736,9.649315068493138 302.0855855855856,9.649315068493138 303.0975975975976,9.649315068493138 304.1096096096096,9.649315068493138 305.1216216216216,9.649315068493138 306.1336336336336,9.649315068493138 307.14564564564563,9.649315068493138 308.15765765765764,9.649315068493138 309.1696696696697,9.649315068493138 310.1816816816817,9.649315068493138 311.1936936936937,9.649315068493138 312.2057057057057,9.649315068493138 313.21771771771773,9.649315068493138 314.22972972972974,9.649315068493138 315.24174174174175,9.649315068493138 316.25375375375376,9.649315068493138 317.26576576576576,9.649315068493138 317.7717717717718,4.824657534246512 318.7837837837838,4.824657534246512 319.7957957957958,4.824657534246512 320.8078078078078,4.824657534246512 321.8198198198198,4.824657534246512 322.83183183183183,4.824657534246512 323.84384384384384,4.824657534246512 324.85585585585585,4.824657534246512 325.86786786786786,4.824657534246512 326.87987987987987,4.824657534246512 327.8918918918919,4.824657534246512 328.9039039039039,4.824657534246512 329.91591591591595,4.824657534246512 330.92792792792795,4.824657534246512 331.93993993993996,4.824657534246512 332.95195195195197,4.824657534246512 333.963963963964,4.824657534246512 334.975975975976,4.824657534246512 335.987987987988,4.824657534246512 337,4.824657534246512 338.012012012012,4.824657534246512 339.024024024024,4.824657534246512 340.036036036036,4.824657534246512 341.04804804804803,4.824657534246512 342.06006006006004,4.824657534246512 343.0720720720721,4.824657534246512 344.0840840840841,4.824657534246512 345.0960960960961,4.824657534246512 346.1081081081081,4.824657534246512 347.12012012012013,4.824657534246512 348.13213213213214,4.824657534246512 349.14414414414415,4.824657534246512 350.15615615615616,4.824657534246512 351.16816816816817,4.824657534246512 352.1801801801802,4.824657534246512 353.1921921921922,4.824657534246512 354.2042042042042,4.824657534246512 355.2162162162162,4.824657534246512 356.22822822822826,4.824657534246512 357.24024024024027,4.824657534246512 358.2522522522523,4.824657534246512 359.2642642642643,4.824657534246512 360.2762762762763,4.824657534246512 361.2882882882883,4.824657534246512 362.3003003003003,4.824657534246512 363.3123123123123,4.824657534246512 364.3243243243243,4.824657534246512 365.33633633633633,4.824657534246512 366.34834834834834,4.824657534246512 367.36036036036035,4.824657534246512 368.37237237237235,4.824657534246512 369.38438438438436,4.824657534246512 370.3963963963964,4.824657534246512 371.40840840840843,4.824657534246512 372.42042042042044,4.824657534246512 373.43243243243245,4.824657534246512 374.44444444444446,4.824657534246512 375.45645645645646,4.824657534246512 376.4684684684685,4.824657534246512 377.4804804804805,4.824657534246512 378.4924924924925,4.824657534246512 379.5045045045045,4.824657534246512 380.0105105105105,0 381.02252252252254,0 382.03453453453454,0 383.04654654654655,0 384.05855855855856,0 385.07057057057057,0 386.0825825825826,0 387.0945945945946,0 388.1066066066066,0 389.1186186186186,0 390.13063063063066,0 391.14264264264267,0 392.1546546546547,0 393.1666666666667,0 394.1786786786787,0 395.1906906906907,0 396.2027027027027,0 397.2147147147147,0 398.2267267267267,0 399.23873873873873,0 400.25075075075074,0 401.26276276276275,0 402.27477477477476,0 403.2867867867868,0 404.2987987987988,0 405.31081081081084,0 406.32282282282284,0 407.33483483483485,0 408.34684684684686,0 409.35885885885887,0 410.3708708708709,0 411.3828828828829,0 412.3948948948949,0 413.4069069069069,0 414.4189189189189,0 415.4309309309309,0 416.4429429429429,0 417.454954954955,0 418.466966966967,0 419.478978978979,0 420.490990990991,0 421.503003003003,0 422.515015015015,0 423.52702702702703,0 424.53903903903904,0 425.55105105105105,0 426.56306306306305,0 427.57507507507506,0 428.58708708708707,0 429.5990990990991,0 430.61111111111114,0 431.62312312312315,0 432.63513513513516,0 433.64714714714717,0 434.6591591591592,0 435.6711711711712,0 436.6831831831832,0 437.6951951951952,0 438.7072072072072,0 439.7192192192192,0 440.7312312312312,0 441.7432432432432,0 442.75525525525524,0 443.7672672672673,0 444.7792792792793,0 445.7912912912913,0 446.8033033033033,0 447.81531531531533,0 448.82732732732734,0 449.83933933933935,0 450.85135135135135,0 451.86336336336336,0 452.87537537537537,0 453.8873873873874,0 454.8993993993994,0 455.9114114114114,0 456.92342342342346,0 457.93543543543547,0 458.9474474474475,0 459.9594594594595,0 460.9714714714715,0 461.9834834834835,0 462.9954954954955,0 464.0075075075075,0 465.0195195195195,0 466.0315315315315,0 467.04354354354354,0 468.05555555555554,0 469.06756756756755,0 470.07957957957956,0 471.0915915915916,0 472.10360360360363,0 473.11561561561564,0 474.12762762762765,0 475.13963963963965,0 476.15165165165166,0 477.16366366366367,0 478.1756756756757,0 479.1876876876877,0 480.1996996996997,0 481.2117117117117,0 482.2237237237237,0 483.2357357357357,0 484.2477477477478,0 485.2597597597598,0 486.2717717717718,0 487.2837837837838,0 488.2957957957958,0 489.3078078078078,0 490.3198198198198,0 491.33183183183183,0 492.34384384384384,0 493.35585585585585,0 494.36786786786786,0 495.37987987987987,0 496.3918918918919,0 497.40390390390394,0 498.41591591591595,0 499.42792792792795,0 500.43993993993996,0 501.45195195195197,0 502.463963963964,0 503.475975975976,0 504.487987987988,0 505.5,0" style="fill: none; stroke: rgb(255, 0, 255); stroke-width: 3px; stroke-opacity: 1;"></polyline></g></svg></svg><svg id="SvgjsSvg1893" style="overflow: visible;" x="574.5"><svg xmlns="http://www.w3.org/2000/svg" version="1.1" xmlns:xlink="http://www.w3.org/1999/xlink" xmlns:svgjs="http://svgjs.com/svgjs" width="200" height="60"><defs id="SvgjsDefs1879"><clipPath id="SvgjsClipPath1887"><rect id="SvgjsRect1886" width="170" height="30"></rect></clipPath><clipPath id="SvgjsClipPath1890"><rect id="SvgjsRect1889" width="180" height="60"></rect></clipPath></defs><g id="SvgjsG1880" clip-path="url(&quot;#SvgjsClipPath1890&quot;)"><g id="SvgjsG1881" transform="matrix(1,0,0,1,5,0)"><rect id="SvgjsRect1882" width="170" height="30" fill="white" opacity="0.5"></rect><line id="SvgjsLine1883" x1="0" y1="0" x2="18" y2="18" stroke="#ff00ff" stroke-width="3" transform="matrix(1,0,0,1,5,5)"></line><text id="SvgjsText1884" font-family="Arial, Helvetica, sans-serif" font-size="14" font-weight="400" family="Arial, Helvetica, sans-serif" size="14" weight="400" transform="matrix(1,0,0,1,40,0)" svgjs:data="{&quot;leading&quot;:&quot;1.3&quot;}"><tspan id="SvgjsTspan1885" dy="18.2" x="0" svgjs:data="{&quot;newLined&quot;:true}">C</tspan></text></g></g></svg></svg></svg>