<svg xmlns="http://www.w3.org/2000/svg" version="1.1" xmlns:xlink="http://www.w3.org/1999/xlink" xmlns:svgjs="http://svgjs.com/svgjs" width="774.5" height="761.4"><defs id="SvgjsDefs1384"></defs><svg id="SvgjsSvg1385" style="overflow: visible;"><svg xmlns="http://www.w3.org/2000/svg" version="1.1" xmlns:xlink="http://www.w3.org/1999/xlink" xmlns:svgjs="http://svgjs.com/svgjs" width="574.5" height="761.4"><defs id="SvgjsDefs1292"></defs><g id="SvgjsG1293" transform="matrix(1,0,0,1,0,0)"><g id="SvgjsG1294" transform="matrix(1,0,0,1,0,0)"><text id="SvgjsText1295" font-family="Arial, Helvetica, sans-serif" font-size="16" font-weight="400" text-anchor="middle" family="Arial, Helvetica, sans-serif" size="16" weight="400" anchor="middle" transform="matrix(0,-1,1,0,0,352.2)" svgjs:data="{&quot;leading&quot;:&quot;1.3&quot;}"><tspan id="SvgjsTspan1296" dy="20.8" x="0" svgjs:data="{&quot;newLined&quot;:true}">Individuals</tspan></text></g><g id="SvgjsG1297" transform="matrix(1,0,0,1,20,0)" width="41" height="704.4"><text id="SvgjsText1298" font-family="Arial, Helvetica, sans-serif" font-size="16px" family="Arial, Helvetica, sans-serif" size="16px" transform="matrix(1,0,0,1,0,694.4000244140625)" svgjs:data="{&quot;leading&quot;:&quot;1.3&quot;}"><tspan id="SvgjsTspan1299" dy="20.8" x="0" svgjs:data="{&quot;newLined&quot;:true}">0</tspan></text><text id="SvgjsText1300" font-family="Arial, Helvetica, sans-serif" font-size="16px" family="Arial, Helvetica, sans-serif" size="16px" transform="matrix(1,0,0,1,0,553.7169799804688)" svgjs:data="{&quot;leading&quot;:&quot;1.3&quot;}"><tspan id="SvgjsTspan1301" dy="20.8" x="0" svgjs:data="{&quot;newLined&quot;:true}">20</tspan></text><text id="SvgjsText1302" font-family="Arial, Helvetica, sans-serif" font-size="16px" family="Arial, Helvetica, sans-serif" size="16px" transform="matrix(1,0,0,1,0,413.0329895019531)" svgjs:data="{&quot;leading&quot;:&quot;1.3&quot;}"><tspan id="SvgjsTspan1303" dy="20.8" x="0" svgjs:data="{&quot;newLined&quot;:true}">40</tspan></text><text id="SvgjsText1304" font-family="Arial, Helvetica, sans-serif" font-size="16px" family="Arial, Helvetica, sans-serif" size="16px" transform="matrix(1,0,0,1,0,272.36700439453125)" svgjs:data="{&quot;leading&quot;:&quot;1.3&quot;}"><tspan id="SvgjsTspan1305" dy="20.8" x="0" svgjs:data="{&quot;newLined&quot;:true}">60</tspan></text><text id="SvgjsText1306" font-family="Arial, Helvetica, sans-serif" font-size="16px" family="Arial, Helvetica, sans-serif" size="16px" transform="matrix(1,0,0,1,0,131.68299865722656)" svgjs:data="{&quot;leading&quot;:&quot;1.3&quot;}"><tspan id="SvgjsTspan1307" dy="20.8" x="0" svgjs:data="{&quot;newLined&quot;:true}">80</tspan></text><text id="SvgjsText1308" font-family="Arial, Helvetica, sans-serif" font-size="16px" family="Arial, Helvetica, sans-serif" size="16px" transform="matrix(1,0,0,1,0,-9)" svgjs:data="{&quot;leading&quot;:&quot;1.3&quot;}"><tspan id="SvgjsTspan1309" dy="20.8" x="0" svgjs:data="{&quot;newLined&quot;:true}">100</tspan></text><path id="SvgjsPath1310" d="M40 0v704.4M40 703.4h-10M40 562.72h-10M40 422.03999999999996h-10M40 281.36h-10M40 140.67999999999995h-10M40 0h-10M40 690.332h-3.3333333333333335M40 676.264h-3.3333333333333335M40 662.196h-3.3333333333333335M40 648.1279999999999h-3.3333333333333335M40 634.06h-3.3333333333333335M40 619.992h-3.3333333333333335M40 605.924h-3.3333333333333335M40 591.856h-3.3333333333333335M40 577.788h-3.3333333333333335M40 549.652h-3.3333333333333335M40 535.584h-3.3333333333333335M40 521.516h-3.3333333333333335M40 507.448h-3.3333333333333335M40 493.38h-3.3333333333333335M40 479.312h-3.3333333333333335M40 465.24399999999997h-3.3333333333333335M40 451.176h-3.3333333333333335M40 437.108h-3.3333333333333335M40 408.972h-3.3333333333333335M40 394.904h-3.3333333333333335M40 380.836h-3.3333333333333335M40 366.768h-3.3333333333333335M40 352.7h-3.3333333333333335M40 338.632h-3.3333333333333335M40 324.56399999999996h-3.3333333333333335M40 310.496h-3.3333333333333335M40 296.428h-3.3333333333333335M40 268.292h-3.3333333333333335M40 254.224h-3.3333333333333335M40 240.156h-3.3333333333333335M40 226.08799999999997h-3.3333333333333335M40 212.01999999999998h-3.3333333333333335M40 197.952h-3.3333333333333335M40 183.88400000000001h-3.3333333333333335M40 169.81600000000003h-3.3333333333333335M40 155.74800000000005h-3.3333333333333335M40 127.61199999999997h-3.3333333333333335M40 113.54399999999998h-3.3333333333333335M40 99.476h-3.3333333333333335M40 85.40800000000002h-3.3333333333333335M40 71.34000000000003h-3.3333333333333335M40 57.27200000000005h-3.3333333333333335M40 43.20399999999995h-3.3333333333333335M40 29.135999999999967h-3.3333333333333335M40 15.067999999999984h-3.3333333333333335" stroke="#000000" fill="none"></path></g></g><g id="SvgjsG1311"><g id="SvgjsG1312" transform="matrix(1,0,0,1,61,0)"><text id="SvgjsText1313" font-family="Arial, Helvetica, sans-serif" font-size="16" font-weight="400" text-anchor="middle" family="Arial, Helvetica, sans-serif" size="16" weight="400" anchor="middle" transform="matrix(1,0,0,1,0,0)" svgjs:data="{&quot;leading&quot;:&quot;1.3&quot;}"><tspan id="SvgjsTspan1314" dy="20.8" x="0" svgjs:data="{&quot;newLined&quot;:true}"></tspan></text></g></g><g id="SvgjsG1315"><g id="SvgjsG1316" transform="matrix(1,0,0,1,61,704.4)" width="496.5" height="29"><text id="SvgjsText1317" font-family="Arial, Helvetica, sans-serif" font-size="16px" family="Arial, Helvetica, sans-serif" size="16px" transform="matrix(1,0,0,1,-4.5,10)" svgjs:data="{&quot;leading&quot;:&quot;1.3&quot;}"><tspan id="SvgjsTspan1318" dy="20.8" x="0" svgjs:data="{&quot;newLined&quot;:true}">0</tspan></text><text id="SvgjsText1319" font-family="Arial, Helvetica, sans-serif" font-size="16px" family="Arial, Helvetica, sans-serif" size="16px" transform="matrix(1,0,0,1,225.5,10)" svgjs:data="{&quot;leading&quot;:&quot;1.3&quot;}"><tspan id="SvgjsTspan1320" dy="20.8" x="0" svgjs:data="{&quot;newLined&quot;:true}">50000</tspan></text><path id="SvgjsPath1321" d="M0 0h496.5M0 0v10M247.99799799799803 0v10M24.799799799799803 0v3.3333333333333335M49.59959959959961 0v3.3333333333333335M74.3993993993994 0v3.3333333333333335M99.19919919919921 0v3.3333333333333335M123.99899899899901 0v3.3333333333333335M148.7987987987988 0v3.3333333333333335M173.5985985985986 0v3.3333333333333335M198.39839839839843 0v3.3333333333333335M223.1981981981982 0v3.3333333333333335M272.79779779779784 0v3.3333333333333335M297.5975975975976 0v3.3333333333333335M322.3973973973974 0v3.3333333333333335M347.1971971971972 0v3.3333333333333335M371.99699699699704 0v3.3333333333333335M396.79679679679685 0v3.3333333333333335M421.5965965965966 0v3.3333333333333335M446.3963963963964 0v3.3333333333333335M471.19619619619624 0v3.3333333333333335" stroke="#000000" fill="none"></path></g><g id="SvgjsG1322" transform="matrix(1,0,0,1,61,733.4)"><text id="SvgjsText1323" font-family="Arial, Helvetica, sans-serif" font-size="16" font-weight="400" text-anchor="middle" family="Arial, Helvetica, sans-serif" size="16" weight="400" anchor="middle" transform="matrix(1,0,0,1,248.25,-9)" svgjs:data="{&quot;leading&quot;:&quot;1.3&quot;}"><tspan id="SvgjsTspan1324" dy="20.8" x="0" svgjs:data="{&quot;newLined&quot;:true}">Time (s)</tspan></text></g></g><g id="SvgjsG1325"></g><g id="SvgjsG1326" viewBox="0 0 496.5 704.4" transform="matrix(1,0,0,1,61,0)"><polyline id="SvgjsPolyline1327" points="0,0 0,703.4" stroke="LightGray" stroke-width="1" fill="none"></polyline><polyline id="SvgjsPolyline1328" points="247.99799799799803,0 247.99799799799803,703.4" stroke="LightGray" stroke-width="1" fill="none"></polyline><polyline id="SvgjsPolyline1329" points="0,703.4 495.5,703.4" stroke="LightGray" stroke-width="1" fill="none"></polyline><polyline id="SvgjsPolyline1330" points="0,562.72 495.5,562.72" stroke="LightGray" stroke-width="1" fill="none"></polyline><polyline id="SvgjsPolyline1331" points="0,422.03999999999996 495.5,422.03999999999996" stroke="LightGray" stroke-width="1" fill="none"></polyline><polyline id="SvgjsPolyline1332" points="0,281.36 495.5,281.36" stroke="LightGray" stroke-width="1" fill="none"></polyline><polyline id="SvgjsPolyline1333" points="0,140.67999999999995 495.5,140.67999999999995" stroke="LightGray" stroke-width="1" fill="none"></polyline><polyline id="SvgjsPolyline1334" points="0,0 495.5,0" stroke="LightGray" stroke-width="1" fill="none"></polyline><polyline id="SvgjsPolyline1335" points="0,704.4 0.496996996996997,702.9911999999999 1.987987987987988,697.356 2.484984984984985,687.4943999999999 2.981981981981982,679.0416 3.478978978978979,669.18 3.975975975975976,658.2618 4.472972972972973,650.5133999999999 4.96996996996997,643.8216 5.466966966966967,637.1297999999999 5.963963963963964,632.9034 6.4609609609609615,627.2682 6.957957957957958,621.9852 7.454954954954955,616.3499999999999 7.951951951951952,612.828 8.44894894894895,607.8972 8.945945945945946,604.7274 9.442942942942944,603.6708 9.93993993993994,598.74 10.436936936936938,595.218 10.933933933933934,592.7525999999999 11.43093093093093,590.6394 11.927927927927929,588.8783999999999 12.424924924924925,586.413 12.921921921921923,583.5954 13.41891891891892,582.1866 13.915915915915916,581.13 14.412912912912914,577.9602 14.90990990990991,576.9036 15.406906906906908,575.1426 15.903903903903904,573.7338 17.394894894894897,573.0294 17.89189189189189,571.6206 18.38888888888889,569.8596 18.885885885885887,568.803 19.382882882882882,566.6898 20.376876876876878,565.281 21.37087087087087,563.8722 21.86786786786787,562.1112 23.35885885885886,561.4068 23.855855855855857,560.3502 24.352852852852852,558.9413999999999 24.84984984984985,557.1804 26.34084084084084,555.4194 27.334834834834837,554.3628 28.825825825825827,552.6017999999999 29.81981981981982,551.5452 31.31081081081081,550.4886 31.80780780780781,549.432 33.2987987987988,549.0798 34.78978978978979,548.0232 36.28078078078078,548.0232 37.27477477477478,546.6143999999999 37.771771771771775,544.8534 39.26276276276276,541.6836000000001 40.753753753753756,541.3314 42.24474474474474,540.2747999999999 43.73573573573574,538.866 44.72972972972973,537.8094 46.22072072072072,537.105 47.711711711711715,536.0483999999999 48.705705705705704,534.6396 49.2027027027027,533.583 50.1966966966967,532.5264 51.190690690690694,531.4698 52.68168168168168,531.4698 53.67567567567568,530.0609999999999 55.16666666666667,529.7088 56.65765765765766,529.7088 58.14864864864865,528.3 59.14264264264264,527.2434 60.633633633633636,526.539 62.12462462462462,526.1868 63.61561561561562,525.1302 65.1066066066066,524.4258 66.5975975975976,524.4258 68.08858858858859,524.4258 69.57957957957959,524.4258 71.07057057057057,524.0735999999999 72.56156156156156,523.3692 74.05255255255256,522.6648 74.54954954954955,521.6082 75.54354354354355,520.1994 77.03453453453453,520.1994 78.52552552552552,520.1994 80.01651651651652,520.1994 81.50750750750751,520.1994 82.9984984984985,520.1994 84.48948948948949,520.1994 85.98048048048048,520.1994 87.47147147147147,520.1994 88.96246246246247,518.4384 89.45945945945947,517.0296000000001 90.95045045045045,516.6774 92.44144144144144,516.6774 93.93243243243244,516.6774 95.42342342342343,516.6774 96.91441441441442,516.6774 98.4054054054054,516.6774 99.8963963963964,516.6774 101.38738738738739,516.6774 102.87837837837839,516.6774 104.36936936936937,516.6774 105.86036036036036,516.6774 107.35135135135135,516.6774 108.84234234234235,516.6774 110.33333333333334,515.6207999999999 111.32732732732732,514.212 111.82432432432432,513.1554 113.31531531531532,513.1554 114.80630630630631,512.8032000000001 116.2972972972973,512.8032000000001 117.78828828828829,512.0988 119.27927927927928,512.0988 120.77027027027027,512.0988 122.26126126126127,512.0988 123.75225225225226,512.0988 125.24324324324324,512.0988 126.73423423423424,511.0422 128.22522522522522,510.3378 129.71621621621622,510.3378 131.2072072072072,510.3378 132.6981981981982,510.3378 134.1891891891892,510.3378 135.68018018018017,510.3378 137.17117117117118,510.3378 138.66216216216216,510.3378 140.15315315315317,510.3378 141.64414414414415,510.3378 143.13513513513513,510.3378 144.62612612612614,510.3378 146.11711711711712,510.3378 147.6081081081081,510.3378 149.0990990990991,510.3378 150.5900900900901,510.3378 152.0810810810811,510.3378 153.57207207207207,510.3378 155.06306306306305,510.3378 156.55405405405406,510.3378 158.04504504504504,510.3378 159.53603603603605,510.3378 161.02702702702703,510.3378 162.518018018018,510.3378 164.00900900900902,510.3378 165.5,510.3378 166.990990990991,510.3378 167.487987987988,509.2812 168.97897897897897,509.2812 170.46996996996998,509.2812 171.96096096096096,509.2812 173.45195195195197,508.2246 174.44594594594594,506.1114 175.93693693693695,506.1114 177.42792792792793,506.1114 178.91891891891893,506.1114 180.4099099099099,506.1114 181.9009009009009,506.1114 183.3918918918919,506.1114 184.88288288288288,506.1114 186.3738738738739,506.1114 187.86486486486487,506.1114 189.35585585585585,506.1114 190.84684684684686,506.1114 192.33783783783784,506.1114 193.82882882882885,506.1114 195.31981981981983,506.1114 196.8108108108108,506.1114 198.30180180180182,506.1114 199.7927927927928,506.1114 201.28378378378378,506.1114 202.77477477477478,506.1114 204.26576576576576,506.1114 205.75675675675677,506.1114 207.24774774774775,506.1114 208.73873873873873,506.1114 210.22972972972974,506.1114 211.72072072072072,506.1114 212.71471471471472,505.0548 214.20570570570572,505.0548 215.6966966966967,505.0548 217.18768768768768,505.0548 218.6786786786787,505.0548 219.6726726726727,503.64599999999996 221.16366366366367,502.5894 222.65465465465465,501.885 224.14564564564566,501.885 225.63663663663664,501.885 227.12762762762765,501.885 228.61861861861863,501.885 230.1096096096096,501.885 231.60060060060061,501.885 233.0915915915916,501.885 234.58258258258257,501.885 236.07357357357358,501.885 237.56456456456456,501.885 239.05555555555557,501.885 240.54654654654655,501.885 242.03753753753753,501.885 243.52852852852854,501.885 245.01951951951952,501.885 246.51051051051053,501.885 248.0015015015015,501.885 249.4924924924925,501.885 250.9834834834835,501.885 252.47447447447448,501.885 253.96546546546548,501.885 255.45645645645646,501.885 256.9474474474475,501.885 258.4384384384384,501.885 259.92942942942943,501.885 261.42042042042044,501.885 262.9114114114114,501.885 264.4024024024024,501.885 265.8933933933934,501.885 267.3843843843844,501.885 268.87537537537537,501.885 270.3663663663664,501.885 271.8573573573574,501.885 273.34834834834834,501.885 274.83933933933935,501.885 276.33033033033036,501.885 277.8213213213213,501.885 279.3123123123123,501.885 280.8033033033033,501.885 282.2942942942943,501.885 283.7852852852853,501.885 285.2762762762763,501.885 286.7672672672673,501.885 288.25825825825825,501.885 289.74924924924926,501.885 290.7432432432432,500.8284 292.23423423423424,500.8284 293.72522522522524,500.8284 295.2162162162162,500.8284 296.7072072072072,500.8284 297.70120120120123,499.7718 298.1981981981982,498.363 299.6891891891892,497.6586 301.1801801801802,497.6586 302.6711711711712,497.6586 304.1621621621622,497.6586 305.65315315315314,497.6586 307.14414414414415,497.6586 308.63513513513516,497.6586 310.1261261261261,497.6586 311.6171171171171,497.6586 313.1081081081081,497.6586 314.59909909909913,497.6586 316.0900900900901,497.6586 317.5810810810811,497.6586 319.0720720720721,497.6586 320.56306306306305,497.6586 322.05405405405406,497.6586 323.5450450450451,497.6586 325.036036036036,497.6586 326.52702702702703,497.6586 328.01801801801804,497.6586 329.509009009009,497.6586 331,497.6586 332.490990990991,497.6586 333.981981981982,497.6586 335.47297297297297,497.6586 336.963963963964,497.6586 338.454954954955,497.6586 339.94594594594594,497.6586 341.43693693693695,497.6586 342.92792792792795,497.6586 344.4189189189189,497.6586 345.9099099099099,497.6586 347.4009009009009,497.6586 348.8918918918919,497.6586 350.3828828828829,497.6586 351.8738738738739,497.6586 353.3648648648649,497.6586 354.85585585585585,497.6586 356.34684684684686,497.6586 357.83783783783787,497.6586 359.3288288288288,497.6586 360.8198198198198,497.6586 362.31081081081084,497.6586 363.8018018018018,497.6586 365.2927927927928,497.6586 366.7837837837838,497.6586 368.2747747747748,497.6586 369.76576576576576,497.6586 371.2567567567568,497.6586 372.7477477477478,497.3064 374.23873873873873,497.3064 375.72972972972974,496.602 377.22072072072075,496.602 378.7117117117117,496.602 380.2027027027027,496.602 381.6936936936937,496.602 383.18468468468467,496.602 384.6756756756757,496.602 386.1666666666667,496.602 387.6576576576577,496.602 389.14864864864865,496.602 390.63963963963965,496.602 392.13063063063066,496.602 393.6216216216216,496.602 395.1126126126126,496.602 396.60360360360363,496.602 398.0945945945946,496.602 399.5855855855856,496.602 401.0765765765766,496.602 402.56756756756755,496.602 404.05855855855856,496.602 405.54954954954957,496.602 407.0405405405406,496.602 408.5315315315315,496.602 410.02252252252254,496.602 411.51351351351354,496.602 413.0045045045045,496.602 414.4954954954955,496.602 415.9864864864865,496.602 417.47747747747746,496.602 418.9684684684685,496.602 420.4594594594595,496.602 421.95045045045043,496.602 423.44144144144144,496.602 424.93243243243245,496.602 426.42342342342346,496.602 427.9144144144144,496.602 429.4054054054054,496.602 430.8963963963964,496.602 432.3873873873874,496.602 433.8783783783784,496.602 435.3693693693694,496.602 436.86036036036035,496.602 438.35135135135135,496.602 439.84234234234236,496.602 441.33333333333337,496.602 442.8243243243243,496.602 444.31531531531533,496.602 445.3093093093093,495.1932 446.8003003003003,494.841 448.2912912912913,494.841 449.78228228228227,494.841 451.2732732732733,494.841 452.7642642642643,494.841 454.2552552552553,494.841 455.74624624624624,494.841 457.23723723723725,494.841 458.72822822822826,494.841 460.2192192192192,494.841 461.7102102102102,494.841 463.20120120120123,494.841 464.6921921921922,494.841 466.1831831831832,494.841 467.6741741741742,494.841 469.16516516516515,494.841 470.65615615615616,494.841 472.14714714714717,494.841 473.6381381381382,494.841 475.1291291291291,494.841 476.62012012012013,494.841 478.11111111111114,494.841 479.6021021021021,494.841 481.0930930930931,494.841 482.5840840840841,494.841 484.07507507507506,494.841 485.56606606606607,494.841 487.0570570570571,494.841 488.5480480480481,494.841 490.03903903903904,494.841 491.53003003003005,494.841 493.02102102102106,494.841 494.512012012012,494.841 496.003003003003,494.841" style="fill: none; stroke: rgb(255, 0, 255); stroke-width: 3px; stroke-opacity: 1;"></polyline><polyline id="SvgjsPolyline1336" points="0,493.08 0.496996996996997,494.48879999999997 1.490990990990991,496.602 1.987987987987988,505.407 2.484984984984985,513.1554 2.981981981981982,523.3692 3.478978978978979,535.344 3.975975975975976,543.0924 4.472972972972973,554.0106000000001 4.96996996996997,558.9413999999999 5.466966966966967,565.6332 5.963963963963964,570.9162 6.4609609609609615,573.7338 6.957957957957958,579.7212 7.454954954954955,584.652 7.951951951951952,587.8217999999999 8.44894894894895,591.3438 8.945945945945946,596.6268 9.442942942942944,597.6834 9.93993993993994,601.5576 10.436936936936938,605.784 11.43093093093093,608.2493999999999 11.927927927927929,611.7714 12.424924924924925,614.9412 12.921921921921923,616.35 13.41891891891892,617.4066 13.915915915915916,619.1676 14.412912912912914,621.9852 15.406906906906908,623.7462 16.4009009009009,625.8594 16.8978978978979,624.4506 17.394894894894897,625.8593999999999 17.89189189189189,627.9725999999999 18.38888888888889,629.3814 19.382882882882882,631.1424 19.87987987987988,632.199 20.376876876876878,633.2556 21.37087087087087,635.3688 21.86786786786787,637.482 22.364864864864867,636.4254 23.855855855855857,638.5386 24.352852852852852,639.9474 24.84984984984985,641.3562 25.843843843843846,642.4128000000001 27.334834834834837,644.1738 28.825825825825827,644.8782 29.81981981981982,646.287 31.31081081081081,646.9914 31.80780780780781,649.1046 32.3048048048048,648.048 32.8018018018018,649.1046 34.292792792792795,648.4001999999999 34.78978978978979,649.4567999999999 36.28078078078078,650.8656 37.27477477477478,652.2744 37.771771771771775,656.1486 38.26876876876877,653.331 38.765765765765764,656.5008 40.25675675675676,656.1486 41.74774774774775,658.2618 43.23873873873874,658.2618 44.232732732732735,660.7271999999999 45.72372372372372,660.7271999999999 47.21471471471472,662.4882 48.705705705705704,663.5448 49.6996996996997,664.6014 51.190690690690694,666.0101999999999 52.68168168168168,666.3624 53.17867867867868,667.419 54.66966966966967,667.7712 56.16066066066066,667.7712 57.651651651651655,668.4756 58.645645645645644,670.5888 60.13663663663664,670.941 61.62762762762763,671.2932 63.11861861861862,672.3498 63.61561561561562,673.4064 64.11261261261261,672.3498 65.6036036036036,673.0542 67.0945945945946,673.4064 68.58558558558559,673.0542 70.07657657657658,674.463 71.07057057057057,673.4064 72.56156156156156,674.1107999999999 74.05255255255256,674.8152 74.54954954954955,675.8718 75.54354354354355,677.2805999999999 77.03453453453453,677.2805999999999 78.52552552552552,677.2805999999999 80.01651651651652,677.2805999999999 81.50750750750751,677.2805999999999 82.9984984984985,677.2805999999999 84.48948948948949,677.2805999999999 85.98048048048048,677.2805999999999 87.47147147147147,677.2805999999999 88.46546546546547,678.6894 88.96246246246247,680.0982 90.45345345345345,680.8026 91.94444444444444,680.8026 93.43543543543544,680.8026 94.92642642642643,680.8026 96.41741741741743,680.8026 97.9084084084084,680.8026 99.3993993993994,681.507 100.8903903903904,681.507 102.38138138138139,680.8026 103.87237237237237,680.8026 105.36336336336336,680.8026 106.85435435435436,680.8026 108.34534534534535,681.1548 109.83633633633634,681.507 111.32732732732732,683.9724 112.81831831831832,684.6768 114.30930930930931,684.6768 115.80030030030031,685.3812 117.29129129129129,685.3812 118.78228228228228,685.3812 120.27327327327328,685.3812 121.76426426426427,685.3812 123.25525525525526,685.3812 124.74624624624624,685.3812 125.74024024024024,686.4377999999999 127.23123123123123,687.1422 128.72222222222223,687.1422 130.2132132132132,687.1422 131.70420420420422,687.4943999999999 133.1951951951952,687.1422 133.6921921921922,688.1988 134.1891891891892,687.1422 135.68018018018017,687.1422 137.17117117117118,687.1422 138.66216216216216,687.1422 140.15315315315317,687.1422 140.65015015015015,688.5509999999999 141.14714714714714,687.1422 142.63813813813815,687.1422 144.12912912912913,687.1422 145.62012012012013,687.1422 147.11111111111111,687.1422 148.6021021021021,687.1422 150.0930930930931,687.1422 151.58408408408408,687.1422 153.0750750750751,687.1422 154.56606606606607,687.1422 156.05705705705705,687.4943999999999 157.54804804804806,687.4943999999999 158.54204204204206,688.5509999999999 159.03903903903904,687.4943999999999 160.53003003003005,687.1422 162.02102102102103,687.1422 163.512012012012,687.1422 165.00300300300302,687.1422 166.493993993994,687.1422 167.487987987988,688.1988 168.97897897897897,688.1988 170.46996996996998,688.1988 171.96096096096096,688.1988 173.45195195195197,689.2554 174.44594594594594,691.3686 175.93693693693695,692.073 177.42792792792793,691.3686 178.91891891891893,691.3686 180.4099099099099,691.3686 181.9009009009009,691.3686 183.3918918918919,691.3686 184.88288288288288,691.3686 186.3738738738739,691.3686 187.86486486486487,691.3686 189.35585585585585,691.3686 190.84684684684686,691.3686 192.33783783783784,691.3686 193.82882882882885,691.3686 195.31981981981983,691.3686 196.8108108108108,691.3686 198.30180180180182,691.3686 199.7927927927928,691.3686 201.28378378378378,691.3686 202.77477477477478,691.3686 204.26576576576576,692.073 205.75675675675677,691.7207999999999 207.24774774774775,691.3686 208.73873873873873,691.3686 210.22972972972974,691.3686 211.72072072072072,691.3686 213.21171171171173,691.3686 214.7027027027027,691.3686 216.1936936936937,691.3686 217.6846846846847,691.3686 219.17567567567568,691.3686 220.66666666666669,691.7207999999999 222.15765765765767,693.1296 223.64864864864865,693.1296 225.13963963963965,693.1296 226.63063063063063,693.1296 228.1216216216216,693.1296 229.61261261261262,693.1296 231.1036036036036,693.1296 232.5945945945946,693.1296 234.0855855855856,693.1296 235.57657657657657,693.1296 237.06756756756758,693.1296 238.55855855855856,693.1296 240.04954954954957,693.1296 241.54054054054055,693.1296 243.03153153153153,693.1296 244.52252252252254,693.1296 246.01351351351352,693.1296 247.50450450450452,693.1296 248.9954954954955,693.1296 250.48648648648648,693.1296 251.9774774774775,693.1296 253.46846846846847,693.1296 254.95945945945945,693.1296 256.45045045045043,693.1296 257.94144144144144,693.1296 259.43243243243245,693.4818 260.92342342342346,693.834 262.4144144144144,693.1296 263.9054054054054,693.1296 265.3963963963964,693.1296 266.8873873873874,693.1296 268.3783783783784,693.1296 269.8693693693694,693.1296 271.36036036036035,693.1296 272.85135135135135,693.1296 274.34234234234236,693.1296 275.8333333333333,693.1296 277.3243243243243,693.1296 278.81531531531533,693.1296 280.30630630630634,693.1296 281.7972972972973,693.1296 283.2882882882883,693.1296 284.7792792792793,693.1296 286.27027027027026,693.1296 287.76126126126127,693.1296 289.2522522522523,693.1296 290.7432432432432,694.1862 292.23423423423424,694.1862 293.72522522522524,694.1862 295.2162162162162,694.1862 296.7072072072072,694.1862 297.70120120120123,695.2428 298.1981981981982,696.6516 299.6891891891892,697.356 301.1801801801802,697.356 302.6711711711712,697.356 304.1621621621622,697.356 305.65315315315314,697.356 307.14414414414415,697.356 308.63513513513516,697.356 310.1261261261261,697.356 311.6171171171171,697.356 313.1081081081081,697.356 314.59909909909913,697.356 316.0900900900901,697.356 317.5810810810811,697.356 319.0720720720721,697.356 320.56306306306305,697.356 322.05405405405406,697.356 323.5450450450451,697.356 325.036036036036,697.356 326.52702702702703,697.356 328.01801801801804,697.356 329.509009009009,697.356 331,697.356 332.490990990991,697.356 333.981981981982,697.356 335.47297297297297,697.356 336.963963963964,697.356 338.454954954955,697.356 339.94594594594594,697.356 341.43693693693695,697.356 342.92792792792795,697.356 344.4189189189189,697.356 345.9099099099099,697.356 347.4009009009009,697.356 348.8918918918919,697.356 350.3828828828829,697.356 351.8738738738739,697.356 353.3648648648649,697.356 354.85585585585585,697.356 356.34684684684686,697.356 357.83783783783787,697.356 359.3288288288288,697.356 360.8198198198198,697.356 362.31081081081084,697.356 363.8018018018018,697.356 365.2927927927928,697.356 366.7837837837838,697.356 368.2747747747748,697.356 369.76576576576576,697.356 371.2567567567568,697.356 372.7477477477478,697.356 374.23873873873873,697.356 375.72972972972974,697.356 377.22072072072075,697.356 378.7117117117117,697.356 380.2027027027027,697.356 381.6936936936937,697.356 383.18468468468467,697.356 384.6756756756757,697.356 386.1666666666667,697.356 387.6576576576577,697.356 389.14864864864865,697.356 390.63963963963965,697.356 392.13063063063066,697.356 393.6216216216216,697.356 395.1126126126126,697.356 396.60360360360363,697.356 398.0945945945946,697.356 399.5855855855856,697.356 401.0765765765766,697.356 402.56756756756755,697.356 404.05855855855856,697.356 405.54954954954957,697.356 407.0405405405406,697.356 408.5315315315315,697.356 410.02252252252254,697.356 411.51351351351354,697.356 413.0045045045045,697.356 414.4954954954955,697.356 415.9864864864865,697.356 417.47747747747746,697.356 418.9684684684685,697.356 420.4594594594595,697.356 421.95045045045043,697.356 423.44144144144144,697.356 424.93243243243245,697.356 426.42342342342346,697.356 427.9144144144144,697.356 429.4054054054054,697.356 430.8963963963964,697.356 432.3873873873874,697.356 433.8783783783784,697.356 435.3693693693694,697.356 436.86036036036035,697.356 438.35135135135135,697.356 439.84234234234236,697.356 441.33333333333337,697.356 442.8243243243243,697.356 444.31531531531533,697.356 445.80630630630634,697.356 447.2972972972973,697.356 448.7882882882883,697.356 450.2792792792793,697.356 451.77027027027026,697.356 453.26126126126127,697.356 454.7522522522523,697.356 456.2432432432432,697.356 457.73423423423424,697.356 459.22522522522524,697.356 460.71621621621625,697.356 462.2072072072072,697.356 463.6981981981982,697.356 465.1891891891892,697.356 466.6801801801802,697.356 468.1711711711712,697.356 469.6621621621622,697.356 471.15315315315314,697.356 472.64414414414415,697.356 474.13513513513516,697.356 475.6261261261261,697.356 477.1171171171171,697.356 478.6081081081081,697.356 480.09909909909913,697.356 481.5900900900901,697.356 483.0810810810811,697.356 484.5720720720721,697.356 486.06306306306305,697.7082 487.0570570570571,698.7647999999999 488.5480480480481,697.356 490.03903903903904,697.356 491.53003003003005,697.356 493.02102102102106,697.356 494.512012012012,697.356 496.003003003003,697.356" style="fill: none; stroke: rgb(244, 164, 96); stroke-width: 3px; stroke-opacity: 1;"></polyline><polyline id="SvgjsPolyline1337" points="0,528.3 0.496996996996997,605.0796 0.993993993993994,670.2366 1.490990990990991,684.6768 1.987987987987988,693.4818 2.981981981981982,695.9472 3.975975975975976,698.7647999999999 4.472972972972973,700.1736 4.96996996996997,701.9345999999999 5.963963963963964,703.3434 7.454954954954955,704.0477999999999 8.945945945945946,704.4 10.436936936936938,704.4 11.927927927927929,704.4 13.41891891891892,704.4 14.90990990990991,704.4 16.4009009009009,704.4 17.89189189189189,704.4 19.382882882882882,704.4 20.873873873873876,704.4 22.364864864864867,704.4 23.855855855855857,704.4 25.346846846846848,704.4 26.83783783783784,704.4 28.32882882882883,704.4 29.81981981981982,704.4 31.31081081081081,704.4 32.8018018018018,704.4 34.292792792792795,704.4 35.78378378378378,704.4 37.27477477477478,704.4 38.765765765765764,704.4 40.25675675675676,704.4 41.74774774774775,704.4 43.23873873873874,704.4 44.72972972972973,704.4 46.22072072072072,704.4 47.711711711711715,704.4 49.2027027027027,704.4 50.693693693693696,704.4 52.18468468468468,704.4 53.67567567567568,704.4 55.16666666666667,704.4 56.65765765765766,704.4 58.14864864864865,704.4 59.63963963963964,704.4 61.130630630630634,704.4 62.62162162162162,704.4 64.11261261261261,704.4 65.6036036036036,704.4 67.0945945945946,704.4 68.58558558558559,704.4 70.07657657657658,704.4 71.56756756756756,704.4 73.05855855855856,704.4 74.54954954954955,704.4 76.04054054054055,704.4 77.53153153153153,704.4 79.02252252252252,704.4 80.51351351351352,704.4 82.00450450450451,704.4 83.4954954954955,704.4 84.98648648648648,704.4 86.47747747747748,704.4 87.96846846846847,704.4 89.45945945945947,704.4 90.95045045045045,704.4 92.44144144144144,704.4 93.93243243243244,704.4 95.42342342342343,704.4 96.91441441441442,704.4 98.4054054054054,704.4 99.8963963963964,704.4 101.38738738738739,704.4 102.87837837837839,704.4 104.36936936936937,704.4 105.86036036036036,704.4 107.35135135135135,704.4 108.84234234234235,704.4 110.33333333333334,704.4 111.82432432432432,704.4 113.31531531531532,704.4 114.80630630630631,704.4 116.2972972972973,704.4 117.78828828828829,704.4 119.27927927927928,704.4 120.77027027027027,704.4 122.26126126126127,704.4 123.75225225225226,704.4 125.24324324324324,704.4 126.73423423423424,704.4 128.22522522522522,704.4 129.71621621621622,704.4 131.2072072072072,704.4 132.6981981981982,704.4 134.1891891891892,704.4 135.68018018018017,704.4 137.17117117117118,704.4 138.66216216216216,704.4 140.15315315315317,704.4 141.64414414414415,704.4 143.13513513513513,704.4 144.62612612612614,704.4 146.11711711711712,704.4 147.6081081081081,704.4 149.0990990990991,704.4 150.5900900900901,704.4 152.0810810810811,704.4 153.57207207207207,704.4 155.06306306306305,704.4 156.55405405405406,704.4 158.04504504504504,704.4 159.53603603603605,704.4 161.02702702702703,704.4 162.518018018018,704.4 164.00900900900902,704.4 165.5,704.4 166.990990990991,704.4 168.481981981982,704.4 169.97297297297297,704.4 171.46396396396398,704.4 172.95495495495496,704.4 174.44594594594594,704.4 175.93693693693695,704.4 177.42792792792793,704.4 178.91891891891893,704.4 180.4099099099099,704.4 181.9009009009009,704.4 183.3918918918919,704.4 184.88288288288288,704.4 186.3738738738739,704.4 187.86486486486487,704.4 189.35585585585585,704.4 190.84684684684686,704.4 192.33783783783784,704.4 193.82882882882885,704.4 195.31981981981983,704.4 196.8108108108108,704.4 198.30180180180182,704.4 199.7927927927928,704.4 201.28378378378378,704.4 202.77477477477478,704.4 204.26576576576576,704.4 205.75675675675677,704.4 207.24774774774775,704.4 208.73873873873873,704.4 210.22972972972974,704.4 211.72072072072072,704.4 213.21171171171173,704.4 214.7027027027027,704.4 216.1936936936937,704.4 217.6846846846847,704.4 219.17567567567568,704.4 220.66666666666669,704.4 222.15765765765767,704.4 223.64864864864865,704.4 225.13963963963965,704.4 226.63063063063063,704.4 228.1216216216216,704.4 229.61261261261262,704.4 231.1036036036036,704.4 232.5945945945946,704.4 234.0855855855856,704.4 235.57657657657657,704.4 237.06756756756758,704.4 238.55855855855856,704.4 240.04954954954957,704.4 241.54054054054055,704.4 243.03153153153153,704.4 244.52252252252254,704.4 246.01351351351352,704.4 247.50450450450452,704.4 248.9954954954955,704.4 250.48648648648648,704.4 251.9774774774775,704.4 253.46846846846847,704.4 254.95945945945945,704.4 256.45045045045043,704.4 257.94144144144144,704.4 259.43243243243245,704.4 260.92342342342346,704.4 262.4144144144144,704.4 263.9054054054054,704.4 265.3963963963964,704.4 266.8873873873874,704.4 268.3783783783784,704.4 269.8693693693694,704.4 271.36036036036035,704.4 272.85135135135135,704.4 274.34234234234236,704.4 275.8333333333333,704.4 277.3243243243243,704.4 278.81531531531533,704.4 280.30630630630634,704.4 281.7972972972973,704.4 283.2882882882883,704.4 284.7792792792793,704.4 286.27027027027026,704.4 287.76126126126127,704.4 289.2522522522523,704.4 290.7432432432432,704.4 292.23423423423424,704.4 293.72522522522524,704.4 295.2162162162162,704.4 296.7072072072072,704.4 298.1981981981982,704.4 299.6891891891892,704.4 301.1801801801802,704.4 302.6711711711712,704.4 304.1621621621622,704.4 305.65315315315314,704.4 307.14414414414415,704.4 308.63513513513516,704.4 310.1261261261261,704.4 311.6171171171171,704.4 313.1081081081081,704.4 314.59909909909913,704.4 316.0900900900901,704.4 317.5810810810811,704.4 319.0720720720721,704.4 320.56306306306305,704.4 322.05405405405406,704.4 323.5450450450451,704.4 325.036036036036,704.4 326.52702702702703,704.4 328.01801801801804,704.4 329.509009009009,704.4 331,704.4 332.490990990991,704.4 333.981981981982,704.4 335.47297297297297,704.4 336.963963963964,704.4 338.454954954955,704.4 339.94594594594594,704.4 341.43693693693695,704.4 342.92792792792795,704.4 344.4189189189189,704.4 345.9099099099099,704.4 347.4009009009009,704.4 348.8918918918919,704.4 350.3828828828829,704.4 351.8738738738739,704.4 353.3648648648649,704.4 354.85585585585585,704.4 356.34684684684686,704.4 357.83783783783787,704.4 359.3288288288288,704.4 360.8198198198198,704.4 362.31081081081084,704.4 363.8018018018018,704.4 365.2927927927928,704.4 366.7837837837838,704.4 368.2747747747748,704.4 369.76576576576576,704.4 371.2567567567568,704.4 372.7477477477478,704.4 374.23873873873873,704.4 375.72972972972974,704.4 377.22072072072075,704.4 378.7117117117117,704.4 380.2027027027027,704.4 381.6936936936937,704.4 383.18468468468467,704.4 384.6756756756757,704.4 386.1666666666667,704.4 387.6576576576577,704.4 389.14864864864865,704.4 390.63963963963965,704.4 392.13063063063066,704.4 393.6216216216216,704.4 395.1126126126126,704.4 396.60360360360363,704.4 398.0945945945946,704.4 399.5855855855856,704.4 401.0765765765766,704.4 402.56756756756755,704.4 404.05855855855856,704.4 405.54954954954957,704.4 407.0405405405406,704.4 408.5315315315315,704.4 410.02252252252254,704.4 411.51351351351354,704.4 413.0045045045045,704.4 414.4954954954955,704.4 415.9864864864865,704.4 417.47747747747746,704.4 418.9684684684685,704.4 420.4594594594595,704.4 421.95045045045043,704.4 423.44144144144144,704.4 424.93243243243245,704.4 426.42342342342346,704.4 427.9144144144144,704.4 429.4054054054054,704.4 430.8963963963964,704.4 432.3873873873874,704.4 433.8783783783784,704.4 435.3693693693694,704.4 436.86036036036035,704.4 438.35135135135135,704.4 439.84234234234236,704.4 441.33333333333337,704.4 442.8243243243243,704.4 444.31531531531533,704.4 445.80630630630634,704.4 447.2972972972973,704.4 448.7882882882883,704.4 450.2792792792793,704.4 451.77027027027026,704.4 453.26126126126127,704.4 454.7522522522523,704.4 456.2432432432432,704.4 457.73423423423424,704.4 459.22522522522524,704.4 460.71621621621625,704.4 462.2072072072072,704.4 463.6981981981982,704.4 465.1891891891892,704.4 466.6801801801802,704.4 468.1711711711712,704.4 469.6621621621622,704.4 471.15315315315314,704.4 472.64414414414415,704.4 474.13513513513516,704.4 475.6261261261261,704.4 477.1171171171171,704.4 478.6081081081081,704.4 480.09909909909913,704.4 481.5900900900901,704.4 483.0810810810811,704.4 484.5720720720721,704.4 486.06306306306305,704.4 487.55405405405406,704.4 489.0450450450451,704.4 490.536036036036,704.4 492.02702702702703,704.4 493.51801801801804,704.4 495.00900900900905,704.4 496.5,704.4" style="fill: none; stroke: rgb(85, 26, 139); stroke-width: 3px; stroke-opacity: 1;"></polyline><polyline id="SvgjsPolyline1338" points="0,493.08 0.496996996996997,525.4824 0.993993993993994,560.7024 1.490990990990991,569.1551999999999 1.987987987987988,582.1866 2.484984984984985,602.6142 2.981981981981982,609.6582 3.478978978978979,610.7148 3.975975975975976,617.0544 4.472972972972973,621.2808 4.96996996996997,628.3248 5.466966966966967,632.5512 5.963963963963964,639.2429999999999 6.4609609609609615,641.004 6.957957957957958,645.5826 7.454954954954955,646.6392 7.951951951951952,650.5133999999999 8.945945945945946,648.048 9.442942942942944,651.2178 9.93993993993994,652.2744 10.436936936936938,660.375 10.933933933933934,663.8969999999999 11.43093093093093,658.614 12.424924924924925,662.4882 12.921921921921923,663.8969999999999 13.915915915915916,662.8403999999999 14.412912912912914,665.658 14.90990990990991,662.8403999999999 15.406906906906908,659.3184 16.8978978978979,664.2492 17.394894894894897,666.7146 17.89189189189189,665.3058 18.38888888888889,667.7712 18.885885885885887,666.7146 19.382882882882882,668.8278 19.87987987987988,673.7586 20.376876876876878,670.5888 21.37087087087087,671.9975999999999 21.86786786786787,674.8152 22.86186186186186,673.4064 23.35885885885886,677.985 23.855855855855857,676.2239999999999 24.352852852852852,675.1673999999999 24.84984984984985,677.6328 26.34084084084084,677.6328 26.83783783783784,680.0982 27.334834834834837,684.3246 27.83183183183183,685.3812 28.32882882882883,683.9724 28.825825825825827,679.746 29.322822822822822,677.6328 29.81981981981982,679.746 30.316816816816818,674.8152 30.813813813813816,675.8718 31.80780780780781,679.746 32.3048048048048,682.2114 33.2987987987988,679.0416 34.292792792792795,681.1548 34.78978978978979,679.746 35.78378378378378,683.9724 36.77777777777778,686.0856 37.771771771771775,687.1422 38.765765765765764,684.3245999999999 40.25675675675676,683.6202 41.250750750750754,685.029 42.24474474474474,687.1422 42.74174174174174,688.5509999999999 43.73573573573574,689.6075999999999 44.232732732732735,688.1988 45.226726726726724,687.1422 46.71771771771772,686.79 48.20870870870871,685.029 49.6996996996997,686.0856 50.1966966966967,688.1988 50.693693693693696,686.79 51.190690690690694,687.8466 51.68768768768769,685.029 52.18468468468468,686.0856 53.17867867867868,684.6768 53.67567567567568,687.8466 54.66966966966967,689.2554 55.66366366366366,688.1988 56.65765765765766,689.2554 57.15465465465466,690.6641999999999 58.14864864864865,691.7207999999999 58.645645645645644,693.1296 59.14264264264264,695.2428 60.633633633633636,694.5384 62.12462462462462,696.2994 63.61561561561562,694.1862 64.11261261261261,692.7774 64.6096096096096,691.7207999999999 65.1066066066066,689.6075999999999 65.6036036036036,690.6641999999999 66.5975975975976,692.073 67.5915915915916,694.8906 69.08258258258259,696.6516 69.57957957957959,695.595 70.57357357357357,694.1862 71.07057057057057,692.073 71.56756756756756,690.312 73.05855855855856,689.9598 73.55555555555556,692.073 74.54954954954955,694.5384 75.54354354354355,696.6516 76.04054054054055,695.595 76.53753753753755,697.7082 77.53153153153153,696.2994 79.02252252252252,695.9472 80.51351351351352,697.356 82.00450450450451,697.7082 82.9984984984985,695.9472 83.4954954954955,697.0038 84.98648648648648,698.0604 85.48348348348348,695.9472 85.98048048048048,693.834 87.47147147147147,691.3686 88.96246246246247,693.1296 89.95645645645646,694.1862 90.45345345345345,695.9472 91.94444444444444,697.0038 93.43543543543544,697.356 94.92642642642643,699.117 95.42342342342343,696.6516 95.92042042042043,697.7082 96.41741741741743,700.1736 96.91441441441442,699.117 98.4054054054054,698.7647999999999 98.9024024024024,697.7082 99.3993993993994,696.2994 100.8903903903904,695.9472 102.38138138138139,696.6516 103.87237237237237,697.7082 104.36936936936937,695.9472 105.36336336336336,697.7082 106.85435435435436,698.4126 107.84834834834835,700.1736 108.84234234234235,701.9345999999999 109.83633633633634,702.9911999999999 111.32732732732732,700.5258 111.82432432432432,699.4692 113.31531531531532,699.4692 114.80630630630631,700.8779999999999 115.30330330330331,702.2868 116.2972972972973,703.6956 117.78828828828829,703.3434 118.28528528528528,701.9345999999999 119.77627627627628,700.5258 120.27327327327328,701.9345999999999 121.76426426426427,702.639 122.75825825825827,704.0477999999999 123.25525525525526,702.2868 124.74624624624624,701.5824 125.24324324324324,700.1736 126.73423423423424,699.117 128.22522522522522,698.4126 129.71621621621622,699.117 131.2072072072072,699.4692 131.70420420420422,698.4126 133.1951951951952,699.117 134.1891891891892,700.5258 135.68018018018017,699.4692 137.17117117117118,699.117 137.66816816816817,700.5258 139.15915915915917,699.117 140.65015015015015,698.7647999999999 141.14714714714714,697.356 141.64414414414415,698.4126 142.14114114114113,697.356 143.13513513513513,698.4126 144.62612612612614,698.7647999999999 145.12312312312312,700.8779999999999 146.11711711711712,701.9345999999999 147.11111111111111,702.9911999999999 148.1051051051051,701.9345999999999 149.5960960960961,701.2302 151.0870870870871,701.5824 151.58408408408408,699.8213999999999 153.0750750750751,701.2302 154.06906906906906,702.639 155.06306306306305,701.5824 156.05705705705705,702.639 157.54804804804806,701.2302 159.03903903903904,701.5824 160.53003003003005,700.8779999999999 162.02102102102103,700.8779999999999 162.518018018018,702.2868 164.00900900900902,702.639 165.5,703.3434 166.990990990991,702.9911999999999 168.481981981982,702.9911999999999 168.97897897897897,701.9345999999999 169.47597597597598,703.3434 170.96696696696696,702.2868 172.45795795795797,701.2302 173.94894894894895,702.2868 175.43993993993993,702.2868 176.43393393393393,700.8779999999999 176.93093093093094,702.639 178.42192192192192,701.9345999999999 179.91291291291293,702.639 181.4039039039039,702.639 182.8948948948949,702.639 184.3858858858859,702.9911999999999 185.87687687687688,702.9911999999999 186.87087087087087,701.9345999999999 188.36186186186185,702.639 189.85285285285286,703.3434 190.34984984984985,702.2868 191.84084084084085,702.2868 193.33183183183183,701.2302 194.82282282282281,701.9345999999999 196.31381381381382,702.2868 197.30780780780782,701.2302 197.8048048048048,700.1736 199.2957957957958,699.8213999999999 200.7867867867868,699.8213999999999 202.27777777777777,700.1736 202.77477477477478,698.7647999999999 203.27177177177177,700.5258 204.76276276276278,700.5258 206.25375375375376,699.8213999999999 207.24774774774775,701.9345999999999 208.73873873873873,702.639 209.73273273273273,701.2302 210.72672672672672,700.1736 212.21771771771773,700.1736 213.21171171171173,701.2302 214.7027027027027,702.2868 215.6966966966967,703.3434 216.1936936936937,701.5824 217.18768768768768,702.9911999999999 218.18168168168168,701.9345999999999 219.17567567567568,702.9911999999999 220.66666666666669,703.6956 222.15765765765767,704.0477999999999 223.64864864864865,703.3434 225.13963963963965,701.5824 226.63063063063063,701.5824 227.12762762762765,702.639 228.61861861861863,702.639 230.1096096096096,702.639 231.60060060060061,702.639 232.0975975975976,701.2302 233.5885885885886,701.2302 234.0855855855856,702.639 235.57657657657657,701.5824 237.06756756756758,701.5824 238.55855855855856,701.5824 239.55255255255256,702.639 241.04354354354356,701.5824 242.03753753753753,702.9911999999999 242.53453453453454,700.1736 244.02552552552552,700.1736 245.51651651651653,700.1736 246.01351351351352,701.2302 246.51051051051053,702.2868 247.50450450450452,701.2302 248.9954954954955,702.2868 250.48648648648648,702.9911999999999 251.9774774774775,702.9911999999999 253.46846846846847,704.4 254.95945945945945,704.4 256.45045045045043,704.4 257.94144144144144,704.0477999999999 259.43243243243245,704.0477999999999 260.92342342342346,704.4 262.4144144144144,704.4 263.9054054054054,703.3434 265.3963963963964,702.639 266.8873873873874,702.639 268.3783783783784,702.639 269.8693693693694,702.639 270.86336336336336,701.5824 272.35435435435437,700.8779999999999 273.34834834834834,701.9345999999999 274.83933933933935,702.2868 275.33633633633633,703.3434 276.82732732732734,703.6956 278.31831831831835,703.6956 279.3123123123123,702.2868 280.8033033033033,701.5824 281.3003003003003,702.639 282.7912912912913,703.3434 284.28228228228227,702.9911999999999 285.7732732732733,702.9911999999999 286.7672672672673,701.9345999999999 288.25825825825825,701.5824 289.74924924924926,701.2302 291.24024024024027,701.9345999999999 292.23423423423424,702.9911999999999 293.72522522522524,703.6956 295.2162162162162,704.4 296.7072072072072,704.4 298.1981981981982,704.4 299.6891891891892,704.4 301.1801801801802,704.4 302.6711711711712,704.4 304.1621621621622,704.4 305.65315315315314,704.4 307.14414414414415,704.4 308.63513513513516,704.4 310.1261261261261,704.4 311.6171171171171,704.4 312.61111111111114,703.3434 314.1021021021021,702.639 315.5930930930931,702.639 317.0840840840841,702.639 318.57507507507506,702.639 320.06606606606607,702.639 321.5570570570571,702.639 323.04804804804803,702.639 324.53903903903904,702.639 326.03003003003005,702.639 327.52102102102106,704.0477999999999 329.012012012012,704.4 330.503003003003,704.4 331.993993993994,704.4 333.484984984985,704.4 334.975975975976,704.4 336.466966966967,704.4 337.95795795795794,704.4 339.44894894894895,703.3434 340.93993993993996,703.3434 342.4309309309309,703.3434 343.9219219219219,703.3434 345.41291291291293,701.9345999999999 346.4069069069069,700.1736 347.4009009009009,701.2302 348.8918918918919,701.2302 350.3828828828829,701.2302 351.8738738738739,701.2302 353.3648648648649,701.2302 354.35885885885887,702.9911999999999 354.85585585585585,704.0477999999999 356.34684684684686,704.4 357.83783783783787,704.4 359.3288288288288,703.3434 360.8198198198198,703.3434 362.31081081081084,703.3434 363.8018018018018,703.3434 365.2927927927928,703.3434 366.2867867867868,701.9345999999999 367.2807807807808,702.9911999999999 368.7717717717718,702.9911999999999 370.26276276276275,702.9911999999999 371.75375375375376,702.9911999999999 373.24474474474476,702.9911999999999 374.23873873873873,704.4 375.72972972972974,704.0477999999999 377.22072072072075,704.0477999999999 378.7117117117117,703.3434 380.2027027027027,702.9911999999999 381.6936936936937,703.3434 383.18468468468467,702.2868 384.6756756756757,701.5824 386.1666666666667,702.639 387.6576576576577,702.639 389.14864864864865,701.5824 389.64564564564563,700.5258 391.13663663663664,701.2302 392.62762762762765,701.9345999999999 393.12462462462463,703.3434 393.6216216216216,704.4 395.1126126126126,704.4 396.60360360360363,702.9911999999999 398.0945945945946,702.9911999999999 399.5855855855856,702.9911999999999 400.5795795795796,704.4 402.07057057057057,704.4 403.5615615615616,704.4 405.0525525525526,704.4 406.54354354354354,704.4 408.03453453453454,704.4 409.52552552552555,704.4 411.0165165165165,704.4 412.5075075075075,704.4 413.9984984984985,704.4 415.4894894894895,704.4 416.9804804804805,704.4 418.4714714714715,704.4 419.9624624624625,704.4 421.45345345345345,704.4 422.94444444444446,704.4 424.43543543543547,704.4 425.9264264264264,704.4 427.4174174174174,704.4 428.90840840840843,704.4 430.3993993993994,704.0477999999999 431.8903903903904,703.3434 433.3813813813814,702.639 434.8723723723724,703.3434 436.36336336336336,704.4 437.85435435435437,704.4 438.84834834834834,703.3434 440.33933933933935,702.639 441.83033033033036,702.639 443.3213213213213,702.639 444.8123123123123,702.639 446.3033033033033,702.639 447.79429429429433,702.639 449.2852852852853,702.639 450.7762762762763,702.639 452.2672672672673,702.639 453.75825825825825,702.9911999999999 454.7522522522523,704.0477999999999 456.2432432432432,704.4 457.73423423423424,704.4 459.22522522522524,704.4 460.71621621621625,704.4 462.2072072072072,704.4 463.6981981981982,704.4 464.1951951951952,703.3434 465.6861861861862,703.3434 466.6801801801802,704.4 468.1711711711712,704.4 469.6621621621622,704.4 471.15315315315314,703.3434 472.64414414414415,702.9911999999999 474.13513513513516,704.4 475.6261261261261,704.4 477.1171171171171,704.4 478.6081081081081,704.4 480.09909909909913,704.4 481.5900900900901,704.4 483.0810810810811,704.4 484.5720720720721,704.4 486.06306306306305,704.4 487.55405405405406,704.4 489.0450450450451,704.4 490.536036036036,704.4 492.02702702702703,704.4 493.51801801801804,704.0477999999999 495.00900900900905,703.6956 495.50600600600603,702.639 496.003003003003,701.5824" style="fill: none; stroke: rgb(111, 153, 117); stroke-width: 3px; stroke-opacity: 1;"></polyline><polyline id="SvgjsPolyline1339" points="0,0 0.496996996996997,1.4087999999999283 1.987987987987988,7.043999999999983 2.484984984984985,16.90560000000005 2.981981981981982,25.358399999999847 3.478978978978979,35.22000000000014 3.975975975975976,46.13819999999998 4.472972972972973,53.886600000000044 4.96996996996997,60.5784000000001 5.466966966966967,67.27020000000005 5.963963963963964,71.49659999999994 6.4609609609609615,77.1318 6.957957957957958,82.41480000000001 7.454954954954955,88.05000000000007 7.951951951951952,91.57199999999989 8.44894894894895,96.50279999999998 8.945945945945946,99.6726000000001 9.442942942942944,100.72919999999999 9.93993993993994,105.65999999999997 10.436936936936938,109.18200000000002 10.933933933933934,111.64739999999995 11.43093093093093,113.76060000000007 11.927927927927929,115.52159999999992 12.424924924924925,117.98699999999997 12.921921921921923,120.80459999999994 13.41891891891892,122.21339999999998 13.915915915915916,123.2700000000001 14.412912912912914,126.4398000000001 14.90990990990991,127.49640000000011 15.406906906906908,129.25739999999996 15.903903903903904,130.6661999999999 17.394894894894897,131.37059999999997 17.89189189189189,132.7794 18.38888888888889,134.5404000000001 18.885885885885887,135.5970000000001 19.382882882882882,137.71019999999987 20.376876876876878,139.11900000000003 21.37087087087087,140.52780000000018 21.86786786786787,142.28880000000004 23.35885885885886,142.99320000000012 23.855855855855857,144.0498 24.352852852852852,145.45860000000005 24.84984984984985,147.2195999999999 26.34084084084084,148.9806000000001 27.334834834834837,150.03719999999998 28.825825825825827,151.79819999999984 29.81981981981982,152.85479999999995 31.31081081081081,153.91139999999996 31.80780780780781,154.96799999999996 33.2987987987988,155.3202 34.78978978978979,156.3768 36.28078078078078,156.3768 37.27477477477478,157.78560000000004 37.771771771771775,159.5465999999999 39.26276276276276,162.71640000000002 40.753753753753756,163.06860000000017 42.24474474474474,164.12520000000018 43.73573573573574,165.5340000000001 44.72972972972973,166.5906 46.22072072072072,167.29500000000007 47.711711711711715,168.35160000000008 48.705705705705704,169.76040000000012 49.2027027027027,170.817 50.1966966966967,171.8735999999999 51.190690690690694,172.9301999999999 52.68168168168168,172.9301999999999 53.67567567567568,174.33900000000006 55.16666666666667,174.69119999999998 56.65765765765766,174.69119999999998 58.14864864864865,176.10000000000002 59.14264264264264,177.15660000000003 60.633633633633636,177.861 62.12462462462462,178.21320000000014 63.61561561561562,179.26980000000003 65.1066066066066,179.97419999999988 66.5975975975976,179.97419999999988 68.08858858858859,179.97419999999988 69.57957957957959,179.97419999999988 71.07057057057057,180.32639999999992 72.56156156156156,181.0308 74.05255255255256,181.73519999999996 74.54954954954955,182.79180000000008 75.54354354354355,184.2005999999999 77.03453453453453,184.2005999999999 78.52552552552552,184.2005999999999 80.01651651651652,184.2005999999999 81.50750750750751,184.2005999999999 82.9984984984985,184.2005999999999 84.48948948948949,184.2005999999999 85.98048048048048,184.2005999999999 87.47147147147147,184.2005999999999 88.96246246246247,185.96159999999986 89.45945945945947,187.37040000000002 90.95045045045045,187.72259999999983 92.44144144144144,187.72259999999983 93.93243243243244,187.72259999999983 95.42342342342343,187.72259999999983 96.91441441441442,187.72259999999983 98.4054054054054,187.72259999999983 99.8963963963964,187.72259999999983 101.38738738738739,187.72259999999983 102.87837837837839,187.72259999999983 104.36936936936937,187.72259999999983 105.86036036036036,187.72259999999983 107.35135135135135,187.72259999999983 108.84234234234235,187.72259999999983 110.33333333333334,188.77920000000006 111.32732732732732,190.188 111.82432432432432,191.2446 113.31531531531532,191.2446 114.80630630630631,191.59680000000003 116.2972972972973,191.59680000000003 117.78828828828829,192.3012000000001 119.27927927927928,192.3012000000001 120.77027027027027,192.3012000000001 122.26126126126127,192.3012000000001 123.75225225225226,192.3012000000001 125.24324324324324,192.3012000000001 126.73423423423424,193.3578000000001 128.22522522522522,194.06219999999996 129.71621621621622,194.06219999999996 131.2072072072072,194.06219999999996 132.6981981981982,194.06219999999996 134.1891891891892,194.06219999999996 135.68018018018017,194.06219999999996 137.17117117117118,194.06219999999996 138.66216216216216,194.06219999999996 140.15315315315317,194.06219999999996 141.64414414414415,194.06219999999996 143.13513513513513,194.06219999999996 144.62612612612614,194.06219999999996 146.11711711711712,194.06219999999996 147.6081081081081,194.06219999999996 149.0990990990991,194.06219999999996 150.5900900900901,194.06219999999996 152.0810810810811,194.06219999999996 153.57207207207207,194.06219999999996 155.06306306306305,194.06219999999996 156.55405405405406,194.06219999999996 158.04504504504504,194.06219999999996 159.53603603603605,194.06219999999996 161.02702702702703,194.06219999999996 162.518018018018,194.06219999999996 164.00900900900902,194.06219999999996 165.5,194.06219999999996 166.990990990991,194.06219999999996 167.487987987988,195.11880000000002 168.97897897897897,195.11880000000002 170.46996996996998,195.11880000000002 171.96096096096096,195.11880000000002 173.45195195195197,196.17539999999997 174.44594594594594,198.28860000000003 175.93693693693695,198.28860000000003 177.42792792792793,198.28860000000003 178.91891891891893,198.28860000000003 180.4099099099099,198.28860000000003 181.9009009009009,198.28860000000003 183.3918918918919,198.28860000000003 184.88288288288288,198.28860000000003 186.3738738738739,198.28860000000003 187.86486486486487,198.28860000000003 189.35585585585585,198.28860000000003 190.84684684684686,198.28860000000003 192.33783783783784,198.28860000000003 193.82882882882885,198.28860000000003 195.31981981981983,198.28860000000003 196.8108108108108,198.28860000000003 198.30180180180182,198.28860000000003 199.7927927927928,198.28860000000003 201.28378378378378,198.28860000000003 202.77477477477478,198.28860000000003 204.26576576576576,198.28860000000003 205.75675675675677,198.28860000000003 207.24774774774775,198.28860000000003 208.73873873873873,198.28860000000003 210.22972972972974,198.28860000000003 211.72072072072072,198.28860000000003 212.71471471471472,199.3452000000002 214.20570570570572,199.3452000000002 215.6966966966967,199.3452000000002 217.18768768768768,199.3452000000002 218.6786786786787,199.3452000000002 219.6726726726727,200.7539999999999 221.16366366366367,201.81059999999997 222.65465465465465,202.515 224.14564564564566,202.515 225.63663663663664,202.515 227.12762762762765,202.515 228.61861861861863,202.515 230.1096096096096,202.515 231.60060060060061,202.515 233.0915915915916,202.515 234.58258258258257,202.515 236.07357357357358,202.515 237.56456456456456,202.515 239.05555555555557,202.515 240.54654654654655,202.515 242.03753753753753,202.515 243.52852852852854,202.515 245.01951951951952,202.515 246.51051051051053,202.515 248.0015015015015,202.515 249.4924924924925,202.515 250.9834834834835,202.515 252.47447447447448,202.515 253.96546546546548,202.515 255.45645645645646,202.515 256.9474474474475,202.515 258.4384384384384,202.515 259.92942942942943,202.515 261.42042042042044,202.515 262.9114114114114,202.515 264.4024024024024,202.515 265.8933933933934,202.515 267.3843843843844,202.515 268.87537537537537,202.515 270.3663663663664,202.515 271.8573573573574,202.515 273.34834834834834,202.515 274.83933933933935,202.515 276.33033033033036,202.515 277.8213213213213,202.515 279.3123123123123,202.515 280.8033033033033,202.515 282.2942942942943,202.515 283.7852852852853,202.515 285.2762762762763,202.515 286.7672672672673,202.515 288.25825825825825,202.515 289.74924924924926,202.515 290.7432432432432,203.57159999999993 292.23423423423424,203.57159999999993 293.72522522522524,203.57159999999993 295.2162162162162,203.57159999999993 296.7072072072072,203.57159999999993 297.70120120120123,204.6282 298.1981981981982,206.03699999999998 299.6891891891892,206.74140000000006 301.1801801801802,206.74140000000006 302.6711711711712,206.74140000000006 304.1621621621622,206.74140000000006 305.65315315315314,206.74140000000006 307.14414414414415,206.74140000000006 308.63513513513516,206.74140000000006 310.1261261261261,206.74140000000006 311.6171171171171,206.74140000000006 313.1081081081081,206.74140000000006 314.59909909909913,206.74140000000006 316.0900900900901,206.74140000000006 317.5810810810811,206.74140000000006 319.0720720720721,206.74140000000006 320.56306306306305,206.74140000000006 322.05405405405406,206.74140000000006 323.5450450450451,206.74140000000006 325.036036036036,206.74140000000006 326.52702702702703,206.74140000000006 328.01801801801804,206.74140000000006 329.509009009009,206.74140000000006 331,206.74140000000006 332.490990990991,206.74140000000006 333.981981981982,206.74140000000006 335.47297297297297,206.74140000000006 336.963963963964,206.74140000000006 338.454954954955,206.74140000000006 339.94594594594594,206.74140000000006 341.43693693693695,206.74140000000006 342.92792792792795,206.74140000000006 344.4189189189189,206.74140000000006 345.9099099099099,206.74140000000006 347.4009009009009,206.74140000000006 348.8918918918919,206.74140000000006 350.3828828828829,206.74140000000006 351.8738738738739,206.74140000000006 353.3648648648649,206.74140000000006 354.85585585585585,206.74140000000006 356.34684684684686,206.74140000000006 357.83783783783787,206.74140000000006 359.3288288288288,206.74140000000006 360.8198198198198,206.74140000000006 362.31081081081084,206.74140000000006 363.8018018018018,206.74140000000006 365.2927927927928,206.74140000000006 366.7837837837838,206.74140000000006 368.2747747747748,206.74140000000006 369.76576576576576,206.74140000000006 371.2567567567568,206.74140000000006 372.7477477477478,207.09359999999992 374.23873873873873,207.09359999999992 375.72972972972974,207.798 377.22072072072075,207.798 378.7117117117117,207.798 380.2027027027027,207.798 381.6936936936937,207.798 383.18468468468467,207.798 384.6756756756757,207.798 386.1666666666667,207.798 387.6576576576577,207.798 389.14864864864865,207.798 390.63963963963965,207.798 392.13063063063066,207.798 393.6216216216216,207.798 395.1126126126126,207.798 396.60360360360363,207.798 398.0945945945946,207.798 399.5855855855856,207.798 401.0765765765766,207.798 402.56756756756755,207.798 404.05855855855856,207.798 405.54954954954957,207.798 407.0405405405406,207.798 408.5315315315315,207.798 410.02252252252254,207.798 411.51351351351354,207.798 413.0045045045045,207.798 414.4954954954955,207.798 415.9864864864865,207.798 417.47747747747746,207.798 418.9684684684685,207.798 420.4594594594595,207.798 421.95045045045043,207.798 423.44144144144144,207.798 424.93243243243245,207.798 426.42342342342346,207.798 427.9144144144144,207.798 429.4054054054054,207.798 430.8963963963964,207.798 432.3873873873874,207.798 433.8783783783784,207.798 435.3693693693694,207.798 436.86036036036035,207.798 438.35135135135135,207.798 439.84234234234236,207.798 441.33333333333337,207.798 442.8243243243243,207.798 444.31531531531533,207.798 445.3093093093093,209.20679999999982 446.8003003003003,209.55900000000003 448.2912912912913,209.55900000000003 449.78228228228227,209.55900000000003 451.2732732732733,209.55900000000003 452.7642642642643,209.55900000000003 454.2552552552553,209.55900000000003 455.74624624624624,209.55900000000003 457.23723723723725,209.55900000000003 458.72822822822826,209.55900000000003 460.2192192192192,209.55900000000003 461.7102102102102,209.55900000000003 463.20120120120123,209.55900000000003 464.6921921921922,209.55900000000003 466.1831831831832,209.55900000000003 467.6741741741742,209.55900000000003 469.16516516516515,209.55900000000003 470.65615615615616,209.55900000000003 472.14714714714717,209.55900000000003 473.6381381381382,209.55900000000003 475.1291291291291,209.55900000000003 476.62012012012013,209.55900000000003 478.11111111111114,209.55900000000003 479.6021021021021,209.55900000000003 481.0930930930931,209.55900000000003 482.5840840840841,209.55900000000003 484.07507507507506,209.55900000000003 485.56606606606607,209.55900000000003 487.0570570570571,209.55900000000003 488.5480480480481,209.55900000000003 490.03903903903904,209.55900000000003 491.53003003003005,209.55900000000003 493.02102102102106,209.55900000000003 494.512012012012,209.55900000000003 496.003003003003,209.55900000000003" style="fill: none; stroke: rgb(0, 0, 255); stroke-width: 3px; stroke-opacity: 1;"></polyline></g></svg></svg><svg id="SvgjsSvg1386" style="overflow: visible;" x="574.5"><svg xmlns="http://www.w3.org/2000/svg" version="1.1" xmlns:xlink="http://www.w3.org/1999/xlink" xmlns:svgjs="http://svgjs.com/svgjs" width="200" height="260"><line id="SvgjsLine1373" x1="15" y1="190" x2="170" y2="190" stroke="gray" stroke-width="0.3"></line><line id="SvgjsLine1365" x1="15" y1="140" x2="170" y2="140" stroke="gray" stroke-width="0.3"></line><line id="SvgjsLine1357" x1="15" y1="90" x2="170" y2="90" stroke="gray" stroke-width="0.3"></line><line id="SvgjsLine1349" x1="15" y1="40" x2="170" y2="40" stroke="gray" stroke-width="0.3"></line><defs id="SvgjsDefs1340"><clipPath id="SvgjsClipPath1348"><rect id="SvgjsRect1347" width="170" height="30"></rect></clipPath><clipPath id="SvgjsClipPath1356"><rect id="SvgjsRect1355" width="170" height="80"></rect></clipPath><clipPath id="SvgjsClipPath1364"><rect id="SvgjsRect1363" width="170" height="130"></rect></clipPath><clipPath id="SvgjsClipPath1372"><rect id="SvgjsRect1371" width="170" height="180"></rect></clipPath><clipPath id="SvgjsClipPath1380"><rect id="SvgjsRect1379" width="170" height="230"></rect></clipPath><clipPath id="SvgjsClipPath1383"><rect id="SvgjsRect1382" width="180" height="260"></rect></clipPath></defs><g id="SvgjsG1341" clip-path="url(&quot;#SvgjsClipPath1383&quot;)"><g id="SvgjsG1342" transform="matrix(1,0,0,1,5,0)"><rect id="SvgjsRect1343" width="170" height="30" fill="white" opacity="0.5"></rect><line id="SvgjsLine1344" x1="0" y1="0" x2="18" y2="18" stroke="#0000ff" stroke-width="3" transform="matrix(1,0,0,1,5,5)"></line><text id="SvgjsText1345" font-family="Arial, Helvetica, sans-serif" font-size="14" font-weight="400" family="Arial, Helvetica, sans-serif" size="14" weight="400" transform="matrix(1,0,0,1,40,0)" svgjs:data="{&quot;leading&quot;:&quot;1.3&quot;}"><tspan id="SvgjsTspan1346" dy="18.2" x="0" svgjs:data="{&quot;newLined&quot;:true}">REPORTER</tspan></text></g><g id="SvgjsG1350" transform="matrix(1,0,0,1,5,50)"><rect id="SvgjsRect1351" width="170" height="30" fill="white" opacity="0.5"></rect><line id="SvgjsLine1352" x1="0" y1="0" x2="18" y2="18" stroke="#6f9975" stroke-width="3" transform="matrix(1,0,0,1,5,5)"></line><text id="SvgjsText1353" font-family="Arial, Helvetica, sans-serif" font-size="14" font-weight="400" family="Arial, Helvetica, sans-serif" size="14" weight="400" transform="matrix(1,0,0,1,40,0)" svgjs:data="{&quot;leading&quot;:&quot;1.3&quot;}"><tspan id="SvgjsTspan1354" dy="18.2" x="0" svgjs:data="{&quot;newLined&quot;:true}">JOIN</tspan></text></g><g id="SvgjsG1358" transform="matrix(1,0,0,1,5,100)"><rect id="SvgjsRect1359" width="170" height="30" fill="white" opacity="0.5"></rect><line id="SvgjsLine1360" x1="0" y1="0" x2="18" y2="18" stroke="#551a8b" stroke-width="3" transform="matrix(1,0,0,1,5,5)"></line><text id="SvgjsText1361" font-family="Arial, Helvetica, sans-serif" font-size="14" font-weight="400" family="Arial, Helvetica, sans-serif" size="14" weight="400" transform="matrix(1,0,0,1,40,0)" svgjs:data="{&quot;leading&quot;:&quot;1.3&quot;}"><tspan id="SvgjsTspan1362" dy="18.2" x="0" svgjs:data="{&quot;newLined&quot;:true}">INPUT</tspan></text></g><g id="SvgjsG1366" transform="matrix(1,0,0,1,5,150)"><rect id="SvgjsRect1367" width="170" height="30" fill="white" opacity="0.5"></rect><line id="SvgjsLine1368" x1="0" y1="0" x2="18" y2="18" stroke="#f4a460" stroke-width="3" transform="matrix(1,0,0,1,5,5)"></line><text id="SvgjsText1369" font-family="Arial, Helvetica, sans-serif" font-size="14" font-weight="400" family="Arial, Helvetica, sans-serif" size="14" weight="400" transform="matrix(1,0,0,1,40,0)" svgjs:data="{&quot;leading&quot;:&quot;1.3&quot;}"><tspan id="SvgjsTspan1370" dy="18.2" x="0" svgjs:data="{&quot;newLined&quot;:true}">FORK</tspan></text></g><g id="SvgjsG1374" transform="matrix(1,0,0,1,5,200)"><rect id="SvgjsRect1375" width="170" height="30" fill="white" opacity="0.5"></rect><line id="SvgjsLine1376" x1="0" y1="0" x2="18" y2="18" stroke="#ff00ff" stroke-width="3" transform="matrix(1,0,0,1,5,5)"></line><text id="SvgjsText1377" font-family="Arial, Helvetica, sans-serif" font-size="14" font-weight="400" family="Arial, Helvetica, sans-serif" size="14" weight="400" transform="matrix(1,0,0,1,40,0)" svgjs:data="{&quot;leading&quot;:&quot;1.3&quot;}"><tspan id="SvgjsTspan1378" dy="18.2" x="0" svgjs:data="{&quot;newLined&quot;:true}">C</tspan></text></g></g></svg></svg></svg>