<svg xmlns="http://www.w3.org/2000/svg" version="1.1" xmlns:xlink="http://www.w3.org/1999/xlink" xmlns:svgjs="http://svgjs.com/svgjs" width="774.5" height="761.4"><defs id="SvgjsDefs1454"></defs><svg id="SvgjsSvg1455" style="overflow: visible;"><svg xmlns="http://www.w3.org/2000/svg" version="1.1" xmlns:xlink="http://www.w3.org/1999/xlink" xmlns:svgjs="http://svgjs.com/svgjs" width="574.5" height="761.4"><defs id="SvgjsDefs1362"></defs><g id="SvgjsG1363" transform="matrix(1,0,0,1,0,0)"><g id="SvgjsG1364" transform="matrix(1,0,0,1,0,0)"><text id="SvgjsText1365" font-family="Arial, Helvetica, sans-serif" font-size="16" font-weight="400" text-anchor="middle" family="Arial, Helvetica, sans-serif" size="16" weight="400" anchor="middle" transform="matrix(0,-1,1,0,0,352.2)" svgjs:data="{&quot;leading&quot;:&quot;1.3&quot;}"><tspan id="SvgjsTspan1366" dy="20.8" x="0" svgjs:data="{&quot;newLined&quot;:true}">Individuals</tspan></text></g><g id="SvgjsG1367" transform="matrix(1,0,0,1,20,0)" width="41" height="704.4"><text id="SvgjsText1368" font-family="Arial, Helvetica, sans-serif" font-size="16px" family="Arial, Helvetica, sans-serif" size="16px" transform="matrix(1,0,0,1,0,694.4000244140625)" svgjs:data="{&quot;leading&quot;:&quot;1.3&quot;}"><tspan id="SvgjsTspan1369" dy="20.8" x="0" svgjs:data="{&quot;newLined&quot;:true}">0</tspan></text><text id="SvgjsText1370" font-family="Arial, Helvetica, sans-serif" font-size="16px" family="Arial, Helvetica, sans-serif" size="16px" transform="matrix(1,0,0,1,0,553.7169799804688)" svgjs:data="{&quot;leading&quot;:&quot;1.3&quot;}"><tspan id="SvgjsTspan1371" dy="20.8" x="0" svgjs:data="{&quot;newLined&quot;:true}">20</tspan></text><text id="SvgjsText1372" font-family="Arial, Helvetica, sans-serif" font-size="16px" family="Arial, Helvetica, sans-serif" size="16px" transform="matrix(1,0,0,1,0,413.0329895019531)" svgjs:data="{&quot;leading&quot;:&quot;1.3&quot;}"><tspan id="SvgjsTspan1373" dy="20.8" x="0" svgjs:data="{&quot;newLined&quot;:true}">40</tspan></text><text id="SvgjsText1374" font-family="Arial, Helvetica, sans-serif" font-size="16px" family="Arial, Helvetica, sans-serif" size="16px" transform="matrix(1,0,0,1,0,272.36700439453125)" svgjs:data="{&quot;leading&quot;:&quot;1.3&quot;}"><tspan id="SvgjsTspan1375" dy="20.8" x="0" svgjs:data="{&quot;newLined&quot;:true}">60</tspan></text><text id="SvgjsText1376" font-family="Arial, Helvetica, sans-serif" font-size="16px" family="Arial, Helvetica, sans-serif" size="16px" transform="matrix(1,0,0,1,0,131.68299865722656)" svgjs:data="{&quot;leading&quot;:&quot;1.3&quot;}"><tspan id="SvgjsTspan1377" dy="20.8" x="0" svgjs:data="{&quot;newLined&quot;:true}">80</tspan></text><text id="SvgjsText1378" font-family="Arial, Helvetica, sans-serif" font-size="16px" family="Arial, Helvetica, sans-serif" size="16px" transform="matrix(1,0,0,1,0,-9)" svgjs:data="{&quot;leading&quot;:&quot;1.3&quot;}"><tspan id="SvgjsTspan1379" dy="20.8" x="0" svgjs:data="{&quot;newLined&quot;:true}">100</tspan></text><path id="SvgjsPath1380" d="M40 0v704.4M40 703.4h-10M40 562.72h-10M40 422.03999999999996h-10M40 281.36h-10M40 140.67999999999995h-10M40 0h-10M40 690.332h-3.3333333333333335M40 676.264h-3.3333333333333335M40 662.196h-3.3333333333333335M40 648.1279999999999h-3.3333333333333335M40 634.06h-3.3333333333333335M40 619.992h-3.3333333333333335M40 605.924h-3.3333333333333335M40 591.856h-3.3333333333333335M40 577.788h-3.3333333333333335M40 549.652h-3.3333333333333335M40 535.584h-3.3333333333333335M40 521.516h-3.3333333333333335M40 507.448h-3.3333333333333335M40 493.38h-3.3333333333333335M40 479.312h-3.3333333333333335M40 465.24399999999997h-3.3333333333333335M40 451.176h-3.3333333333333335M40 437.108h-3.3333333333333335M40 408.972h-3.3333333333333335M40 394.904h-3.3333333333333335M40 380.836h-3.3333333333333335M40 366.768h-3.3333333333333335M40 352.7h-3.3333333333333335M40 338.632h-3.3333333333333335M40 324.56399999999996h-3.3333333333333335M40 310.496h-3.3333333333333335M40 296.428h-3.3333333333333335M40 268.292h-3.3333333333333335M40 254.224h-3.3333333333333335M40 240.156h-3.3333333333333335M40 226.08799999999997h-3.3333333333333335M40 212.01999999999998h-3.3333333333333335M40 197.952h-3.3333333333333335M40 183.88400000000001h-3.3333333333333335M40 169.81600000000003h-3.3333333333333335M40 155.74800000000005h-3.3333333333333335M40 127.61199999999997h-3.3333333333333335M40 113.54399999999998h-3.3333333333333335M40 99.476h-3.3333333333333335M40 85.40800000000002h-3.3333333333333335M40 71.34000000000003h-3.3333333333333335M40 57.27200000000005h-3.3333333333333335M40 43.20399999999995h-3.3333333333333335M40 29.135999999999967h-3.3333333333333335M40 15.067999999999984h-3.3333333333333335" stroke="#000000" fill="none"></path></g></g><g id="SvgjsG1381"><g id="SvgjsG1382" transform="matrix(1,0,0,1,61,0)"><text id="SvgjsText1383" font-family="Arial, Helvetica, sans-serif" font-size="16" font-weight="400" text-anchor="middle" family="Arial, Helvetica, sans-serif" size="16" weight="400" anchor="middle" transform="matrix(1,0,0,1,0,0)" svgjs:data="{&quot;leading&quot;:&quot;1.3&quot;}"><tspan id="SvgjsTspan1384" dy="20.8" x="0" svgjs:data="{&quot;newLined&quot;:true}"></tspan></text></g></g><g id="SvgjsG1385"><g id="SvgjsG1386" transform="matrix(1,0,0,1,61,704.4)" width="513.5" height="29"><text id="SvgjsText1387" font-family="Arial, Helvetica, sans-serif" font-size="16px" family="Arial, Helvetica, sans-serif" size="16px" transform="matrix(1,0,0,1,-4.5,10)" svgjs:data="{&quot;leading&quot;:&quot;1.3&quot;}"><tspan id="SvgjsTspan1388" dy="20.8" x="0" svgjs:data="{&quot;newLined&quot;:true}">0</tspan></text><text id="SvgjsText1389" font-family="Arial, Helvetica, sans-serif" font-size="16px" family="Arial, Helvetica, sans-serif" size="16px" transform="matrix(1,0,0,1,234,10)" svgjs:data="{&quot;leading&quot;:&quot;1.3&quot;}"><tspan id="SvgjsTspan1390" dy="20.8" x="0" svgjs:data="{&quot;newLined&quot;:true}">50000</tspan></text><path id="SvgjsPath1391" d="M0 0h513.5M0 0v10M256.50650650650647 0v10M25.65065065065065 0v3.3333333333333335M51.3013013013013 0v3.3333333333333335M76.95195195195195 0v3.3333333333333335M102.6026026026026 0v3.3333333333333335M128.25325325325323 0v3.3333333333333335M153.9039039039039 0v3.3333333333333335M179.55455455455456 0v3.3333333333333335M205.2052052052052 0v3.3333333333333335M230.85585585585585 0v3.3333333333333335M282.15715715715714 0v3.3333333333333335M307.8078078078078 0v3.3333333333333335M333.45845845845844 0v3.3333333333333335M359.1091091091091 0v3.3333333333333335M384.75975975975973 0v3.3333333333333335M410.4104104104104 0v3.3333333333333335M436.061061061061 0v3.3333333333333335M461.7117117117117 0v3.3333333333333335M487.3623623623623 0v3.3333333333333335" stroke="#000000" fill="none"></path></g><g id="SvgjsG1392" transform="matrix(1,0,0,1,61,733.4)"><text id="SvgjsText1393" font-family="Arial, Helvetica, sans-serif" font-size="16" font-weight="400" text-anchor="middle" family="Arial, Helvetica, sans-serif" size="16" weight="400" anchor="middle" transform="matrix(1,0,0,1,256.75,-9)" svgjs:data="{&quot;leading&quot;:&quot;1.3&quot;}"><tspan id="SvgjsTspan1394" dy="20.8" x="0" svgjs:data="{&quot;newLined&quot;:true}">Time (s)</tspan></text></g></g><g id="SvgjsG1395"></g><g id="SvgjsG1396" viewBox="0 0 513.5 704.4" transform="matrix(1,0,0,1,61,0)"><polyline id="SvgjsPolyline1397" points="0,0 0,703.4" stroke="LightGray" stroke-width="1" fill="none"></polyline><polyline id="SvgjsPolyline1398" points="256.50650650650647,0 256.50650650650647,703.4" stroke="LightGray" stroke-width="1" fill="none"></polyline><polyline id="SvgjsPolyline1399" points="0,703.4 512.5,703.4" stroke="LightGray" stroke-width="1" fill="none"></polyline><polyline id="SvgjsPolyline1400" points="0,562.72 512.5,562.72" stroke="LightGray" stroke-width="1" fill="none"></polyline><polyline id="SvgjsPolyline1401" points="0,422.03999999999996 512.5,422.03999999999996" stroke="LightGray" stroke-width="1" fill="none"></polyline><polyline id="SvgjsPolyline1402" points="0,281.36 512.5,281.36" stroke="LightGray" stroke-width="1" fill="none"></polyline><polyline id="SvgjsPolyline1403" points="0,140.67999999999995 512.5,140.67999999999995" stroke="LightGray" stroke-width="1" fill="none"></polyline><polyline id="SvgjsPolyline1404" points="0,0 512.5,0" stroke="LightGray" stroke-width="1" fill="none"></polyline><polyline id="SvgjsPolyline1405" points="0,704.4 0.514014014014014,701.5824 1.028028028028028,693.834 1.5420420420420422,686.79 2.056056056056056,664.9535999999999 2.57007007007007,639.5952 3.0840840840840844,622.6895999999999 3.5980980980980983,612.1236 4.112112112112112,602.262 4.626126126126127,596.6268 5.14014014014014,590.9916 5.6541541541541545,580.4256 6.682182182182182,578.3124 7.196196196196197,573.3815999999999 7.710210210210211,569.1551999999999 8.224224224224224,565.6332 8.738238238238239,564.2244000000001 9.252252252252253,561.4068 9.766266266266268,558.5892 10.28028028028028,553.6584 11.308308308308309,551.5452 11.822322322322323,548.0232 12.336336336336338,546.6143999999999 12.850350350350352,545.2056 13.364364364364365,539.5704000000001 13.878378378378379,536.7528 14.906406406406408,536.0484 15.420420420420422,533.9352 16.44844844844845,533.9352 17.476476476476478,533.2308 18.504504504504506,531.822 19.532532532532535,531.1176 20.56056056056056,529.7088 21.58858858858859,529.7088 22.616616616616618,529.0044 23.13063063063063,527.5956 24.15865865865866,527.5956 25.186686686686688,527.5956 25.700700700700704,526.1868 26.72872872872873,526.1868 27.756756756756758,526.1868 28.784784784784787,526.1868 29.812812812812815,525.4824 30.840840840840844,524.778 31.86886886886887,524.778 32.8968968968969,523.3692 33.92492492492493,522.6648 34.952952952952955,522.6648 35.46696696696697,521.256 36.494994994995,521.256 37.52302302302302,520.5516 38.551051051051054,520.5516 39.57907907907908,520.5516 40.60710710710711,519.8471999999999 41.63513513513514,519.8471999999999 42.66316316316317,519.1428 43.691191191191194,519.1428 44.71921921921922,519.1428 45.74724724724725,519.1428 46.77527527527528,519.1428 47.80330330330331,519.1428 48.831331331331334,519.1428 49.85935935935936,517.7339999999999 50.88738738738739,516.3252 51.91541541541542,516.3252 52.94344344344345,516.3252 53.971471471471475,515.6207999999999 54.9994994994995,515.6207999999999 56.02752752752753,515.6207999999999 57.05555555555556,514.9164000000001 58.08358358358359,514.212 59.111611611611615,514.212 60.13963963963964,514.212 61.16766766766767,514.212 62.1956956956957,514.212 63.22372372372373,514.212 63.73773773773774,512.8032000000001 64.76576576576576,512.8032000000001 65.7937937937938,511.3944 66.82182182182183,511.3944 67.84984984984986,511.3944 68.87787787787788,511.3944 69.90590590590591,511.3944 70.93393393393394,511.3944 71.96196196196196,511.3944 72.98998998999,510.69 74.01801801801803,510.69 75.04604604604604,510.69 76.07407407407408,510.69 77.10210210210211,510.69 78.13013013013014,510.69 79.15815815815816,510.69 80.18618618618619,510.69 81.21421421421422,509.9856 82.24224224224224,509.9856 83.27027027027027,509.9856 84.2982982982983,509.9856 85.32632632632634,509.9856 86.35435435435436,507.87239999999997 87.38238238238239,507.87239999999997 88.41041041041042,507.87239999999997 89.43843843843844,507.87239999999997 90.46646646646647,507.87239999999997 91.4944944944945,507.168 92.52252252252252,507.168 93.55055055055055,507.168 94.57857857857859,507.168 95.60660660660662,507.168 96.63463463463464,507.168 97.66266266266267,507.168 98.6906906906907,507.168 99.71871871871872,507.168 100.74674674674675,507.168 101.77477477477478,507.168 102.80280280280282,507.168 103.83083083083083,507.168 104.85885885885887,507.168 105.8868868868869,507.168 106.91491491491492,507.168 107.94294294294295,507.168 108.97097097097098,507.168 109.998998998999,507.168 111.02702702702703,507.168 112.05505505505506,507.168 113.0830830830831,507.168 114.11111111111111,507.168 115.13913913913915,507.168 116.16716716716718,507.168 117.1951951951952,507.168 118.22322322322323,507.168 119.25125125125126,507.168 120.27927927927928,506.4636 121.30730730730731,506.4636 122.33533533533534,506.4636 123.36336336336338,506.4636 124.3913913913914,506.4636 124.90540540540542,505.0548 125.93343343343344,505.0548 126.96146146146147,505.0548 127.9894894894895,505.0548 129.01751751751752,505.0548 130.04554554554556,504.35040000000004 131.07357357357358,504.35040000000004 132.1016016016016,504.35040000000004 133.12962962962965,504.35040000000004 134.15765765765767,504.35040000000004 135.18568568568568,504.35040000000004 136.21371371371373,504.35040000000004 137.24174174174175,504.35040000000004 138.26976976976977,504.35040000000004 139.2977977977978,504.35040000000004 140.32582582582583,504.35040000000004 141.35385385385385,504.35040000000004 142.3818818818819,504.35040000000004 142.8958958958959,502.9416 143.92392392392392,502.9416 144.95195195195197,502.9416 145.97997997998,502.9416 147.008008008008,502.9416 148.03603603603605,502.9416 149.06406406406407,502.9416 150.0920920920921,502.9416 151.12012012012013,502.9416 152.14814814814815,502.9416 153.1761761761762,502.9416 154.20420420420422,502.9416 155.23223223223223,502.9416 156.26026026026028,502.9416 157.2882882882883,502.9416 158.31631631631632,502.9416 159.34434434434436,502.9416 160.37237237237238,502.9416 161.4004004004004,502.9416 162.42842842842845,502.9416 163.45645645645646,502.9416 164.48448448448448,502.9416 165.51251251251253,502.9416 166.02652652652654,501.53279999999995 167.05455455455456,501.53279999999995 168.0825825825826,501.53279999999995 169.11061061061062,501.53279999999995 170.13863863863864,501.53279999999995 171.16666666666669,501.53279999999995 172.1946946946947,501.53279999999995 173.22272272272272,500.8284 174.25075075075077,500.8284 175.2787787787788,500.8284 176.3068068068068,500.8284 177.33483483483485,500.8284 178.36286286286287,500.8284 179.39089089089092,500.8284 180.41891891891893,500.8284 181.44694694694695,500.8284 182.474974974975,500.8284 183.50300300300302,500.8284 184.53103103103103,500.8284 185.55905905905908,500.8284 186.5870870870871,500.8284 187.61511511511512,500.8284 188.64314314314316,500.8284 189.67117117117118,500.8284 190.6991991991992,500.8284 191.72722722722725,500.8284 192.75525525525526,500.8284 193.78328328328328,500.8284 194.81131131131133,500.8284 195.83933933933935,500.8284 196.8673673673674,500.8284 197.8953953953954,500.8284 198.92342342342343,500.8284 199.95145145145148,500.8284 200.9794794794795,500.8284 202.0075075075075,500.8284 203.03553553553556,500.8284 204.06356356356358,500.8284 205.0915915915916,500.8284 206.11961961961964,500.8284 207.14764764764766,500.8284 208.17567567567568,500.8284 209.20370370370372,500.8284 210.23173173173174,500.8284 211.25975975975976,500.8284 212.2877877877878,500.8284 213.31581581581582,500.8284 214.34384384384387,500.8284 215.3718718718719,500.8284 216.3998998998999,500.8284 217.42792792792795,500.8284 218.45595595595597,500.8284 219.483983983984,500.8284 220.51201201201204,500.8284 221.54004004004005,500.8284 222.56806806806807,500.8284 223.59609609609612,500.8284 224.62412412412414,500.8284 225.65215215215215,500.8284 226.6801801801802,500.8284 227.70820820820822,500.8284 228.73623623623624,500.8284 229.76426426426428,500.8284 230.7922922922923,500.8284 231.82032032032032,500.8284 232.84834834834837,500.8284 233.87637637637638,500.8284 234.90440440440443,500.8284 235.93243243243245,500.8284 236.96046046046047,500.8284 237.9884884884885,500.8284 239.01651651651653,500.8284 240.04454454454455,500.8284 241.0725725725726,500.8284 242.10060060060061,500.8284 243.12862862862863,500.8284 244.15665665665668,500.8284 245.1846846846847,500.8284 246.21271271271272,500.8284 247.24074074074076,500.8284 248.26876876876878,500.8284 249.2967967967968,500.8284 250.32482482482484,500.8284 251.35285285285286,500.8284 252.3808808808809,500.8284 253.40890890890893,500.8284 254.43693693693695,500.8284 255.464964964965,500.8284 256.492992992993,500.8284 257.52102102102106,500.8284 258.5490490490491,500.8284 259.5770770770771,500.8284 260.6051051051051,500.8284 261.63313313313313,500.8284 262.6611611611612,500.8284 263.6891891891892,500.8284 264.71721721721724,500.8284 265.74524524524526,500.8284 266.7732732732733,500.8284 267.8013013013013,500.8284 268.82932932932937,500.8284 269.8573573573574,500.8284 270.8853853853854,500.8284 271.9134134134134,500.8284 272.94144144144144,500.8284 273.96946946946946,500.8284 274.99749749749753,500.8284 276.02552552552555,500.8284 277.05355355355357,500.8284 278.0815815815816,500.8284 279.1096096096096,500.8284 280.1376376376377,500.8284 281.1656656656657,500.8284 282.1936936936937,500.8284 283.22172172172174,500.8284 284.24974974974975,500.8284 285.27777777777777,500.8284 286.30580580580585,500.8284 287.33383383383386,500.8284 288.3618618618619,500.8284 289.3898898898899,500.8284 290.4179179179179,500.8284 291.44594594594594,500.8284 292.473973973974,500.8284 293.50200200200203,500.8284 294.53003003003005,500.8284 295.55805805805807,500.8284 296.5860860860861,500.8284 297.61411411411416,500.8284 298.6421421421422,500.8284 299.6701701701702,500.8284 300.6981981981982,500.8284 301.72622622622623,500.8284 302.75425425425425,500.8284 303.7822822822823,500.8284 304.81031031031034,500.8284 305.83833833833836,500.8284 306.8663663663664,500.8284 307.8943943943944,500.8284 308.9224224224224,500.8284 309.9504504504505,500.8284 310.9784784784785,500.8284 312.0065065065065,500.8284 313.03453453453454,500.8284 314.06256256256256,500.8284 315.09059059059064,500.8284 316.11861861861865,500.8284 317.1466466466467,500.8284 318.1746746746747,500.8284 319.2027027027027,500.8284 320.2307307307307,500.8284 321.2587587587588,500.8284 322.2867867867868,500.8284 323.31481481481484,500.8284 324.34284284284286,500.8284 325.3708708708709,500.8284 326.3988988988989,500.8284 327.42692692692697,500.8284 328.454954954955,500.8284 329.482982982983,500.8284 330.511011011011,500.8284 331.53903903903904,500.8284 332.5670670670671,500.8284 333.59509509509513,500.8284 334.62312312312315,500.8284 335.65115115115117,500.8284 336.6791791791792,500.8284 337.7072072072072,500.8284 338.7352352352353,500.8284 339.7632632632633,500.8284 340.7912912912913,500.8284 341.81931931931933,500.8284 342.84734734734735,500.8284 343.87537537537537,500.8284 344.90340340340344,500.8284 345.93143143143146,500.8284 346.9594594594595,500.8284 347.9874874874875,500.8284 349.0155155155155,500.8284 350.0435435435436,500.8284 351.0715715715716,500.8284 352.0995995995996,500.8284 353.12762762762765,500.8284 354.15565565565566,500.8284 355.1836836836837,500.8284 356.21171171171176,500.8284 357.2397397397398,500.8284 358.2677677677678,500.8284 359.2957957957958,500.8284 360.32382382382383,500.8284 361.35185185185185,500.8284 362.3798798798799,500.8284 363.40790790790794,500.8284 364.43593593593596,500.8284 365.463963963964,500.8284 366.491991991992,500.8284 367.52002002002007,500.8284 368.5480480480481,500.8284 369.5760760760761,500.8284 370.6041041041041,500.8284 371.63213213213214,500.8284 372.66016016016016,500.8284 373.68818818818824,500.8284 374.71621621621625,500.8284 375.74424424424427,500.8284 376.7722722722723,500.8284 377.8003003003003,500.8284 378.8283283283283,500.8284 379.8563563563564,500.8284 380.8843843843844,500.8284 381.91241241241244,500.8284 382.94044044044045,500.8284 383.9684684684685,500.8284 384.99649649649655,500.8284 386.02452452452457,500.8284 387.0525525525526,500.8284 388.0805805805806,500.8284 389.1086086086086,500.8284 390.13663663663664,500.8284 391.1646646646647,500.8284 392.19269269269273,500.8284 393.22072072072075,500.8284 394.24874874874877,500.8284 395.2767767767768,500.8284 396.3048048048048,500.8284 397.3328328328329,500.8284 398.3608608608609,500.8284 399.3888888888889,500.8284 400.41691691691693,500.8284 401.44494494494495,500.8284 402.472972972973,500.8284 403.50100100100104,500.8284 404.52902902902906,500.8284 405.5570570570571,500.8284 406.5850850850851,500.8284 407.6131131131131,500.8284 408.6411411411412,500.8284 409.6691691691692,500.8284 410.6971971971972,500.8284 411.72522522522524,500.8284 412.75325325325326,500.8284 413.7812812812813,500.8284 414.80930930930936,500.8284 415.8373373373374,500.8284 416.8653653653654,500.8284 417.8933933933934,500.8284 418.9214214214214,500.8284 419.9494494494495,500.8284 420.9774774774775,500.8284 422.00550550550554,500.8284 423.03353353353356,500.8284 424.0615615615616,500.8284 425.0895895895896,500.8284 426.11761761761767,500.8284 427.1456456456457,500.8284 428.1736736736737,500.8284 429.2017017017017,500.8284 430.22972972972974,500.8284 431.25775775775776,500.8284 432.28578578578583,500.8284 433.31381381381385,500.8284 434.34184184184187,500.8284 435.3698698698699,500.8284 436.3978978978979,500.8284 437.425925925926,500.8284 438.453953953954,500.8284 439.481981981982,500.8284 440.51001001001003,500.8284 441.53803803803805,500.8284 442.56606606606607,500.8284 443.59409409409415,500.8284 444.62212212212216,500.8284 445.6501501501502,500.8284 446.6781781781782,500.8284 447.7062062062062,500.8284 448.73423423423424,500.8284 449.7622622622623,500.8284 450.79029029029033,500.8284 451.81831831831835,500.8284 452.84634634634637,500.8284 453.8743743743744,500.8284 454.9024024024024,500.8284 455.9304304304305,500.8284 456.9584584584585,500.8284 457.9864864864865,500.8284 459.01451451451453,500.8284 460.04254254254255,500.124 461.0705705705706,500.124 462.09859859859864,500.124 463.12662662662666,500.124 464.1546546546547,498.7152 465.1826826826827,498.7152 466.2107107107107,498.7152 467.2387387387388,498.7152 468.2667667667668,498.7152 469.2947947947948,498.7152 470.32282282282284,498.7152 471.35085085085086,498.7152 472.3788788788789,498.0108 473.40690690690695,498.0108 474.434934934935,498.0108 475.462962962963,498.0108 476.490990990991,498.0108 477.519019019019,498.0108 478.5470470470471,498.0108 479.5750750750751,498.0108 480.60310310310314,498.0108 481.63113113113116,498.0108 482.6591591591592,498.0108 483.6871871871872,498.0108 484.71521521521527,498.0108 485.7432432432433,498.0108 486.7712712712713,498.0108 487.7992992992993,498.0108 488.82732732732734,498.0108 489.85535535535536,498.0108 490.88338338338343,498.0108 491.91141141141145,498.0108 492.93943943943947,498.0108 493.9674674674675,498.0108 494.9954954954955,498.0108 496.0235235235236,498.0108 497.0515515515516,498.0108 498.0795795795796,498.0108 499.10760760760763,498.0108 500.13563563563565,498.0108 501.16366366366367,498.0108 502.19169169169174,498.0108 503.21971971971976,498.0108 503.73373373373374,496.602 504.7617617617618,496.602 505.78978978978984,496.602 506.81781781781785,496.602 507.8458458458459,496.602 508.8738738738739,496.602 509.9019019019019,496.602 510.92992992993,496.602 511.957957957958,495.8976 512.985985985986,495.8976" style="fill: none; stroke: rgb(255, 0, 255); stroke-width: 3px; stroke-opacity: 1;"></polyline><polyline id="SvgjsPolyline1406" points="0,493.08 0.514014014014014,510.69 1.028028028028028,524.0735999999999 1.5420420420420422,543.0924 2.056056056056056,558.5892 2.57007007007007,574.7904 3.0840840840840844,594.5136 3.5980980980980983,601.5576 4.112112112112112,604.3752 4.626126126126127,610.7148 5.14014014014014,624.8027999999999 5.6541541541541545,628.3248 6.168168168168169,626.9159999999999 6.682182182182182,625.5072 7.196196196196197,633.96 8.224224224224224,636.7776 8.738238238238239,645.9348 9.252252252252253,640.2996 9.766266266266268,645.2303999999999 10.28028028028028,651.5699999999999 11.308308308308309,650.8656 11.822322322322323,656.5008 12.336336336336338,654.3876 12.850350350350352,655.7964 13.364364364364365,658.614 13.878378378378379,664.2492 14.392392392392393,660.7272 14.906406406406408,664.2492 15.934434434434435,664.9535999999999 16.962462462462465,663.5448 17.476476476476478,668.4756 18.504504504504506,671.2932 19.01851851851852,668.4756 20.046546546546548,667.7712 20.56056056056056,669.8844 21.074574574574577,668.4756 21.58858858858859,670.5888 22.102602602602605,669.18 22.616616616616618,670.5888 23.644644644644647,669.8844 24.15865865865866,671.9975999999999 24.672672672672675,670.5888 25.700700700700704,672.702 26.72872872872873,671.9975999999999 27.242742742742745,673.4064 27.756756756756758,671.9975999999999 28.784784784784787,673.4064 29.2987987987988,676.9284 29.812812812812815,674.8152 30.326826826826828,671.9975999999999 30.840840840840844,673.4064 31.354854854854857,674.8152 31.86886886886887,672.702 32.8968968968969,674.8152 33.92492492492493,676.2239999999999 34.952952952952955,674.8152 35.46696696696697,676.2239999999999 36.494994994995,679.746 37.00900900900901,676.9284 38.03703703703704,676.9284 39.06506506506507,677.6328 40.093093093093096,676.9284 40.60710710710711,679.0416 41.63513513513514,678.3371999999999 42.66316316316317,679.746 43.691191191191194,679.0416 44.71921921921922,679.746 45.74724724724725,678.3371999999999 46.77527527527528,679.746 47.28928928928929,678.3371999999999 47.80330330330331,681.1548 48.31731731731732,679.746 48.831331331331334,681.1548 49.85935935935936,681.8592 50.88738738738739,681.1548 51.40140140140141,683.268 52.42942942942943,682.5636 52.94344344344345,681.1548 53.971471471471475,681.8592 54.9994994994995,686.79 55.513513513513516,681.8592 56.02752752752753,683.9724 56.54154154154155,685.3812 57.56956956956957,684.6768 58.08358358358359,683.268 59.111611611611615,683.9724 60.13963963963964,684.6768 60.653653653653656,683.268 61.68168168168169,683.268 62.70970970970971,686.0856 63.22372372372373,684.6768 64.25175175175175,686.0856 64.76576576576576,684.6768 65.27977977977979,686.0856 66.3078078078078,686.0856 67.33583583583584,686.0856 67.84984984984986,687.4943999999999 68.36386386386387,686.0856 69.3918918918919,686.0856 70.41991991991992,688.1988 70.93393393393394,686.0856 71.96196196196196,686.0856 72.98998998999,688.1988 73.504004004004,686.79 74.53203203203203,686.79 75.04604604604604,688.1988 76.07407407407408,686.79 77.10210210210211,686.79 78.13013013013014,686.79 79.15815815815816,686.79 80.18618618618619,687.4943999999999 81.21421421421422,687.4943999999999 82.24224224224224,687.4943999999999 83.27027027027027,687.4943999999999 84.2982982982983,687.4943999999999 85.32632632632634,687.4943999999999 85.84034034034035,688.9032 86.86836836836838,689.6075999999999 87.8963963963964,689.6075999999999 88.92442442442443,690.312 89.95245245245246,689.6075999999999 90.98048048048048,690.312 92.00850850850851,690.312 93.03653653653654,690.312 94.06456456456458,690.312 95.0925925925926,690.312 96.12062062062063,690.312 97.14864864864866,690.312 98.17667667667668,690.312 99.20470470470471,690.312 100.23273273273274,690.312 101.26076076076076,690.312 102.28878878878879,690.312 103.31681681681683,690.312 103.83083083083083,691.7207999999999 104.85885885885887,691.0164 105.8868868868869,690.312 106.91491491491492,690.312 107.94294294294295,690.312 108.97097097097098,690.312 109.998998998999,690.312 111.02702702702703,690.312 111.54104104104105,692.4252 112.05505505505506,690.312 113.0830830830831,690.312 114.11111111111111,690.312 115.13913913913915,690.312 116.16716716716718,690.312 117.1951951951952,690.312 118.22322322322323,690.312 119.25125125125126,691.0164 120.27927927927928,691.0164 121.30730730730731,691.0164 122.33533533533534,691.0164 123.36336336336338,691.0164 124.3913913913914,691.0164 124.90540540540542,692.4252 125.93343343343344,692.4252 126.96146146146147,692.4252 127.9894894894895,692.4252 129.01751751751752,692.4252 130.04554554554556,693.834 131.07357357357358,693.1296 132.1016016016016,693.1296 133.12962962962965,693.1296 134.15765765765767,693.1296 135.18568568568568,693.1296 136.21371371371373,693.1296 137.24174174174175,693.1296 138.26976976976977,693.1296 139.2977977977978,693.1296 140.32582582582583,694.5384 140.83983983983984,693.1296 141.8678678678679,693.1296 142.8958958958959,694.5384 143.92392392392392,694.5384 144.95195195195197,694.5384 145.97997997998,695.2428 147.008008008008,694.5384 147.52202202202204,695.9472 148.55005005005006,694.5384 149.57807807807808,694.5384 150.60610610610613,694.5384 151.12012012012013,695.9472 151.63413413413414,694.5384 152.66216216216216,696.6516 153.1761761761762,694.5384 154.20420420420422,694.5384 155.23223223223223,695.2428 156.26026026026028,694.5384 157.2882882882883,695.2428 158.31631631631632,694.5384 159.34434434434436,694.5384 160.37237237237238,694.5384 161.4004004004004,694.5384 162.42842842842845,694.5384 163.45645645645646,694.5384 164.48448448448448,694.5384 165.51251251251253,694.5384 166.02652652652654,695.9472 167.05455455455456,695.9472 168.0825825825826,695.9472 169.11061061061062,695.9472 169.62462462462463,697.356 170.65265265265268,696.6516 171.6806806806807,695.9472 172.7087087087087,695.9472 173.73673673673676,696.6516 174.76476476476478,696.6516 175.7927927927928,696.6516 176.82082082082084,697.356 177.84884884884886,696.6516 178.87687687687688,696.6516 179.90490490490492,696.6516 180.93293293293294,696.6516 181.96096096096096,696.6516 182.988988988989,696.6516 184.01701701701703,696.6516 185.04504504504504,696.6516 186.0730730730731,696.6516 187.1011011011011,696.6516 188.12912912912915,697.356 189.15715715715717,696.6516 190.1851851851852,696.6516 191.21321321321324,696.6516 192.24124124124126,696.6516 193.26926926926927,698.0604 193.78328328328328,696.6516 194.81131131131133,696.6516 195.83933933933935,696.6516 196.8673673673674,696.6516 197.8953953953954,696.6516 198.40940940940942,698.0604 198.92342342342343,696.6516 199.95145145145148,696.6516 200.9794794794795,697.356 202.0075075075075,696.6516 203.03553553553556,697.356 204.06356356356358,696.6516 205.0915915915916,696.6516 206.11961961961964,696.6516 207.14764764764766,696.6516 208.17567567567568,697.356 209.20370370370372,696.6516 210.23173173173174,696.6516 211.25975975975976,696.6516 212.2877877877878,696.6516 213.31581581581582,696.6516 214.34384384384387,696.6516 215.3718718718719,696.6516 216.3998998998999,696.6516 217.42792792792795,696.6516 218.45595595595597,696.6516 219.483983983984,697.356 220.51201201201204,696.6516 221.54004004004005,696.6516 222.56806806806807,696.6516 223.59609609609612,696.6516 224.62412412412414,696.6516 225.65215215215215,696.6516 226.6801801801802,696.6516 227.70820820820822,696.6516 228.73623623623624,696.6516 229.76426426426428,696.6516 230.7922922922923,696.6516 231.82032032032032,696.6516 232.84834834834837,696.6516 233.87637637637638,696.6516 234.90440440440443,696.6516 235.93243243243245,696.6516 236.96046046046047,696.6516 237.9884884884885,696.6516 239.01651651651653,696.6516 240.04454454454455,698.0604 241.0725725725726,696.6516 242.10060060060061,696.6516 243.12862862862863,696.6516 244.15665665665668,696.6516 245.1846846846847,696.6516 246.21271271271272,696.6516 247.24074074074076,696.6516 248.26876876876878,696.6516 249.2967967967968,696.6516 250.32482482482484,696.6516 251.35285285285286,696.6516 252.3808808808809,696.6516 253.40890890890893,696.6516 254.43693693693695,696.6516 255.464964964965,696.6516 256.492992992993,696.6516 257.007007007007,698.0604 257.52102102102106,696.6516 258.5490490490491,696.6516 259.5770770770771,696.6516 260.6051051051051,696.6516 261.63313313313313,696.6516 262.6611611611612,696.6516 263.6891891891892,696.6516 264.71721721721724,697.356 265.74524524524526,697.356 266.7732732732733,696.6516 267.8013013013013,697.356 268.82932932932937,696.6516 269.8573573573574,696.6516 270.8853853853854,696.6516 271.9134134134134,696.6516 272.94144144144144,696.6516 273.96946946946946,696.6516 274.99749749749753,696.6516 276.02552552552555,696.6516 277.05355355355357,696.6516 278.0815815815816,696.6516 279.1096096096096,696.6516 280.1376376376377,696.6516 281.1656656656657,696.6516 282.1936936936937,696.6516 283.22172172172174,696.6516 284.24974974974975,696.6516 285.27777777777777,696.6516 285.7917917917918,698.0604 286.30580580580585,696.6516 287.33383383383386,696.6516 288.3618618618619,696.6516 289.3898898898899,696.6516 290.4179179179179,696.6516 291.44594594594594,696.6516 292.473973973974,696.6516 293.50200200200203,697.356 294.53003003003005,696.6516 295.55805805805807,696.6516 296.5860860860861,696.6516 297.61411411411416,696.6516 298.6421421421422,696.6516 299.6701701701702,696.6516 300.6981981981982,696.6516 301.72622622622623,697.356 302.75425425425425,696.6516 303.7822822822823,696.6516 304.81031031031034,696.6516 305.83833833833836,696.6516 306.8663663663664,696.6516 307.8943943943944,696.6516 308.9224224224224,696.6516 309.9504504504505,696.6516 310.9784784784785,696.6516 312.0065065065065,696.6516 313.03453453453454,696.6516 314.06256256256256,696.6516 315.09059059059064,696.6516 316.11861861861865,696.6516 317.1466466466467,696.6516 318.1746746746747,696.6516 319.2027027027027,696.6516 320.2307307307307,696.6516 321.2587587587588,696.6516 322.2867867867868,696.6516 323.31481481481484,696.6516 324.34284284284286,698.0604 324.8568568568569,696.6516 325.8848848848849,696.6516 326.91291291291293,696.6516 327.94094094094095,696.6516 328.96896896896897,697.356 329.99699699699704,696.6516 331.02502502502506,696.6516 332.0530530530531,696.6516 333.0810810810811,696.6516 334.1091091091091,696.6516 334.62312312312315,698.7647999999999 335.13713713713713,696.6516 336.1651651651652,696.6516 337.1931931931932,697.356 338.22122122122124,696.6516 339.24924924924926,696.6516 340.2772772772773,696.6516 341.30530530530535,696.6516 342.33333333333337,696.6516 343.3613613613614,696.6516 344.3893893893894,696.6516 345.4174174174174,696.6516 346.44544544544544,696.6516 347.4734734734735,698.0604 347.9874874874875,696.6516 349.0155155155155,696.6516 350.0435435435436,696.6516 351.0715715715716,696.6516 352.0995995995996,696.6516 353.12762762762765,696.6516 354.15565565565566,696.6516 355.1836836836837,696.6516 356.21171171171176,696.6516 356.72572572572574,698.0604 357.2397397397398,696.6516 357.75375375375376,698.0604 358.78178178178183,696.6516 359.80980980980985,696.6516 360.83783783783787,696.6516 361.8658658658659,696.6516 362.8938938938939,696.6516 363.9219219219219,696.6516 364.94994994995,697.356 365.977977977978,696.6516 367.00600600600603,696.6516 368.03403403403405,696.6516 369.06206206206207,697.356 370.0900900900901,696.6516 371.11811811811816,696.6516 372.1461461461462,696.6516 373.1741741741742,696.6516 374.2022022022022,696.6516 375.23023023023023,696.6516 376.2582582582583,696.6516 377.2862862862863,696.6516 378.31431431431434,696.6516 379.34234234234236,696.6516 380.3703703703704,696.6516 381.3983983983984,696.6516 382.4264264264265,696.6516 383.4544544544545,696.6516 384.4824824824825,697.356 385.5105105105105,696.6516 386.53853853853855,696.6516 387.56656656656656,696.6516 388.59459459459464,696.6516 389.62262262262266,696.6516 390.6506506506507,696.6516 391.6786786786787,696.6516 392.7067067067067,696.6516 393.7347347347348,696.6516 394.7627627627628,696.6516 395.7907907907908,696.6516 396.81881881881884,696.6516 397.84684684684686,696.6516 398.8748748748749,696.6516 399.90290290290295,696.6516 400.93093093093097,696.6516 401.958958958959,696.6516 402.472972972973,698.0604 402.986986986987,696.6516 404.015015015015,696.6516 405.04304304304304,696.6516 406.0710710710711,696.6516 407.09909909909913,696.6516 408.12712712712715,696.6516 409.15515515515517,696.6516 410.1831831831832,696.6516 411.21121121121126,696.6516 412.2392392392393,696.6516 413.2672672672673,696.6516 414.2952952952953,696.6516 415.32332332332334,697.356 416.35135135135135,696.6516 417.37937937937943,696.6516 418.40740740740745,696.6516 419.43543543543547,696.6516 420.4634634634635,696.6516 421.4914914914915,697.356 422.5195195195195,696.6516 423.5475475475476,696.6516 424.5755755755756,696.6516 425.60360360360363,696.6516 426.63163163163165,696.6516 427.65965965965967,696.6516 428.68768768768774,696.6516 429.71571571571576,696.6516 430.7437437437438,696.6516 431.7717717717718,696.6516 432.28578578578583,698.0604 432.7997997997998,696.6516 433.82782782782783,696.6516 434.8558558558559,696.6516 435.8838838838839,696.6516 436.91191191191194,696.6516 437.93993993993996,696.6516 438.967967967968,696.6516 439.995995995996,697.356 441.0240240240241,696.6516 442.0520520520521,696.6516 443.0800800800801,696.6516 444.1081081081081,696.6516 445.13613613613614,696.6516 446.1641641641642,696.6516 447.19219219219224,696.6516 448.22022022022026,696.6516 449.2482482482483,698.0604 450.2762762762763,696.6516 451.3043043043043,696.6516 452.3323323323324,696.6516 453.3603603603604,696.6516 454.3883883883884,696.6516 455.41641641641644,696.6516 456.44444444444446,696.6516 457.4724724724725,696.6516 458.50050050050055,696.6516 459.52852852852857,697.356 460.5565565565566,697.356 461.5845845845846,697.356 462.6126126126126,697.356 463.64064064064064,697.356 464.1546546546547,698.7647999999999 465.1826826826827,698.7647999999999 466.2107107107107,698.7647999999999 467.2387387387388,698.7647999999999 468.2667667667668,698.7647999999999 469.2947947947948,698.7647999999999 470.32282282282284,698.7647999999999 471.35085085085086,698.7647999999999 472.3788788788789,699.4692 473.40690690690695,699.4692 474.434934934935,700.1736 475.462962962963,699.4692 476.490990990991,699.4692 477.00500500500505,700.8779999999999 477.519019019019,699.4692 478.5470470470471,699.4692 479.5750750750751,699.4692 480.60310310310314,699.4692 481.63113113113116,700.1736 482.6591591591592,700.8779999999999 483.1731731731732,699.4692 484.20120120120123,699.4692 485.22922922922925,699.4692 486.25725725725727,699.4692 487.28528528528534,699.4692 488.31331331331336,699.4692 489.3413413413414,699.4692 490.3693693693694,699.4692 491.3973973973974,699.4692 492.42542542542543,699.4692 493.4534534534535,699.4692 494.4814814814815,699.4692 495.50950950950954,699.4692 496.53753753753756,699.4692 497.5655655655656,699.4692 498.5935935935936,699.4692 499.62162162162167,699.4692 500.6496496496497,699.4692 501.6776776776777,699.4692 502.7057057057057,699.4692 503.73373373373374,699.4692 504.7617617617618,699.4692 505.78978978978984,699.4692 506.81781781781785,699.4692 507.8458458458459,699.4692 508.8738738738739,699.4692 509.9019019019019,699.4692 510.92992992993,699.4692 511.957957957958,699.4692 512.985985985986,699.4692" style="fill: none; stroke: rgb(244, 164, 96); stroke-width: 3px; stroke-opacity: 1;"></polyline><polyline id="SvgjsPolyline1407" points="0,528.3 0.514014014014014,677.6328 1.028028028028028,694.5384 1.5420420420420422,701.5824 2.056056056056056,703.6956 3.0840840840840844,704.4 4.112112112112112,704.4 5.14014014014014,704.4 6.168168168168169,704.4 7.196196196196197,704.4 8.224224224224224,704.4 9.252252252252253,704.4 10.28028028028028,704.4 11.308308308308309,704.4 12.336336336336338,704.4 13.364364364364365,704.4 14.392392392392393,704.4 15.420420420420422,704.4 16.44844844844845,704.4 17.476476476476478,704.4 18.504504504504506,704.4 19.532532532532535,704.4 20.56056056056056,704.4 21.58858858858859,704.4 22.616616616616618,704.4 23.644644644644647,704.4 24.672672672672675,704.4 25.700700700700704,704.4 26.72872872872873,704.4 27.756756756756758,704.4 28.784784784784787,704.4 29.812812812812815,704.4 30.840840840840844,704.4 31.86886886886887,704.4 32.8968968968969,704.4 33.92492492492493,704.4 34.952952952952955,704.4 35.98098098098098,704.4 37.00900900900901,704.4 38.03703703703704,704.4 39.06506506506507,704.4 40.093093093093096,704.4 41.12112112112112,704.4 42.14914914914915,704.4 43.17717717717718,704.4 44.20520520520521,704.4 45.233233233233236,704.4 46.26126126126126,704.4 47.28928928928929,704.4 48.31731731731732,704.4 49.34534534534535,704.4 50.373373373373376,704.4 51.40140140140141,704.4 52.42942942942943,704.4 53.45745745745746,704.4 54.48548548548549,704.4 55.513513513513516,704.4 56.54154154154155,704.4 57.56956956956957,704.4 58.5975975975976,704.4 59.62562562562563,704.4 60.653653653653656,704.4 61.68168168168169,704.4 62.70970970970971,704.4 63.73773773773774,704.4 64.76576576576576,704.4 65.7937937937938,704.4 66.82182182182183,704.4 67.84984984984986,704.4 68.87787787787788,704.4 69.90590590590591,704.4 70.93393393393394,704.4 71.96196196196196,704.4 72.98998998999,704.4 74.01801801801803,704.4 75.04604604604604,704.4 76.07407407407408,704.4 77.10210210210211,704.4 78.13013013013014,704.4 79.15815815815816,704.4 80.18618618618619,704.4 81.21421421421422,704.4 82.24224224224224,704.4 83.27027027027027,704.4 84.2982982982983,704.4 85.32632632632634,704.4 86.35435435435436,704.4 87.38238238238239,704.4 88.41041041041042,704.4 89.43843843843844,704.4 90.46646646646647,704.4 91.4944944944945,704.4 92.52252252252252,704.4 93.55055055055055,704.4 94.57857857857859,704.4 95.60660660660662,704.4 96.63463463463464,704.4 97.66266266266267,704.4 98.6906906906907,704.4 99.71871871871872,704.4 100.74674674674675,704.4 101.77477477477478,704.4 102.80280280280282,704.4 103.83083083083083,704.4 104.85885885885887,704.4 105.8868868868869,704.4 106.91491491491492,704.4 107.94294294294295,704.4 108.97097097097098,704.4 109.998998998999,704.4 111.02702702702703,704.4 112.05505505505506,704.4 113.0830830830831,704.4 114.11111111111111,704.4 115.13913913913915,704.4 116.16716716716718,704.4 117.1951951951952,704.4 118.22322322322323,704.4 119.25125125125126,704.4 120.27927927927928,704.4 121.30730730730731,704.4 122.33533533533534,704.4 123.36336336336338,704.4 124.3913913913914,704.4 125.41941941941943,704.4 126.44744744744746,704.4 127.47547547547548,704.4 128.5035035035035,704.4 129.53153153153153,704.4 130.55955955955957,704.4 131.5875875875876,704.4 132.6156156156156,704.4 133.64364364364366,704.4 134.67167167167167,704.4 135.69969969969972,704.4 136.72772772772774,704.4 137.75575575575576,704.4 138.7837837837838,704.4 139.81181181181182,704.4 140.83983983983984,704.4 141.8678678678679,704.4 142.8958958958959,704.4 143.92392392392392,704.4 144.95195195195197,704.4 145.97997997998,704.4 147.008008008008,704.4 148.03603603603605,704.4 149.06406406406407,704.4 150.0920920920921,704.4 151.12012012012013,704.4 152.14814814814815,704.4 153.1761761761762,704.4 154.20420420420422,704.4 155.23223223223223,704.4 156.26026026026028,704.4 157.2882882882883,704.4 158.31631631631632,704.4 159.34434434434436,704.4 160.37237237237238,704.4 161.4004004004004,704.4 162.42842842842845,704.4 163.45645645645646,704.4 164.48448448448448,704.4 165.51251251251253,704.4 166.54054054054055,704.4 167.56856856856857,704.4 168.5965965965966,704.4 169.62462462462463,704.4 170.65265265265268,704.4 171.6806806806807,704.4 172.7087087087087,704.4 173.73673673673676,704.4 174.76476476476478,704.4 175.7927927927928,704.4 176.82082082082084,704.4 177.84884884884886,704.4 178.87687687687688,704.4 179.90490490490492,704.4 180.93293293293294,704.4 181.96096096096096,704.4 182.988988988989,704.4 184.01701701701703,704.4 185.04504504504504,704.4 186.0730730730731,704.4 187.1011011011011,704.4 188.12912912912915,704.4 189.15715715715717,704.4 190.1851851851852,704.4 191.21321321321324,704.4 192.24124124124126,704.4 193.26926926926927,704.4 194.29729729729732,704.4 195.32532532532534,704.4 196.35335335335336,704.4 197.3813813813814,704.4 198.40940940940942,704.4 199.43743743743744,704.4 200.46546546546548,704.4 201.4934934934935,704.4 202.52152152152152,704.4 203.54954954954957,704.4 204.57757757757759,704.4 205.60560560560563,704.4 206.63363363363365,704.4 207.66166166166167,704.4 208.68968968968971,704.4 209.71771771771773,704.4 210.74574574574575,704.4 211.7737737737738,704.4 212.80180180180182,704.4 213.82982982982983,704.4 214.85785785785788,704.4 215.8858858858859,704.4 216.91391391391392,704.4 217.94194194194196,704.4 218.96996996996998,704.4 219.997997997998,704.4 221.02602602602605,704.4 222.05405405405406,704.4 223.0820820820821,704.4 224.11011011011013,704.4 225.13813813813815,704.4 226.1661661661662,704.4 227.1941941941942,704.4 228.22222222222223,704.4 229.25025025025028,704.4 230.2782782782783,704.4 231.3063063063063,704.4 232.33433433433436,704.4 233.36236236236238,704.4 234.3903903903904,704.4 235.41841841841844,704.4 236.44644644644646,704.4 237.47447447447448,704.4 238.50250250250252,704.4 239.53053053053054,704.4 240.55855855855856,704.4 241.5865865865866,704.4 242.61461461461462,704.4 243.64264264264267,704.4 244.6706706706707,704.4 245.6986986986987,704.4 246.72672672672675,704.4 247.75475475475477,704.4 248.7827827827828,704.4 249.81081081081084,704.4 250.83883883883885,704.4 251.86686686686687,704.4 252.89489489489492,704.4 253.92292292292294,704.4 254.95095095095095,704.4 255.978978978979,704.4 257.007007007007,704.4 258.03503503503504,704.4 259.06306306306305,704.4 260.09109109109113,704.4 261.11911911911915,704.4 262.14714714714717,704.4 263.1751751751752,704.4 264.2032032032032,704.4 265.2312312312312,704.4 266.2592592592593,704.4 267.2872872872873,704.4 268.31531531531533,704.4 269.34334334334335,704.4 270.37137137137137,704.4 271.39939939939944,704.4 272.42742742742746,704.4 273.4554554554555,704.4 274.4834834834835,704.4 275.5115115115115,704.4 276.53953953953953,704.4 277.5675675675676,704.4 278.5955955955956,704.4 279.62362362362364,704.4 280.65165165165166,704.4 281.6796796796797,704.4 282.7077077077077,704.4 283.7357357357358,704.4 284.7637637637638,704.4 285.7917917917918,704.4 286.8198198198198,704.4 287.84784784784785,704.4 288.8758758758759,704.4 289.90390390390394,704.4 290.93193193193196,704.4 291.95995995996,704.4 292.987987987988,704.4 294.016016016016,704.4 295.0440440440441,704.4 296.0720720720721,704.4 297.1001001001001,704.4 298.12812812812814,704.4 299.15615615615616,704.4 300.1841841841842,704.4 301.21221221221225,704.4 302.24024024024027,704.4 303.2682682682683,704.4 304.2962962962963,704.4 305.3243243243243,704.4 306.3523523523524,704.4 307.3803803803804,704.4 308.40840840840843,704.4 309.43643643643645,704.4 310.46446446446447,704.4 311.4924924924925,704.4 312.52052052052056,704.4 313.5485485485486,704.4 314.5765765765766,704.4 315.6046046046046,704.4 316.63263263263264,704.4 317.66066066066065,704.4 318.6886886886887,704.4 319.71671671671675,704.4 320.74474474474476,704.4 321.7727727727728,704.4 322.8008008008008,704.4 323.8288288288289,704.4 324.8568568568569,704.4 325.8848848848849,704.4 326.91291291291293,704.4 327.94094094094095,704.4 328.96896896896897,704.4 329.99699699699704,704.4 331.02502502502506,704.4 332.0530530530531,704.4 333.0810810810811,704.4 334.1091091091091,704.4 335.13713713713713,704.4 336.1651651651652,704.4 337.1931931931932,704.4 338.22122122122124,704.4 339.24924924924926,704.4 340.2772772772773,704.4 341.30530530530535,704.4 342.33333333333337,704.4 343.3613613613614,704.4 344.3893893893894,704.4 345.4174174174174,704.4 346.44544544544544,704.4 347.4734734734735,704.4 348.50150150150154,704.4 349.52952952952955,704.4 350.5575575575576,704.4 351.5855855855856,704.4 352.6136136136136,704.4 353.6416416416417,704.4 354.6696696696697,704.4 355.6976976976977,704.4 356.72572572572574,704.4 357.75375375375376,704.4 358.78178178178183,704.4 359.80980980980985,704.4 360.83783783783787,704.4 361.8658658658659,704.4 362.8938938938939,704.4 363.9219219219219,704.4 364.94994994995,704.4 365.977977977978,704.4 367.00600600600603,704.4 368.03403403403405,704.4 369.06206206206207,704.4 370.0900900900901,704.4 371.11811811811816,704.4 372.1461461461462,704.4 373.1741741741742,704.4 374.2022022022022,704.4 375.23023023023023,704.4 376.2582582582583,704.4 377.2862862862863,704.4 378.31431431431434,704.4 379.34234234234236,704.4 380.3703703703704,704.4 381.3983983983984,704.4 382.4264264264265,704.4 383.4544544544545,704.4 384.4824824824825,704.4 385.5105105105105,704.4 386.53853853853855,704.4 387.56656656656656,704.4 388.59459459459464,704.4 389.62262262262266,704.4 390.6506506506507,704.4 391.6786786786787,704.4 392.7067067067067,704.4 393.7347347347348,704.4 394.7627627627628,704.4 395.7907907907908,704.4 396.81881881881884,704.4 397.84684684684686,704.4 398.8748748748749,704.4 399.90290290290295,704.4 400.93093093093097,704.4 401.958958958959,704.4 402.986986986987,704.4 404.015015015015,704.4 405.04304304304304,704.4 406.0710710710711,704.4 407.09909909909913,704.4 408.12712712712715,704.4 409.15515515515517,704.4 410.1831831831832,704.4 411.21121121121126,704.4 412.2392392392393,704.4 413.2672672672673,704.4 414.2952952952953,704.4 415.32332332332334,704.4 416.35135135135135,704.4 417.37937937937943,704.4 418.40740740740745,704.4 419.43543543543547,704.4 420.4634634634635,704.4 421.4914914914915,704.4 422.5195195195195,704.4 423.5475475475476,704.4 424.5755755755756,704.4 425.60360360360363,704.4 426.63163163163165,704.4 427.65965965965967,704.4 428.68768768768774,704.4 429.71571571571576,704.4 430.7437437437438,704.4 431.7717717717718,704.4 432.7997997997998,704.4 433.82782782782783,704.4 434.8558558558559,704.4 435.8838838838839,704.4 436.91191191191194,704.4 437.93993993993996,704.4 438.967967967968,704.4 439.995995995996,704.4 441.0240240240241,704.4 442.0520520520521,704.4 443.0800800800801,704.4 444.1081081081081,704.4 445.13613613613614,704.4 446.1641641641642,704.4 447.19219219219224,704.4 448.22022022022026,704.4 449.2482482482483,704.4 450.2762762762763,704.4 451.3043043043043,704.4 452.3323323323324,704.4 453.3603603603604,704.4 454.3883883883884,704.4 455.41641641641644,704.4 456.44444444444446,704.4 457.4724724724725,704.4 458.50050050050055,704.4 459.52852852852857,704.4 460.5565565565566,704.4 461.5845845845846,704.4 462.6126126126126,704.4 463.64064064064064,704.4 464.6686686686687,704.4 465.69669669669673,704.4 466.72472472472475,704.4 467.75275275275277,704.4 468.7807807807808,704.4 469.80880880880886,704.4 470.8368368368369,704.4 471.8648648648649,704.4 472.8928928928929,704.4 473.92092092092093,704.4 474.94894894894895,704.4 475.976976976977,704.4 477.00500500500505,704.4 478.03303303303306,704.4 479.0610610610611,704.4 480.0890890890891,704.4 481.1171171171171,704.4 482.1451451451452,704.4 483.1731731731732,704.4 484.20120120120123,704.4 485.22922922922925,704.4 486.25725725725727,704.4 487.28528528528534,704.4 488.31331331331336,704.4 489.3413413413414,704.4 490.3693693693694,704.4 491.3973973973974,704.4 492.42542542542543,704.4 493.4534534534535,704.4 494.4814814814815,704.4 495.50950950950954,704.4 496.53753753753756,704.4 497.5655655655656,704.4 498.5935935935936,704.4 499.62162162162167,704.4 500.6496496496497,704.4 501.6776776776777,704.4 502.7057057057057,704.4 503.73373373373374,704.4 504.7617617617618,704.4 505.78978978978984,704.4 506.81781781781785,704.4 507.8458458458459,704.4 508.8738738738739,704.4 509.9019019019019,704.4 510.92992992993,704.4 511.957957957958,704.4 512.985985985986,704.4" style="fill: none; stroke: rgb(85, 26, 139); stroke-width: 3px; stroke-opacity: 1;"></polyline><polyline id="SvgjsPolyline1408" points="0,493.08 0.514014014014014,593.8091999999999 1.028028028028028,610.7148 1.5420420420420422,638.1863999999999 2.056056056056056,655.092 2.57007007007007,661.4316 3.0840840840840844,668.4756 3.5980980980980983,671.2932 4.112112112112112,680.4504 4.626126126126127,683.9724 5.14014014014014,686.0856 5.6541541541541545,690.312 6.168168168168169,688.9032 6.682182182182182,695.9472 7.196196196196197,692.4252 8.224224224224224,696.6516 9.252252252252253,697.356 9.766266266266268,700.1736 10.28028028028028,698.7647999999999 10.794294294294295,697.356 11.822322322322323,696.6516 12.336336336336338,698.7647999999999 12.850350350350352,700.8779999999999 13.364364364364365,698.7647999999999 14.392392392392393,700.1736 15.420420420420422,698.0604 15.934434434434435,702.2868 16.44844844844845,698.7647999999999 16.962462462462465,700.1736 17.476476476476478,695.9472 17.99049049049049,698.7647999999999 19.01851851851852,700.8779999999999 20.046546546546548,700.1736 20.56056056056056,702.2868 21.58858858858859,700.1736 22.616616616616618,700.8779999999999 23.13063063063063,698.0604 23.644644644644647,701.5824 24.672672672672675,703.6956 25.186686686686688,702.2868 26.214714714714717,699.4692 26.72872872872873,700.8779999999999 27.756756756756758,699.4692 28.270770770770774,701.5824 29.2987987987988,702.2868 30.326826826826828,702.2868 30.840840840840844,703.6956 31.86886886886887,702.2868 32.38288288288288,704.4 32.8968968968969,702.2868 33.92492492492493,700.8779999999999 34.952952952952955,699.4692 35.98098098098098,703.6956 37.00900900900901,702.2868 37.52302302302302,703.6956 38.551051051051054,702.2868 39.06506506506507,703.6956 40.093093093093096,703.6956 41.12112112112112,704.4 41.63513513513514,702.9911999999999 42.66316316316317,702.9911999999999 43.691191191191194,703.6956 44.71921921921922,702.9911999999999 45.74724724724725,702.9911999999999 46.26126126126126,704.4 47.28928928928929,704.4 47.80330330330331,702.9911999999999 48.31731731731732,701.5824 49.34534534534535,700.1736 49.85935935935936,704.4 50.88738738738739,703.6956 51.91541541541542,704.4 52.42942942942943,702.2868 53.45745745745746,703.6956 54.48548548548549,704.4 55.513513513513516,704.4 56.54154154154155,703.6956 57.56956956956957,702.9911999999999 58.5975975975976,704.4 59.62562562562563,704.4 60.653653653653656,703.6956 61.68168168168169,702.9911999999999 62.70970970970971,703.6956 63.73773773773774,704.4 64.76576576576576,702.9911999999999 65.7937937937938,704.4 66.82182182182183,704.4 67.84984984984986,704.4 68.87787787787788,702.2868 69.3918918918919,703.6956 70.41991991991992,703.6956 71.44794794794795,704.4 72.47597597597598,704.4 73.504004004004,704.4 74.53203203203203,702.9911999999999 75.04604604604604,704.4 76.07407407407408,703.6956 77.10210210210211,702.9911999999999 78.13013013013014,704.4 78.64414414414415,702.9911999999999 79.67217217217218,704.4 80.7002002002002,704.4 81.21421421421422,701.5824 82.24224224224224,703.6956 83.27027027027027,704.4 84.2982982982983,702.9911999999999 85.32632632632634,702.2868 85.84034034034035,703.6956 86.86836836836838,704.4 87.8963963963964,704.4 88.92442442442443,702.9911999999999 89.95245245245246,702.2868 90.46646646646647,704.4 90.98048048048048,702.9911999999999 91.4944944944945,704.4 92.52252252252252,702.9911999999999 93.03653653653654,700.8779999999999 94.06456456456458,702.2868 94.57857857857859,704.4 95.60660660660662,704.4 96.63463463463464,704.4 97.66266266266267,702.9911999999999 98.17667667667668,704.4 98.6906906906907,702.9911999999999 99.20470470470471,704.4 99.71871871871872,702.9911999999999 100.74674674674675,702.2868 101.26076076076076,704.4 102.28878878878879,704.4 103.31681681681683,702.9911999999999 104.34484484484486,702.9911999999999 105.37287287287288,703.6956 106.40090090090091,704.4 107.42892892892894,703.6956 108.45695695695696,703.6956 109.48498498498499,704.4 110.51301301301302,704.4 111.54104104104105,704.4 112.56906906906907,704.4 113.5970970970971,704.4 114.62512512512514,704.4 115.65315315315316,704.4 116.68118118118119,704.4 117.70920920920922,704.4 118.73723723723724,704.4 119.76526526526527,704.4 120.7932932932933,704.4 121.82132132132134,704.4 122.84934934934935,704.4 123.87737737737739,704.4 124.90540540540542,704.4 125.93343343343344,704.4 126.96146146146147,704.4 127.9894894894895,704.4 129.01751751751752,702.9911999999999 129.53153153153153,704.4 130.55955955955957,704.4 131.5875875875876,704.4 132.6156156156156,704.4 133.64364364364366,704.4 134.67167167167167,704.4 135.69969969969972,704.4 136.72772772772774,704.4 137.75575575575576,704.4 138.7837837837838,704.4 139.81181181181182,704.4 140.83983983983984,704.4 141.8678678678679,704.4 142.8958958958959,704.4 143.92392392392392,702.9911999999999 144.43793793793796,704.4 145.46596596596598,702.9911999999999 145.97997997998,704.4 147.008008008008,704.4 148.03603603603605,704.4 149.06406406406407,704.4 150.0920920920921,704.4 151.12012012012013,704.4 152.14814814814815,704.4 153.1761761761762,704.4 154.20420420420422,704.4 155.23223223223223,704.4 156.26026026026028,704.4 157.2882882882883,704.4 158.31631631631632,704.4 159.34434434434436,704.4 160.37237237237238,704.4 161.4004004004004,704.4 162.42842842842845,704.4 163.45645645645646,704.4 164.48448448448448,704.4 165.51251251251253,704.4 166.54054054054055,704.4 167.56856856856857,704.4 168.5965965965966,703.6956 169.62462462462463,704.4 170.65265265265268,704.4 171.6806806806807,704.4 172.1946946946947,702.2868 172.7087087087087,703.6956 173.73673673673676,704.4 174.76476476476478,704.4 175.7927927927928,704.4 176.82082082082084,704.4 177.84884884884886,704.4 178.87687687687688,704.4 179.90490490490492,704.4 180.93293293293294,704.4 181.96096096096096,704.4 182.988988988989,704.4 184.01701701701703,704.4 185.04504504504504,704.4 186.0730730730731,704.4 187.1011011011011,702.9911999999999 188.12912912912915,704.4 189.15715715715717,704.4 190.1851851851852,704.4 191.21321321321324,704.4 192.24124124124126,704.4 193.26926926926927,704.4 194.29729729729732,703.6956 195.32532532532534,704.4 196.35335335335336,704.4 197.3813813813814,704.4 198.40940940940942,704.4 199.43743743743744,704.4 200.46546546546548,704.4 201.4934934934935,704.4 202.52152152152152,704.4 203.54954954954957,704.4 204.57757757757759,704.4 205.0915915915916,702.9911999999999 205.60560560560563,704.4 206.63363363363365,704.4 207.66166166166167,703.6956 208.68968968968971,703.6956 209.71771771771773,704.4 210.74574574574575,704.4 211.7737737737738,704.4 212.80180180180182,704.4 213.82982982982983,704.4 214.85785785785788,704.4 215.8858858858859,704.4 216.91391391391392,704.4 217.94194194194196,704.4 218.96996996996998,704.4 219.997997997998,704.4 221.02602602602605,704.4 222.05405405405406,704.4 223.0820820820821,704.4 224.11011011011013,704.4 225.13813813813815,704.4 226.1661661661662,704.4 227.1941941941942,704.4 228.22222222222223,704.4 229.25025025025028,704.4 230.2782782782783,704.4 231.3063063063063,704.4 232.33433433433436,704.4 233.36236236236238,704.4 234.3903903903904,704.4 235.41841841841844,704.4 236.44644644644646,704.4 237.47447447447448,704.4 238.50250250250252,704.4 239.53053053053054,704.4 240.55855855855856,704.4 241.5865865865866,704.4 242.61461461461462,704.4 243.64264264264267,704.4 244.6706706706707,704.4 245.6986986986987,704.4 246.72672672672675,704.4 247.75475475475477,703.6956 248.7827827827828,703.6956 249.81081081081084,703.6956 250.83883883883885,704.4 251.86686686686687,704.4 252.89489489489492,704.4 253.92292292292294,704.4 254.95095095095095,704.4 255.978978978979,704.4 257.007007007007,704.4 258.03503503503504,704.4 259.06306306306305,704.4 260.09109109109113,704.4 261.11911911911915,703.6956 262.14714714714717,704.4 263.1751751751752,702.2868 264.2032032032032,703.6956 265.2312312312312,703.6956 266.2592592592593,704.4 267.2872872872873,704.4 268.31531531531533,704.4 269.34334334334335,704.4 270.37137137137137,704.4 271.39939939939944,704.4 272.42742742742746,703.6956 273.4554554554555,703.6956 274.4834834834835,704.4 275.5115115115115,704.4 276.53953953953953,704.4 277.5675675675676,704.4 278.5955955955956,704.4 279.62362362362364,704.4 280.65165165165166,704.4 281.6796796796797,704.4 282.7077077077077,704.4 283.7357357357358,704.4 284.7637637637638,704.4 285.7917917917918,704.4 286.8198198198198,704.4 287.84784784784785,704.4 288.8758758758759,704.4 289.90390390390394,704.4 290.93193193193196,704.4 291.95995995996,704.4 292.987987987988,704.4 294.016016016016,704.4 295.0440440440441,703.6956 296.0720720720721,704.4 297.1001001001001,704.4 298.12812812812814,704.4 299.15615615615616,704.4 300.1841841841842,704.4 301.21221221221225,704.4 302.24024024024027,704.4 303.2682682682683,704.4 304.2962962962963,704.4 305.3243243243243,704.4 306.3523523523524,704.4 307.3803803803804,704.4 308.40840840840843,704.4 309.43643643643645,704.4 310.46446446446447,704.4 311.4924924924925,704.4 312.52052052052056,704.4 313.5485485485486,704.4 314.5765765765766,704.4 315.6046046046046,704.4 316.63263263263264,704.4 317.66066066066065,704.4 318.6886886886887,704.4 319.71671671671675,704.4 320.74474474474476,704.4 321.7727727727728,704.4 322.8008008008008,704.4 323.8288288288289,704.4 324.8568568568569,704.4 325.8848848848849,704.4 326.91291291291293,704.4 327.94094094094095,704.4 328.96896896896897,704.4 329.99699699699704,704.4 331.02502502502506,704.4 332.0530530530531,704.4 333.0810810810811,704.4 334.1091091091091,704.4 335.13713713713713,704.4 336.1651651651652,704.4 337.1931931931932,704.4 338.22122122122124,703.6956 339.24924924924926,702.9911999999999 339.7632632632633,704.4 340.7912912912913,704.4 341.81931931931933,704.4 342.84734734734735,704.4 343.87537537537537,703.6956 344.90340340340344,704.4 345.93143143143146,704.4 346.9594594594595,704.4 347.9874874874875,704.4 349.0155155155155,704.4 350.0435435435436,704.4 351.0715715715716,704.4 352.0995995995996,704.4 353.12762762762765,704.4 354.15565565565566,704.4 355.1836836836837,704.4 356.21171171171176,704.4 357.2397397397398,704.4 358.2677677677678,704.4 359.2957957957958,704.4 360.32382382382383,704.4 361.35185185185185,704.4 362.3798798798799,704.4 363.40790790790794,703.6956 364.43593593593596,704.4 365.463963963964,704.4 366.491991991992,704.4 367.52002002002007,704.4 368.5480480480481,704.4 369.5760760760761,704.4 370.6041041041041,704.4 371.63213213213214,704.4 372.66016016016016,704.4 373.68818818818824,704.4 374.71621621621625,704.4 375.74424424424427,704.4 376.7722722722723,704.4 377.8003003003003,704.4 378.8283283283283,704.4 379.8563563563564,704.4 380.8843843843844,704.4 381.91241241241244,702.9911999999999 382.94044044044045,702.9911999999999 383.9684684684685,704.4 384.99649649649655,704.4 386.02452452452457,703.6956 387.0525525525526,702.9911999999999 388.0805805805806,703.6956 389.1086086086086,704.4 390.13663663663664,704.4 391.1646646646647,704.4 392.19269269269273,703.6956 393.22072072072075,703.6956 394.24874874874877,703.6956 395.2767767767768,703.6956 396.3048048048048,704.4 397.3328328328329,704.4 398.3608608608609,704.4 399.3888888888889,704.4 400.41691691691693,704.4 400.93093093093097,702.9911999999999 401.44494494494495,704.4 402.472972972973,704.4 403.50100100100104,704.4 404.52902902902906,704.4 405.5570570570571,704.4 406.5850850850851,704.4 407.6131131131131,704.4 408.6411411411412,704.4 409.6691691691692,704.4 410.6971971971972,704.4 411.72522522522524,704.4 412.75325325325326,702.9911999999999 413.7812812812813,704.4 414.80930930930936,704.4 415.8373373373374,704.4 416.8653653653654,703.6956 417.8933933933934,704.4 418.9214214214214,703.6956 419.9494494494495,703.6956 420.9774774774775,704.4 422.00550550550554,704.4 423.03353353353356,704.4 424.0615615615616,704.4 425.0895895895896,704.4 426.11761761761767,704.4 427.1456456456457,704.4 428.1736736736737,704.4 429.2017017017017,704.4 430.22972972972974,703.6956 431.25775775775776,704.4 432.28578578578583,704.4 433.31381381381385,704.4 434.34184184184187,704.4 434.8558558558559,702.9911999999999 435.8838838838839,702.9911999999999 436.3978978978979,704.4 437.425925925926,704.4 438.453953953954,704.4 439.481981981982,703.6956 440.51001001001003,703.6956 441.53803803803805,702.9911999999999 442.56606606606607,704.4 443.59409409409415,704.4 444.62212212212216,704.4 445.6501501501502,704.4 446.6781781781782,703.6956 447.7062062062062,704.4 448.73423423423424,704.4 449.2482482482483,702.2868 450.2762762762763,702.2868 451.3043043043043,702.9911999999999 451.81831831831835,704.4 452.84634634634637,703.6956 453.8743743743744,704.4 454.9024024024024,704.4 455.9304304304305,704.4 456.9584584584585,702.9911999999999 457.9864864864865,703.6956 459.01451451451453,704.4 460.04254254254255,704.4 461.0705705705706,704.4 462.09859859859864,704.4 463.12662662662666,704.4 464.1546546546547,704.4 465.1826826826827,704.4 466.2107107107107,704.4 467.2387387387388,704.4 468.2667667667668,704.4 469.2947947947948,704.4 470.32282282282284,704.4 471.35085085085086,704.4 472.3788788788789,704.4 473.40690690690695,704.4 474.434934934935,704.4 475.462962962963,702.9911999999999 476.490990990991,702.9911999999999 477.00500500500505,704.4 478.03303303303306,704.4 479.0610610610611,704.4 480.0890890890891,704.4 481.1171171171171,704.4 482.1451451451452,704.4 483.1731731731732,703.6956 484.20120120120123,704.4 485.22922922922925,704.4 486.25725725725727,704.4 486.7712712712713,702.9911999999999 487.7992992992993,702.9911999999999 488.82732732732734,702.9911999999999 489.85535535535536,702.9911999999999 490.3693693693694,704.4 491.3973973973974,703.6956 492.42542542542543,702.9911999999999 493.4534534534535,703.6956 494.4814814814815,703.6956 495.50950950950954,704.4 496.53753753753756,704.4 497.5655655655656,704.4 498.5935935935936,704.4 499.62162162162167,704.4 500.6496496496497,704.4 501.6776776776777,704.4 502.7057057057057,704.4 503.73373373373374,704.4 504.7617617617618,704.4 505.78978978978984,704.4 506.81781781781785,704.4 507.8458458458459,704.4 508.8738738738739,704.4 509.9019019019019,704.4 510.92992992993,704.4 511.957957957958,704.4 512.985985985986,704.4" style="fill: none; stroke: rgb(21, 191, 67); stroke-width: 3px; stroke-opacity: 1;"></polyline><polyline id="SvgjsPolyline1409" points="0,0 0.514014014014014,2.8175999999999704 1.028028028028028,10.566000000000031 1.5420420420420422,17.610000000000014 2.056056056056056,39.446399999999926 2.57007007007007,64.80479999999989 3.0840840840840844,81.71039999999994 3.5980980980980983,92.27639999999997 4.112112112112112,102.13800000000003 4.626126126126127,107.77320000000009 5.14014014014014,113.40839999999992 5.6541541541541545,123.97439999999995 6.682182182182182,126.08760000000007 7.196196196196197,131.01840000000004 7.710210210210211,135.24479999999994 8.224224224224224,138.7668 8.738238238238239,140.17560000000014 9.252252252252253,142.9932 9.766266266266268,145.81079999999997 10.28028028028028,150.74160000000006 11.308308308308309,152.85479999999995 11.822322322322323,156.3768 12.336336336336338,157.78560000000004 12.850350350350352,159.1944000000001 13.364364364364365,164.8295999999999 13.878378378378379,167.6472 14.906406406406408,168.35159999999996 15.420420420420422,170.46480000000008 16.44844844844845,170.46480000000008 17.476476476476478,171.16919999999993 18.504504504504506,172.57799999999997 19.532532532532535,173.28240000000005 20.56056056056056,174.69119999999998 21.58858858858859,174.69119999999998 22.616616616616618,175.39559999999994 23.13063063063063,176.8044 24.15865865865866,176.8044 25.186686686686688,176.8044 25.700700700700704,178.21320000000014 26.72872872872873,178.21320000000014 27.756756756756758,178.21320000000014 28.784784784784787,178.21320000000014 29.812812812812815,178.9176 30.840840840840844,179.62199999999996 31.86886886886887,179.62199999999996 32.8968968968969,181.0308 33.92492492492493,181.73519999999996 34.952952952952955,181.73519999999996 35.46696696696697,183.144 36.494994994995,183.144 37.52302302302302,183.84840000000008 38.551051051051054,183.84840000000008 39.57907907907908,183.84840000000008 40.60710710710711,184.55280000000005 41.63513513513514,184.55280000000005 42.66316316316317,185.2572 43.691191191191194,185.2572 44.71921921921922,185.2572 45.74724724724725,185.2572 46.77527527527528,185.2572 47.80330330330331,185.2572 48.831331331331334,185.2572 49.85935935935936,186.66600000000005 50.88738738738739,188.07479999999998 51.91541541541542,188.07479999999998 52.94344344344345,188.07479999999998 53.971471471471475,188.77919999999995 54.9994994994995,188.77919999999995 56.02752752752753,188.77919999999995 57.05555555555556,189.4835999999998 58.08358358358359,190.188 59.111611611611615,190.188 60.13963963963964,190.188 61.16766766766767,190.188 62.1956956956957,190.188 63.22372372372373,190.188 63.73773773773774,191.59680000000003 64.76576576576576,191.59680000000003 65.7937937937938,193.00559999999996 66.82182182182183,193.00559999999996 67.84984984984986,193.00559999999996 68.87787787787788,193.00559999999996 69.90590590590591,193.00559999999996 70.93393393393394,193.00559999999996 71.96196196196196,193.00559999999996 72.98998998999,193.70999999999998 74.01801801801803,193.70999999999998 75.04604604604604,193.70999999999998 76.07407407407408,193.70999999999998 77.10210210210211,193.70999999999998 78.13013013013014,193.70999999999998 79.15815815815816,193.70999999999998 80.18618618618619,193.70999999999998 81.21421421421422,194.41439999999994 82.24224224224224,194.41439999999994 83.27027027027027,194.41439999999994 84.2982982982983,194.41439999999994 85.32632632632634,194.41439999999994 86.35435435435436,196.52759999999995 87.38238238238239,196.52759999999995 88.41041041041042,196.52759999999995 89.43843843843844,196.52759999999995 90.46646646646647,196.52759999999995 91.4944944944945,197.23200000000003 92.52252252252252,197.23200000000003 93.55055055055055,197.23200000000003 94.57857857857859,197.23200000000003 95.60660660660662,197.23200000000003 96.63463463463464,197.23200000000003 97.66266266266267,197.23200000000003 98.6906906906907,197.23200000000003 99.71871871871872,197.23200000000003 100.74674674674675,197.23200000000003 101.77477477477478,197.23200000000003 102.80280280280282,197.23200000000003 103.83083083083083,197.23200000000003 104.85885885885887,197.23200000000003 105.8868868868869,197.23200000000003 106.91491491491492,197.23200000000003 107.94294294294295,197.23200000000003 108.97097097097098,197.23200000000003 109.998998998999,197.23200000000003 111.02702702702703,197.23200000000003 112.05505505505506,197.23200000000003 113.0830830830831,197.23200000000003 114.11111111111111,197.23200000000003 115.13913913913915,197.23200000000003 116.16716716716718,197.23200000000003 117.1951951951952,197.23200000000003 118.22322322322323,197.23200000000003 119.25125125125126,197.23200000000003 120.27927927927928,197.93640000000016 121.30730730730731,197.93640000000016 122.33533533533534,197.93640000000016 123.36336336336338,197.93640000000016 124.3913913913914,197.93640000000016 124.90540540540542,199.34519999999998 125.93343343343344,199.34519999999998 126.96146146146147,199.34519999999998 127.9894894894895,199.34519999999998 129.01751751751752,199.34519999999998 130.04554554554556,200.04960000000005 131.07357357357358,200.04960000000005 132.1016016016016,200.04960000000005 133.12962962962965,200.04960000000005 134.15765765765767,200.04960000000005 135.18568568568568,200.04960000000005 136.21371371371373,200.04960000000005 137.24174174174175,200.04960000000005 138.26976976976977,200.04960000000005 139.2977977977978,200.04960000000005 140.32582582582583,200.04960000000005 141.35385385385385,200.04960000000005 142.3818818818819,200.04960000000005 142.8958958958959,201.45840000000004 143.92392392392392,201.45840000000004 144.95195195195197,201.45840000000004 145.97997997998,201.45840000000004 147.008008008008,201.45840000000004 148.03603603603605,201.45840000000004 149.06406406406407,201.45840000000004 150.0920920920921,201.45840000000004 151.12012012012013,201.45840000000004 152.14814814814815,201.45840000000004 153.1761761761762,201.45840000000004 154.20420420420422,201.45840000000004 155.23223223223223,201.45840000000004 156.26026026026028,201.45840000000004 157.2882882882883,201.45840000000004 158.31631631631632,201.45840000000004 159.34434434434436,201.45840000000004 160.37237237237238,201.45840000000004 161.4004004004004,201.45840000000004 162.42842842842845,201.45840000000004 163.45645645645646,201.45840000000004 164.48448448448448,201.45840000000004 165.51251251251253,201.45840000000004 166.02652652652654,202.86719999999997 167.05455455455456,202.86719999999997 168.0825825825826,202.86719999999997 169.11061061061062,202.86719999999997 170.13863863863864,202.86719999999997 171.16666666666669,202.86719999999997 172.1946946946947,202.86719999999997 173.22272272272272,203.57159999999993 174.25075075075077,203.57159999999993 175.2787787787788,203.57159999999993 176.3068068068068,203.57159999999993 177.33483483483485,203.57159999999993 178.36286286286287,203.57159999999993 179.39089089089092,203.57159999999993 180.41891891891893,203.57159999999993 181.44694694694695,203.57159999999993 182.474974974975,203.57159999999993 183.50300300300302,203.57159999999993 184.53103103103103,203.57159999999993 185.55905905905908,203.57159999999993 186.5870870870871,203.57159999999993 187.61511511511512,203.57159999999993 188.64314314314316,203.57159999999993 189.67117117117118,203.57159999999993 190.6991991991992,203.57159999999993 191.72722722722725,203.57159999999993 192.75525525525526,203.57159999999993 193.78328328328328,203.57159999999993 194.81131131131133,203.57159999999993 195.83933933933935,203.57159999999993 196.8673673673674,203.57159999999993 197.8953953953954,203.57159999999993 198.92342342342343,203.57159999999993 199.95145145145148,203.57159999999993 200.9794794794795,203.57159999999993 202.0075075075075,203.57159999999993 203.03553553553556,203.57159999999993 204.06356356356358,203.57159999999993 205.0915915915916,203.57159999999993 206.11961961961964,203.57159999999993 207.14764764764766,203.57159999999993 208.17567567567568,203.57159999999993 209.20370370370372,203.57159999999993 210.23173173173174,203.57159999999993 211.25975975975976,203.57159999999993 212.2877877877878,203.57159999999993 213.31581581581582,203.57159999999993 214.34384384384387,203.57159999999993 215.3718718718719,203.57159999999993 216.3998998998999,203.57159999999993 217.42792792792795,203.57159999999993 218.45595595595597,203.57159999999993 219.483983983984,203.57159999999993 220.51201201201204,203.57159999999993 221.54004004004005,203.57159999999993 222.56806806806807,203.57159999999993 223.59609609609612,203.57159999999993 224.62412412412414,203.57159999999993 225.65215215215215,203.57159999999993 226.6801801801802,203.57159999999993 227.70820820820822,203.57159999999993 228.73623623623624,203.57159999999993 229.76426426426428,203.57159999999993 230.7922922922923,203.57159999999993 231.82032032032032,203.57159999999993 232.84834834834837,203.57159999999993 233.87637637637638,203.57159999999993 234.90440440440443,203.57159999999993 235.93243243243245,203.57159999999993 236.96046046046047,203.57159999999993 237.9884884884885,203.57159999999993 239.01651651651653,203.57159999999993 240.04454454454455,203.57159999999993 241.0725725725726,203.57159999999993 242.10060060060061,203.57159999999993 243.12862862862863,203.57159999999993 244.15665665665668,203.57159999999993 245.1846846846847,203.57159999999993 246.21271271271272,203.57159999999993 247.24074074074076,203.57159999999993 248.26876876876878,203.57159999999993 249.2967967967968,203.57159999999993 250.32482482482484,203.57159999999993 251.35285285285286,203.57159999999993 252.3808808808809,203.57159999999993 253.40890890890893,203.57159999999993 254.43693693693695,203.57159999999993 255.464964964965,203.57159999999993 256.492992992993,203.57159999999993 257.52102102102106,203.57159999999993 258.5490490490491,203.57159999999993 259.5770770770771,203.57159999999993 260.6051051051051,203.57159999999993 261.63313313313313,203.57159999999993 262.6611611611612,203.57159999999993 263.6891891891892,203.57159999999993 264.71721721721724,203.57159999999993 265.74524524524526,203.57159999999993 266.7732732732733,203.57159999999993 267.8013013013013,203.57159999999993 268.82932932932937,203.57159999999993 269.8573573573574,203.57159999999993 270.8853853853854,203.57159999999993 271.9134134134134,203.57159999999993 272.94144144144144,203.57159999999993 273.96946946946946,203.57159999999993 274.99749749749753,203.57159999999993 276.02552552552555,203.57159999999993 277.05355355355357,203.57159999999993 278.0815815815816,203.57159999999993 279.1096096096096,203.57159999999993 280.1376376376377,203.57159999999993 281.1656656656657,203.57159999999993 282.1936936936937,203.57159999999993 283.22172172172174,203.57159999999993 284.24974974974975,203.57159999999993 285.27777777777777,203.57159999999993 286.30580580580585,203.57159999999993 287.33383383383386,203.57159999999993 288.3618618618619,203.57159999999993 289.3898898898899,203.57159999999993 290.4179179179179,203.57159999999993 291.44594594594594,203.57159999999993 292.473973973974,203.57159999999993 293.50200200200203,203.57159999999993 294.53003003003005,203.57159999999993 295.55805805805807,203.57159999999993 296.5860860860861,203.57159999999993 297.61411411411416,203.57159999999993 298.6421421421422,203.57159999999993 299.6701701701702,203.57159999999993 300.6981981981982,203.57159999999993 301.72622622622623,203.57159999999993 302.75425425425425,203.57159999999993 303.7822822822823,203.57159999999993 304.81031031031034,203.57159999999993 305.83833833833836,203.57159999999993 306.8663663663664,203.57159999999993 307.8943943943944,203.57159999999993 308.9224224224224,203.57159999999993 309.9504504504505,203.57159999999993 310.9784784784785,203.57159999999993 312.0065065065065,203.57159999999993 313.03453453453454,203.57159999999993 314.06256256256256,203.57159999999993 315.09059059059064,203.57159999999993 316.11861861861865,203.57159999999993 317.1466466466467,203.57159999999993 318.1746746746747,203.57159999999993 319.2027027027027,203.57159999999993 320.2307307307307,203.57159999999993 321.2587587587588,203.57159999999993 322.2867867867868,203.57159999999993 323.31481481481484,203.57159999999993 324.34284284284286,203.57159999999993 325.3708708708709,203.57159999999993 326.3988988988989,203.57159999999993 327.42692692692697,203.57159999999993 328.454954954955,203.57159999999993 329.482982982983,203.57159999999993 330.511011011011,203.57159999999993 331.53903903903904,203.57159999999993 332.5670670670671,203.57159999999993 333.59509509509513,203.57159999999993 334.62312312312315,203.57159999999993 335.65115115115117,203.57159999999993 336.6791791791792,203.57159999999993 337.7072072072072,203.57159999999993 338.7352352352353,203.57159999999993 339.7632632632633,203.57159999999993 340.7912912912913,203.57159999999993 341.81931931931933,203.57159999999993 342.84734734734735,203.57159999999993 343.87537537537537,203.57159999999993 344.90340340340344,203.57159999999993 345.93143143143146,203.57159999999993 346.9594594594595,203.57159999999993 347.9874874874875,203.57159999999993 349.0155155155155,203.57159999999993 350.0435435435436,203.57159999999993 351.0715715715716,203.57159999999993 352.0995995995996,203.57159999999993 353.12762762762765,203.57159999999993 354.15565565565566,203.57159999999993 355.1836836836837,203.57159999999993 356.21171171171176,203.57159999999993 357.2397397397398,203.57159999999993 358.2677677677678,203.57159999999993 359.2957957957958,203.57159999999993 360.32382382382383,203.57159999999993 361.35185185185185,203.57159999999993 362.3798798798799,203.57159999999993 363.40790790790794,203.57159999999993 364.43593593593596,203.57159999999993 365.463963963964,203.57159999999993 366.491991991992,203.57159999999993 367.52002002002007,203.57159999999993 368.5480480480481,203.57159999999993 369.5760760760761,203.57159999999993 370.6041041041041,203.57159999999993 371.63213213213214,203.57159999999993 372.66016016016016,203.57159999999993 373.68818818818824,203.57159999999993 374.71621621621625,203.57159999999993 375.74424424424427,203.57159999999993 376.7722722722723,203.57159999999993 377.8003003003003,203.57159999999993 378.8283283283283,203.57159999999993 379.8563563563564,203.57159999999993 380.8843843843844,203.57159999999993 381.91241241241244,203.57159999999993 382.94044044044045,203.57159999999993 383.9684684684685,203.57159999999993 384.99649649649655,203.57159999999993 386.02452452452457,203.57159999999993 387.0525525525526,203.57159999999993 388.0805805805806,203.57159999999993 389.1086086086086,203.57159999999993 390.13663663663664,203.57159999999993 391.1646646646647,203.57159999999993 392.19269269269273,203.57159999999993 393.22072072072075,203.57159999999993 394.24874874874877,203.57159999999993 395.2767767767768,203.57159999999993 396.3048048048048,203.57159999999993 397.3328328328329,203.57159999999993 398.3608608608609,203.57159999999993 399.3888888888889,203.57159999999993 400.41691691691693,203.57159999999993 401.44494494494495,203.57159999999993 402.472972972973,203.57159999999993 403.50100100100104,203.57159999999993 404.52902902902906,203.57159999999993 405.5570570570571,203.57159999999993 406.5850850850851,203.57159999999993 407.6131131131131,203.57159999999993 408.6411411411412,203.57159999999993 409.6691691691692,203.57159999999993 410.6971971971972,203.57159999999993 411.72522522522524,203.57159999999993 412.75325325325326,203.57159999999993 413.7812812812813,203.57159999999993 414.80930930930936,203.57159999999993 415.8373373373374,203.57159999999993 416.8653653653654,203.57159999999993 417.8933933933934,203.57159999999993 418.9214214214214,203.57159999999993 419.9494494494495,203.57159999999993 420.9774774774775,203.57159999999993 422.00550550550554,203.57159999999993 423.03353353353356,203.57159999999993 424.0615615615616,203.57159999999993 425.0895895895896,203.57159999999993 426.11761761761767,203.57159999999993 427.1456456456457,203.57159999999993 428.1736736736737,203.57159999999993 429.2017017017017,203.57159999999993 430.22972972972974,203.57159999999993 431.25775775775776,203.57159999999993 432.28578578578583,203.57159999999993 433.31381381381385,203.57159999999993 434.34184184184187,203.57159999999993 435.3698698698699,203.57159999999993 436.3978978978979,203.57159999999993 437.425925925926,203.57159999999993 438.453953953954,203.57159999999993 439.481981981982,203.57159999999993 440.51001001001003,203.57159999999993 441.53803803803805,203.57159999999993 442.56606606606607,203.57159999999993 443.59409409409415,203.57159999999993 444.62212212212216,203.57159999999993 445.6501501501502,203.57159999999993 446.6781781781782,203.57159999999993 447.7062062062062,203.57159999999993 448.73423423423424,203.57159999999993 449.7622622622623,203.57159999999993 450.79029029029033,203.57159999999993 451.81831831831835,203.57159999999993 452.84634634634637,203.57159999999993 453.8743743743744,203.57159999999993 454.9024024024024,203.57159999999993 455.9304304304305,203.57159999999993 456.9584584584585,203.57159999999993 457.9864864864865,203.57159999999993 459.01451451451453,203.57159999999993 460.04254254254255,204.276 461.0705705705706,204.276 462.09859859859864,204.276 463.12662662662666,204.276 464.1546546546547,205.6848000000001 465.1826826826827,205.6848000000001 466.2107107107107,205.6848000000001 467.2387387387388,205.6848000000001 468.2667667667668,205.6848000000001 469.2947947947948,205.6848000000001 470.32282282282284,205.6848000000001 471.35085085085086,205.6848000000001 472.3788788788789,206.38920000000007 473.40690690690695,206.38920000000007 474.434934934935,206.38920000000007 475.462962962963,206.38920000000007 476.490990990991,206.38920000000007 477.519019019019,206.38920000000007 478.5470470470471,206.38920000000007 479.5750750750751,206.38920000000007 480.60310310310314,206.38920000000007 481.63113113113116,206.38920000000007 482.6591591591592,206.38920000000007 483.6871871871872,206.38920000000007 484.71521521521527,206.38920000000007 485.7432432432433,206.38920000000007 486.7712712712713,206.38920000000007 487.7992992992993,206.38920000000007 488.82732732732734,206.38920000000007 489.85535535535536,206.38920000000007 490.88338338338343,206.38920000000007 491.91141141141145,206.38920000000007 492.93943943943947,206.38920000000007 493.9674674674675,206.38920000000007 494.9954954954955,206.38920000000007 496.0235235235236,206.38920000000007 497.0515515515516,206.38920000000007 498.0795795795796,206.38920000000007 499.10760760760763,206.38920000000007 500.13563563563565,206.38920000000007 501.16366366366367,206.38920000000007 502.19169169169174,206.38920000000007 503.21971971971976,206.38920000000007 503.73373373373374,207.798 504.7617617617618,207.798 505.78978978978984,207.798 506.81781781781785,207.798 507.8458458458459,207.798 508.8738738738739,207.798 509.9019019019019,207.798 510.92992992993,207.798 511.957957957958,208.50239999999997 512.985985985986,208.50239999999997" style="fill: none; stroke: rgb(0, 0, 255); stroke-width: 3px; stroke-opacity: 1;"></polyline></g></svg></svg><svg id="SvgjsSvg1456" style="overflow: visible;" x="574.5"><svg xmlns="http://www.w3.org/2000/svg" version="1.1" xmlns:xlink="http://www.w3.org/1999/xlink" xmlns:svgjs="http://svgjs.com/svgjs" width="200" height="260"><line id="SvgjsLine1443" x1="15" y1="190" x2="170" y2="190" stroke="gray" stroke-width="0.3"></line><line id="SvgjsLine1435" x1="15" y1="140" x2="170" y2="140" stroke="gray" stroke-width="0.3"></line><line id="SvgjsLine1427" x1="15" y1="90" x2="170" y2="90" stroke="gray" stroke-width="0.3"></line><line id="SvgjsLine1419" x1="15" y1="40" x2="170" y2="40" stroke="gray" stroke-width="0.3"></line><defs id="SvgjsDefs1410"><clipPath id="SvgjsClipPath1418"><rect id="SvgjsRect1417" width="170" height="30"></rect></clipPath><clipPath id="SvgjsClipPath1426"><rect id="SvgjsRect1425" width="170" height="80"></rect></clipPath><clipPath id="SvgjsClipPath1434"><rect id="SvgjsRect1433" width="170" height="130"></rect></clipPath><clipPath id="SvgjsClipPath1442"><rect id="SvgjsRect1441" width="170" height="180"></rect></clipPath><clipPath id="SvgjsClipPath1450"><rect id="SvgjsRect1449" width="170" height="230"></rect></clipPath><clipPath id="SvgjsClipPath1453"><rect id="SvgjsRect1452" width="180" height="260"></rect></clipPath></defs><g id="SvgjsG1411" clip-path="url(&quot;#SvgjsClipPath1453&quot;)"><g id="SvgjsG1412" transform="matrix(1,0,0,1,5,0)"><rect id="SvgjsRect1413" width="170" height="30" fill="white" opacity="0.5"></rect><line id="SvgjsLine1414" x1="0" y1="0" x2="18" y2="18" stroke="#0000ff" stroke-width="3" transform="matrix(1,0,0,1,5,5)"></line><text id="SvgjsText1415" font-family="Arial, Helvetica, sans-serif" font-size="14" font-weight="400" family="Arial, Helvetica, sans-serif" size="14" weight="400" transform="matrix(1,0,0,1,40,0)" svgjs:data="{&quot;leading&quot;:&quot;1.3&quot;}"><tspan id="SvgjsTspan1416" dy="18.2" x="0" svgjs:data="{&quot;newLined&quot;:true}">REPORTER</tspan></text></g><g id="SvgjsG1420" transform="matrix(1,0,0,1,5,50)"><rect id="SvgjsRect1421" width="170" height="30" fill="white" opacity="0.5"></rect><line id="SvgjsLine1422" x1="0" y1="0" x2="18" y2="18" stroke="#15bf43" stroke-width="3" transform="matrix(1,0,0,1,5,5)"></line><text id="SvgjsText1423" font-family="Arial, Helvetica, sans-serif" font-size="14" font-weight="400" family="Arial, Helvetica, sans-serif" size="14" weight="400" transform="matrix(1,0,0,1,40,0)" svgjs:data="{&quot;leading&quot;:&quot;1.3&quot;}"><tspan id="SvgjsTspan1424" dy="18.2" x="0" svgjs:data="{&quot;newLined&quot;:true}">JOIN</tspan></text></g><g id="SvgjsG1428" transform="matrix(1,0,0,1,5,100)"><rect id="SvgjsRect1429" width="170" height="30" fill="white" opacity="0.5"></rect><line id="SvgjsLine1430" x1="0" y1="0" x2="18" y2="18" stroke="#551a8b" stroke-width="3" transform="matrix(1,0,0,1,5,5)"></line><text id="SvgjsText1431" font-family="Arial, Helvetica, sans-serif" font-size="14" font-weight="400" family="Arial, Helvetica, sans-serif" size="14" weight="400" transform="matrix(1,0,0,1,40,0)" svgjs:data="{&quot;leading&quot;:&quot;1.3&quot;}"><tspan id="SvgjsTspan1432" dy="18.2" x="0" svgjs:data="{&quot;newLined&quot;:true}">INPUT</tspan></text></g><g id="SvgjsG1436" transform="matrix(1,0,0,1,5,150)"><rect id="SvgjsRect1437" width="170" height="30" fill="white" opacity="0.5"></rect><line id="SvgjsLine1438" x1="0" y1="0" x2="18" y2="18" stroke="#f4a460" stroke-width="3" transform="matrix(1,0,0,1,5,5)"></line><text id="SvgjsText1439" font-family="Arial, Helvetica, sans-serif" font-size="14" font-weight="400" family="Arial, Helvetica, sans-serif" size="14" weight="400" transform="matrix(1,0,0,1,40,0)" svgjs:data="{&quot;leading&quot;:&quot;1.3&quot;}"><tspan id="SvgjsTspan1440" dy="18.2" x="0" svgjs:data="{&quot;newLined&quot;:true}">FORK</tspan></text></g><g id="SvgjsG1444" transform="matrix(1,0,0,1,5,200)"><rect id="SvgjsRect1445" width="170" height="30" fill="white" opacity="0.5"></rect><line id="SvgjsLine1446" x1="0" y1="0" x2="18" y2="18" stroke="#ff00ff" stroke-width="3" transform="matrix(1,0,0,1,5,5)"></line><text id="SvgjsText1447" font-family="Arial, Helvetica, sans-serif" font-size="14" font-weight="400" family="Arial, Helvetica, sans-serif" size="14" weight="400" transform="matrix(1,0,0,1,40,0)" svgjs:data="{&quot;leading&quot;:&quot;1.3&quot;}"><tspan id="SvgjsTspan1448" dy="18.2" x="0" svgjs:data="{&quot;newLined&quot;:true}">C</tspan></text></g></g></svg></svg></svg>